%TF.GenerationSoftware,KiCad,Pcbnew,8.0.2*%
%TF.CreationDate,2025-04-11T11:55:07+07:00*%
%TF.ProjectId,wearable_device,77656172-6162-46c6-955f-646576696365,rev?*%
%TF.SameCoordinates,Original*%
%TF.FileFunction,Copper,L4,Bot*%
%TF.FilePolarity,Positive*%
%FSLAX46Y46*%
G04 Gerber Fmt 4.6, Leading zero omitted, Abs format (unit mm)*
G04 Created by KiCad (PCBNEW 8.0.2) date 2025-04-11 11:55:07*
%MOMM*%
%LPD*%
G01*
G04 APERTURE LIST*
G04 Aperture macros list*
%AMRoundRect*
0 Rectangle with rounded corners*
0 $1 Rounding radius*
0 $2 $3 $4 $5 $6 $7 $8 $9 X,Y pos of 4 corners*
0 Add a 4 corners polygon primitive as box body*
4,1,4,$2,$3,$4,$5,$6,$7,$8,$9,$2,$3,0*
0 Add four circle primitives for the rounded corners*
1,1,$1+$1,$2,$3*
1,1,$1+$1,$4,$5*
1,1,$1+$1,$6,$7*
1,1,$1+$1,$8,$9*
0 Add four rect primitives between the rounded corners*
20,1,$1+$1,$2,$3,$4,$5,0*
20,1,$1+$1,$4,$5,$6,$7,0*
20,1,$1+$1,$6,$7,$8,$9,0*
20,1,$1+$1,$8,$9,$2,$3,0*%
G04 Aperture macros list end*
%TA.AperFunction,ComponentPad*%
%ADD10R,1.350000X1.350000*%
%TD*%
%TA.AperFunction,ComponentPad*%
%ADD11R,1.700000X1.700000*%
%TD*%
%TA.AperFunction,ComponentPad*%
%ADD12O,1.700000X1.700000*%
%TD*%
%TA.AperFunction,ComponentPad*%
%ADD13O,1.000000X2.100000*%
%TD*%
%TA.AperFunction,ComponentPad*%
%ADD14O,1.000000X1.800000*%
%TD*%
%TA.AperFunction,ComponentPad*%
%ADD15O,1.350000X1.350000*%
%TD*%
%TA.AperFunction,SMDPad,CuDef*%
%ADD16RoundRect,0.225000X0.225000X0.250000X-0.225000X0.250000X-0.225000X-0.250000X0.225000X-0.250000X0*%
%TD*%
%TA.AperFunction,SMDPad,CuDef*%
%ADD17RoundRect,0.200000X0.275000X-0.200000X0.275000X0.200000X-0.275000X0.200000X-0.275000X-0.200000X0*%
%TD*%
%TA.AperFunction,SMDPad,CuDef*%
%ADD18R,1.750000X0.700000*%
%TD*%
%TA.AperFunction,SMDPad,CuDef*%
%ADD19R,1.000000X1.450000*%
%TD*%
%TA.AperFunction,SMDPad,CuDef*%
%ADD20R,1.550000X1.000000*%
%TD*%
%TA.AperFunction,SMDPad,CuDef*%
%ADD21R,1.500000X0.800000*%
%TD*%
%TA.AperFunction,SMDPad,CuDef*%
%ADD22R,1.500000X1.300000*%
%TD*%
%TA.AperFunction,SMDPad,CuDef*%
%ADD23R,1.500000X1.500000*%
%TD*%
%TA.AperFunction,SMDPad,CuDef*%
%ADD24R,1.400000X0.800000*%
%TD*%
%TA.AperFunction,SMDPad,CuDef*%
%ADD25O,2.500000X1.000000*%
%TD*%
%TA.AperFunction,SMDPad,CuDef*%
%ADD26R,1.000000X1.250000*%
%TD*%
%TA.AperFunction,SMDPad,CuDef*%
%ADD27RoundRect,0.200000X0.200000X0.275000X-0.200000X0.275000X-0.200000X-0.275000X0.200000X-0.275000X0*%
%TD*%
%TA.AperFunction,SMDPad,CuDef*%
%ADD28RoundRect,0.052500X0.172500X0.122500X-0.172500X0.122500X-0.172500X-0.122500X0.172500X-0.122500X0*%
%TD*%
%TA.AperFunction,SMDPad,CuDef*%
%ADD29RoundRect,0.052500X0.122500X0.172500X-0.122500X0.172500X-0.122500X-0.172500X0.122500X-0.172500X0*%
%TD*%
%TA.AperFunction,SMDPad,CuDef*%
%ADD30RoundRect,0.200000X-0.200000X-0.275000X0.200000X-0.275000X0.200000X0.275000X-0.200000X0.275000X0*%
%TD*%
%TA.AperFunction,ViaPad*%
%ADD31C,0.600000*%
%TD*%
%TA.AperFunction,Conductor*%
%ADD32C,0.200000*%
%TD*%
%TA.AperFunction,Conductor*%
%ADD33C,0.100000*%
%TD*%
G04 APERTURE END LIST*
D10*
%TO.P,J6,1,Pin_1*%
%TO.N,GND*%
X225150000Y-95450000D03*
%TD*%
D11*
%TO.P,J5,1,Pin_1*%
%TO.N,GND*%
X194875000Y-94250000D03*
D12*
%TO.P,J5,2,Pin_2*%
%TO.N,+3.3V*%
X197415000Y-94250000D03*
%TO.P,J5,3,Pin_3*%
%TO.N,/SCLK_TFT*%
X199955000Y-94250000D03*
%TO.P,J5,4,Pin_4*%
%TO.N,/MOSI_TFT*%
X202495000Y-94250000D03*
%TO.P,J5,5,Pin_5*%
%TO.N,/RES_TFT*%
X205035000Y-94250000D03*
%TO.P,J5,6,Pin_6*%
%TO.N,/DC_TFT*%
X207575000Y-94250000D03*
%TO.P,J5,7,Pin_7*%
%TO.N,/BLK_TFT*%
X210115000Y-94250000D03*
%TD*%
D13*
%TO.P,P1,S1,SHIELD*%
%TO.N,GND*%
X213330000Y-92345000D03*
D14*
X213330000Y-96525000D03*
D13*
X221970000Y-92345000D03*
D14*
X221970000Y-96525000D03*
%TD*%
D10*
%TO.P,J3,1,Pin_1*%
%TO.N,GND*%
X193000000Y-88500000D03*
D15*
%TO.P,J3,2,Pin_2*%
%TO.N,Net-(J3-Pin_2)*%
X193000000Y-86500000D03*
%TO.P,J3,3,Pin_3*%
%TO.N,Net-(J3-Pin_3)*%
X193000000Y-84500000D03*
%TO.P,J3,4,Pin_4*%
%TO.N,/INT_MAX*%
X193000000Y-82500000D03*
%TD*%
D10*
%TO.P,J4,1,Pin_1*%
%TO.N,+3.3V*%
X188950000Y-88500000D03*
D15*
%TO.P,J4,2,Pin_2*%
%TO.N,/I2C_SDA*%
X188950000Y-86500000D03*
%TO.P,J4,3,Pin_3*%
%TO.N,/I2C_SCL*%
X188950000Y-84500000D03*
%TO.P,J4,4,Pin_4*%
%TO.N,GND*%
X188950000Y-82500000D03*
%TD*%
D10*
%TO.P,J2,1,Pin_1*%
%TO.N,/VTP4*%
X225150000Y-91950000D03*
%TD*%
D16*
%TO.P,C16,1*%
%TO.N,+3.3V*%
X213000000Y-60000000D03*
%TO.P,C16,2*%
%TO.N,GND*%
X211450000Y-60000000D03*
%TD*%
D17*
%TO.P,R12,1*%
%TO.N,+3.3V*%
X205500000Y-84825000D03*
%TO.P,R12,2*%
%TO.N,/MISO_SPI2*%
X205500000Y-83175000D03*
%TD*%
%TO.P,R11,1*%
%TO.N,+3.3V*%
X211500000Y-84825000D03*
%TO.P,R11,2*%
%TO.N,/MOSI_SPI2*%
X211500000Y-83175000D03*
%TD*%
D18*
%TO.P,J1,1,DAT2*%
%TO.N,unconnected-(J1-DAT2-Pad1)*%
X215275000Y-73175000D03*
%TO.P,J1,2,DAT3/CD*%
%TO.N,/CS_SPI2*%
X215275000Y-74275000D03*
%TO.P,J1,3,CMD*%
%TO.N,/MOSI_SPI2*%
X215275000Y-75375000D03*
%TO.P,J1,4,VDD*%
%TO.N,+3.3V*%
X215275000Y-76475000D03*
%TO.P,J1,5,CLK*%
%TO.N,/CLK_SPI2*%
X215275000Y-77575000D03*
%TO.P,J1,6,VSS*%
%TO.N,GND*%
X215275000Y-78675000D03*
%TO.P,J1,7,DAT0*%
%TO.N,/MISO_SPI2*%
X215275000Y-79775000D03*
%TO.P,J1,8,DAT1*%
%TO.N,unconnected-(J1-DAT1-Pad8)*%
X215275000Y-80875000D03*
D19*
%TO.P,J1,9,SHIELD*%
%TO.N,GND*%
X224500000Y-82000000D03*
D20*
%TO.P,J1,10*%
%TO.N,N/C*%
X226075000Y-70775000D03*
D21*
%TO.P,J1,11*%
X223000000Y-82325000D03*
D22*
X215400000Y-82075000D03*
D23*
X215400000Y-70725000D03*
D24*
X223650000Y-70375000D03*
%TD*%
D25*
%TO.P,U2,1,RXD1*%
%TO.N,/RXD1*%
X197500000Y-63000000D03*
%TO.P,U2,2,TXD1*%
%TO.N,/TXD1*%
X197500000Y-65540000D03*
%TO.P,U2,3,GND*%
%TO.N,GND*%
X197500000Y-68080000D03*
%TO.P,U2,4,VCC*%
%TO.N,+3.3V*%
X197500000Y-70620000D03*
%TO.P,U2,5,V_BCKP*%
X197500000Y-73160000D03*
%TO.P,U2,6,1PPS*%
%TO.N,unconnected-(U2-1PPS-Pad6)*%
X197500000Y-75700000D03*
%TO.P,U2,7,RESERVED*%
%TO.N,unconnected-(U2-RESERVED-Pad11)*%
X182000000Y-75700000D03*
%TO.P,U2,8,RESERVED*%
%TO.N,unconnected-(U2-RESERVED-Pad11)_0*%
X182000000Y-73160000D03*
%TO.P,U2,9*%
%TO.N,N/C*%
X182000000Y-70620000D03*
%TO.P,U2,10,RESET*%
%TO.N,unconnected-(U2-RESET-Pad10)*%
X182000000Y-68080000D03*
%TO.P,U2,11,RESERVED*%
%TO.N,unconnected-(U2-RESERVED-Pad11)_1*%
X182000000Y-65540000D03*
%TO.P,U2,12,GND*%
%TO.N,GND*%
X182000000Y-63000000D03*
%TD*%
D26*
%TO.P,SW1,1,1*%
%TO.N,+3.3V*%
X224500000Y-66875000D03*
%TO.P,SW1,2,2*%
%TO.N,/BTN_CONTROL*%
X224500000Y-59125000D03*
%TD*%
D27*
%TO.P,R9,1*%
%TO.N,+3.3V*%
X212500000Y-69000000D03*
%TO.P,R9,2*%
%TO.N,/I2C_SDA*%
X210850000Y-69000000D03*
%TD*%
D16*
%TO.P,C15,1*%
%TO.N,+3.3V*%
X213000000Y-61500000D03*
%TO.P,C15,2*%
%TO.N,GND*%
X211450000Y-61500000D03*
%TD*%
%TO.P,C17,1*%
%TO.N,+3.3V*%
X209775000Y-75500000D03*
%TO.P,C17,2*%
%TO.N,GND*%
X208225000Y-75500000D03*
%TD*%
D27*
%TO.P,R16,1*%
%TO.N,/BTN_CONTROL*%
X218325000Y-59500000D03*
%TO.P,R16,2*%
%TO.N,GND*%
X216675000Y-59500000D03*
%TD*%
D17*
%TO.P,R1,1*%
%TO.N,+3.3V*%
X209000000Y-84825000D03*
%TO.P,R1,2*%
%TO.N,/CS_SPI2*%
X209000000Y-83175000D03*
%TD*%
%TO.P,R10,1*%
%TO.N,+3.3V*%
X207500000Y-84825000D03*
%TO.P,R10,2*%
%TO.N,/CLK_SPI2*%
X207500000Y-83175000D03*
%TD*%
D28*
%TO.P,U5,1,SCL/SPC*%
%TO.N,/I2C_SCL*%
X217030000Y-63000000D03*
%TO.P,U5,2,CS*%
%TO.N,+3.3V*%
X217030000Y-63500000D03*
%TO.P,U5,3,SDO/SAO*%
X217030000Y-64000000D03*
%TO.P,U5,4,SDA/SDI/SDO*%
%TO.N,/I2C_SDA*%
X217030000Y-64500000D03*
D29*
%TO.P,U5,5,RES*%
%TO.N,GND*%
X216530000Y-64515000D03*
%TO.P,U5,6,GND*%
X216015000Y-64515000D03*
D28*
%TO.P,U5,7,GND*%
X215500000Y-64500000D03*
%TO.P,U5,8,GND*%
X215500000Y-64000000D03*
%TO.P,U5,9,VDD*%
%TO.N,+3.3V*%
X215500000Y-63500000D03*
%TO.P,U5,10,VDD_IO*%
X215500000Y-63000000D03*
D29*
%TO.P,U5,11,INT2*%
%TO.N,unconnected-(U5-INT2-Pad11)*%
X216015000Y-62985000D03*
%TO.P,U5,12,INT1*%
%TO.N,/IRQ_ACC*%
X216515000Y-62985000D03*
%TD*%
D30*
%TO.P,R8,1*%
%TO.N,+3.3V*%
X206175000Y-69500000D03*
%TO.P,R8,2*%
%TO.N,/I2C_SCL*%
X207825000Y-69500000D03*
%TD*%
D31*
%TO.N,GND*%
X197000000Y-92250000D03*
X209000000Y-64000000D03*
X209000000Y-67250000D03*
X221500000Y-94000000D03*
X210750000Y-64750000D03*
X214000000Y-81750000D03*
X195250000Y-68250000D03*
X221000000Y-91000000D03*
X214000000Y-66250000D03*
X198750000Y-81500000D03*
X226000000Y-89750000D03*
X214250000Y-93750000D03*
X201500000Y-73500000D03*
X210000000Y-59250000D03*
X194250000Y-88500000D03*
X212500000Y-64750000D03*
X203250000Y-60500000D03*
X208250000Y-59250000D03*
X202500000Y-77100000D03*
X223000000Y-86250000D03*
X208250000Y-63250000D03*
X205500000Y-59500000D03*
X207500000Y-59250000D03*
X208842822Y-77550000D03*
X194500000Y-96750000D03*
X184000000Y-63000000D03*
X190250000Y-74250000D03*
X212500000Y-66500000D03*
X215500000Y-59250000D03*
X224000000Y-79500000D03*
X209250000Y-59250000D03*
X214250000Y-96250000D03*
X195250000Y-92750000D03*
X205618507Y-60650000D03*
X192000000Y-66000000D03*
X188950000Y-80500000D03*
X215500000Y-65250000D03*
X210000000Y-81750000D03*
X214803388Y-78645734D03*
X210750000Y-66250000D03*
X193500000Y-74250000D03*
X187250000Y-74250000D03*
X226500000Y-66750000D03*
X208750000Y-65500000D03*
X214000000Y-67250000D03*
X220750000Y-96500000D03*
%TO.N,/RXD1*%
X209784456Y-73392228D03*
%TO.N,/TXD1*%
X203000000Y-72250000D03*
X209000000Y-71600000D03*
%TO.N,/INT_MAX*%
X207000000Y-66000000D03*
X195500000Y-82500000D03*
%TO.N,/SCLK_TFT*%
X207250000Y-73750000D03*
%TO.N,/BTN_CONTROL*%
X217824266Y-68024263D03*
%TO.N,/RES_TFT*%
X201500000Y-71100002D03*
%TO.N,/BLK_TFT*%
X202500000Y-84250000D03*
X200500000Y-72500000D03*
%TO.N,/MOSI_TFT*%
X205500000Y-74000000D03*
X205000000Y-89100000D03*
%TO.N,/DC_TFT*%
X217750000Y-73750000D03*
X209273527Y-68500000D03*
%TO.N,/I2C_SDA*%
X211000000Y-70000000D03*
X210000000Y-71000000D03*
X215000000Y-67000000D03*
%TO.N,+3.3V*%
X222150000Y-72450000D03*
X222150000Y-58450000D03*
X214500000Y-63060000D03*
X210000000Y-61960000D03*
X208150000Y-77950000D03*
X211150000Y-75450000D03*
X194000000Y-69750000D03*
X185750000Y-70000000D03*
X214500000Y-60000000D03*
X206150000Y-74950000D03*
X202650000Y-68450000D03*
X200250000Y-91500000D03*
X223650000Y-69450000D03*
X206150000Y-61450000D03*
X207500000Y-88500000D03*
X194000000Y-72750000D03*
%TO.N,/I2C_SCL*%
X207000000Y-70500000D03*
X212500000Y-71500000D03*
%TO.N,/SG_CHRG*%
X213750000Y-78000000D03*
X217500000Y-74950000D03*
X214650000Y-68950000D03*
%TO.N,/SG_STDBY*%
X214000000Y-69950000D03*
X209650000Y-77950000D03*
X209650000Y-74450000D03*
%TO.N,/STDBY*%
X210150000Y-83450000D03*
X214000000Y-82950000D03*
%TO.N,Net-(U1-RXD0)*%
X220050000Y-65450000D03*
X220150000Y-63950000D03*
%TO.N,/POWER_5V*%
X226000000Y-81450000D03*
X219150000Y-87450000D03*
%TO.N,/VTP4*%
X223150000Y-89950000D03*
X216790000Y-80660000D03*
%TO.N,/IRQ_ACC*%
X205500000Y-64500000D03*
%TO.N,/DTR*%
X208200000Y-79000000D03*
X199650000Y-65000000D03*
X221250000Y-71450000D03*
%TO.N,/RTS*%
X221650000Y-63950000D03*
X203150000Y-81450000D03*
X201650000Y-74950000D03*
%TO.N,/CS_SPI2*%
X206500000Y-68500000D03*
%TO.N,/CLK_SPI2*%
X209000000Y-73975000D03*
%TO.N,/MOSI_SPI2*%
X210500000Y-73750000D03*
X207000000Y-67000000D03*
%TO.N,/MISO_SPI2*%
X211998441Y-73986459D03*
X212000000Y-78000000D03*
X204000000Y-83500000D03*
X212000000Y-81000000D03*
%TD*%
D32*
%TO.N,GND*%
X208225000Y-75500000D02*
X208225000Y-76932178D01*
X214832654Y-78675000D02*
X214803388Y-78645734D01*
D33*
X188950000Y-80500000D02*
X188950000Y-82500000D01*
D32*
X215275000Y-78675000D02*
X214832654Y-78675000D01*
X208225000Y-76932178D02*
X208842822Y-77550000D01*
X215500000Y-64000000D02*
X215500000Y-64500000D01*
D33*
X216530000Y-64515000D02*
X216015000Y-64515000D01*
D32*
%TO.N,/RXD1*%
X202050000Y-68698529D02*
X202401471Y-69050000D01*
X202401471Y-69050000D02*
X204300000Y-69050000D01*
X209767228Y-73375000D02*
X209784456Y-73392228D01*
X198000000Y-62900000D02*
X198450000Y-62900000D01*
X204300000Y-69050000D02*
X208625000Y-73375000D01*
X198450000Y-62900000D02*
X202050000Y-66500000D01*
X202050000Y-66500000D02*
X202050000Y-68698529D01*
X208625000Y-73375000D02*
X209767228Y-73375000D01*
%TO.N,/TXD1*%
X203000000Y-70440000D02*
X203000000Y-72250000D01*
X198000000Y-65440000D02*
X203000000Y-70440000D01*
D33*
%TO.N,/INT_MAX*%
X193000000Y-82500000D02*
X195500000Y-82500000D01*
D32*
%TO.N,/SCLK_TFT*%
X198500000Y-93874264D02*
X198500000Y-84850000D01*
X198500000Y-84850000D02*
X207250000Y-76100000D01*
X207250000Y-76100000D02*
X207250000Y-73750000D01*
X198875736Y-94250000D02*
X198500000Y-93874264D01*
X199955000Y-94250000D02*
X198875736Y-94250000D01*
%TO.N,/BTN_CONTROL*%
X218325000Y-59500000D02*
X220500000Y-59500000D01*
X220500000Y-59500000D02*
X224125000Y-59500000D01*
X218324266Y-68024263D02*
X217824266Y-68024263D01*
X220750000Y-59750000D02*
X220750000Y-65598529D01*
X224125000Y-59500000D02*
X224500000Y-59125000D01*
X220500000Y-59500000D02*
X220750000Y-59750000D01*
X220750000Y-65598529D02*
X218324266Y-68024263D01*
%TO.N,/RES_TFT*%
X198750000Y-79500000D02*
X196100000Y-82150000D01*
X201500000Y-71100002D02*
X201500000Y-72900000D01*
X200900000Y-73251471D02*
X200900000Y-77400000D01*
X196501471Y-96100000D02*
X204150000Y-96100000D01*
X196100000Y-95698529D02*
X196501471Y-96100000D01*
X205035000Y-95215000D02*
X205035000Y-94250000D01*
X201251471Y-72900000D02*
X200900000Y-73251471D01*
X200900000Y-77400000D02*
X201500000Y-78000000D01*
X201500000Y-78000000D02*
X200000000Y-79500000D01*
X200000000Y-79500000D02*
X198750000Y-79500000D01*
X201500000Y-72900000D02*
X201251471Y-72900000D01*
X204150000Y-96100000D02*
X205035000Y-95215000D01*
X196100000Y-82150000D02*
X196100000Y-95698529D01*
%TO.N,/MOSI_TFT*%
X203750000Y-92995000D02*
X203750000Y-90350000D01*
X203750000Y-90350000D02*
X205000000Y-89100000D01*
X202495000Y-94250000D02*
X203750000Y-92995000D01*
%TO.N,/DC_TFT*%
X207575000Y-94250000D02*
X218400000Y-83425000D01*
X218400000Y-83425000D02*
X218400000Y-74400000D01*
X207300000Y-94250000D02*
X207575000Y-94250000D01*
X218400000Y-74400000D02*
X217750000Y-73750000D01*
X207000000Y-93950000D02*
X207300000Y-94250000D01*
%TO.N,/I2C_SDA*%
X210850000Y-69000000D02*
X210850000Y-69850000D01*
X210850000Y-69850000D02*
X211000000Y-70000000D01*
D33*
X217030000Y-64500000D02*
X217030000Y-64970000D01*
X217030000Y-64970000D02*
X215000000Y-67000000D01*
D32*
%TO.N,+3.3V*%
X204450000Y-88500000D02*
X203250000Y-88500000D01*
D33*
X210000000Y-61797014D02*
X211022014Y-60775000D01*
X214560000Y-63000000D02*
X214500000Y-63060000D01*
D32*
X215275000Y-76475000D02*
X212175000Y-76475000D01*
X211400000Y-67900000D02*
X205850000Y-67900000D01*
X212500000Y-69000000D02*
X211400000Y-67900000D01*
D33*
X210000000Y-61960000D02*
X210000000Y-61797014D01*
D32*
X209775000Y-75500000D02*
X211100000Y-75500000D01*
X194310000Y-73060000D02*
X194000000Y-72750000D01*
X204450000Y-88500000D02*
X207500000Y-88500000D01*
X206175000Y-69325000D02*
X205300000Y-68450000D01*
X207500000Y-88500000D02*
X207500000Y-84825000D01*
X209000000Y-86000000D02*
X209000000Y-84825000D01*
X211100000Y-75500000D02*
X211150000Y-75450000D01*
X206175000Y-69500000D02*
X206175000Y-69325000D01*
X209000000Y-87000000D02*
X209000000Y-86000000D01*
X212175000Y-76475000D02*
X211150000Y-75450000D01*
X207500000Y-88500000D02*
X209000000Y-87000000D01*
D33*
X212750000Y-60250000D02*
X212750000Y-60300000D01*
D32*
X205300000Y-68450000D02*
X202650000Y-68450000D01*
X224500000Y-66875000D02*
X224500000Y-68600000D01*
D33*
X215500000Y-63500000D02*
X217030000Y-63500000D01*
D32*
X205500000Y-86500000D02*
X205500000Y-84825000D01*
D33*
X215500000Y-63500000D02*
X215275744Y-63500000D01*
X212275000Y-60775000D02*
X213000000Y-61500000D01*
X215500000Y-63000000D02*
X214560000Y-63000000D01*
X214500000Y-60000000D02*
X213000000Y-60000000D01*
X212750000Y-60300000D02*
X212275000Y-60775000D01*
D32*
X211500000Y-84825000D02*
X210175000Y-84825000D01*
D33*
X213000000Y-60000000D02*
X212750000Y-60250000D01*
X211022014Y-60775000D02*
X212275000Y-60775000D01*
D32*
X185750000Y-85300000D02*
X185750000Y-70000000D01*
X210175000Y-84825000D02*
X209000000Y-86000000D01*
X194770000Y-70520000D02*
X194000000Y-69750000D01*
X207500000Y-88500000D02*
X205500000Y-86500000D01*
X198000000Y-73060000D02*
X194310000Y-73060000D01*
D33*
X217030000Y-63500000D02*
X217030000Y-64000000D01*
D32*
X203250000Y-88500000D02*
X200250000Y-91500000D01*
X198000000Y-70520000D02*
X194770000Y-70520000D01*
X188950000Y-88500000D02*
X185750000Y-85300000D01*
D33*
X215500000Y-63000000D02*
X215500000Y-63500000D01*
D32*
X205850000Y-67900000D02*
X205300000Y-68450000D01*
X224500000Y-68600000D02*
X223650000Y-69450000D01*
D33*
%TO.N,/I2C_SCL*%
X217254999Y-63000000D02*
X218000000Y-63745001D01*
X218000000Y-63745001D02*
X218000000Y-64822182D01*
X218000000Y-64822182D02*
X212500000Y-70322182D01*
X212500000Y-70322182D02*
X212500000Y-71500000D01*
D32*
X207825000Y-69675000D02*
X207000000Y-70500000D01*
X207825000Y-69500000D02*
X207825000Y-69675000D01*
D33*
X217030000Y-63000000D02*
X217254999Y-63000000D01*
%TO.N,/IRQ_ACC*%
X216264999Y-62510000D02*
X207490000Y-62510000D01*
X216515000Y-62760001D02*
X216264999Y-62510000D01*
X216515000Y-62985000D02*
X216515000Y-62760001D01*
X207490000Y-62510000D02*
X205500000Y-64500000D01*
D32*
%TO.N,/CS_SPI2*%
X209000000Y-83175000D02*
X209875000Y-84050000D01*
X209875000Y-84050000D02*
X215990686Y-84050000D01*
X215275000Y-74275000D02*
X214200000Y-74275000D01*
X218000000Y-82040686D02*
X218000000Y-76298529D01*
X208425000Y-68500000D02*
X206500000Y-68500000D01*
X218000000Y-76298529D02*
X215976471Y-74275000D01*
X215990686Y-84050000D02*
X218000000Y-82040686D01*
X215976471Y-74275000D02*
X215275000Y-74275000D01*
X214200000Y-74275000D02*
X208425000Y-68500000D01*
%TO.N,/CLK_SPI2*%
X207500000Y-83175000D02*
X207500000Y-81400000D01*
X211500000Y-77400000D02*
X210150000Y-77400000D01*
X215275000Y-77575000D02*
X215100000Y-77400000D01*
X207500000Y-81400000D02*
X211500000Y-77400000D01*
X215100000Y-77400000D02*
X211500000Y-77400000D01*
X209000000Y-76250000D02*
X209000000Y-73975000D01*
X210150000Y-77400000D02*
X209000000Y-76250000D01*
%TO.N,/MOSI_SPI2*%
X215275000Y-75375000D02*
X211923529Y-75375000D01*
X217500000Y-77000000D02*
X215875000Y-75375000D01*
X215925000Y-83550000D02*
X217500000Y-81975000D01*
X211923529Y-75173529D02*
X211923529Y-75375000D01*
X211500000Y-83175000D02*
X211875000Y-83550000D01*
X217500000Y-81975000D02*
X217500000Y-77000000D01*
X211875000Y-83550000D02*
X215925000Y-83550000D01*
X215875000Y-75375000D02*
X215275000Y-75375000D01*
X210500000Y-73750000D02*
X211923529Y-75173529D01*
%TO.N,/MISO_SPI2*%
X213775000Y-79775000D02*
X213750000Y-79750000D01*
X212000000Y-81000000D02*
X213250000Y-79750000D01*
X213250000Y-79750000D02*
X213750000Y-79750000D01*
X205500000Y-83175000D02*
X204325000Y-83175000D01*
X215275000Y-79775000D02*
X213775000Y-79775000D01*
X204325000Y-83175000D02*
X204000000Y-83500000D01*
X213750000Y-79750000D02*
X212000000Y-78000000D01*
%TD*%
%TA.AperFunction,Conductor*%
%TO.N,GND*%
G36*
X208158462Y-74046633D02*
G01*
X208203135Y-74100355D01*
X208212538Y-74135679D01*
X208214631Y-74154251D01*
X208214631Y-74154254D01*
X208274211Y-74324523D01*
X208370185Y-74477263D01*
X208372445Y-74480097D01*
X208373334Y-74482275D01*
X208373889Y-74483158D01*
X208373734Y-74483255D01*
X208398855Y-74544783D01*
X208399500Y-74557412D01*
X208399500Y-76163330D01*
X208399499Y-76163348D01*
X208399499Y-76329054D01*
X208399498Y-76329054D01*
X208440423Y-76481785D01*
X208468440Y-76530310D01*
X208468441Y-76530314D01*
X208468442Y-76530314D01*
X208519479Y-76618714D01*
X208519481Y-76618717D01*
X208638349Y-76737585D01*
X208638355Y-76737590D01*
X209096662Y-77195897D01*
X209130147Y-77257220D01*
X209125163Y-77326912D01*
X209096663Y-77371259D01*
X209020183Y-77447739D01*
X209004994Y-77471913D01*
X208952659Y-77518204D01*
X208883605Y-77528852D01*
X208819757Y-77500477D01*
X208795006Y-77471913D01*
X208779816Y-77447738D01*
X208652262Y-77320184D01*
X208607301Y-77291933D01*
X208499523Y-77224211D01*
X208329254Y-77164631D01*
X208329249Y-77164630D01*
X208150004Y-77144435D01*
X208149996Y-77144435D01*
X207970750Y-77164630D01*
X207970745Y-77164631D01*
X207800476Y-77224211D01*
X207647737Y-77320184D01*
X207520184Y-77447737D01*
X207424211Y-77600476D01*
X207364631Y-77770745D01*
X207364630Y-77770750D01*
X207344435Y-77949996D01*
X207344435Y-77950003D01*
X207364630Y-78129249D01*
X207364631Y-78129254D01*
X207400509Y-78231785D01*
X207424211Y-78299522D01*
X207518018Y-78448815D01*
X207537018Y-78516050D01*
X207518018Y-78580757D01*
X207474213Y-78650472D01*
X207474209Y-78650481D01*
X207414633Y-78820737D01*
X207414630Y-78820750D01*
X207394435Y-78999996D01*
X207394435Y-79000003D01*
X207414630Y-79179249D01*
X207414631Y-79179254D01*
X207474211Y-79349523D01*
X207513668Y-79412318D01*
X207570184Y-79502262D01*
X207697738Y-79629816D01*
X207850478Y-79725789D01*
X208015709Y-79783605D01*
X208072484Y-79824327D01*
X208098232Y-79889279D01*
X208084776Y-79957841D01*
X208062435Y-79988328D01*
X207131286Y-80919478D01*
X207019481Y-81031282D01*
X207019475Y-81031290D01*
X206979531Y-81100477D01*
X206979531Y-81100478D01*
X206940423Y-81168215D01*
X206899499Y-81320943D01*
X206899499Y-81320945D01*
X206899499Y-81489046D01*
X206899500Y-81489059D01*
X206899500Y-82283284D01*
X206879815Y-82350323D01*
X206839652Y-82389400D01*
X206789811Y-82419530D01*
X206669531Y-82539810D01*
X206669528Y-82539814D01*
X206606116Y-82644710D01*
X206554588Y-82691897D01*
X206485729Y-82703735D01*
X206421400Y-82676466D01*
X206393884Y-82644710D01*
X206359972Y-82588615D01*
X206330472Y-82539815D01*
X206330471Y-82539814D01*
X206330468Y-82539810D01*
X206210188Y-82419530D01*
X206149856Y-82383058D01*
X206064606Y-82331522D01*
X205902196Y-82280914D01*
X205902194Y-82280913D01*
X205902192Y-82280913D01*
X205852778Y-82276423D01*
X205831616Y-82274500D01*
X205168384Y-82274500D01*
X205149145Y-82276248D01*
X205097807Y-82280913D01*
X204935393Y-82331522D01*
X204789811Y-82419530D01*
X204789810Y-82419531D01*
X204671161Y-82538181D01*
X204609838Y-82571666D01*
X204583480Y-82574500D01*
X204245940Y-82574500D01*
X204205019Y-82585464D01*
X204205019Y-82585465D01*
X204149117Y-82600444D01*
X204093215Y-82615423D01*
X203968186Y-82687608D01*
X203920071Y-82703440D01*
X203820750Y-82714630D01*
X203650478Y-82774210D01*
X203497737Y-82870184D01*
X203370184Y-82997737D01*
X203274211Y-83150476D01*
X203214631Y-83320745D01*
X203214630Y-83320750D01*
X203198032Y-83468074D01*
X203194435Y-83500000D01*
X203194821Y-83503423D01*
X203194435Y-83505626D01*
X203194435Y-83506964D01*
X203194201Y-83506964D01*
X203182765Y-83572245D01*
X203135415Y-83623624D01*
X203067804Y-83641247D01*
X203005628Y-83622299D01*
X202849523Y-83524211D01*
X202679254Y-83464631D01*
X202679249Y-83464630D01*
X202500004Y-83444435D01*
X202499996Y-83444435D01*
X202320750Y-83464630D01*
X202320745Y-83464631D01*
X202150476Y-83524211D01*
X201997737Y-83620184D01*
X201870184Y-83747737D01*
X201774211Y-83900476D01*
X201714631Y-84070745D01*
X201714630Y-84070750D01*
X201694435Y-84249996D01*
X201694435Y-84250003D01*
X201714630Y-84429249D01*
X201714631Y-84429254D01*
X201774211Y-84599523D01*
X201847976Y-84716918D01*
X201870184Y-84752262D01*
X201997738Y-84879816D01*
X202150478Y-84975789D01*
X202219392Y-84999903D01*
X202320745Y-85035368D01*
X202320750Y-85035369D01*
X202499996Y-85055565D01*
X202500000Y-85055565D01*
X202500004Y-85055565D01*
X202679249Y-85035369D01*
X202679252Y-85035368D01*
X202679255Y-85035368D01*
X202849522Y-84975789D01*
X203002262Y-84879816D01*
X203129816Y-84752262D01*
X203225789Y-84599522D01*
X203285368Y-84429255D01*
X203285369Y-84429249D01*
X203305565Y-84250003D01*
X203305565Y-84250000D01*
X203305180Y-84246586D01*
X203305565Y-84244387D01*
X203305565Y-84243036D01*
X203305802Y-84243036D01*
X203317230Y-84177764D01*
X203364575Y-84126381D01*
X203432184Y-84108752D01*
X203494371Y-84127700D01*
X203497737Y-84129815D01*
X203497738Y-84129816D01*
X203650478Y-84225789D01*
X203814198Y-84283077D01*
X203820745Y-84285368D01*
X203820750Y-84285369D01*
X203999996Y-84305565D01*
X204000000Y-84305565D01*
X204000004Y-84305565D01*
X204179249Y-84285369D01*
X204179252Y-84285368D01*
X204179255Y-84285368D01*
X204349522Y-84225789D01*
X204396257Y-84196422D01*
X204463490Y-84177423D01*
X204530326Y-84197789D01*
X204575541Y-84251057D01*
X204584780Y-84320313D01*
X204580614Y-84338306D01*
X204555559Y-84418713D01*
X204530914Y-84497804D01*
X204524500Y-84568384D01*
X204524500Y-85081616D01*
X204526056Y-85098735D01*
X204530913Y-85152192D01*
X204530913Y-85152194D01*
X204530914Y-85152196D01*
X204581522Y-85314606D01*
X204606116Y-85355290D01*
X204669530Y-85460188D01*
X204789811Y-85580469D01*
X204789813Y-85580470D01*
X204789815Y-85580472D01*
X204839650Y-85610598D01*
X204886838Y-85662126D01*
X204899500Y-85716715D01*
X204899500Y-86413330D01*
X204899499Y-86413348D01*
X204899499Y-86579054D01*
X204899498Y-86579054D01*
X204922429Y-86664631D01*
X204940423Y-86731785D01*
X204961457Y-86768216D01*
X204994364Y-86825213D01*
X205019479Y-86868715D01*
X205138349Y-86987585D01*
X205138355Y-86987590D01*
X205838584Y-87687819D01*
X205872069Y-87749142D01*
X205867085Y-87818834D01*
X205825213Y-87874767D01*
X205759749Y-87899184D01*
X205750903Y-87899500D01*
X203336670Y-87899500D01*
X203336654Y-87899499D01*
X203329058Y-87899499D01*
X203170943Y-87899499D01*
X203094579Y-87919961D01*
X203018214Y-87940423D01*
X203018209Y-87940426D01*
X202881290Y-88019475D01*
X202881282Y-88019481D01*
X200231465Y-90669298D01*
X200170142Y-90702783D01*
X200157668Y-90704837D01*
X200070750Y-90714630D01*
X199900478Y-90774210D01*
X199747737Y-90870184D01*
X199620184Y-90997737D01*
X199524211Y-91150476D01*
X199464631Y-91320745D01*
X199464630Y-91320750D01*
X199444435Y-91499996D01*
X199444435Y-91500003D01*
X199464630Y-91679249D01*
X199464631Y-91679254D01*
X199524211Y-91849523D01*
X199620184Y-92002262D01*
X199747738Y-92129816D01*
X199900478Y-92225789D01*
X200025397Y-92269500D01*
X200070745Y-92285368D01*
X200070750Y-92285369D01*
X200249996Y-92305565D01*
X200250000Y-92305565D01*
X200250004Y-92305565D01*
X200429249Y-92285369D01*
X200429252Y-92285368D01*
X200429255Y-92285368D01*
X200599522Y-92225789D01*
X200752262Y-92129816D01*
X200879816Y-92002262D01*
X200975789Y-91849522D01*
X201035368Y-91679255D01*
X201045161Y-91592329D01*
X201072226Y-91527918D01*
X201080690Y-91518543D01*
X203462417Y-89136819D01*
X203523740Y-89103334D01*
X203550098Y-89100500D01*
X203850903Y-89100500D01*
X203917942Y-89120185D01*
X203963697Y-89172989D01*
X203973641Y-89242147D01*
X203944616Y-89305703D01*
X203938587Y-89312177D01*
X203650288Y-89600476D01*
X203381286Y-89869478D01*
X203269481Y-89981282D01*
X203269479Y-89981285D01*
X203219361Y-90068094D01*
X203219359Y-90068096D01*
X203190425Y-90118209D01*
X203190424Y-90118210D01*
X203190423Y-90118215D01*
X203149499Y-90270943D01*
X203149499Y-90270945D01*
X203149499Y-90439046D01*
X203149500Y-90439059D01*
X203149500Y-92694902D01*
X203129815Y-92761941D01*
X203113181Y-92782584D01*
X202978530Y-92917234D01*
X202917207Y-92950718D01*
X202858756Y-92949327D01*
X202730413Y-92914938D01*
X202730403Y-92914936D01*
X202495001Y-92894341D01*
X202494999Y-92894341D01*
X202259596Y-92914936D01*
X202259586Y-92914938D01*
X202031344Y-92976094D01*
X202031335Y-92976098D01*
X201817171Y-93075964D01*
X201817169Y-93075965D01*
X201623597Y-93211505D01*
X201456505Y-93378597D01*
X201326575Y-93564158D01*
X201271998Y-93607783D01*
X201202500Y-93614977D01*
X201140145Y-93583454D01*
X201123425Y-93564158D01*
X200993494Y-93378597D01*
X200826402Y-93211506D01*
X200826395Y-93211501D01*
X200632834Y-93075967D01*
X200632830Y-93075965D01*
X200493094Y-93010805D01*
X200418663Y-92976097D01*
X200418659Y-92976096D01*
X200418655Y-92976094D01*
X200190413Y-92914938D01*
X200190403Y-92914936D01*
X199955001Y-92894341D01*
X199954999Y-92894341D01*
X199719596Y-92914936D01*
X199719586Y-92914938D01*
X199491344Y-92976094D01*
X199491337Y-92976096D01*
X199491337Y-92976097D01*
X199477507Y-92982546D01*
X199276905Y-93076089D01*
X199207827Y-93086581D01*
X199144043Y-93058061D01*
X199105804Y-92999585D01*
X199100500Y-92963707D01*
X199100500Y-85150096D01*
X199120185Y-85083057D01*
X199136814Y-85062420D01*
X202304810Y-81894423D01*
X202366131Y-81860940D01*
X202435823Y-81865924D01*
X202491756Y-81907796D01*
X202497482Y-81916133D01*
X202520182Y-81952259D01*
X202520184Y-81952262D01*
X202647738Y-82079816D01*
X202730693Y-82131940D01*
X202782721Y-82164632D01*
X202800478Y-82175789D01*
X202938860Y-82224211D01*
X202970745Y-82235368D01*
X202970750Y-82235369D01*
X203149996Y-82255565D01*
X203150000Y-82255565D01*
X203150004Y-82255565D01*
X203329249Y-82235369D01*
X203329252Y-82235368D01*
X203329255Y-82235368D01*
X203499522Y-82175789D01*
X203652262Y-82079816D01*
X203779816Y-81952262D01*
X203875789Y-81799522D01*
X203935368Y-81629255D01*
X203935793Y-81625482D01*
X203955565Y-81450003D01*
X203955565Y-81449996D01*
X203935369Y-81270750D01*
X203935368Y-81270745D01*
X203899491Y-81168215D01*
X203875789Y-81100478D01*
X203779816Y-80947738D01*
X203652262Y-80820184D01*
X203652259Y-80820182D01*
X203616133Y-80797482D01*
X203569842Y-80745147D01*
X203559195Y-80676094D01*
X203587570Y-80612245D01*
X203594412Y-80604821D01*
X207730520Y-76468716D01*
X207809577Y-76331784D01*
X207850501Y-76179057D01*
X207850501Y-76020942D01*
X207850501Y-76013347D01*
X207850500Y-76013329D01*
X207850500Y-74332412D01*
X207870185Y-74265373D01*
X207877555Y-74255097D01*
X207879810Y-74252267D01*
X207879816Y-74252262D01*
X207975789Y-74099522D01*
X207975791Y-74099514D01*
X207977593Y-74095775D01*
X207979404Y-74093767D01*
X207979494Y-74093626D01*
X207979518Y-74093641D01*
X208024410Y-74043911D01*
X208091836Y-74025592D01*
X208158462Y-74046633D01*
G37*
%TD.AperFunction*%
%TA.AperFunction,Conductor*%
G36*
X204066942Y-69670185D02*
G01*
X204087584Y-69686819D01*
X207153486Y-72752722D01*
X207186971Y-72814045D01*
X207181987Y-72883737D01*
X207140115Y-72939670D01*
X207079694Y-72963623D01*
X207070747Y-72964631D01*
X207070745Y-72964631D01*
X206900476Y-73024211D01*
X206747737Y-73120184D01*
X206620184Y-73247737D01*
X206524211Y-73400476D01*
X206464631Y-73570745D01*
X206464630Y-73570749D01*
X206460256Y-73609577D01*
X206433189Y-73673991D01*
X206375594Y-73713546D01*
X206305757Y-73715683D01*
X206245851Y-73679725D01*
X206229841Y-73656155D01*
X206229494Y-73656374D01*
X206177021Y-73572864D01*
X206129816Y-73497738D01*
X206002262Y-73370184D01*
X205939150Y-73330528D01*
X205849523Y-73274211D01*
X205679254Y-73214631D01*
X205679249Y-73214630D01*
X205500004Y-73194435D01*
X205499996Y-73194435D01*
X205320750Y-73214630D01*
X205320745Y-73214631D01*
X205150476Y-73274211D01*
X204997737Y-73370184D01*
X204870184Y-73497737D01*
X204774211Y-73650476D01*
X204714631Y-73820745D01*
X204714630Y-73820750D01*
X204694435Y-73999996D01*
X204694435Y-74000003D01*
X204714630Y-74179249D01*
X204714631Y-74179254D01*
X204774211Y-74349523D01*
X204835924Y-74447738D01*
X204870184Y-74502262D01*
X204997738Y-74629816D01*
X205150478Y-74725789D01*
X205235444Y-74755520D01*
X205268044Y-74766927D01*
X205324820Y-74807649D01*
X205350568Y-74872601D01*
X205350310Y-74897852D01*
X205344435Y-74949996D01*
X205344435Y-74950003D01*
X205364630Y-75129249D01*
X205364631Y-75129254D01*
X205424211Y-75299523D01*
X205492473Y-75408160D01*
X205520184Y-75452262D01*
X205647738Y-75579816D01*
X205800478Y-75675789D01*
X205970739Y-75735366D01*
X205970745Y-75735368D01*
X205970750Y-75735369D01*
X206149996Y-75755565D01*
X206150000Y-75755565D01*
X206150004Y-75755565D01*
X206329249Y-75735369D01*
X206329251Y-75735368D01*
X206329255Y-75735368D01*
X206329258Y-75735366D01*
X206329262Y-75735366D01*
X206484545Y-75681030D01*
X206554324Y-75677468D01*
X206614951Y-75712196D01*
X206647179Y-75774190D01*
X206649500Y-75798071D01*
X206649500Y-75799902D01*
X206629815Y-75866941D01*
X206613181Y-75887583D01*
X198019481Y-84481282D01*
X198019479Y-84481284D01*
X198008675Y-84499999D01*
X197991054Y-84530520D01*
X197940423Y-84618215D01*
X197899499Y-84770943D01*
X197899499Y-84770945D01*
X197899499Y-84939046D01*
X197899500Y-84939059D01*
X197899500Y-92820080D01*
X197879815Y-92887119D01*
X197827011Y-92932874D01*
X197757853Y-92942818D01*
X197743408Y-92939855D01*
X197650416Y-92914939D01*
X197650412Y-92914938D01*
X197650408Y-92914937D01*
X197650406Y-92914936D01*
X197650403Y-92914936D01*
X197415001Y-92894341D01*
X197414999Y-92894341D01*
X197179596Y-92914936D01*
X197179586Y-92914938D01*
X196951344Y-92976094D01*
X196951330Y-92976099D01*
X196876904Y-93010805D01*
X196807827Y-93021297D01*
X196744043Y-92992777D01*
X196705804Y-92934300D01*
X196700500Y-92898423D01*
X196700500Y-82450097D01*
X196720185Y-82383058D01*
X196736819Y-82362416D01*
X198962416Y-80136819D01*
X199023739Y-80103334D01*
X199050097Y-80100500D01*
X199913331Y-80100500D01*
X199913347Y-80100501D01*
X199920943Y-80100501D01*
X200079054Y-80100501D01*
X200079057Y-80100501D01*
X200231785Y-80059577D01*
X200292538Y-80024501D01*
X200368716Y-79980520D01*
X200480520Y-79868716D01*
X200480520Y-79868714D01*
X200490724Y-79858511D01*
X200490727Y-79858506D01*
X201980519Y-78368716D01*
X201991613Y-78349500D01*
X202059577Y-78231785D01*
X202100500Y-78079057D01*
X202100500Y-77920943D01*
X202059577Y-77768215D01*
X201980519Y-77631284D01*
X201536819Y-77187584D01*
X201503334Y-77126261D01*
X201500500Y-77099903D01*
X201500500Y-75877476D01*
X201520185Y-75810437D01*
X201572989Y-75764682D01*
X201638385Y-75754256D01*
X201650000Y-75755565D01*
X201650001Y-75755564D01*
X201650002Y-75755565D01*
X201650004Y-75755565D01*
X201829249Y-75735369D01*
X201829252Y-75735368D01*
X201829255Y-75735368D01*
X201999522Y-75675789D01*
X202152262Y-75579816D01*
X202279816Y-75452262D01*
X202375789Y-75299522D01*
X202435368Y-75129255D01*
X202435369Y-75129249D01*
X202455565Y-74950003D01*
X202455565Y-74949996D01*
X202435369Y-74770750D01*
X202435368Y-74770745D01*
X202428027Y-74749767D01*
X202375789Y-74600478D01*
X202344083Y-74550019D01*
X202305780Y-74489059D01*
X202279816Y-74447738D01*
X202152262Y-74320184D01*
X202048677Y-74255097D01*
X201999523Y-74224211D01*
X201829254Y-74164631D01*
X201829249Y-74164630D01*
X201650004Y-74144435D01*
X201650001Y-74144435D01*
X201650000Y-74144435D01*
X201645975Y-74144888D01*
X201638380Y-74145744D01*
X201569558Y-74133687D01*
X201518180Y-74086336D01*
X201500500Y-74022523D01*
X201500500Y-73616697D01*
X201520185Y-73549658D01*
X201572989Y-73503903D01*
X201592397Y-73496925D01*
X201731784Y-73459577D01*
X201868716Y-73380520D01*
X201980520Y-73268716D01*
X202059577Y-73131784D01*
X202100500Y-72979057D01*
X202100500Y-72753476D01*
X202120185Y-72686437D01*
X202172989Y-72640682D01*
X202242147Y-72630738D01*
X202305703Y-72659763D01*
X202329493Y-72687503D01*
X202370184Y-72752262D01*
X202497738Y-72879816D01*
X202558202Y-72917808D01*
X202645520Y-72972674D01*
X202650478Y-72975789D01*
X202788860Y-73024211D01*
X202820745Y-73035368D01*
X202820750Y-73035369D01*
X202999996Y-73055565D01*
X203000000Y-73055565D01*
X203000004Y-73055565D01*
X203179249Y-73035369D01*
X203179252Y-73035368D01*
X203179255Y-73035368D01*
X203349522Y-72975789D01*
X203502262Y-72879816D01*
X203629816Y-72752262D01*
X203725789Y-72599522D01*
X203785368Y-72429255D01*
X203785369Y-72429249D01*
X203805565Y-72250003D01*
X203805565Y-72249996D01*
X203785369Y-72070750D01*
X203785368Y-72070745D01*
X203752040Y-71975499D01*
X203725789Y-71900478D01*
X203629816Y-71747738D01*
X203629814Y-71747736D01*
X203629813Y-71747734D01*
X203627550Y-71744896D01*
X203626659Y-71742715D01*
X203626111Y-71741842D01*
X203626264Y-71741745D01*
X203601144Y-71680209D01*
X203600500Y-71667587D01*
X203600500Y-70529059D01*
X203600501Y-70529046D01*
X203600501Y-70360945D01*
X203600501Y-70360943D01*
X203559577Y-70208215D01*
X203526242Y-70150478D01*
X203526242Y-70150477D01*
X203480522Y-70071287D01*
X203480521Y-70071286D01*
X203480520Y-70071284D01*
X203368716Y-69959480D01*
X203368715Y-69959479D01*
X203364385Y-69955149D01*
X203364374Y-69955139D01*
X203271416Y-69862181D01*
X203237931Y-69800858D01*
X203242915Y-69731166D01*
X203284787Y-69675233D01*
X203350251Y-69650816D01*
X203359097Y-69650500D01*
X203999903Y-69650500D01*
X204066942Y-69670185D01*
G37*
%TD.AperFunction*%
%TA.AperFunction,Conductor*%
G36*
X211351912Y-78499836D02*
G01*
X211396259Y-78528337D01*
X211497738Y-78629816D01*
X211650478Y-78725789D01*
X211820745Y-78785368D01*
X211907669Y-78795161D01*
X211972080Y-78822226D01*
X211981464Y-78830699D01*
X212563084Y-79412319D01*
X212596568Y-79473641D01*
X212591584Y-79543333D01*
X212563083Y-79587680D01*
X211981465Y-80169298D01*
X211920142Y-80202783D01*
X211907668Y-80204837D01*
X211820750Y-80214630D01*
X211650478Y-80274210D01*
X211497737Y-80370184D01*
X211370184Y-80497737D01*
X211274211Y-80650476D01*
X211214631Y-80820745D01*
X211214630Y-80820750D01*
X211194435Y-80999996D01*
X211194435Y-81000003D01*
X211214630Y-81179249D01*
X211214631Y-81179254D01*
X211274211Y-81349523D01*
X211337347Y-81450003D01*
X211370184Y-81502262D01*
X211497738Y-81629816D01*
X211566648Y-81673115D01*
X211648822Y-81724749D01*
X211650478Y-81725789D01*
X211788860Y-81774211D01*
X211820745Y-81785368D01*
X211820750Y-81785369D01*
X211999996Y-81805565D01*
X212000000Y-81805565D01*
X212000004Y-81805565D01*
X212179249Y-81785369D01*
X212179252Y-81785368D01*
X212179255Y-81785368D01*
X212349522Y-81725789D01*
X212502262Y-81629816D01*
X212629816Y-81502262D01*
X212725789Y-81349522D01*
X212785368Y-81179255D01*
X212795161Y-81092329D01*
X212822226Y-81027918D01*
X212830690Y-81018543D01*
X213462416Y-80386819D01*
X213523739Y-80353334D01*
X213550097Y-80350500D01*
X213586317Y-80350500D01*
X213618409Y-80354725D01*
X213636320Y-80359523D01*
X213655019Y-80364534D01*
X213695942Y-80375500D01*
X213695943Y-80375500D01*
X213775500Y-80375500D01*
X213842539Y-80395185D01*
X213888294Y-80447989D01*
X213899500Y-80499500D01*
X213899500Y-81272870D01*
X213899501Y-81272876D01*
X213905908Y-81332483D01*
X213956202Y-81467328D01*
X213956203Y-81467329D01*
X213956204Y-81467331D01*
X214024013Y-81557912D01*
X214042452Y-81582543D01*
X214042455Y-81582547D01*
X214099810Y-81625482D01*
X214141682Y-81681415D01*
X214149500Y-81724749D01*
X214149500Y-82022523D01*
X214129815Y-82089562D01*
X214077011Y-82135317D01*
X214011620Y-82145744D01*
X214004024Y-82144888D01*
X214000000Y-82144435D01*
X213999999Y-82144435D01*
X213999996Y-82144435D01*
X213820750Y-82164630D01*
X213820745Y-82164631D01*
X213650476Y-82224211D01*
X213497737Y-82320184D01*
X213370184Y-82447737D01*
X213274210Y-82600478D01*
X213214630Y-82770750D01*
X213206898Y-82839383D01*
X213179832Y-82903797D01*
X213122237Y-82943352D01*
X213083678Y-82949500D01*
X212591078Y-82949500D01*
X212524039Y-82929815D01*
X212478284Y-82877011D01*
X212469460Y-82849686D01*
X212469086Y-82847809D01*
X212469086Y-82847804D01*
X212418478Y-82685394D01*
X212330472Y-82539815D01*
X212330470Y-82539813D01*
X212330469Y-82539811D01*
X212210188Y-82419530D01*
X212149856Y-82383058D01*
X212064606Y-82331522D01*
X211902196Y-82280914D01*
X211902194Y-82280913D01*
X211902192Y-82280913D01*
X211852778Y-82276423D01*
X211831616Y-82274500D01*
X211168384Y-82274500D01*
X211149145Y-82276248D01*
X211097807Y-82280913D01*
X210935393Y-82331522D01*
X210789811Y-82419530D01*
X210669531Y-82539810D01*
X210669528Y-82539814D01*
X210599905Y-82654983D01*
X210548377Y-82702170D01*
X210479517Y-82714008D01*
X210452835Y-82707874D01*
X210329257Y-82664632D01*
X210329249Y-82664630D01*
X210150004Y-82644435D01*
X210149996Y-82644435D01*
X209988975Y-82662577D01*
X209920153Y-82650522D01*
X209868976Y-82603508D01*
X209830472Y-82539815D01*
X209830470Y-82539813D01*
X209830469Y-82539811D01*
X209710188Y-82419530D01*
X209649856Y-82383058D01*
X209564606Y-82331522D01*
X209402196Y-82280914D01*
X209402194Y-82280913D01*
X209402192Y-82280913D01*
X209352778Y-82276423D01*
X209331616Y-82274500D01*
X208668384Y-82274500D01*
X208649145Y-82276248D01*
X208597807Y-82280913D01*
X208435393Y-82331522D01*
X208314150Y-82404817D01*
X208246595Y-82422653D01*
X208185849Y-82404816D01*
X208160347Y-82389399D01*
X208113161Y-82337871D01*
X208100500Y-82283284D01*
X208100500Y-81700096D01*
X208120185Y-81633057D01*
X208136814Y-81612420D01*
X211220897Y-78528336D01*
X211282220Y-78494852D01*
X211351912Y-78499836D01*
G37*
%TD.AperFunction*%
%TA.AperFunction,Conductor*%
G36*
X216855702Y-77205383D02*
G01*
X216862180Y-77211415D01*
X216863181Y-77212416D01*
X216896666Y-77273739D01*
X216899500Y-77300097D01*
X216899500Y-79731284D01*
X216879815Y-79798323D01*
X216827011Y-79844078D01*
X216789288Y-79854515D01*
X216788287Y-79854627D01*
X216719475Y-79842519D01*
X216668132Y-79795130D01*
X216650499Y-79731396D01*
X216650499Y-79377129D01*
X216650498Y-79377123D01*
X216647531Y-79349523D01*
X216644091Y-79317517D01*
X216593796Y-79182669D01*
X216593795Y-79182668D01*
X216593793Y-79182664D01*
X216507547Y-79067455D01*
X216507544Y-79067452D01*
X216392335Y-78981206D01*
X216392328Y-78981202D01*
X216257482Y-78930908D01*
X216257483Y-78930908D01*
X216197883Y-78924501D01*
X216197881Y-78924500D01*
X216197873Y-78924500D01*
X216197864Y-78924500D01*
X214352129Y-78924500D01*
X214352123Y-78924501D01*
X214292516Y-78930908D01*
X214157671Y-78981202D01*
X214157668Y-78981204D01*
X214056546Y-79056904D01*
X213991081Y-79081321D01*
X213922808Y-79066469D01*
X213894554Y-79045318D01*
X213846513Y-78997277D01*
X213813028Y-78935954D01*
X213818012Y-78866262D01*
X213859884Y-78810329D01*
X213920312Y-78786375D01*
X213929255Y-78785368D01*
X214099522Y-78725789D01*
X214252262Y-78629816D01*
X214379816Y-78502262D01*
X214391588Y-78483527D01*
X214443923Y-78437236D01*
X214496582Y-78425499D01*
X216197871Y-78425499D01*
X216197872Y-78425499D01*
X216257483Y-78419091D01*
X216392331Y-78368796D01*
X216507546Y-78282546D01*
X216593796Y-78167331D01*
X216644091Y-78032483D01*
X216650500Y-77972873D01*
X216650499Y-77299095D01*
X216670183Y-77232057D01*
X216722987Y-77186302D01*
X216792146Y-77176358D01*
X216855702Y-77205383D01*
G37*
%TD.AperFunction*%
%TA.AperFunction,Conductor*%
G36*
X211992539Y-61345185D02*
G01*
X212038294Y-61397989D01*
X212049500Y-61449500D01*
X212049500Y-61798337D01*
X212049501Y-61798355D01*
X212052009Y-61822899D01*
X212039239Y-61891592D01*
X211991358Y-61942476D01*
X211928651Y-61959500D01*
X210916322Y-61959500D01*
X210849283Y-61939815D01*
X210803528Y-61887011D01*
X210793112Y-61849471D01*
X210793018Y-61848642D01*
X210805024Y-61779811D01*
X210828544Y-61746993D01*
X211213720Y-61361819D01*
X211275043Y-61328334D01*
X211301401Y-61325500D01*
X211925500Y-61325500D01*
X211992539Y-61345185D01*
G37*
%TD.AperFunction*%
%TA.AperFunction,Conductor*%
G36*
X188893039Y-57520185D02*
G01*
X188938794Y-57572989D01*
X188950000Y-57624500D01*
X188950000Y-57700000D01*
X221468560Y-57700000D01*
X221535599Y-57719685D01*
X221581354Y-57772489D01*
X221591298Y-57841647D01*
X221562273Y-57905203D01*
X221556241Y-57911681D01*
X221520184Y-57947737D01*
X221424211Y-58100476D01*
X221364631Y-58270745D01*
X221364630Y-58270750D01*
X221344435Y-58449996D01*
X221344435Y-58450003D01*
X221364630Y-58629249D01*
X221364633Y-58629262D01*
X221401474Y-58734545D01*
X221405036Y-58804324D01*
X221370308Y-58864951D01*
X221308314Y-58897179D01*
X221284433Y-58899500D01*
X220586669Y-58899500D01*
X220586653Y-58899499D01*
X220579057Y-58899499D01*
X220420943Y-58899499D01*
X220413347Y-58899499D01*
X220413331Y-58899500D01*
X219216715Y-58899500D01*
X219149676Y-58879815D01*
X219110598Y-58839650D01*
X219080472Y-58789815D01*
X219080470Y-58789813D01*
X219080469Y-58789811D01*
X218960188Y-58669530D01*
X218893565Y-58629255D01*
X218814606Y-58581522D01*
X218652196Y-58530914D01*
X218652194Y-58530913D01*
X218652192Y-58530913D01*
X218602778Y-58526423D01*
X218581616Y-58524500D01*
X218068384Y-58524500D01*
X218049145Y-58526248D01*
X217997807Y-58530913D01*
X217835393Y-58581522D01*
X217689811Y-58669530D01*
X217569530Y-58789811D01*
X217481522Y-58935393D01*
X217430913Y-59097807D01*
X217424500Y-59168386D01*
X217424500Y-59831613D01*
X217430913Y-59902192D01*
X217430913Y-59902194D01*
X217430914Y-59902196D01*
X217481522Y-60064606D01*
X217559620Y-60193796D01*
X217569530Y-60210188D01*
X217689811Y-60330469D01*
X217689813Y-60330470D01*
X217689815Y-60330472D01*
X217835394Y-60418478D01*
X217997804Y-60469086D01*
X218068384Y-60475500D01*
X218068387Y-60475500D01*
X218581613Y-60475500D01*
X218581616Y-60475500D01*
X218652196Y-60469086D01*
X218814606Y-60418478D01*
X218960185Y-60330472D01*
X219080472Y-60210185D01*
X219110598Y-60160349D01*
X219162126Y-60113162D01*
X219216715Y-60100500D01*
X220025500Y-60100500D01*
X220092539Y-60120185D01*
X220138294Y-60172989D01*
X220149500Y-60224500D01*
X220149500Y-63033677D01*
X220129815Y-63100716D01*
X220077011Y-63146471D01*
X220039384Y-63156897D01*
X219970750Y-63164630D01*
X219800478Y-63224210D01*
X219647737Y-63320184D01*
X219520184Y-63447737D01*
X219424211Y-63600476D01*
X219364631Y-63770745D01*
X219364630Y-63770750D01*
X219344435Y-63949996D01*
X219344435Y-63950003D01*
X219364630Y-64129249D01*
X219364631Y-64129254D01*
X219424211Y-64299523D01*
X219520184Y-64452262D01*
X219646816Y-64578894D01*
X219680301Y-64640217D01*
X219675317Y-64709909D01*
X219633445Y-64765842D01*
X219625108Y-64771568D01*
X219547740Y-64820182D01*
X219547737Y-64820184D01*
X219420184Y-64947737D01*
X219324211Y-65100476D01*
X219264631Y-65270745D01*
X219264630Y-65270750D01*
X219244435Y-65449996D01*
X219244435Y-65450003D01*
X219264630Y-65629249D01*
X219264631Y-65629254D01*
X219324211Y-65799523D01*
X219416521Y-65946432D01*
X219435521Y-66013668D01*
X219415153Y-66080504D01*
X219399208Y-66100085D01*
X218248906Y-67250386D01*
X218187583Y-67283871D01*
X218120271Y-67279747D01*
X218003523Y-67238895D01*
X218003515Y-67238893D01*
X217824270Y-67218698D01*
X217824262Y-67218698D01*
X217645016Y-67238893D01*
X217645011Y-67238894D01*
X217474742Y-67298474D01*
X217322003Y-67394447D01*
X217194450Y-67522000D01*
X217098477Y-67674739D01*
X217038897Y-67845008D01*
X217038896Y-67845013D01*
X217018701Y-68024259D01*
X217018701Y-68024266D01*
X217038896Y-68203512D01*
X217038897Y-68203517D01*
X217098477Y-68373786D01*
X217186158Y-68513329D01*
X217194450Y-68526525D01*
X217322004Y-68654079D01*
X217474744Y-68750052D01*
X217645011Y-68809631D01*
X217645016Y-68809632D01*
X217824262Y-68829828D01*
X217824266Y-68829828D01*
X217824270Y-68829828D01*
X218003515Y-68809632D01*
X218003518Y-68809631D01*
X218003521Y-68809631D01*
X218173788Y-68750052D01*
X218326528Y-68654079D01*
X218326532Y-68654074D01*
X218329363Y-68651818D01*
X218331541Y-68650928D01*
X218332424Y-68650374D01*
X218332521Y-68650528D01*
X218394050Y-68625409D01*
X218401193Y-68625044D01*
X218403320Y-68624764D01*
X218403323Y-68624764D01*
X218556051Y-68583840D01*
X218647721Y-68530914D01*
X218692982Y-68504783D01*
X218804786Y-68392979D01*
X218804786Y-68392977D01*
X218814990Y-68382774D01*
X218814994Y-68382769D01*
X221118713Y-66079050D01*
X221118716Y-66079049D01*
X221230520Y-65967245D01*
X221280639Y-65880433D01*
X221309577Y-65830314D01*
X221350501Y-65677586D01*
X221350501Y-65519472D01*
X221350501Y-65511877D01*
X221350500Y-65511859D01*
X221350500Y-64860576D01*
X221370185Y-64793537D01*
X221422989Y-64747782D01*
X221488383Y-64737356D01*
X221649996Y-64755565D01*
X221650000Y-64755565D01*
X221650004Y-64755565D01*
X221829249Y-64735369D01*
X221829252Y-64735368D01*
X221829255Y-64735368D01*
X221999522Y-64675789D01*
X222152262Y-64579816D01*
X222279816Y-64452262D01*
X222375789Y-64299522D01*
X222435368Y-64129255D01*
X222436074Y-64122989D01*
X222455565Y-63950003D01*
X222455565Y-63949996D01*
X222435369Y-63770750D01*
X222435368Y-63770745D01*
X222415733Y-63714631D01*
X222375789Y-63600478D01*
X222279816Y-63447738D01*
X222152262Y-63320184D01*
X221999523Y-63224211D01*
X221829254Y-63164631D01*
X221829249Y-63164630D01*
X221650004Y-63144435D01*
X221649996Y-63144435D01*
X221488383Y-63162644D01*
X221419561Y-63150589D01*
X221368182Y-63103240D01*
X221350500Y-63039424D01*
X221350500Y-60224500D01*
X221370185Y-60157461D01*
X221422989Y-60111706D01*
X221474500Y-60100500D01*
X223591769Y-60100500D01*
X223658808Y-60120185D01*
X223666080Y-60125233D01*
X223709132Y-60157461D01*
X223738243Y-60179254D01*
X223757668Y-60193795D01*
X223757671Y-60193797D01*
X223892517Y-60244091D01*
X223892516Y-60244091D01*
X223899444Y-60244835D01*
X223952127Y-60250500D01*
X225047872Y-60250499D01*
X225107483Y-60244091D01*
X225242331Y-60193796D01*
X225357546Y-60107546D01*
X225443796Y-59992331D01*
X225494091Y-59857483D01*
X225500500Y-59797873D01*
X225500499Y-58452128D01*
X225494091Y-58392517D01*
X225443796Y-58257669D01*
X225443795Y-58257668D01*
X225443793Y-58257664D01*
X225357547Y-58142455D01*
X225357544Y-58142452D01*
X225242335Y-58056206D01*
X225242328Y-58056202D01*
X225107482Y-58005908D01*
X225107483Y-58005908D01*
X225047883Y-57999501D01*
X225047881Y-57999500D01*
X225047873Y-57999500D01*
X225047864Y-57999500D01*
X223952129Y-57999500D01*
X223952123Y-57999501D01*
X223892516Y-58005908D01*
X223757671Y-58056202D01*
X223757664Y-58056206D01*
X223642455Y-58142452D01*
X223642452Y-58142455D01*
X223556206Y-58257664D01*
X223556202Y-58257671D01*
X223505908Y-58392517D01*
X223499728Y-58450003D01*
X223499501Y-58452123D01*
X223499500Y-58452135D01*
X223499500Y-58775500D01*
X223479815Y-58842539D01*
X223427011Y-58888294D01*
X223375500Y-58899500D01*
X223015567Y-58899500D01*
X222948528Y-58879815D01*
X222902773Y-58827011D01*
X222892829Y-58757853D01*
X222898526Y-58734545D01*
X222935366Y-58629262D01*
X222935369Y-58629249D01*
X222955565Y-58450003D01*
X222955565Y-58449996D01*
X222935369Y-58270750D01*
X222935368Y-58270745D01*
X222930793Y-58257671D01*
X222875789Y-58100478D01*
X222779816Y-57947738D01*
X222743759Y-57911681D01*
X222710274Y-57850358D01*
X222715258Y-57780666D01*
X222757130Y-57724733D01*
X222822594Y-57700316D01*
X222831440Y-57700000D01*
X226625500Y-57700000D01*
X226692539Y-57719685D01*
X226738294Y-57772489D01*
X226749500Y-57824000D01*
X226749500Y-69650500D01*
X226729815Y-69717539D01*
X226677011Y-69763294D01*
X226625500Y-69774500D01*
X225252129Y-69774500D01*
X225252123Y-69774501D01*
X225192516Y-69780908D01*
X225057671Y-69831202D01*
X225057668Y-69831204D01*
X225012726Y-69864848D01*
X224947261Y-69889265D01*
X224878988Y-69874413D01*
X224829583Y-69825008D01*
X224822233Y-69808913D01*
X224793798Y-69732673D01*
X224793793Y-69732664D01*
X224707547Y-69617455D01*
X224707544Y-69617452D01*
X224607209Y-69542341D01*
X224565338Y-69486408D01*
X224560354Y-69416716D01*
X224593835Y-69355398D01*
X224980520Y-68968716D01*
X225059577Y-68831784D01*
X225100501Y-68679057D01*
X225100501Y-68520942D01*
X225100501Y-68513347D01*
X225100500Y-68513329D01*
X225100500Y-68082790D01*
X225120185Y-68015751D01*
X225172989Y-67969996D01*
X225181146Y-67966616D01*
X225242331Y-67943796D01*
X225357546Y-67857546D01*
X225443796Y-67742331D01*
X225494091Y-67607483D01*
X225500500Y-67547873D01*
X225500499Y-66202128D01*
X225494091Y-66142517D01*
X225489901Y-66131284D01*
X225443797Y-66007671D01*
X225443793Y-66007664D01*
X225357547Y-65892455D01*
X225357544Y-65892452D01*
X225242335Y-65806206D01*
X225242328Y-65806202D01*
X225107482Y-65755908D01*
X225107483Y-65755908D01*
X225047883Y-65749501D01*
X225047881Y-65749500D01*
X225047873Y-65749500D01*
X225047864Y-65749500D01*
X223952129Y-65749500D01*
X223952123Y-65749501D01*
X223892516Y-65755908D01*
X223757671Y-65806202D01*
X223757664Y-65806206D01*
X223642455Y-65892452D01*
X223642452Y-65892455D01*
X223556206Y-66007664D01*
X223556202Y-66007671D01*
X223505908Y-66142517D01*
X223499501Y-66202116D01*
X223499501Y-66202123D01*
X223499500Y-66202135D01*
X223499500Y-67547870D01*
X223499501Y-67547876D01*
X223505908Y-67607483D01*
X223556202Y-67742328D01*
X223556206Y-67742335D01*
X223642452Y-67857544D01*
X223642455Y-67857547D01*
X223757664Y-67943793D01*
X223757669Y-67943796D01*
X223818833Y-67966608D01*
X223874766Y-68008478D01*
X223899184Y-68073942D01*
X223899500Y-68082790D01*
X223899500Y-68299902D01*
X223879815Y-68366941D01*
X223863181Y-68387583D01*
X223631465Y-68619298D01*
X223570142Y-68652783D01*
X223557668Y-68654837D01*
X223470750Y-68664630D01*
X223300478Y-68724210D01*
X223147737Y-68820184D01*
X223020184Y-68947737D01*
X222924211Y-69100476D01*
X222864631Y-69270745D01*
X222864630Y-69270749D01*
X222849410Y-69405835D01*
X222822343Y-69470249D01*
X222769524Y-69508133D01*
X222707669Y-69531203D01*
X222707664Y-69531206D01*
X222592455Y-69617452D01*
X222592452Y-69617455D01*
X222506206Y-69732664D01*
X222506202Y-69732671D01*
X222455908Y-69867517D01*
X222450540Y-69917454D01*
X222449501Y-69927123D01*
X222449500Y-69927135D01*
X222449500Y-70822870D01*
X222449501Y-70822876D01*
X222455908Y-70882483D01*
X222506202Y-71017328D01*
X222506206Y-71017335D01*
X222592452Y-71132544D01*
X222592455Y-71132547D01*
X222707664Y-71218793D01*
X222707671Y-71218797D01*
X222842517Y-71269091D01*
X222842516Y-71269091D01*
X222849444Y-71269835D01*
X222902127Y-71275500D01*
X224397872Y-71275499D01*
X224457483Y-71269091D01*
X224592331Y-71218796D01*
X224601186Y-71212166D01*
X224666649Y-71187747D01*
X224734923Y-71202596D01*
X224784330Y-71252000D01*
X224799500Y-71311423D01*
X224799500Y-71322865D01*
X224799501Y-71322876D01*
X224805908Y-71382483D01*
X224856202Y-71517328D01*
X224856206Y-71517335D01*
X224942452Y-71632544D01*
X224942455Y-71632547D01*
X225057664Y-71718793D01*
X225057671Y-71718797D01*
X225192517Y-71769091D01*
X225192516Y-71769091D01*
X225199444Y-71769835D01*
X225252127Y-71775500D01*
X226625500Y-71775499D01*
X226692539Y-71795184D01*
X226738294Y-71847987D01*
X226749500Y-71899499D01*
X226749500Y-80768060D01*
X226729815Y-80835099D01*
X226677011Y-80880854D01*
X226607853Y-80890798D01*
X226544297Y-80861773D01*
X226537819Y-80855741D01*
X226502262Y-80820184D01*
X226349523Y-80724211D01*
X226179254Y-80664631D01*
X226179249Y-80664630D01*
X226000004Y-80644435D01*
X225999996Y-80644435D01*
X225820750Y-80664630D01*
X225820745Y-80664631D01*
X225650476Y-80724211D01*
X225497737Y-80820184D01*
X225370184Y-80947737D01*
X225274211Y-81100476D01*
X225214631Y-81270745D01*
X225214630Y-81270750D01*
X225194435Y-81449996D01*
X225194435Y-81450003D01*
X225214630Y-81629249D01*
X225214631Y-81629254D01*
X225274211Y-81799523D01*
X225356080Y-81929815D01*
X225370184Y-81952262D01*
X225497738Y-82079816D01*
X225580693Y-82131940D01*
X225632721Y-82164632D01*
X225650478Y-82175789D01*
X225788860Y-82224211D01*
X225820745Y-82235368D01*
X225820750Y-82235369D01*
X225999996Y-82255565D01*
X226000000Y-82255565D01*
X226000004Y-82255565D01*
X226179249Y-82235369D01*
X226179252Y-82235368D01*
X226179255Y-82235368D01*
X226349522Y-82175789D01*
X226502262Y-82079816D01*
X226537819Y-82044259D01*
X226599142Y-82010774D01*
X226668834Y-82015758D01*
X226724767Y-82057630D01*
X226749184Y-82123094D01*
X226749500Y-82131940D01*
X226749500Y-97625500D01*
X226729815Y-97692539D01*
X226677011Y-97738294D01*
X226625500Y-97749500D01*
X177874500Y-97749500D01*
X177807461Y-97729815D01*
X177761706Y-97677011D01*
X177750500Y-97625500D01*
X177750500Y-75798543D01*
X180249499Y-75798543D01*
X180287947Y-75991829D01*
X180287950Y-75991839D01*
X180363364Y-76173907D01*
X180363371Y-76173920D01*
X180472860Y-76337781D01*
X180472863Y-76337785D01*
X180612214Y-76477136D01*
X180612218Y-76477139D01*
X180776079Y-76586628D01*
X180776092Y-76586635D01*
X180958160Y-76662049D01*
X180958165Y-76662051D01*
X180958169Y-76662051D01*
X180958170Y-76662052D01*
X181151456Y-76700500D01*
X181151459Y-76700500D01*
X182848543Y-76700500D01*
X182978582Y-76674632D01*
X183041835Y-76662051D01*
X183182655Y-76603721D01*
X183223907Y-76586635D01*
X183223907Y-76586634D01*
X183223914Y-76586632D01*
X183387782Y-76477139D01*
X183527139Y-76337782D01*
X183636632Y-76173914D01*
X183647822Y-76146900D01*
X183667041Y-76100500D01*
X183712051Y-75991835D01*
X183748134Y-75810437D01*
X183750500Y-75798543D01*
X183750500Y-75601456D01*
X183712052Y-75408170D01*
X183712051Y-75408169D01*
X183712051Y-75408165D01*
X183712049Y-75408160D01*
X183636635Y-75226092D01*
X183636628Y-75226079D01*
X183527139Y-75062218D01*
X183527136Y-75062214D01*
X183387785Y-74922863D01*
X183387781Y-74922860D01*
X183223920Y-74813371D01*
X183223907Y-74813364D01*
X183041839Y-74737950D01*
X183041829Y-74737947D01*
X182848543Y-74699500D01*
X182848541Y-74699500D01*
X181151459Y-74699500D01*
X181151457Y-74699500D01*
X180958170Y-74737947D01*
X180958160Y-74737950D01*
X180776092Y-74813364D01*
X180776079Y-74813371D01*
X180612218Y-74922860D01*
X180612214Y-74922863D01*
X180472863Y-75062214D01*
X180472860Y-75062218D01*
X180363371Y-75226079D01*
X180363364Y-75226092D01*
X180287950Y-75408160D01*
X180287947Y-75408170D01*
X180249500Y-75601456D01*
X180249500Y-75601459D01*
X180249500Y-75798541D01*
X180249500Y-75798543D01*
X180249499Y-75798543D01*
X177750500Y-75798543D01*
X177750500Y-73258543D01*
X180249499Y-73258543D01*
X180287947Y-73451829D01*
X180287950Y-73451839D01*
X180363364Y-73633907D01*
X180363371Y-73633920D01*
X180472860Y-73797781D01*
X180472863Y-73797785D01*
X180612214Y-73937136D01*
X180612218Y-73937139D01*
X180776079Y-74046628D01*
X180776092Y-74046635D01*
X180958160Y-74122049D01*
X180958165Y-74122051D01*
X180958169Y-74122051D01*
X180958170Y-74122052D01*
X181151456Y-74160500D01*
X181151459Y-74160500D01*
X182848543Y-74160500D01*
X182978582Y-74134632D01*
X183041835Y-74122051D01*
X183223914Y-74046632D01*
X183387782Y-73937139D01*
X183527139Y-73797782D01*
X183636632Y-73633914D01*
X183643764Y-73616697D01*
X183661917Y-73572869D01*
X183712051Y-73451835D01*
X183748476Y-73268716D01*
X183750500Y-73258543D01*
X183750500Y-73061456D01*
X183712052Y-72868170D01*
X183712051Y-72868169D01*
X183712051Y-72868165D01*
X183683619Y-72799523D01*
X183636635Y-72686092D01*
X183636628Y-72686079D01*
X183527139Y-72522218D01*
X183527136Y-72522214D01*
X183387785Y-72382863D01*
X183387781Y-72382860D01*
X183223920Y-72273371D01*
X183223907Y-72273364D01*
X183041839Y-72197950D01*
X183041829Y-72197947D01*
X182848543Y-72159500D01*
X182848541Y-72159500D01*
X181151459Y-72159500D01*
X181151457Y-72159500D01*
X180958170Y-72197947D01*
X180958160Y-72197950D01*
X180776092Y-72273364D01*
X180776079Y-72273371D01*
X180612218Y-72382860D01*
X180612214Y-72382863D01*
X180472863Y-72522214D01*
X180472860Y-72522218D01*
X180363371Y-72686079D01*
X180363364Y-72686092D01*
X180287950Y-72868160D01*
X180287947Y-72868170D01*
X180249500Y-73061456D01*
X180249500Y-73061459D01*
X180249500Y-73258541D01*
X180249500Y-73258543D01*
X180249499Y-73258543D01*
X177750500Y-73258543D01*
X177750500Y-70718543D01*
X180249499Y-70718543D01*
X180287947Y-70911829D01*
X180287950Y-70911839D01*
X180363364Y-71093907D01*
X180363371Y-71093920D01*
X180472860Y-71257781D01*
X180472863Y-71257785D01*
X180612214Y-71397136D01*
X180612218Y-71397139D01*
X180776079Y-71506628D01*
X180776092Y-71506635D01*
X180906645Y-71560711D01*
X180958165Y-71582051D01*
X180958169Y-71582051D01*
X180958170Y-71582052D01*
X181151456Y-71620500D01*
X181151459Y-71620500D01*
X182848543Y-71620500D01*
X182978582Y-71594632D01*
X183041835Y-71582051D01*
X183184726Y-71522864D01*
X183223907Y-71506635D01*
X183223907Y-71506634D01*
X183223914Y-71506632D01*
X183387782Y-71397139D01*
X183527139Y-71257782D01*
X183636632Y-71093914D01*
X183712051Y-70911835D01*
X183729747Y-70822872D01*
X183750500Y-70718543D01*
X183750500Y-70521456D01*
X183712052Y-70328170D01*
X183712051Y-70328169D01*
X183712051Y-70328165D01*
X183706447Y-70314635D01*
X183636635Y-70146092D01*
X183636628Y-70146079D01*
X183539018Y-69999996D01*
X184944435Y-69999996D01*
X184944435Y-70000003D01*
X184964630Y-70179249D01*
X184964631Y-70179254D01*
X185024211Y-70349523D01*
X185039725Y-70374213D01*
X185117341Y-70497738D01*
X185120185Y-70502263D01*
X185122445Y-70505097D01*
X185123334Y-70507275D01*
X185123889Y-70508158D01*
X185123734Y-70508255D01*
X185148855Y-70569783D01*
X185149500Y-70582412D01*
X185149500Y-85213330D01*
X185149499Y-85213348D01*
X185149499Y-85379054D01*
X185149498Y-85379054D01*
X185149499Y-85379057D01*
X185190423Y-85531785D01*
X185190424Y-85531787D01*
X185190423Y-85531787D01*
X185205505Y-85557908D01*
X185205507Y-85557910D01*
X185205508Y-85557912D01*
X185235926Y-85610598D01*
X185269479Y-85668715D01*
X185388349Y-85787585D01*
X185388355Y-85787590D01*
X187738181Y-88137416D01*
X187771666Y-88198739D01*
X187774500Y-88225097D01*
X187774500Y-89222870D01*
X187774501Y-89222876D01*
X187780908Y-89282483D01*
X187831202Y-89417328D01*
X187831206Y-89417335D01*
X187917452Y-89532544D01*
X187917455Y-89532547D01*
X188032664Y-89618793D01*
X188032671Y-89618797D01*
X188167517Y-89669091D01*
X188167516Y-89669091D01*
X188174444Y-89669835D01*
X188227127Y-89675500D01*
X189672872Y-89675499D01*
X189732483Y-89669091D01*
X189867331Y-89618796D01*
X189982546Y-89532546D01*
X190068796Y-89417331D01*
X190119091Y-89282483D01*
X190125500Y-89222873D01*
X190125499Y-87777128D01*
X190119091Y-87717517D01*
X190108014Y-87687819D01*
X190068797Y-87582671D01*
X190068793Y-87582664D01*
X189982547Y-87467455D01*
X189982544Y-87467452D01*
X189896895Y-87403335D01*
X189855024Y-87347402D01*
X189850040Y-87277710D01*
X189872251Y-87229344D01*
X189953712Y-87121472D01*
X190050817Y-86926459D01*
X190110435Y-86716923D01*
X190130536Y-86500000D01*
X190110435Y-86283077D01*
X190050817Y-86073541D01*
X189953712Y-85878528D01*
X189822427Y-85704678D01*
X189698423Y-85591634D01*
X189662145Y-85531927D01*
X189663905Y-85462079D01*
X189698423Y-85408365D01*
X189822427Y-85295322D01*
X189953712Y-85121472D01*
X190050817Y-84926459D01*
X190110435Y-84716923D01*
X190130536Y-84500000D01*
X190110435Y-84283077D01*
X190050817Y-84073541D01*
X189953712Y-83878528D01*
X189822427Y-83704678D01*
X189788262Y-83673533D01*
X189661433Y-83557913D01*
X189661423Y-83557906D01*
X189476213Y-83443229D01*
X189476207Y-83443226D01*
X189386211Y-83408362D01*
X189273069Y-83364530D01*
X189058926Y-83324500D01*
X188841074Y-83324500D01*
X188626931Y-83364530D01*
X188592781Y-83377760D01*
X188423792Y-83443226D01*
X188423786Y-83443229D01*
X188238576Y-83557906D01*
X188238566Y-83557913D01*
X188077574Y-83704676D01*
X187946288Y-83878527D01*
X187849184Y-84073537D01*
X187849183Y-84073541D01*
X187798676Y-84251057D01*
X187789564Y-84283081D01*
X187769464Y-84499999D01*
X187769464Y-84500000D01*
X187789564Y-84716918D01*
X187789564Y-84716920D01*
X187789565Y-84716923D01*
X187829052Y-84855704D01*
X187849184Y-84926462D01*
X187946288Y-85121472D01*
X188077574Y-85295324D01*
X188201572Y-85408363D01*
X188237854Y-85468074D01*
X188236093Y-85537922D01*
X188201572Y-85591637D01*
X188077574Y-85704675D01*
X187946288Y-85878527D01*
X187849183Y-86073539D01*
X187849180Y-86073545D01*
X187801402Y-86241473D01*
X187764123Y-86300566D01*
X187700814Y-86330124D01*
X187631574Y-86320762D01*
X187594455Y-86295220D01*
X186386819Y-85087584D01*
X186353334Y-85026261D01*
X186350500Y-84999903D01*
X186350500Y-82499999D01*
X191819464Y-82499999D01*
X191819464Y-82500000D01*
X191839564Y-82716918D01*
X191839564Y-82716920D01*
X191839565Y-82716923D01*
X191899183Y-82926459D01*
X191899184Y-82926462D01*
X191996288Y-83121472D01*
X192127574Y-83295324D01*
X192251572Y-83408363D01*
X192287854Y-83468074D01*
X192286093Y-83537922D01*
X192251572Y-83591637D01*
X192127574Y-83704675D01*
X191996288Y-83878527D01*
X191899184Y-84073537D01*
X191899183Y-84073541D01*
X191848676Y-84251057D01*
X191839564Y-84283081D01*
X191819464Y-84499999D01*
X191819464Y-84500000D01*
X191839564Y-84716918D01*
X191839564Y-84716920D01*
X191839565Y-84716923D01*
X191879052Y-84855704D01*
X191899184Y-84926462D01*
X191996288Y-85121472D01*
X192127574Y-85295324D01*
X192251572Y-85408363D01*
X192287854Y-85468074D01*
X192286093Y-85537922D01*
X192251572Y-85591637D01*
X192127574Y-85704675D01*
X191996288Y-85878527D01*
X191899184Y-86073537D01*
X191839564Y-86283081D01*
X191819464Y-86499999D01*
X191819464Y-86500000D01*
X191839564Y-86716918D01*
X191839564Y-86716920D01*
X191839565Y-86716923D01*
X191882754Y-86868716D01*
X191899184Y-86926462D01*
X191960831Y-87050265D01*
X191996288Y-87121472D01*
X192127573Y-87295322D01*
X192288568Y-87442088D01*
X192288575Y-87442092D01*
X192288576Y-87442093D01*
X192473786Y-87556770D01*
X192473792Y-87556773D01*
X192496664Y-87565633D01*
X192676931Y-87635470D01*
X192891074Y-87675500D01*
X192891076Y-87675500D01*
X193108924Y-87675500D01*
X193108926Y-87675500D01*
X193323069Y-87635470D01*
X193526210Y-87556772D01*
X193711432Y-87442088D01*
X193872427Y-87295322D01*
X194003712Y-87121472D01*
X194100817Y-86926459D01*
X194160435Y-86716923D01*
X194180536Y-86500000D01*
X194160435Y-86283077D01*
X194100817Y-86073541D01*
X194003712Y-85878528D01*
X193872427Y-85704678D01*
X193748423Y-85591634D01*
X193712145Y-85531927D01*
X193713905Y-85462079D01*
X193748423Y-85408365D01*
X193872427Y-85295322D01*
X194003712Y-85121472D01*
X194100817Y-84926459D01*
X194160435Y-84716923D01*
X194180536Y-84500000D01*
X194160435Y-84283077D01*
X194100817Y-84073541D01*
X194003712Y-83878528D01*
X193872427Y-83704678D01*
X193748423Y-83591634D01*
X193712145Y-83531927D01*
X193713905Y-83462079D01*
X193748423Y-83408365D01*
X193872427Y-83295322D01*
X194003712Y-83121472D01*
X194004827Y-83119231D01*
X194005647Y-83118347D01*
X194006729Y-83116600D01*
X194007070Y-83116811D01*
X194052328Y-83067994D01*
X194115829Y-83050500D01*
X194867060Y-83050500D01*
X194934099Y-83070185D01*
X194954741Y-83086819D01*
X194997738Y-83129816D01*
X195059774Y-83168796D01*
X195150014Y-83225498D01*
X195150478Y-83225789D01*
X195320745Y-83285368D01*
X195389384Y-83293101D01*
X195453796Y-83320166D01*
X195493352Y-83377760D01*
X195499500Y-83416321D01*
X195499500Y-95611859D01*
X195499499Y-95611877D01*
X195499499Y-95777583D01*
X195499498Y-95777583D01*
X195540423Y-95930314D01*
X195569358Y-95980429D01*
X195569359Y-95980433D01*
X195569360Y-95980433D01*
X195619480Y-96067245D01*
X195731284Y-96179049D01*
X195731285Y-96179050D01*
X196132755Y-96580520D01*
X196132757Y-96580521D01*
X196132761Y-96580524D01*
X196269680Y-96659573D01*
X196269687Y-96659577D01*
X196422414Y-96700501D01*
X196422416Y-96700501D01*
X196588125Y-96700501D01*
X196588141Y-96700500D01*
X204063331Y-96700500D01*
X204063347Y-96700501D01*
X204070943Y-96700501D01*
X204229054Y-96700501D01*
X204229057Y-96700501D01*
X204381785Y-96659577D01*
X204431904Y-96630639D01*
X204518716Y-96580520D01*
X204630520Y-96468716D01*
X204630520Y-96468714D01*
X204640728Y-96458507D01*
X204640730Y-96458504D01*
X205403713Y-95695521D01*
X205403716Y-95695520D01*
X205515520Y-95583716D01*
X205549436Y-95524968D01*
X205599999Y-95476755D01*
X205604357Y-95474616D01*
X205712830Y-95424035D01*
X205906401Y-95288495D01*
X206073495Y-95121401D01*
X206203425Y-94935842D01*
X206258002Y-94892217D01*
X206327500Y-94885023D01*
X206389855Y-94916546D01*
X206406575Y-94935842D01*
X206536500Y-95121395D01*
X206536505Y-95121401D01*
X206703599Y-95288495D01*
X206728833Y-95306164D01*
X206897165Y-95424032D01*
X206897167Y-95424033D01*
X206897170Y-95424035D01*
X207111337Y-95523903D01*
X207111343Y-95523904D01*
X207111344Y-95523905D01*
X207166285Y-95538626D01*
X207339592Y-95585063D01*
X207527918Y-95601539D01*
X207574999Y-95605659D01*
X207575000Y-95605659D01*
X207575001Y-95605659D01*
X207614234Y-95602226D01*
X207810408Y-95585063D01*
X208038663Y-95523903D01*
X208252830Y-95424035D01*
X208446401Y-95288495D01*
X208613495Y-95121401D01*
X208743425Y-94935842D01*
X208798002Y-94892217D01*
X208867500Y-94885023D01*
X208929855Y-94916546D01*
X208946575Y-94935842D01*
X209076500Y-95121395D01*
X209076505Y-95121401D01*
X209243599Y-95288495D01*
X209268833Y-95306164D01*
X209437165Y-95424032D01*
X209437167Y-95424033D01*
X209437170Y-95424035D01*
X209651337Y-95523903D01*
X209651343Y-95523904D01*
X209651344Y-95523905D01*
X209706285Y-95538626D01*
X209879592Y-95585063D01*
X210067918Y-95601539D01*
X210114999Y-95605659D01*
X210115000Y-95605659D01*
X210115001Y-95605659D01*
X210154234Y-95602226D01*
X210350408Y-95585063D01*
X210578663Y-95523903D01*
X210792830Y-95424035D01*
X210986401Y-95288495D01*
X211153495Y-95121401D01*
X211289035Y-94927830D01*
X211388903Y-94713663D01*
X211450063Y-94485408D01*
X211470659Y-94250000D01*
X211450063Y-94014592D01*
X211388903Y-93786337D01*
X211289035Y-93572171D01*
X211283425Y-93564158D01*
X211153494Y-93378597D01*
X210986402Y-93211506D01*
X210986395Y-93211501D01*
X210792834Y-93075967D01*
X210792830Y-93075965D01*
X210653094Y-93010805D01*
X210578663Y-92976097D01*
X210578659Y-92976096D01*
X210578655Y-92976094D01*
X210350413Y-92914938D01*
X210350403Y-92914936D01*
X210115001Y-92894341D01*
X210114998Y-92894341D01*
X210087153Y-92896777D01*
X210018653Y-92883010D01*
X209968470Y-92834395D01*
X209953209Y-92769234D01*
X214184500Y-92769234D01*
X214184500Y-92920766D01*
X214189615Y-92939855D01*
X214223719Y-93067136D01*
X214253716Y-93119091D01*
X214299485Y-93198365D01*
X214406635Y-93305515D01*
X214520281Y-93371129D01*
X214533219Y-93378599D01*
X214537865Y-93381281D01*
X214684234Y-93420500D01*
X214684236Y-93420500D01*
X214835764Y-93420500D01*
X214835766Y-93420500D01*
X214982135Y-93381281D01*
X215113365Y-93305515D01*
X215220515Y-93198365D01*
X215296281Y-93067135D01*
X215335500Y-92920766D01*
X215335500Y-92769234D01*
X219964500Y-92769234D01*
X219964500Y-92920766D01*
X219969615Y-92939855D01*
X220003719Y-93067136D01*
X220033716Y-93119091D01*
X220079485Y-93198365D01*
X220186635Y-93305515D01*
X220300281Y-93371129D01*
X220313219Y-93378599D01*
X220317865Y-93381281D01*
X220464234Y-93420500D01*
X220464236Y-93420500D01*
X220615764Y-93420500D01*
X220615766Y-93420500D01*
X220762135Y-93381281D01*
X220893365Y-93305515D01*
X221000515Y-93198365D01*
X221076281Y-93067135D01*
X221115500Y-92920766D01*
X221115500Y-92769234D01*
X221076281Y-92622865D01*
X221000515Y-92491635D01*
X220893365Y-92384485D01*
X220827750Y-92346602D01*
X220762136Y-92308719D01*
X220688950Y-92289109D01*
X220615766Y-92269500D01*
X220464234Y-92269500D01*
X220317863Y-92308719D01*
X220186635Y-92384485D01*
X220186632Y-92384487D01*
X220079487Y-92491632D01*
X220079485Y-92491635D01*
X220003719Y-92622863D01*
X219974347Y-92732483D01*
X219964500Y-92769234D01*
X215335500Y-92769234D01*
X215296281Y-92622865D01*
X215220515Y-92491635D01*
X215113365Y-92384485D01*
X215047750Y-92346602D01*
X214982136Y-92308719D01*
X214908950Y-92289109D01*
X214835766Y-92269500D01*
X214684234Y-92269500D01*
X214537863Y-92308719D01*
X214406635Y-92384485D01*
X214406632Y-92384487D01*
X214299487Y-92491632D01*
X214299485Y-92491635D01*
X214223719Y-92622863D01*
X214194347Y-92732483D01*
X214184500Y-92769234D01*
X209953209Y-92769234D01*
X209952537Y-92766366D01*
X209975913Y-92700523D01*
X209988659Y-92685574D01*
X211447099Y-91227135D01*
X223974500Y-91227135D01*
X223974500Y-92672870D01*
X223974501Y-92672876D01*
X223980908Y-92732483D01*
X224031202Y-92867328D01*
X224031206Y-92867335D01*
X224117452Y-92982544D01*
X224117455Y-92982547D01*
X224232664Y-93068793D01*
X224232671Y-93068797D01*
X224367517Y-93119091D01*
X224367516Y-93119091D01*
X224374444Y-93119835D01*
X224427127Y-93125500D01*
X225872872Y-93125499D01*
X225932483Y-93119091D01*
X226067331Y-93068796D01*
X226182546Y-92982546D01*
X226268796Y-92867331D01*
X226319091Y-92732483D01*
X226325500Y-92672873D01*
X226325499Y-91227128D01*
X226319091Y-91167517D01*
X226268796Y-91032669D01*
X226268795Y-91032668D01*
X226268793Y-91032664D01*
X226182547Y-90917455D01*
X226182544Y-90917452D01*
X226067335Y-90831206D01*
X226067328Y-90831202D01*
X225932482Y-90780908D01*
X225932483Y-90780908D01*
X225872883Y-90774501D01*
X225872881Y-90774500D01*
X225872873Y-90774500D01*
X225872864Y-90774500D01*
X224427129Y-90774500D01*
X224427123Y-90774501D01*
X224367516Y-90780908D01*
X224232671Y-90831202D01*
X224232664Y-90831206D01*
X224117455Y-90917452D01*
X224117452Y-90917455D01*
X224031206Y-91032664D01*
X224031202Y-91032671D01*
X223980908Y-91167517D01*
X223974501Y-91227116D01*
X223974501Y-91227123D01*
X223974500Y-91227135D01*
X211447099Y-91227135D01*
X212724238Y-89949996D01*
X222344435Y-89949996D01*
X222344435Y-89950003D01*
X222364630Y-90129249D01*
X222364631Y-90129254D01*
X222424211Y-90299523D01*
X222505603Y-90429057D01*
X222520184Y-90452262D01*
X222647738Y-90579816D01*
X222738080Y-90636582D01*
X222790147Y-90669298D01*
X222800478Y-90675789D01*
X222911479Y-90714630D01*
X222970745Y-90735368D01*
X222970750Y-90735369D01*
X223149996Y-90755565D01*
X223150000Y-90755565D01*
X223150004Y-90755565D01*
X223329249Y-90735369D01*
X223329252Y-90735368D01*
X223329255Y-90735368D01*
X223499522Y-90675789D01*
X223652262Y-90579816D01*
X223779816Y-90452262D01*
X223875789Y-90299522D01*
X223935368Y-90129255D01*
X223936612Y-90118215D01*
X223955565Y-89950003D01*
X223955565Y-89949996D01*
X223935369Y-89770750D01*
X223935368Y-89770745D01*
X223902040Y-89675499D01*
X223875789Y-89600478D01*
X223779816Y-89447738D01*
X223652262Y-89320184D01*
X223628996Y-89305565D01*
X223499523Y-89224211D01*
X223329254Y-89164631D01*
X223329249Y-89164630D01*
X223150004Y-89144435D01*
X223149996Y-89144435D01*
X222970750Y-89164630D01*
X222970745Y-89164631D01*
X222800476Y-89224211D01*
X222647737Y-89320184D01*
X222520184Y-89447737D01*
X222424211Y-89600476D01*
X222364631Y-89770745D01*
X222364630Y-89770750D01*
X222344435Y-89949996D01*
X212724238Y-89949996D01*
X215224238Y-87449996D01*
X218344435Y-87449996D01*
X218344435Y-87450003D01*
X218364630Y-87629249D01*
X218364631Y-87629254D01*
X218424211Y-87799523D01*
X218486833Y-87899184D01*
X218520184Y-87952262D01*
X218647738Y-88079816D01*
X218800478Y-88175789D01*
X218941392Y-88225097D01*
X218970745Y-88235368D01*
X218970750Y-88235369D01*
X219149996Y-88255565D01*
X219150000Y-88255565D01*
X219150004Y-88255565D01*
X219329249Y-88235369D01*
X219329252Y-88235368D01*
X219329255Y-88235368D01*
X219499522Y-88175789D01*
X219652262Y-88079816D01*
X219779816Y-87952262D01*
X219875789Y-87799522D01*
X219935368Y-87629255D01*
X219940617Y-87582669D01*
X219955565Y-87450003D01*
X219955565Y-87449996D01*
X219935369Y-87270750D01*
X219935368Y-87270745D01*
X219875788Y-87100476D01*
X219836582Y-87038080D01*
X219779816Y-86947738D01*
X219652262Y-86820184D01*
X219648694Y-86817942D01*
X219499523Y-86724211D01*
X219329254Y-86664631D01*
X219329249Y-86664630D01*
X219150004Y-86644435D01*
X219149996Y-86644435D01*
X218970750Y-86664630D01*
X218970745Y-86664631D01*
X218800476Y-86724211D01*
X218647737Y-86820184D01*
X218520184Y-86947737D01*
X218424211Y-87100476D01*
X218364631Y-87270745D01*
X218364630Y-87270750D01*
X218344435Y-87449996D01*
X215224238Y-87449996D01*
X218758506Y-83915728D01*
X218758511Y-83915724D01*
X218768714Y-83905520D01*
X218768716Y-83905520D01*
X218880520Y-83793716D01*
X218907066Y-83747737D01*
X218945431Y-83681287D01*
X218945432Y-83681285D01*
X218955061Y-83664606D01*
X218959577Y-83656785D01*
X219000501Y-83504057D01*
X219000501Y-83345943D01*
X219000501Y-83338348D01*
X219000500Y-83338330D01*
X219000500Y-74489059D01*
X219000501Y-74489046D01*
X219000501Y-74320945D01*
X219000501Y-74320943D01*
X218959577Y-74168215D01*
X218919917Y-74099522D01*
X218880520Y-74031284D01*
X218768716Y-73919480D01*
X218768715Y-73919479D01*
X218764385Y-73915149D01*
X218764374Y-73915139D01*
X218580700Y-73731465D01*
X218547215Y-73670142D01*
X218545163Y-73657686D01*
X218535368Y-73570745D01*
X218475789Y-73400478D01*
X218379816Y-73247738D01*
X218252262Y-73120184D01*
X218099523Y-73024211D01*
X217929254Y-72964631D01*
X217929249Y-72964630D01*
X217750004Y-72944435D01*
X217749996Y-72944435D01*
X217570750Y-72964630D01*
X217570745Y-72964631D01*
X217400476Y-73024211D01*
X217247737Y-73120184D01*
X217120184Y-73247737D01*
X217024211Y-73400476D01*
X216964631Y-73570745D01*
X216964630Y-73570750D01*
X216944435Y-73749996D01*
X216944435Y-73750003D01*
X216964630Y-73929249D01*
X216964633Y-73929262D01*
X217024209Y-74099518D01*
X217024210Y-74099521D01*
X217050150Y-74140804D01*
X217069150Y-74208041D01*
X217048782Y-74274876D01*
X217011129Y-74311769D01*
X217003568Y-74316520D01*
X216936332Y-74335521D01*
X216869496Y-74315154D01*
X216849914Y-74299208D01*
X216686818Y-74136112D01*
X216653333Y-74074789D01*
X216650499Y-74048431D01*
X216650499Y-73877129D01*
X216650498Y-73877123D01*
X216644091Y-73817517D01*
X216642045Y-73812032D01*
X216625747Y-73768334D01*
X216620762Y-73698643D01*
X216625747Y-73681665D01*
X216633641Y-73660500D01*
X216644091Y-73632483D01*
X216650500Y-73572873D01*
X216650499Y-72777128D01*
X216650270Y-72775000D01*
X220150000Y-72775000D01*
X220150000Y-81275000D01*
X221910565Y-81275000D01*
X221977604Y-81294685D01*
X222023359Y-81347489D01*
X222033303Y-81416647D01*
X222004278Y-81480203D01*
X221984876Y-81498266D01*
X221892455Y-81567452D01*
X221892452Y-81567455D01*
X221806206Y-81682664D01*
X221806202Y-81682671D01*
X221755908Y-81817517D01*
X221751240Y-81860940D01*
X221749501Y-81877123D01*
X221749500Y-81877135D01*
X221749500Y-82772870D01*
X221749501Y-82772876D01*
X221755908Y-82832483D01*
X221806202Y-82967328D01*
X221806206Y-82967335D01*
X221892452Y-83082544D01*
X221892455Y-83082547D01*
X222007664Y-83168793D01*
X222007671Y-83168797D01*
X222142517Y-83219091D01*
X222142516Y-83219091D01*
X222149444Y-83219835D01*
X222202127Y-83225500D01*
X223797872Y-83225499D01*
X223857483Y-83219091D01*
X223992331Y-83168796D01*
X224107546Y-83082546D01*
X224193796Y-82967331D01*
X224244091Y-82832483D01*
X224250500Y-82772873D01*
X224250499Y-81877128D01*
X224244091Y-81817517D01*
X224239633Y-81805565D01*
X224193797Y-81682671D01*
X224193793Y-81682664D01*
X224107547Y-81567455D01*
X224107544Y-81567452D01*
X223992335Y-81481206D01*
X223992328Y-81481202D01*
X223857482Y-81430908D01*
X223857483Y-81430908D01*
X223797883Y-81424501D01*
X223797881Y-81424500D01*
X223797873Y-81424500D01*
X223797865Y-81424500D01*
X222274000Y-81424500D01*
X222206961Y-81404815D01*
X222161206Y-81352011D01*
X222150000Y-81300500D01*
X222150000Y-78325000D01*
X224500000Y-78325000D01*
X226350000Y-78325000D01*
X226350000Y-75825000D01*
X224500000Y-75825000D01*
X224500000Y-78325000D01*
X222150000Y-78325000D01*
X222150000Y-73366378D01*
X222169685Y-73299339D01*
X222222489Y-73253584D01*
X222260117Y-73243158D01*
X222329250Y-73235369D01*
X222329253Y-73235368D01*
X222329255Y-73235368D01*
X222499522Y-73175789D01*
X222652262Y-73079816D01*
X222779816Y-72952262D01*
X222875789Y-72799522D01*
X222935368Y-72629255D01*
X222935369Y-72629249D01*
X222955565Y-72450003D01*
X222955565Y-72449996D01*
X222935369Y-72270750D01*
X222935368Y-72270745D01*
X222928108Y-72249996D01*
X222875789Y-72100478D01*
X222857106Y-72070745D01*
X222790431Y-71964632D01*
X222779816Y-71947738D01*
X222652262Y-71820184D01*
X222608001Y-71792373D01*
X222499523Y-71724211D01*
X222329254Y-71664631D01*
X222329250Y-71664630D01*
X222158336Y-71645373D01*
X222093922Y-71618306D01*
X222054367Y-71560711D01*
X222049000Y-71508269D01*
X222055565Y-71450002D01*
X222055565Y-71449996D01*
X222035369Y-71270750D01*
X222035368Y-71270745D01*
X222017190Y-71218796D01*
X221975789Y-71100478D01*
X221975487Y-71099998D01*
X221904899Y-70987658D01*
X221879816Y-70947738D01*
X221752262Y-70820184D01*
X221743426Y-70814632D01*
X221599523Y-70724211D01*
X221429254Y-70664631D01*
X221429249Y-70664630D01*
X221250004Y-70644435D01*
X221249996Y-70644435D01*
X221070750Y-70664630D01*
X221070745Y-70664631D01*
X220900476Y-70724211D01*
X220747737Y-70820184D01*
X220620184Y-70947737D01*
X220524211Y-71100476D01*
X220464631Y-71270745D01*
X220464630Y-71270750D01*
X220444435Y-71449996D01*
X220444435Y-71450003D01*
X220464630Y-71629249D01*
X220464631Y-71629254D01*
X220524211Y-71799523D01*
X220612329Y-71939761D01*
X220620184Y-71952262D01*
X220747738Y-72079816D01*
X220836497Y-72135587D01*
X220860192Y-72150476D01*
X220900478Y-72175789D01*
X221054878Y-72229816D01*
X221070745Y-72235368D01*
X221070750Y-72235369D01*
X221241662Y-72254626D01*
X221306076Y-72281692D01*
X221345632Y-72339287D01*
X221351000Y-72391727D01*
X221347457Y-72423180D01*
X221344436Y-72449996D01*
X221344435Y-72450002D01*
X221344435Y-72450003D01*
X221365411Y-72636175D01*
X221362494Y-72636503D01*
X221359023Y-72693147D01*
X221317725Y-72749504D01*
X221252512Y-72774587D01*
X221242406Y-72775000D01*
X220150000Y-72775000D01*
X216650270Y-72775000D01*
X216644091Y-72717517D01*
X216632370Y-72686092D01*
X216593797Y-72582671D01*
X216593793Y-72582664D01*
X216507547Y-72467455D01*
X216507544Y-72467452D01*
X216392335Y-72381206D01*
X216392328Y-72381202D01*
X216257482Y-72330908D01*
X216257483Y-72330908D01*
X216197883Y-72324501D01*
X216197881Y-72324500D01*
X216197873Y-72324500D01*
X216197864Y-72324500D01*
X214352129Y-72324500D01*
X214352123Y-72324501D01*
X214292516Y-72330908D01*
X214157671Y-72381202D01*
X214157664Y-72381206D01*
X214042455Y-72467452D01*
X214042452Y-72467455D01*
X213956206Y-72582664D01*
X213956202Y-72582671D01*
X213905908Y-72717517D01*
X213899501Y-72777116D01*
X213899501Y-72777123D01*
X213899500Y-72777135D01*
X213899500Y-72825903D01*
X213879815Y-72892942D01*
X213827011Y-72938697D01*
X213757853Y-72948641D01*
X213694297Y-72919616D01*
X213687819Y-72913584D01*
X213040837Y-72266602D01*
X213007352Y-72205279D01*
X213012336Y-72135587D01*
X213040833Y-72091244D01*
X213129816Y-72002262D01*
X213225789Y-71849522D01*
X213285368Y-71679255D01*
X213289186Y-71645373D01*
X213305565Y-71500003D01*
X213305565Y-71499996D01*
X213285369Y-71320750D01*
X213285368Y-71320745D01*
X213261313Y-71252000D01*
X213225789Y-71150478D01*
X213219321Y-71140185D01*
X213167713Y-71058051D01*
X213129816Y-70997738D01*
X213086819Y-70954741D01*
X213053334Y-70893418D01*
X213050500Y-70867060D01*
X213050500Y-70601568D01*
X213070185Y-70534529D01*
X213086813Y-70513892D01*
X213174673Y-70426032D01*
X213235992Y-70392550D01*
X213305684Y-70397534D01*
X213361618Y-70439405D01*
X213367343Y-70447740D01*
X213370184Y-70452262D01*
X213497738Y-70579816D01*
X213586497Y-70635587D01*
X213632721Y-70664632D01*
X213650478Y-70675789D01*
X213687476Y-70688735D01*
X213820745Y-70735368D01*
X213820750Y-70735369D01*
X213999996Y-70755565D01*
X213999998Y-70755565D01*
X213999998Y-70755564D01*
X214000000Y-70755565D01*
X214011614Y-70754256D01*
X214080435Y-70766309D01*
X214131816Y-70813657D01*
X214149500Y-70877476D01*
X214149500Y-71522870D01*
X214149501Y-71522876D01*
X214155908Y-71582483D01*
X214206202Y-71717328D01*
X214206206Y-71717335D01*
X214292452Y-71832544D01*
X214292455Y-71832547D01*
X214407664Y-71918793D01*
X214407671Y-71918797D01*
X214542517Y-71969091D01*
X214542516Y-71969091D01*
X214549444Y-71969835D01*
X214602127Y-71975500D01*
X216197872Y-71975499D01*
X216257483Y-71969091D01*
X216392331Y-71918796D01*
X216507546Y-71832546D01*
X216593796Y-71717331D01*
X216644091Y-71582483D01*
X216650500Y-71522873D01*
X216650499Y-69927128D01*
X216644091Y-69867517D01*
X216630546Y-69831202D01*
X216593797Y-69732671D01*
X216593793Y-69732664D01*
X216507547Y-69617455D01*
X216507544Y-69617452D01*
X216392335Y-69531206D01*
X216392328Y-69531202D01*
X216257482Y-69480908D01*
X216257483Y-69480908D01*
X216197883Y-69474501D01*
X216197881Y-69474500D01*
X216197873Y-69474500D01*
X216197865Y-69474500D01*
X215488870Y-69474500D01*
X215421831Y-69454815D01*
X215376076Y-69402011D01*
X215366132Y-69332853D01*
X215374207Y-69306346D01*
X215373489Y-69306095D01*
X215385857Y-69270749D01*
X215435368Y-69129255D01*
X215436390Y-69120184D01*
X215455565Y-68950003D01*
X215455565Y-68949996D01*
X215435369Y-68770750D01*
X215435368Y-68770745D01*
X215394091Y-68652783D01*
X215375789Y-68600478D01*
X215375788Y-68600477D01*
X215375787Y-68600473D01*
X215283479Y-68453567D01*
X215264478Y-68386331D01*
X215284845Y-68319496D01*
X215300786Y-68299919D01*
X218440510Y-65160196D01*
X218512984Y-65034667D01*
X218515929Y-65023674D01*
X218522274Y-64999999D01*
X218536277Y-64947737D01*
X218550500Y-64894657D01*
X218550500Y-63672526D01*
X218512984Y-63532516D01*
X218504145Y-63517206D01*
X218440510Y-63406987D01*
X217740888Y-62707364D01*
X217713215Y-62665174D01*
X217689060Y-62603921D01*
X217689058Y-62603918D01*
X217597206Y-62482793D01*
X217476080Y-62390940D01*
X217334660Y-62335171D01*
X217289043Y-62329693D01*
X217245793Y-62324500D01*
X217245787Y-62324500D01*
X216930997Y-62324500D01*
X216885508Y-62315855D01*
X216849826Y-62301784D01*
X216807634Y-62274110D01*
X216603015Y-62069491D01*
X216603014Y-62069490D01*
X216477484Y-61997016D01*
X216477479Y-61997014D01*
X216448625Y-61989282D01*
X216448625Y-61989283D01*
X216393049Y-61974391D01*
X216337474Y-61959500D01*
X216337473Y-61959500D01*
X214071350Y-61959500D01*
X214004311Y-61939815D01*
X213958556Y-61887011D01*
X213947992Y-61822898D01*
X213950499Y-61798354D01*
X213950500Y-61798345D01*
X213950499Y-61201656D01*
X213940349Y-61102292D01*
X213887003Y-60941303D01*
X213886999Y-60941297D01*
X213886998Y-60941294D01*
X213809158Y-60815097D01*
X213790717Y-60747705D01*
X213809156Y-60684906D01*
X213812798Y-60678999D01*
X213820677Y-60666226D01*
X213872622Y-60619502D01*
X213941585Y-60608278D01*
X213992188Y-60626329D01*
X214150473Y-60725787D01*
X214150477Y-60725788D01*
X214150478Y-60725789D01*
X214219669Y-60750000D01*
X214320745Y-60785368D01*
X214320750Y-60785369D01*
X214499996Y-60805565D01*
X214500000Y-60805565D01*
X214500004Y-60805565D01*
X214679249Y-60785369D01*
X214679252Y-60785368D01*
X214679255Y-60785368D01*
X214849522Y-60725789D01*
X215002262Y-60629816D01*
X215129816Y-60502262D01*
X215225789Y-60349522D01*
X215285368Y-60179255D01*
X215292979Y-60111706D01*
X215305565Y-60000003D01*
X215305565Y-59999996D01*
X215285369Y-59820750D01*
X215285368Y-59820745D01*
X215277362Y-59797864D01*
X215225789Y-59650478D01*
X215195510Y-59602290D01*
X215129815Y-59497737D01*
X215002262Y-59370184D01*
X214849523Y-59274211D01*
X214679254Y-59214631D01*
X214679249Y-59214630D01*
X214500004Y-59194435D01*
X214499996Y-59194435D01*
X214320750Y-59214630D01*
X214320745Y-59214631D01*
X214150476Y-59274211D01*
X213992188Y-59373671D01*
X213924951Y-59392671D01*
X213858116Y-59372303D01*
X213820679Y-59333776D01*
X213797968Y-59296956D01*
X213678044Y-59177032D01*
X213678040Y-59177029D01*
X213533705Y-59088001D01*
X213533699Y-59087998D01*
X213533697Y-59087997D01*
X213533694Y-59087996D01*
X213372709Y-59034651D01*
X213273346Y-59024500D01*
X212726662Y-59024500D01*
X212726644Y-59024501D01*
X212627292Y-59034650D01*
X212627289Y-59034651D01*
X212466305Y-59087996D01*
X212466294Y-59088001D01*
X212321959Y-59177029D01*
X212321955Y-59177032D01*
X212202032Y-59296955D01*
X212202029Y-59296959D01*
X212113001Y-59441294D01*
X212112996Y-59441305D01*
X212059651Y-59602290D01*
X212049500Y-59701647D01*
X212049500Y-60100500D01*
X212029815Y-60167539D01*
X211977011Y-60213294D01*
X211925500Y-60224500D01*
X210949539Y-60224500D01*
X210852510Y-60250499D01*
X210852509Y-60250498D01*
X210809533Y-60262014D01*
X210809528Y-60262016D01*
X210684000Y-60334489D01*
X210683997Y-60334491D01*
X209875951Y-61142536D01*
X209826465Y-61169898D01*
X209827317Y-61172333D01*
X209820747Y-61174631D01*
X209820745Y-61174632D01*
X209758158Y-61196531D01*
X209650478Y-61234210D01*
X209497737Y-61330184D01*
X209370184Y-61457737D01*
X209274210Y-61610478D01*
X209214630Y-61780750D01*
X209206898Y-61849383D01*
X209179832Y-61913797D01*
X209122237Y-61953352D01*
X209083678Y-61959500D01*
X207417525Y-61959500D01*
X207306374Y-61989283D01*
X207306373Y-61989282D01*
X207277519Y-61997014D01*
X207277514Y-61997016D01*
X207151986Y-62069489D01*
X207151983Y-62069491D01*
X205561153Y-63660320D01*
X205499830Y-63693805D01*
X205487356Y-63695859D01*
X205320749Y-63714630D01*
X205320745Y-63714631D01*
X205150476Y-63774211D01*
X204997737Y-63870184D01*
X204870184Y-63997737D01*
X204774211Y-64150476D01*
X204714631Y-64320745D01*
X204714630Y-64320750D01*
X204694435Y-64499996D01*
X204694435Y-64500003D01*
X204714630Y-64679249D01*
X204714631Y-64679254D01*
X204774211Y-64849523D01*
X204807322Y-64902218D01*
X204870184Y-65002262D01*
X204997738Y-65129816D01*
X205046089Y-65160197D01*
X205132721Y-65214632D01*
X205150478Y-65225789D01*
X205278955Y-65270745D01*
X205320745Y-65285368D01*
X205320750Y-65285369D01*
X205499996Y-65305565D01*
X205500000Y-65305565D01*
X205500004Y-65305565D01*
X205679249Y-65285369D01*
X205679252Y-65285368D01*
X205679255Y-65285368D01*
X205849522Y-65225789D01*
X206002262Y-65129816D01*
X206129816Y-65002262D01*
X206225789Y-64849522D01*
X206285368Y-64679255D01*
X206288285Y-64653371D01*
X206296782Y-64577949D01*
X206304140Y-64512640D01*
X206331206Y-64448228D01*
X206339669Y-64438854D01*
X207681706Y-63096819D01*
X207743029Y-63063334D01*
X207769387Y-63060500D01*
X213583678Y-63060500D01*
X213650717Y-63080185D01*
X213696472Y-63132989D01*
X213706898Y-63170617D01*
X213714630Y-63239249D01*
X213774210Y-63409521D01*
X213814667Y-63473907D01*
X213870184Y-63562262D01*
X213997738Y-63689816D01*
X214088080Y-63746582D01*
X214136711Y-63777139D01*
X214150478Y-63785789D01*
X214196238Y-63801801D01*
X214320745Y-63845368D01*
X214320750Y-63845369D01*
X214499996Y-63865565D01*
X214500000Y-63865565D01*
X214500004Y-63865565D01*
X214679248Y-63845369D01*
X214679248Y-63845368D01*
X214679255Y-63845368D01*
X214692430Y-63840757D01*
X214762204Y-63837194D01*
X214822833Y-63871920D01*
X214835775Y-63889351D01*
X214835815Y-63889321D01*
X214932793Y-64017206D01*
X215053919Y-64109059D01*
X215053920Y-64109059D01*
X215053921Y-64109060D01*
X215195338Y-64164828D01*
X215284207Y-64175500D01*
X215715792Y-64175499D01*
X215804662Y-64164828D01*
X215946079Y-64109060D01*
X215990077Y-64075695D01*
X216055387Y-64050873D01*
X216065001Y-64050500D01*
X216180801Y-64050500D01*
X216247840Y-64070185D01*
X216293595Y-64122989D01*
X216303358Y-64162200D01*
X216304060Y-64162116D01*
X216312836Y-64235217D01*
X216312836Y-64264778D01*
X216304500Y-64334209D01*
X216304500Y-64665786D01*
X216315171Y-64754661D01*
X216315172Y-64754665D01*
X216328222Y-64787757D01*
X216334503Y-64857344D01*
X216302165Y-64919279D01*
X216300548Y-64920926D01*
X215061154Y-66160320D01*
X214999831Y-66193805D01*
X214987356Y-66195859D01*
X214820750Y-66214630D01*
X214820745Y-66214631D01*
X214650476Y-66274211D01*
X214497737Y-66370184D01*
X214370184Y-66497737D01*
X214274211Y-66650476D01*
X214214631Y-66820745D01*
X214214630Y-66820750D01*
X214194435Y-66999996D01*
X214194435Y-67000003D01*
X214214630Y-67179249D01*
X214214631Y-67179254D01*
X214274211Y-67349523D01*
X214370184Y-67502262D01*
X214374525Y-67507705D01*
X214372914Y-67508989D01*
X214401593Y-67561509D01*
X214396609Y-67631201D01*
X214368108Y-67675548D01*
X213551427Y-68492228D01*
X213490104Y-68525713D01*
X213420412Y-68520729D01*
X213364479Y-68478857D01*
X213345361Y-68441436D01*
X213343478Y-68435394D01*
X213255472Y-68289815D01*
X213255470Y-68289813D01*
X213255469Y-68289811D01*
X213135188Y-68169530D01*
X212989606Y-68081522D01*
X212965280Y-68073942D01*
X212827196Y-68030914D01*
X212827194Y-68030913D01*
X212827192Y-68030913D01*
X212777778Y-68026423D01*
X212756616Y-68024500D01*
X212756613Y-68024500D01*
X212425097Y-68024500D01*
X212358058Y-68004815D01*
X212337416Y-67988181D01*
X211887590Y-67538355D01*
X211887588Y-67538352D01*
X211768717Y-67419481D01*
X211768716Y-67419480D01*
X211681904Y-67369360D01*
X211681904Y-67369359D01*
X211681900Y-67369358D01*
X211631785Y-67340423D01*
X211479057Y-67299499D01*
X211320943Y-67299499D01*
X211313347Y-67299499D01*
X211313331Y-67299500D01*
X207910576Y-67299500D01*
X207843537Y-67279815D01*
X207797782Y-67227011D01*
X207787356Y-67161617D01*
X207805565Y-67000003D01*
X207805565Y-66999996D01*
X207785369Y-66820750D01*
X207785368Y-66820745D01*
X207725788Y-66650475D01*
X207672691Y-66565973D01*
X207653690Y-66498736D01*
X207672691Y-66434027D01*
X207725788Y-66349524D01*
X207725789Y-66349522D01*
X207785368Y-66179255D01*
X207785534Y-66177781D01*
X207805565Y-66000003D01*
X207805565Y-65999996D01*
X207785369Y-65820750D01*
X207785368Y-65820745D01*
X207774603Y-65789980D01*
X207725789Y-65650478D01*
X207718288Y-65638541D01*
X207629815Y-65497737D01*
X207502262Y-65370184D01*
X207349523Y-65274211D01*
X207179254Y-65214631D01*
X207179249Y-65214630D01*
X207000004Y-65194435D01*
X206999996Y-65194435D01*
X206820750Y-65214630D01*
X206820745Y-65214631D01*
X206650476Y-65274211D01*
X206497737Y-65370184D01*
X206370184Y-65497737D01*
X206274211Y-65650476D01*
X206214631Y-65820745D01*
X206214630Y-65820750D01*
X206194435Y-65999996D01*
X206194435Y-66000003D01*
X206214630Y-66179249D01*
X206214633Y-66179262D01*
X206274209Y-66349520D01*
X206327309Y-66434029D01*
X206346309Y-66501266D01*
X206327309Y-66565971D01*
X206274209Y-66650479D01*
X206214633Y-66820737D01*
X206214630Y-66820750D01*
X206194435Y-66999996D01*
X206194435Y-67000003D01*
X206212644Y-67161617D01*
X206200589Y-67230439D01*
X206153240Y-67281818D01*
X206089424Y-67299500D01*
X205770940Y-67299500D01*
X205730019Y-67310464D01*
X205730019Y-67310465D01*
X205692751Y-67320451D01*
X205618214Y-67340423D01*
X205618209Y-67340426D01*
X205481290Y-67419475D01*
X205481282Y-67419481D01*
X205398502Y-67502262D01*
X205369480Y-67531284D01*
X205369478Y-67531286D01*
X205225217Y-67675548D01*
X205087584Y-67813181D01*
X205026261Y-67846666D01*
X204999903Y-67849500D01*
X203232412Y-67849500D01*
X203165373Y-67829815D01*
X203155097Y-67822445D01*
X203152263Y-67820185D01*
X203152262Y-67820184D01*
X203075892Y-67772197D01*
X202999521Y-67724210D01*
X202829249Y-67664630D01*
X202760616Y-67656897D01*
X202696202Y-67629830D01*
X202656647Y-67572235D01*
X202650500Y-67533677D01*
X202650500Y-66589059D01*
X202650501Y-66589046D01*
X202650501Y-66420945D01*
X202650501Y-66420943D01*
X202609577Y-66268215D01*
X202566980Y-66194435D01*
X202530520Y-66131284D01*
X202418716Y-66019480D01*
X202418715Y-66019479D01*
X202414385Y-66015149D01*
X202414374Y-66015139D01*
X199264633Y-62865398D01*
X199231148Y-62804075D01*
X199230725Y-62802049D01*
X199212051Y-62708165D01*
X199168871Y-62603918D01*
X199136635Y-62526092D01*
X199136628Y-62526079D01*
X199027139Y-62362218D01*
X199027136Y-62362214D01*
X198887785Y-62222863D01*
X198887781Y-62222860D01*
X198723920Y-62113371D01*
X198723907Y-62113364D01*
X198541839Y-62037950D01*
X198541829Y-62037947D01*
X198348543Y-61999500D01*
X198348541Y-61999500D01*
X196651459Y-61999500D01*
X196651457Y-61999500D01*
X196458170Y-62037947D01*
X196458160Y-62037950D01*
X196276092Y-62113364D01*
X196276079Y-62113371D01*
X196112218Y-62222860D01*
X196112214Y-62222863D01*
X195972863Y-62362214D01*
X195972860Y-62362218D01*
X195863371Y-62526079D01*
X195863364Y-62526092D01*
X195787950Y-62708160D01*
X195787947Y-62708170D01*
X195749500Y-62901456D01*
X195749500Y-62901459D01*
X195749500Y-63098541D01*
X195749500Y-63098543D01*
X195749499Y-63098543D01*
X195787947Y-63291829D01*
X195787950Y-63291839D01*
X195863364Y-63473907D01*
X195863371Y-63473920D01*
X195972860Y-63637781D01*
X195972863Y-63637785D01*
X196112214Y-63777136D01*
X196112218Y-63777139D01*
X196276079Y-63886628D01*
X196276092Y-63886635D01*
X196429061Y-63949996D01*
X196458165Y-63962051D01*
X196458169Y-63962051D01*
X196458170Y-63962052D01*
X196651456Y-64000500D01*
X196651459Y-64000500D01*
X198348543Y-64000500D01*
X198478582Y-63974632D01*
X198541835Y-63962051D01*
X198550832Y-63958323D01*
X198620301Y-63950854D01*
X198682781Y-63982128D01*
X198685968Y-63985203D01*
X199021661Y-64320896D01*
X199055146Y-64382219D01*
X199050162Y-64451911D01*
X199024321Y-64492125D01*
X199024528Y-64492290D01*
X199022922Y-64494302D01*
X199021675Y-64496245D01*
X199020188Y-64497731D01*
X199020184Y-64497737D01*
X198931552Y-64638793D01*
X198879218Y-64685083D01*
X198810164Y-64695731D01*
X198757669Y-64675922D01*
X198723914Y-64653368D01*
X198723910Y-64653366D01*
X198723906Y-64653364D01*
X198541839Y-64577950D01*
X198541829Y-64577947D01*
X198348543Y-64539500D01*
X198348541Y-64539500D01*
X196651459Y-64539500D01*
X196651457Y-64539500D01*
X196458170Y-64577947D01*
X196458160Y-64577950D01*
X196276092Y-64653364D01*
X196276079Y-64653371D01*
X196112218Y-64762860D01*
X196112214Y-64762863D01*
X195972863Y-64902214D01*
X195972860Y-64902218D01*
X195863371Y-65066079D01*
X195863364Y-65066092D01*
X195787950Y-65248160D01*
X195787947Y-65248170D01*
X195749500Y-65441456D01*
X195749500Y-65441459D01*
X195749500Y-65638541D01*
X195749500Y-65638543D01*
X195749499Y-65638543D01*
X195787947Y-65831829D01*
X195787950Y-65831839D01*
X195863364Y-66013907D01*
X195863371Y-66013920D01*
X195972860Y-66177781D01*
X195972863Y-66177785D01*
X196112214Y-66317136D01*
X196112218Y-66317139D01*
X196276079Y-66426628D01*
X196276092Y-66426635D01*
X196447750Y-66497737D01*
X196458165Y-66502051D01*
X196458169Y-66502051D01*
X196458170Y-66502052D01*
X196651456Y-66540500D01*
X196651459Y-66540500D01*
X198199903Y-66540500D01*
X198266942Y-66560185D01*
X198287584Y-66576819D01*
X201827557Y-70116792D01*
X201861042Y-70178115D01*
X201856058Y-70247807D01*
X201814186Y-70303740D01*
X201748722Y-70328157D01*
X201698923Y-70321515D01*
X201679261Y-70314635D01*
X201679249Y-70314632D01*
X201500004Y-70294437D01*
X201499996Y-70294437D01*
X201320750Y-70314632D01*
X201320745Y-70314633D01*
X201150476Y-70374213D01*
X200997737Y-70470186D01*
X200870184Y-70597739D01*
X200774211Y-70750478D01*
X200714631Y-70920747D01*
X200714630Y-70920752D01*
X200694435Y-71099998D01*
X200694435Y-71100005D01*
X200714630Y-71279251D01*
X200714631Y-71279256D01*
X200774211Y-71449525D01*
X200825960Y-71531882D01*
X200844960Y-71599118D01*
X200824592Y-71665954D01*
X200771325Y-71711168D01*
X200702068Y-71720406D01*
X200680019Y-71714898D01*
X200679264Y-71714634D01*
X200679249Y-71714630D01*
X200500004Y-71694435D01*
X200499996Y-71694435D01*
X200320750Y-71714630D01*
X200320745Y-71714631D01*
X200150476Y-71774211D01*
X199997737Y-71870184D01*
X199870184Y-71997737D01*
X199774211Y-72150476D01*
X199714631Y-72320745D01*
X199714630Y-72320750D01*
X199694435Y-72499996D01*
X199694435Y-72500003D01*
X199714630Y-72679249D01*
X199714631Y-72679254D01*
X199774211Y-72849523D01*
X199853549Y-72975788D01*
X199870184Y-73002262D01*
X199997738Y-73129816D01*
X200000880Y-73131790D01*
X200150477Y-73225789D01*
X200177856Y-73235369D01*
X200216453Y-73248874D01*
X200273230Y-73289595D01*
X200298978Y-73354547D01*
X200299500Y-73365916D01*
X200299500Y-77313330D01*
X200299499Y-77313348D01*
X200299499Y-77479054D01*
X200299498Y-77479054D01*
X200340423Y-77631787D01*
X200351215Y-77650477D01*
X200351218Y-77650481D01*
X200419479Y-77768714D01*
X200419481Y-77768717D01*
X200538349Y-77887585D01*
X200538355Y-77887590D01*
X200563084Y-77912319D01*
X200596569Y-77973642D01*
X200591585Y-78043334D01*
X200563084Y-78087681D01*
X199787584Y-78863181D01*
X199726261Y-78896666D01*
X199699903Y-78899500D01*
X198836669Y-78899500D01*
X198836653Y-78899499D01*
X198829057Y-78899499D01*
X198670943Y-78899499D01*
X198577636Y-78924501D01*
X198518210Y-78940424D01*
X198518209Y-78940425D01*
X198468096Y-78969359D01*
X198468095Y-78969360D01*
X198447577Y-78981206D01*
X198381285Y-79019479D01*
X198381282Y-79019481D01*
X195731285Y-81669479D01*
X195731273Y-81669491D01*
X195727648Y-81673115D01*
X195666320Y-81706592D01*
X195626096Y-81708642D01*
X195500004Y-81694435D01*
X195499996Y-81694435D01*
X195320750Y-81714630D01*
X195320745Y-81714631D01*
X195150476Y-81774211D01*
X194997737Y-81870184D01*
X194954741Y-81913181D01*
X194893418Y-81946666D01*
X194867060Y-81949500D01*
X194115829Y-81949500D01*
X194048790Y-81929815D01*
X194007023Y-81883217D01*
X194006729Y-81883400D01*
X194005707Y-81881750D01*
X194004827Y-81880768D01*
X194003712Y-81878528D01*
X193872427Y-81704678D01*
X193848286Y-81682671D01*
X193711433Y-81557913D01*
X193711423Y-81557906D01*
X193526213Y-81443229D01*
X193526207Y-81443226D01*
X193441113Y-81410260D01*
X193323069Y-81364530D01*
X193108926Y-81324500D01*
X192891074Y-81324500D01*
X192676931Y-81364530D01*
X192628130Y-81383435D01*
X192473792Y-81443226D01*
X192473786Y-81443229D01*
X192288576Y-81557906D01*
X192288566Y-81557913D01*
X192127574Y-81704676D01*
X191996288Y-81878527D01*
X191899184Y-82073537D01*
X191874219Y-82161279D01*
X191840181Y-82280914D01*
X191839564Y-82283081D01*
X191819464Y-82499999D01*
X186350500Y-82499999D01*
X186350500Y-75798543D01*
X195749499Y-75798543D01*
X195787947Y-75991829D01*
X195787950Y-75991839D01*
X195863364Y-76173907D01*
X195863371Y-76173920D01*
X195972860Y-76337781D01*
X195972863Y-76337785D01*
X196112214Y-76477136D01*
X196112218Y-76477139D01*
X196276079Y-76586628D01*
X196276092Y-76586635D01*
X196458160Y-76662049D01*
X196458165Y-76662051D01*
X196458169Y-76662051D01*
X196458170Y-76662052D01*
X196651456Y-76700500D01*
X196651459Y-76700500D01*
X198348543Y-76700500D01*
X198478582Y-76674632D01*
X198541835Y-76662051D01*
X198682655Y-76603721D01*
X198723907Y-76586635D01*
X198723907Y-76586634D01*
X198723914Y-76586632D01*
X198887782Y-76477139D01*
X199027139Y-76337782D01*
X199136632Y-76173914D01*
X199147822Y-76146900D01*
X199167041Y-76100500D01*
X199212051Y-75991835D01*
X199248134Y-75810437D01*
X199250500Y-75798543D01*
X199250500Y-75601456D01*
X199212052Y-75408170D01*
X199212051Y-75408169D01*
X199212051Y-75408165D01*
X199212049Y-75408160D01*
X199136635Y-75226092D01*
X199136628Y-75226079D01*
X199027139Y-75062218D01*
X199027136Y-75062214D01*
X198887785Y-74922863D01*
X198887781Y-74922860D01*
X198723920Y-74813371D01*
X198723907Y-74813364D01*
X198541839Y-74737950D01*
X198541829Y-74737947D01*
X198348543Y-74699500D01*
X198348541Y-74699500D01*
X196651459Y-74699500D01*
X196651457Y-74699500D01*
X196458170Y-74737947D01*
X196458160Y-74737950D01*
X196276092Y-74813364D01*
X196276079Y-74813371D01*
X196112218Y-74922860D01*
X196112214Y-74922863D01*
X195972863Y-75062214D01*
X195972860Y-75062218D01*
X195863371Y-75226079D01*
X195863364Y-75226092D01*
X195787950Y-75408160D01*
X195787947Y-75408170D01*
X195749500Y-75601456D01*
X195749500Y-75601459D01*
X195749500Y-75798541D01*
X195749500Y-75798543D01*
X195749499Y-75798543D01*
X186350500Y-75798543D01*
X186350500Y-72749996D01*
X193194435Y-72749996D01*
X193194435Y-72750003D01*
X193214630Y-72929249D01*
X193214631Y-72929254D01*
X193274211Y-73099523D01*
X193325340Y-73180894D01*
X193370184Y-73252262D01*
X193497738Y-73379816D01*
X193650478Y-73475789D01*
X193820745Y-73535368D01*
X193820750Y-73535369D01*
X193907072Y-73545094D01*
X193933713Y-73548096D01*
X193981824Y-73563925D01*
X193997320Y-73572872D01*
X194078215Y-73619577D01*
X194230942Y-73660500D01*
X194230943Y-73660500D01*
X195814853Y-73660500D01*
X195881892Y-73680185D01*
X195917954Y-73715608D01*
X195940934Y-73750000D01*
X195972862Y-73797784D01*
X196112214Y-73937136D01*
X196112218Y-73937139D01*
X196276079Y-74046628D01*
X196276092Y-74046635D01*
X196458160Y-74122049D01*
X196458165Y-74122051D01*
X196458169Y-74122051D01*
X196458170Y-74122052D01*
X196651456Y-74160500D01*
X196651459Y-74160500D01*
X198348543Y-74160500D01*
X198478582Y-74134632D01*
X198541835Y-74122051D01*
X198723914Y-74046632D01*
X198887782Y-73937139D01*
X199027139Y-73797782D01*
X199136632Y-73633914D01*
X199143764Y-73616697D01*
X199161917Y-73572869D01*
X199212051Y-73451835D01*
X199248476Y-73268716D01*
X199250500Y-73258543D01*
X199250500Y-73061456D01*
X199212052Y-72868170D01*
X199212051Y-72868169D01*
X199212051Y-72868165D01*
X199183619Y-72799523D01*
X199136635Y-72686092D01*
X199136628Y-72686079D01*
X199027139Y-72522218D01*
X199027136Y-72522214D01*
X198887785Y-72382863D01*
X198887781Y-72382860D01*
X198723920Y-72273371D01*
X198723907Y-72273364D01*
X198541839Y-72197950D01*
X198541829Y-72197947D01*
X198348543Y-72159500D01*
X198348541Y-72159500D01*
X196651459Y-72159500D01*
X196651457Y-72159500D01*
X196458170Y-72197947D01*
X196458160Y-72197950D01*
X196276092Y-72273364D01*
X196276079Y-72273371D01*
X196112218Y-72382860D01*
X196112214Y-72382863D01*
X196071899Y-72423180D01*
X196010576Y-72456666D01*
X195984217Y-72459500D01*
X194831408Y-72459500D01*
X194764369Y-72439815D01*
X194726414Y-72401472D01*
X194631237Y-72250000D01*
X194629816Y-72247738D01*
X194502262Y-72120184D01*
X194349523Y-72024211D01*
X194179254Y-71964631D01*
X194179249Y-71964630D01*
X194000004Y-71944435D01*
X193999996Y-71944435D01*
X193820750Y-71964630D01*
X193820745Y-71964631D01*
X193650476Y-72024211D01*
X193497737Y-72120184D01*
X193370184Y-72247737D01*
X193274211Y-72400476D01*
X193214631Y-72570745D01*
X193214630Y-72570750D01*
X193194435Y-72749996D01*
X186350500Y-72749996D01*
X186350500Y-70582412D01*
X186370185Y-70515373D01*
X186377555Y-70505097D01*
X186379810Y-70502267D01*
X186379816Y-70502262D01*
X186475789Y-70349522D01*
X186535368Y-70179255D01*
X186535369Y-70179249D01*
X186555565Y-70000003D01*
X186555565Y-69999996D01*
X186535369Y-69820750D01*
X186535368Y-69820745D01*
X186521428Y-69780908D01*
X186510612Y-69749996D01*
X193194435Y-69749996D01*
X193194435Y-69750003D01*
X193214630Y-69929249D01*
X193214631Y-69929254D01*
X193274211Y-70099523D01*
X193342507Y-70208214D01*
X193370184Y-70252262D01*
X193497738Y-70379816D01*
X193650478Y-70475789D01*
X193820745Y-70535368D01*
X193907669Y-70545161D01*
X193972080Y-70572226D01*
X193981465Y-70580700D01*
X194285139Y-70884374D01*
X194285149Y-70884385D01*
X194289479Y-70888715D01*
X194289480Y-70888716D01*
X194401284Y-71000520D01*
X194401286Y-71000521D01*
X194401290Y-71000524D01*
X194538209Y-71079573D01*
X194538216Y-71079577D01*
X194616306Y-71100501D01*
X194690942Y-71120500D01*
X194690943Y-71120500D01*
X195814853Y-71120500D01*
X195881892Y-71140185D01*
X195917954Y-71175608D01*
X195935987Y-71202596D01*
X195972862Y-71257784D01*
X196112214Y-71397136D01*
X196112218Y-71397139D01*
X196276079Y-71506628D01*
X196276092Y-71506635D01*
X196406645Y-71560711D01*
X196458165Y-71582051D01*
X196458169Y-71582051D01*
X196458170Y-71582052D01*
X196651456Y-71620500D01*
X196651459Y-71620500D01*
X198348543Y-71620500D01*
X198478582Y-71594632D01*
X198541835Y-71582051D01*
X198684726Y-71522864D01*
X198723907Y-71506635D01*
X198723907Y-71506634D01*
X198723914Y-71506632D01*
X198887782Y-71397139D01*
X199027139Y-71257782D01*
X199136632Y-71093914D01*
X199212051Y-70911835D01*
X199229747Y-70822872D01*
X199250500Y-70718543D01*
X199250500Y-70521456D01*
X199212052Y-70328170D01*
X199212051Y-70328169D01*
X199212051Y-70328165D01*
X199206447Y-70314635D01*
X199136635Y-70146092D01*
X199136628Y-70146079D01*
X199027139Y-69982218D01*
X199027136Y-69982214D01*
X198887785Y-69842863D01*
X198887781Y-69842860D01*
X198723920Y-69733371D01*
X198723907Y-69733364D01*
X198541839Y-69657950D01*
X198541829Y-69657947D01*
X198348543Y-69619500D01*
X198348541Y-69619500D01*
X196651459Y-69619500D01*
X196651457Y-69619500D01*
X196458170Y-69657947D01*
X196458160Y-69657950D01*
X196276092Y-69733364D01*
X196276079Y-69733371D01*
X196112218Y-69842860D01*
X196112214Y-69842863D01*
X196071899Y-69883180D01*
X196010576Y-69916666D01*
X195984217Y-69919500D01*
X195070097Y-69919500D01*
X195003058Y-69899815D01*
X194982416Y-69883181D01*
X194830700Y-69731465D01*
X194797215Y-69670142D01*
X194795163Y-69657686D01*
X194785368Y-69570745D01*
X194725789Y-69400478D01*
X194629816Y-69247738D01*
X194502262Y-69120184D01*
X194470897Y-69100476D01*
X194349523Y-69024211D01*
X194179254Y-68964631D01*
X194179249Y-68964630D01*
X194000004Y-68944435D01*
X193999996Y-68944435D01*
X193820750Y-68964630D01*
X193820745Y-68964631D01*
X193650476Y-69024211D01*
X193497737Y-69120184D01*
X193370184Y-69247737D01*
X193274211Y-69400476D01*
X193214631Y-69570745D01*
X193214630Y-69570750D01*
X193194435Y-69749996D01*
X186510612Y-69749996D01*
X186475789Y-69650478D01*
X186379816Y-69497738D01*
X186252262Y-69370184D01*
X186228722Y-69355393D01*
X186099523Y-69274211D01*
X185929254Y-69214631D01*
X185929249Y-69214630D01*
X185750004Y-69194435D01*
X185749996Y-69194435D01*
X185570750Y-69214630D01*
X185570745Y-69214631D01*
X185400476Y-69274211D01*
X185247737Y-69370184D01*
X185120184Y-69497737D01*
X185024211Y-69650476D01*
X184964631Y-69820745D01*
X184964630Y-69820750D01*
X184944435Y-69999996D01*
X183539018Y-69999996D01*
X183527139Y-69982218D01*
X183527136Y-69982214D01*
X183387785Y-69842863D01*
X183387781Y-69842860D01*
X183223920Y-69733371D01*
X183223907Y-69733364D01*
X183041839Y-69657950D01*
X183041829Y-69657947D01*
X182848543Y-69619500D01*
X182848541Y-69619500D01*
X181151459Y-69619500D01*
X181151457Y-69619500D01*
X180958170Y-69657947D01*
X180958160Y-69657950D01*
X180776092Y-69733364D01*
X180776079Y-69733371D01*
X180612218Y-69842860D01*
X180612214Y-69842863D01*
X180472863Y-69982214D01*
X180472860Y-69982218D01*
X180363371Y-70146079D01*
X180363364Y-70146092D01*
X180287952Y-70328157D01*
X180287947Y-70328170D01*
X180249500Y-70521456D01*
X180249500Y-70521459D01*
X180249500Y-70718541D01*
X180249500Y-70718543D01*
X180249499Y-70718543D01*
X177750500Y-70718543D01*
X177750500Y-68178543D01*
X180249499Y-68178543D01*
X180287947Y-68371829D01*
X180287950Y-68371839D01*
X180363364Y-68553907D01*
X180363371Y-68553920D01*
X180472860Y-68717781D01*
X180472863Y-68717785D01*
X180612214Y-68857136D01*
X180612218Y-68857139D01*
X180776079Y-68966628D01*
X180776092Y-68966635D01*
X180915095Y-69024211D01*
X180958165Y-69042051D01*
X180958169Y-69042051D01*
X180958170Y-69042052D01*
X181151456Y-69080500D01*
X181151459Y-69080500D01*
X182848543Y-69080500D01*
X182978582Y-69054632D01*
X183041835Y-69042051D01*
X183218883Y-68968716D01*
X183223907Y-68966635D01*
X183223907Y-68966634D01*
X183223914Y-68966632D01*
X183387782Y-68857139D01*
X183527139Y-68717782D01*
X183636632Y-68553914D01*
X183712051Y-68371835D01*
X183750500Y-68178541D01*
X183750500Y-67981459D01*
X183750500Y-67981456D01*
X183712052Y-67788170D01*
X183712051Y-67788169D01*
X183712051Y-67788165D01*
X183665069Y-67674739D01*
X183636635Y-67606092D01*
X183636628Y-67606079D01*
X183527139Y-67442218D01*
X183527136Y-67442214D01*
X183387785Y-67302863D01*
X183387781Y-67302860D01*
X183223920Y-67193371D01*
X183223907Y-67193364D01*
X183041839Y-67117950D01*
X183041829Y-67117947D01*
X182848543Y-67079500D01*
X182848541Y-67079500D01*
X181151459Y-67079500D01*
X181151457Y-67079500D01*
X180958170Y-67117947D01*
X180958160Y-67117950D01*
X180776092Y-67193364D01*
X180776079Y-67193371D01*
X180612218Y-67302860D01*
X180612214Y-67302863D01*
X180472863Y-67442214D01*
X180472860Y-67442218D01*
X180363371Y-67606079D01*
X180363364Y-67606092D01*
X180287950Y-67788160D01*
X180287947Y-67788170D01*
X180249500Y-67981456D01*
X180249500Y-67981459D01*
X180249500Y-68178541D01*
X180249500Y-68178543D01*
X180249499Y-68178543D01*
X177750500Y-68178543D01*
X177750500Y-65638543D01*
X180249499Y-65638543D01*
X180287947Y-65831829D01*
X180287950Y-65831839D01*
X180363364Y-66013907D01*
X180363371Y-66013920D01*
X180472860Y-66177781D01*
X180472863Y-66177785D01*
X180612214Y-66317136D01*
X180612218Y-66317139D01*
X180776079Y-66426628D01*
X180776092Y-66426635D01*
X180947750Y-66497737D01*
X180958165Y-66502051D01*
X180958169Y-66502051D01*
X180958170Y-66502052D01*
X181151456Y-66540500D01*
X181151459Y-66540500D01*
X182848543Y-66540500D01*
X182978582Y-66514632D01*
X183041835Y-66502051D01*
X183223914Y-66426632D01*
X183387782Y-66317139D01*
X183527139Y-66177782D01*
X183636632Y-66013914D01*
X183712051Y-65831835D01*
X183740626Y-65688181D01*
X183750500Y-65638543D01*
X183750500Y-65441456D01*
X183712052Y-65248170D01*
X183712051Y-65248169D01*
X183712051Y-65248165D01*
X183698161Y-65214631D01*
X183636635Y-65066092D01*
X183636628Y-65066079D01*
X183527139Y-64902218D01*
X183527136Y-64902214D01*
X183387785Y-64762863D01*
X183387781Y-64762860D01*
X183223920Y-64653371D01*
X183223907Y-64653364D01*
X183041839Y-64577950D01*
X183041829Y-64577947D01*
X182848543Y-64539500D01*
X182848541Y-64539500D01*
X181151459Y-64539500D01*
X181151457Y-64539500D01*
X180958170Y-64577947D01*
X180958160Y-64577950D01*
X180776092Y-64653364D01*
X180776079Y-64653371D01*
X180612218Y-64762860D01*
X180612214Y-64762863D01*
X180472863Y-64902214D01*
X180472860Y-64902218D01*
X180363371Y-65066079D01*
X180363364Y-65066092D01*
X180287950Y-65248160D01*
X180287947Y-65248170D01*
X180249500Y-65441456D01*
X180249500Y-65441459D01*
X180249500Y-65638541D01*
X180249500Y-65638543D01*
X180249499Y-65638543D01*
X177750500Y-65638543D01*
X177750500Y-61449996D01*
X205344435Y-61449996D01*
X205344435Y-61450003D01*
X205364630Y-61629249D01*
X205364631Y-61629254D01*
X205424211Y-61799523D01*
X205455596Y-61849471D01*
X205520184Y-61952262D01*
X205647738Y-62079816D01*
X205800478Y-62175789D01*
X205934999Y-62222860D01*
X205970745Y-62235368D01*
X205970750Y-62235369D01*
X206149996Y-62255565D01*
X206150000Y-62255565D01*
X206150004Y-62255565D01*
X206329249Y-62235369D01*
X206329252Y-62235368D01*
X206329255Y-62235368D01*
X206499522Y-62175789D01*
X206652262Y-62079816D01*
X206779816Y-61952262D01*
X206875789Y-61799522D01*
X206935368Y-61629255D01*
X206954693Y-61457738D01*
X206955565Y-61450003D01*
X206955565Y-61449996D01*
X206935369Y-61270750D01*
X206935368Y-61270745D01*
X206911193Y-61201656D01*
X206875789Y-61100478D01*
X206779816Y-60947738D01*
X206652262Y-60820184D01*
X206615295Y-60796956D01*
X206499523Y-60724211D01*
X206329254Y-60664631D01*
X206329249Y-60664630D01*
X206150004Y-60644435D01*
X206149996Y-60644435D01*
X205970750Y-60664630D01*
X205970745Y-60664631D01*
X205800476Y-60724211D01*
X205647737Y-60820184D01*
X205520184Y-60947737D01*
X205424211Y-61100476D01*
X205364631Y-61270745D01*
X205364630Y-61270750D01*
X205344435Y-61449996D01*
X177750500Y-61449996D01*
X177750500Y-57624500D01*
X177770185Y-57557461D01*
X177822989Y-57511706D01*
X177874500Y-57500500D01*
X188826000Y-57500500D01*
X188893039Y-57520185D01*
G37*
%TD.AperFunction*%
%TD*%
M02*
