%TF.GenerationSoftware,KiCad,Pcbnew,8.0.2*%
%TF.CreationDate,2025-04-11T11:55:07+07:00*%
%TF.ProjectId,wearable_device,77656172-6162-46c6-955f-646576696365,rev?*%
%TF.SameCoordinates,Original*%
%TF.FileFunction,Soldermask,Bot*%
%TF.FilePolarity,Negative*%
%FSLAX46Y46*%
G04 Gerber Fmt 4.6, Leading zero omitted, Abs format (unit mm)*
G04 Created by KiCad (PCBNEW 8.0.2) date 2025-04-11 11:55:07*
%MOMM*%
%LPD*%
G01*
G04 APERTURE LIST*
G04 Aperture macros list*
%AMRoundRect*
0 Rectangle with rounded corners*
0 $1 Rounding radius*
0 $2 $3 $4 $5 $6 $7 $8 $9 X,Y pos of 4 corners*
0 Add a 4 corners polygon primitive as box body*
4,1,4,$2,$3,$4,$5,$6,$7,$8,$9,$2,$3,0*
0 Add four circle primitives for the rounded corners*
1,1,$1+$1,$2,$3*
1,1,$1+$1,$4,$5*
1,1,$1+$1,$6,$7*
1,1,$1+$1,$8,$9*
0 Add four rect primitives between the rounded corners*
20,1,$1+$1,$2,$3,$4,$5,0*
20,1,$1+$1,$4,$5,$6,$7,0*
20,1,$1+$1,$6,$7,$8,$9,0*
20,1,$1+$1,$8,$9,$2,$3,0*%
G04 Aperture macros list end*
%ADD10R,1.350000X1.350000*%
%ADD11R,1.700000X1.700000*%
%ADD12O,1.700000X1.700000*%
%ADD13C,0.650000*%
%ADD14O,1.000000X2.100000*%
%ADD15O,1.000000X1.800000*%
%ADD16O,1.350000X1.350000*%
%ADD17RoundRect,0.225000X0.225000X0.250000X-0.225000X0.250000X-0.225000X-0.250000X0.225000X-0.250000X0*%
%ADD18RoundRect,0.200000X0.275000X-0.200000X0.275000X0.200000X-0.275000X0.200000X-0.275000X-0.200000X0*%
%ADD19R,1.750000X0.700000*%
%ADD20R,1.000000X1.450000*%
%ADD21R,1.550000X1.000000*%
%ADD22R,1.500000X0.800000*%
%ADD23R,1.500000X1.300000*%
%ADD24R,1.500000X1.500000*%
%ADD25R,1.400000X0.800000*%
%ADD26O,2.704000X1.204000*%
%ADD27R,1.000000X1.250000*%
%ADD28RoundRect,0.200000X0.200000X0.275000X-0.200000X0.275000X-0.200000X-0.275000X0.200000X-0.275000X0*%
%ADD29RoundRect,0.083100X0.243900X0.193900X-0.243900X0.193900X-0.243900X-0.193900X0.243900X-0.193900X0*%
%ADD30RoundRect,0.083100X0.193900X0.243900X-0.193900X0.243900X-0.193900X-0.243900X0.193900X-0.243900X0*%
%ADD31RoundRect,0.200000X-0.200000X-0.275000X0.200000X-0.275000X0.200000X0.275000X-0.200000X0.275000X0*%
G04 APERTURE END LIST*
D10*
%TO.C,J6*%
X225150000Y-95450000D03*
%TD*%
D11*
%TO.C,J5*%
X194875000Y-94250000D03*
D12*
X197415000Y-94250000D03*
X199955000Y-94250000D03*
X202495000Y-94250000D03*
X205035000Y-94250000D03*
X207575000Y-94250000D03*
X210115000Y-94250000D03*
%TD*%
D13*
%TO.C,P1*%
X214760000Y-92845000D03*
X220540000Y-92845000D03*
D14*
X213330000Y-92345000D03*
D15*
X213330000Y-96525000D03*
D14*
X221970000Y-92345000D03*
D15*
X221970000Y-96525000D03*
%TD*%
D10*
%TO.C,J3*%
X193000000Y-88500000D03*
D16*
X193000000Y-86500000D03*
X193000000Y-84500000D03*
X193000000Y-82500000D03*
%TD*%
D10*
%TO.C,J4*%
X188950000Y-88500000D03*
D16*
X188950000Y-86500000D03*
X188950000Y-84500000D03*
X188950000Y-82500000D03*
%TD*%
D10*
%TO.C,J2*%
X225150000Y-91950000D03*
%TD*%
D17*
%TO.C,C16*%
X213000000Y-60000000D03*
X211450000Y-60000000D03*
%TD*%
D18*
%TO.C,R12*%
X205500000Y-84825000D03*
X205500000Y-83175000D03*
%TD*%
%TO.C,R11*%
X211500000Y-84825000D03*
X211500000Y-83175000D03*
%TD*%
D19*
%TO.C,J1*%
X215275000Y-73175000D03*
X215275000Y-74275000D03*
X215275000Y-75375000D03*
X215275000Y-76475000D03*
X215275000Y-77575000D03*
X215275000Y-78675000D03*
X215275000Y-79775000D03*
X215275000Y-80875000D03*
D20*
X224500000Y-82000000D03*
D21*
X226075000Y-70775000D03*
D22*
X223000000Y-82325000D03*
D23*
X215400000Y-82075000D03*
D24*
X215400000Y-70725000D03*
D25*
X223650000Y-70375000D03*
%TD*%
D26*
%TO.C,U2*%
X197500000Y-63000000D03*
X197500000Y-65540000D03*
X197500000Y-68080000D03*
X197500000Y-70620000D03*
X197500000Y-73160000D03*
X197500000Y-75700000D03*
X182000000Y-75700000D03*
X182000000Y-73160000D03*
X182000000Y-70620000D03*
X182000000Y-68080000D03*
X182000000Y-65540000D03*
X182000000Y-63000000D03*
%TD*%
D27*
%TO.C,SW1*%
X224500000Y-66875000D03*
X224500000Y-59125000D03*
%TD*%
D28*
%TO.C,R9*%
X212500000Y-69000000D03*
X210850000Y-69000000D03*
%TD*%
D17*
%TO.C,C15*%
X213000000Y-61500000D03*
X211450000Y-61500000D03*
%TD*%
%TO.C,C17*%
X209775000Y-75500000D03*
X208225000Y-75500000D03*
%TD*%
D28*
%TO.C,R16*%
X218325000Y-59500000D03*
X216675000Y-59500000D03*
%TD*%
D18*
%TO.C,R1*%
X209000000Y-84825000D03*
X209000000Y-83175000D03*
%TD*%
%TO.C,R10*%
X207500000Y-84825000D03*
X207500000Y-83175000D03*
%TD*%
D29*
%TO.C,U5*%
X217030000Y-63000000D03*
X217030000Y-63500000D03*
X217030000Y-64000000D03*
X217030000Y-64500000D03*
D30*
X216530000Y-64515000D03*
X216015000Y-64515000D03*
D29*
X215500000Y-64500000D03*
X215500000Y-64000000D03*
X215500000Y-63500000D03*
X215500000Y-63000000D03*
D30*
X216015000Y-62985000D03*
X216515000Y-62985000D03*
%TD*%
D31*
%TO.C,R8*%
X206175000Y-69500000D03*
X207825000Y-69500000D03*
%TD*%
M02*
