%TF.GenerationSoftware,KiCad,Pcbnew,8.0.2*%
%TF.CreationDate,2025-04-11T11:55:07+07:00*%
%TF.ProjectId,wearable_device,77656172-6162-46c6-955f-646576696365,rev?*%
%TF.SameCoordinates,Original*%
%TF.FileFunction,Legend,Bot*%
%TF.FilePolarity,Positive*%
%FSLAX46Y46*%
G04 Gerber Fmt 4.6, Leading zero omitted, Abs format (unit mm)*
G04 Created by KiCad (PCBNEW 8.0.2) date 2025-04-11 11:55:07*
%MOMM*%
%LPD*%
G01*
G04 APERTURE LIST*
%ADD10C,0.150000*%
%ADD11C,0.120000*%
%ADD12C,0.127000*%
%ADD13C,0.200000*%
%ADD14C,0.100000*%
G04 APERTURE END LIST*
D10*
X212867857Y-58929580D02*
X212915476Y-58977200D01*
X212915476Y-58977200D02*
X213058333Y-59024819D01*
X213058333Y-59024819D02*
X213153571Y-59024819D01*
X213153571Y-59024819D02*
X213296428Y-58977200D01*
X213296428Y-58977200D02*
X213391666Y-58881961D01*
X213391666Y-58881961D02*
X213439285Y-58786723D01*
X213439285Y-58786723D02*
X213486904Y-58596247D01*
X213486904Y-58596247D02*
X213486904Y-58453390D01*
X213486904Y-58453390D02*
X213439285Y-58262914D01*
X213439285Y-58262914D02*
X213391666Y-58167676D01*
X213391666Y-58167676D02*
X213296428Y-58072438D01*
X213296428Y-58072438D02*
X213153571Y-58024819D01*
X213153571Y-58024819D02*
X213058333Y-58024819D01*
X213058333Y-58024819D02*
X212915476Y-58072438D01*
X212915476Y-58072438D02*
X212867857Y-58120057D01*
X211915476Y-59024819D02*
X212486904Y-59024819D01*
X212201190Y-59024819D02*
X212201190Y-58024819D01*
X212201190Y-58024819D02*
X212296428Y-58167676D01*
X212296428Y-58167676D02*
X212391666Y-58262914D01*
X212391666Y-58262914D02*
X212486904Y-58310533D01*
X211058333Y-58024819D02*
X211248809Y-58024819D01*
X211248809Y-58024819D02*
X211344047Y-58072438D01*
X211344047Y-58072438D02*
X211391666Y-58120057D01*
X211391666Y-58120057D02*
X211486904Y-58262914D01*
X211486904Y-58262914D02*
X211534523Y-58453390D01*
X211534523Y-58453390D02*
X211534523Y-58834342D01*
X211534523Y-58834342D02*
X211486904Y-58929580D01*
X211486904Y-58929580D02*
X211439285Y-58977200D01*
X211439285Y-58977200D02*
X211344047Y-59024819D01*
X211344047Y-59024819D02*
X211153571Y-59024819D01*
X211153571Y-59024819D02*
X211058333Y-58977200D01*
X211058333Y-58977200D02*
X211010714Y-58929580D01*
X211010714Y-58929580D02*
X210963095Y-58834342D01*
X210963095Y-58834342D02*
X210963095Y-58596247D01*
X210963095Y-58596247D02*
X211010714Y-58501009D01*
X211010714Y-58501009D02*
X211058333Y-58453390D01*
X211058333Y-58453390D02*
X211153571Y-58405771D01*
X211153571Y-58405771D02*
X211344047Y-58405771D01*
X211344047Y-58405771D02*
X211439285Y-58453390D01*
X211439285Y-58453390D02*
X211486904Y-58501009D01*
X211486904Y-58501009D02*
X211534523Y-58596247D01*
X207384819Y-83357142D02*
X206908628Y-83023809D01*
X207384819Y-82785714D02*
X206384819Y-82785714D01*
X206384819Y-82785714D02*
X206384819Y-83166666D01*
X206384819Y-83166666D02*
X206432438Y-83261904D01*
X206432438Y-83261904D02*
X206480057Y-83309523D01*
X206480057Y-83309523D02*
X206575295Y-83357142D01*
X206575295Y-83357142D02*
X206718152Y-83357142D01*
X206718152Y-83357142D02*
X206813390Y-83309523D01*
X206813390Y-83309523D02*
X206861009Y-83261904D01*
X206861009Y-83261904D02*
X206908628Y-83166666D01*
X206908628Y-83166666D02*
X206908628Y-82785714D01*
X207384819Y-84309523D02*
X207384819Y-83738095D01*
X207384819Y-84023809D02*
X206384819Y-84023809D01*
X206384819Y-84023809D02*
X206527676Y-83928571D01*
X206527676Y-83928571D02*
X206622914Y-83833333D01*
X206622914Y-83833333D02*
X206670533Y-83738095D01*
X206480057Y-84690476D02*
X206432438Y-84738095D01*
X206432438Y-84738095D02*
X206384819Y-84833333D01*
X206384819Y-84833333D02*
X206384819Y-85071428D01*
X206384819Y-85071428D02*
X206432438Y-85166666D01*
X206432438Y-85166666D02*
X206480057Y-85214285D01*
X206480057Y-85214285D02*
X206575295Y-85261904D01*
X206575295Y-85261904D02*
X206670533Y-85261904D01*
X206670533Y-85261904D02*
X206813390Y-85214285D01*
X206813390Y-85214285D02*
X207384819Y-84642857D01*
X207384819Y-84642857D02*
X207384819Y-85261904D01*
X213384819Y-83357142D02*
X212908628Y-83023809D01*
X213384819Y-82785714D02*
X212384819Y-82785714D01*
X212384819Y-82785714D02*
X212384819Y-83166666D01*
X212384819Y-83166666D02*
X212432438Y-83261904D01*
X212432438Y-83261904D02*
X212480057Y-83309523D01*
X212480057Y-83309523D02*
X212575295Y-83357142D01*
X212575295Y-83357142D02*
X212718152Y-83357142D01*
X212718152Y-83357142D02*
X212813390Y-83309523D01*
X212813390Y-83309523D02*
X212861009Y-83261904D01*
X212861009Y-83261904D02*
X212908628Y-83166666D01*
X212908628Y-83166666D02*
X212908628Y-82785714D01*
X213384819Y-84309523D02*
X213384819Y-83738095D01*
X213384819Y-84023809D02*
X212384819Y-84023809D01*
X212384819Y-84023809D02*
X212527676Y-83928571D01*
X212527676Y-83928571D02*
X212622914Y-83833333D01*
X212622914Y-83833333D02*
X212670533Y-83738095D01*
X213384819Y-85261904D02*
X213384819Y-84690476D01*
X213384819Y-84976190D02*
X212384819Y-84976190D01*
X212384819Y-84976190D02*
X212527676Y-84880952D01*
X212527676Y-84880952D02*
X212622914Y-84785714D01*
X212622914Y-84785714D02*
X212670533Y-84690476D01*
X197496904Y-56419819D02*
X197496904Y-57229342D01*
X197496904Y-57229342D02*
X197449285Y-57324580D01*
X197449285Y-57324580D02*
X197401666Y-57372200D01*
X197401666Y-57372200D02*
X197306428Y-57419819D01*
X197306428Y-57419819D02*
X197115952Y-57419819D01*
X197115952Y-57419819D02*
X197020714Y-57372200D01*
X197020714Y-57372200D02*
X196973095Y-57324580D01*
X196973095Y-57324580D02*
X196925476Y-57229342D01*
X196925476Y-57229342D02*
X196925476Y-56419819D01*
X196496904Y-56515057D02*
X196449285Y-56467438D01*
X196449285Y-56467438D02*
X196354047Y-56419819D01*
X196354047Y-56419819D02*
X196115952Y-56419819D01*
X196115952Y-56419819D02*
X196020714Y-56467438D01*
X196020714Y-56467438D02*
X195973095Y-56515057D01*
X195973095Y-56515057D02*
X195925476Y-56610295D01*
X195925476Y-56610295D02*
X195925476Y-56705533D01*
X195925476Y-56705533D02*
X195973095Y-56848390D01*
X195973095Y-56848390D02*
X196544523Y-57419819D01*
X196544523Y-57419819D02*
X195925476Y-57419819D01*
X211841666Y-68024819D02*
X212174999Y-67548628D01*
X212413094Y-68024819D02*
X212413094Y-67024819D01*
X212413094Y-67024819D02*
X212032142Y-67024819D01*
X212032142Y-67024819D02*
X211936904Y-67072438D01*
X211936904Y-67072438D02*
X211889285Y-67120057D01*
X211889285Y-67120057D02*
X211841666Y-67215295D01*
X211841666Y-67215295D02*
X211841666Y-67358152D01*
X211841666Y-67358152D02*
X211889285Y-67453390D01*
X211889285Y-67453390D02*
X211936904Y-67501009D01*
X211936904Y-67501009D02*
X212032142Y-67548628D01*
X212032142Y-67548628D02*
X212413094Y-67548628D01*
X211365475Y-68024819D02*
X211174999Y-68024819D01*
X211174999Y-68024819D02*
X211079761Y-67977200D01*
X211079761Y-67977200D02*
X211032142Y-67929580D01*
X211032142Y-67929580D02*
X210936904Y-67786723D01*
X210936904Y-67786723D02*
X210889285Y-67596247D01*
X210889285Y-67596247D02*
X210889285Y-67215295D01*
X210889285Y-67215295D02*
X210936904Y-67120057D01*
X210936904Y-67120057D02*
X210984523Y-67072438D01*
X210984523Y-67072438D02*
X211079761Y-67024819D01*
X211079761Y-67024819D02*
X211270237Y-67024819D01*
X211270237Y-67024819D02*
X211365475Y-67072438D01*
X211365475Y-67072438D02*
X211413094Y-67120057D01*
X211413094Y-67120057D02*
X211460713Y-67215295D01*
X211460713Y-67215295D02*
X211460713Y-67453390D01*
X211460713Y-67453390D02*
X211413094Y-67548628D01*
X211413094Y-67548628D02*
X211365475Y-67596247D01*
X211365475Y-67596247D02*
X211270237Y-67643866D01*
X211270237Y-67643866D02*
X211079761Y-67643866D01*
X211079761Y-67643866D02*
X210984523Y-67596247D01*
X210984523Y-67596247D02*
X210936904Y-67548628D01*
X210936904Y-67548628D02*
X210889285Y-67453390D01*
X212867857Y-60429580D02*
X212915476Y-60477200D01*
X212915476Y-60477200D02*
X213058333Y-60524819D01*
X213058333Y-60524819D02*
X213153571Y-60524819D01*
X213153571Y-60524819D02*
X213296428Y-60477200D01*
X213296428Y-60477200D02*
X213391666Y-60381961D01*
X213391666Y-60381961D02*
X213439285Y-60286723D01*
X213439285Y-60286723D02*
X213486904Y-60096247D01*
X213486904Y-60096247D02*
X213486904Y-59953390D01*
X213486904Y-59953390D02*
X213439285Y-59762914D01*
X213439285Y-59762914D02*
X213391666Y-59667676D01*
X213391666Y-59667676D02*
X213296428Y-59572438D01*
X213296428Y-59572438D02*
X213153571Y-59524819D01*
X213153571Y-59524819D02*
X213058333Y-59524819D01*
X213058333Y-59524819D02*
X212915476Y-59572438D01*
X212915476Y-59572438D02*
X212867857Y-59620057D01*
X211915476Y-60524819D02*
X212486904Y-60524819D01*
X212201190Y-60524819D02*
X212201190Y-59524819D01*
X212201190Y-59524819D02*
X212296428Y-59667676D01*
X212296428Y-59667676D02*
X212391666Y-59762914D01*
X212391666Y-59762914D02*
X212486904Y-59810533D01*
X211010714Y-59524819D02*
X211486904Y-59524819D01*
X211486904Y-59524819D02*
X211534523Y-60001009D01*
X211534523Y-60001009D02*
X211486904Y-59953390D01*
X211486904Y-59953390D02*
X211391666Y-59905771D01*
X211391666Y-59905771D02*
X211153571Y-59905771D01*
X211153571Y-59905771D02*
X211058333Y-59953390D01*
X211058333Y-59953390D02*
X211010714Y-60001009D01*
X211010714Y-60001009D02*
X210963095Y-60096247D01*
X210963095Y-60096247D02*
X210963095Y-60334342D01*
X210963095Y-60334342D02*
X211010714Y-60429580D01*
X211010714Y-60429580D02*
X211058333Y-60477200D01*
X211058333Y-60477200D02*
X211153571Y-60524819D01*
X211153571Y-60524819D02*
X211391666Y-60524819D01*
X211391666Y-60524819D02*
X211486904Y-60477200D01*
X211486904Y-60477200D02*
X211534523Y-60429580D01*
X209642857Y-74429580D02*
X209690476Y-74477200D01*
X209690476Y-74477200D02*
X209833333Y-74524819D01*
X209833333Y-74524819D02*
X209928571Y-74524819D01*
X209928571Y-74524819D02*
X210071428Y-74477200D01*
X210071428Y-74477200D02*
X210166666Y-74381961D01*
X210166666Y-74381961D02*
X210214285Y-74286723D01*
X210214285Y-74286723D02*
X210261904Y-74096247D01*
X210261904Y-74096247D02*
X210261904Y-73953390D01*
X210261904Y-73953390D02*
X210214285Y-73762914D01*
X210214285Y-73762914D02*
X210166666Y-73667676D01*
X210166666Y-73667676D02*
X210071428Y-73572438D01*
X210071428Y-73572438D02*
X209928571Y-73524819D01*
X209928571Y-73524819D02*
X209833333Y-73524819D01*
X209833333Y-73524819D02*
X209690476Y-73572438D01*
X209690476Y-73572438D02*
X209642857Y-73620057D01*
X208690476Y-74524819D02*
X209261904Y-74524819D01*
X208976190Y-74524819D02*
X208976190Y-73524819D01*
X208976190Y-73524819D02*
X209071428Y-73667676D01*
X209071428Y-73667676D02*
X209166666Y-73762914D01*
X209166666Y-73762914D02*
X209261904Y-73810533D01*
X208357142Y-73524819D02*
X207690476Y-73524819D01*
X207690476Y-73524819D02*
X208119047Y-74524819D01*
X218142857Y-58524819D02*
X218476190Y-58048628D01*
X218714285Y-58524819D02*
X218714285Y-57524819D01*
X218714285Y-57524819D02*
X218333333Y-57524819D01*
X218333333Y-57524819D02*
X218238095Y-57572438D01*
X218238095Y-57572438D02*
X218190476Y-57620057D01*
X218190476Y-57620057D02*
X218142857Y-57715295D01*
X218142857Y-57715295D02*
X218142857Y-57858152D01*
X218142857Y-57858152D02*
X218190476Y-57953390D01*
X218190476Y-57953390D02*
X218238095Y-58001009D01*
X218238095Y-58001009D02*
X218333333Y-58048628D01*
X218333333Y-58048628D02*
X218714285Y-58048628D01*
X217190476Y-58524819D02*
X217761904Y-58524819D01*
X217476190Y-58524819D02*
X217476190Y-57524819D01*
X217476190Y-57524819D02*
X217571428Y-57667676D01*
X217571428Y-57667676D02*
X217666666Y-57762914D01*
X217666666Y-57762914D02*
X217761904Y-57810533D01*
X216333333Y-57524819D02*
X216523809Y-57524819D01*
X216523809Y-57524819D02*
X216619047Y-57572438D01*
X216619047Y-57572438D02*
X216666666Y-57620057D01*
X216666666Y-57620057D02*
X216761904Y-57762914D01*
X216761904Y-57762914D02*
X216809523Y-57953390D01*
X216809523Y-57953390D02*
X216809523Y-58334342D01*
X216809523Y-58334342D02*
X216761904Y-58429580D01*
X216761904Y-58429580D02*
X216714285Y-58477200D01*
X216714285Y-58477200D02*
X216619047Y-58524819D01*
X216619047Y-58524819D02*
X216428571Y-58524819D01*
X216428571Y-58524819D02*
X216333333Y-58477200D01*
X216333333Y-58477200D02*
X216285714Y-58429580D01*
X216285714Y-58429580D02*
X216238095Y-58334342D01*
X216238095Y-58334342D02*
X216238095Y-58096247D01*
X216238095Y-58096247D02*
X216285714Y-58001009D01*
X216285714Y-58001009D02*
X216333333Y-57953390D01*
X216333333Y-57953390D02*
X216428571Y-57905771D01*
X216428571Y-57905771D02*
X216619047Y-57905771D01*
X216619047Y-57905771D02*
X216714285Y-57953390D01*
X216714285Y-57953390D02*
X216761904Y-58001009D01*
X216761904Y-58001009D02*
X216809523Y-58096247D01*
X210884819Y-83833333D02*
X210408628Y-83500000D01*
X210884819Y-83261905D02*
X209884819Y-83261905D01*
X209884819Y-83261905D02*
X209884819Y-83642857D01*
X209884819Y-83642857D02*
X209932438Y-83738095D01*
X209932438Y-83738095D02*
X209980057Y-83785714D01*
X209980057Y-83785714D02*
X210075295Y-83833333D01*
X210075295Y-83833333D02*
X210218152Y-83833333D01*
X210218152Y-83833333D02*
X210313390Y-83785714D01*
X210313390Y-83785714D02*
X210361009Y-83738095D01*
X210361009Y-83738095D02*
X210408628Y-83642857D01*
X210408628Y-83642857D02*
X210408628Y-83261905D01*
X210884819Y-84785714D02*
X210884819Y-84214286D01*
X210884819Y-84500000D02*
X209884819Y-84500000D01*
X209884819Y-84500000D02*
X210027676Y-84404762D01*
X210027676Y-84404762D02*
X210122914Y-84309524D01*
X210122914Y-84309524D02*
X210170533Y-84214286D01*
X209384819Y-83357142D02*
X208908628Y-83023809D01*
X209384819Y-82785714D02*
X208384819Y-82785714D01*
X208384819Y-82785714D02*
X208384819Y-83166666D01*
X208384819Y-83166666D02*
X208432438Y-83261904D01*
X208432438Y-83261904D02*
X208480057Y-83309523D01*
X208480057Y-83309523D02*
X208575295Y-83357142D01*
X208575295Y-83357142D02*
X208718152Y-83357142D01*
X208718152Y-83357142D02*
X208813390Y-83309523D01*
X208813390Y-83309523D02*
X208861009Y-83261904D01*
X208861009Y-83261904D02*
X208908628Y-83166666D01*
X208908628Y-83166666D02*
X208908628Y-82785714D01*
X209384819Y-84309523D02*
X209384819Y-83738095D01*
X209384819Y-84023809D02*
X208384819Y-84023809D01*
X208384819Y-84023809D02*
X208527676Y-83928571D01*
X208527676Y-83928571D02*
X208622914Y-83833333D01*
X208622914Y-83833333D02*
X208670533Y-83738095D01*
X208384819Y-84928571D02*
X208384819Y-85023809D01*
X208384819Y-85023809D02*
X208432438Y-85119047D01*
X208432438Y-85119047D02*
X208480057Y-85166666D01*
X208480057Y-85166666D02*
X208575295Y-85214285D01*
X208575295Y-85214285D02*
X208765771Y-85261904D01*
X208765771Y-85261904D02*
X209003866Y-85261904D01*
X209003866Y-85261904D02*
X209194342Y-85214285D01*
X209194342Y-85214285D02*
X209289580Y-85166666D01*
X209289580Y-85166666D02*
X209337200Y-85119047D01*
X209337200Y-85119047D02*
X209384819Y-85023809D01*
X209384819Y-85023809D02*
X209384819Y-84928571D01*
X209384819Y-84928571D02*
X209337200Y-84833333D01*
X209337200Y-84833333D02*
X209289580Y-84785714D01*
X209289580Y-84785714D02*
X209194342Y-84738095D01*
X209194342Y-84738095D02*
X209003866Y-84690476D01*
X209003866Y-84690476D02*
X208765771Y-84690476D01*
X208765771Y-84690476D02*
X208575295Y-84738095D01*
X208575295Y-84738095D02*
X208480057Y-84785714D01*
X208480057Y-84785714D02*
X208432438Y-84833333D01*
X208432438Y-84833333D02*
X208384819Y-84928571D01*
X207166666Y-71384819D02*
X207499999Y-70908628D01*
X207738094Y-71384819D02*
X207738094Y-70384819D01*
X207738094Y-70384819D02*
X207357142Y-70384819D01*
X207357142Y-70384819D02*
X207261904Y-70432438D01*
X207261904Y-70432438D02*
X207214285Y-70480057D01*
X207214285Y-70480057D02*
X207166666Y-70575295D01*
X207166666Y-70575295D02*
X207166666Y-70718152D01*
X207166666Y-70718152D02*
X207214285Y-70813390D01*
X207214285Y-70813390D02*
X207261904Y-70861009D01*
X207261904Y-70861009D02*
X207357142Y-70908628D01*
X207357142Y-70908628D02*
X207738094Y-70908628D01*
X206595237Y-70813390D02*
X206690475Y-70765771D01*
X206690475Y-70765771D02*
X206738094Y-70718152D01*
X206738094Y-70718152D02*
X206785713Y-70622914D01*
X206785713Y-70622914D02*
X206785713Y-70575295D01*
X206785713Y-70575295D02*
X206738094Y-70480057D01*
X206738094Y-70480057D02*
X206690475Y-70432438D01*
X206690475Y-70432438D02*
X206595237Y-70384819D01*
X206595237Y-70384819D02*
X206404761Y-70384819D01*
X206404761Y-70384819D02*
X206309523Y-70432438D01*
X206309523Y-70432438D02*
X206261904Y-70480057D01*
X206261904Y-70480057D02*
X206214285Y-70575295D01*
X206214285Y-70575295D02*
X206214285Y-70622914D01*
X206214285Y-70622914D02*
X206261904Y-70718152D01*
X206261904Y-70718152D02*
X206309523Y-70765771D01*
X206309523Y-70765771D02*
X206404761Y-70813390D01*
X206404761Y-70813390D02*
X206595237Y-70813390D01*
X206595237Y-70813390D02*
X206690475Y-70861009D01*
X206690475Y-70861009D02*
X206738094Y-70908628D01*
X206738094Y-70908628D02*
X206785713Y-71003866D01*
X206785713Y-71003866D02*
X206785713Y-71194342D01*
X206785713Y-71194342D02*
X206738094Y-71289580D01*
X206738094Y-71289580D02*
X206690475Y-71337200D01*
X206690475Y-71337200D02*
X206595237Y-71384819D01*
X206595237Y-71384819D02*
X206404761Y-71384819D01*
X206404761Y-71384819D02*
X206309523Y-71337200D01*
X206309523Y-71337200D02*
X206261904Y-71289580D01*
X206261904Y-71289580D02*
X206214285Y-71194342D01*
X206214285Y-71194342D02*
X206214285Y-71003866D01*
X206214285Y-71003866D02*
X206261904Y-70908628D01*
X206261904Y-70908628D02*
X206309523Y-70861009D01*
X206309523Y-70861009D02*
X206404761Y-70813390D01*
D11*
%TO.C,C16*%
X212084420Y-59490000D02*
X212365580Y-59490000D01*
X212084420Y-60510000D02*
X212365580Y-60510000D01*
%TO.C,R12*%
X204977500Y-83762742D02*
X204977500Y-84237258D01*
X206022500Y-83762742D02*
X206022500Y-84237258D01*
%TO.C,R11*%
X210977500Y-83762742D02*
X210977500Y-84237258D01*
X212022500Y-83762742D02*
X212022500Y-84237258D01*
%TO.C,J1*%
X216400000Y-69915000D02*
X222700000Y-69915000D01*
X216400000Y-82785000D02*
X222000000Y-82785000D01*
X224600000Y-69915000D02*
X226410000Y-69915000D01*
X226410000Y-69915000D02*
X226410000Y-70025000D01*
X226410000Y-71525000D02*
X226410000Y-82785000D01*
X226410000Y-82785000D02*
X225250000Y-82785000D01*
D12*
%TO.C,U2*%
X181675000Y-60775000D02*
X197825000Y-60775000D01*
X181675000Y-61950000D02*
X181675000Y-60775000D01*
X181675000Y-76750000D02*
X181675000Y-76925000D01*
X197825000Y-61950000D02*
X197825000Y-60775000D01*
X197825000Y-76750000D02*
X197825000Y-76925000D01*
X197825000Y-76925000D02*
X181675000Y-76925000D01*
D13*
X199250000Y-61850000D02*
G75*
G02*
X199050000Y-61850000I-100000J0D01*
G01*
X199050000Y-61850000D02*
G75*
G02*
X199250000Y-61850000I100000J0D01*
G01*
D11*
%TO.C,SW1*%
X222500000Y-59800000D02*
X222500000Y-66200000D01*
X222500000Y-66200000D02*
X223700000Y-66200000D01*
X223700000Y-59800000D02*
X222500000Y-59800000D01*
X225300000Y-66200000D02*
X226500000Y-66200000D01*
X226500000Y-59800000D02*
X225300000Y-59800000D01*
X226500000Y-66200000D02*
X226500000Y-59800000D01*
%TO.C,R9*%
X211437742Y-68477500D02*
X211912258Y-68477500D01*
X211437742Y-69522500D02*
X211912258Y-69522500D01*
%TO.C,C15*%
X212084420Y-60990000D02*
X212365580Y-60990000D01*
X212084420Y-62010000D02*
X212365580Y-62010000D01*
%TO.C,C17*%
X208859420Y-74990000D02*
X209140580Y-74990000D01*
X208859420Y-76010000D02*
X209140580Y-76010000D01*
%TO.C,R16*%
X217262742Y-58977500D02*
X217737258Y-58977500D01*
X217262742Y-60022500D02*
X217737258Y-60022500D01*
%TO.C,R1*%
X208477500Y-83762742D02*
X208477500Y-84237258D01*
X209522500Y-83762742D02*
X209522500Y-84237258D01*
%TO.C,R10*%
X206977500Y-83762742D02*
X206977500Y-84237258D01*
X208022500Y-83762742D02*
X208022500Y-84237258D01*
D12*
%TO.C,U5*%
X215185000Y-62645000D02*
X215655000Y-62645000D01*
X215655000Y-64855000D02*
X215185000Y-64855000D01*
X216875000Y-62645000D02*
X217345000Y-62645000D01*
X217345000Y-64855000D02*
X216875000Y-64855000D01*
D14*
X217665000Y-62950000D02*
G75*
G02*
X217565000Y-62950000I-50000J0D01*
G01*
X217565000Y-62950000D02*
G75*
G02*
X217665000Y-62950000I50000J0D01*
G01*
D11*
%TO.C,R8*%
X207237258Y-68977500D02*
X206762742Y-68977500D01*
X207237258Y-70022500D02*
X206762742Y-70022500D01*
%TD*%
M02*
