%TF.GenerationSoftware,KiCad,Pcbnew,8.0.2*%
%TF.CreationDate,2025-04-11T11:55:07+07:00*%
%TF.ProjectId,wearable_device,77656172-6162-46c6-955f-646576696365,rev?*%
%TF.SameCoordinates,Original*%
%TF.FileFunction,Copper,L1,Top*%
%TF.FilePolarity,Positive*%
%FSLAX46Y46*%
G04 Gerber Fmt 4.6, Leading zero omitted, Abs format (unit mm)*
G04 Created by KiCad (PCBNEW 8.0.2) date 2025-04-11 11:55:07*
%MOMM*%
%LPD*%
G01*
G04 APERTURE LIST*
G04 Aperture macros list*
%AMRoundRect*
0 Rectangle with rounded corners*
0 $1 Rounding radius*
0 $2 $3 $4 $5 $6 $7 $8 $9 X,Y pos of 4 corners*
0 Add a 4 corners polygon primitive as box body*
4,1,4,$2,$3,$4,$5,$6,$7,$8,$9,$2,$3,0*
0 Add four circle primitives for the rounded corners*
1,1,$1+$1,$2,$3*
1,1,$1+$1,$4,$5*
1,1,$1+$1,$6,$7*
1,1,$1+$1,$8,$9*
0 Add four rect primitives between the rounded corners*
20,1,$1+$1,$2,$3,$4,$5,0*
20,1,$1+$1,$4,$5,$6,$7,0*
20,1,$1+$1,$6,$7,$8,$9,0*
20,1,$1+$1,$8,$9,$2,$3,0*%
%AMOutline5P*
0 Free polygon, 5 corners , with rotation*
0 The origin of the aperture is its center*
0 number of corners: always 5*
0 $1 to $10 corner X, Y*
0 $11 Rotation angle, in degrees counterclockwise*
0 create outline with 5 corners*
4,1,5,$1,$2,$3,$4,$5,$6,$7,$8,$9,$10,$1,$2,$11*%
%AMOutline6P*
0 Free polygon, 6 corners , with rotation*
0 The origin of the aperture is its center*
0 number of corners: always 6*
0 $1 to $12 corner X, Y*
0 $13 Rotation angle, in degrees counterclockwise*
0 create outline with 6 corners*
4,1,6,$1,$2,$3,$4,$5,$6,$7,$8,$9,$10,$11,$12,$1,$2,$13*%
%AMOutline7P*
0 Free polygon, 7 corners , with rotation*
0 The origin of the aperture is its center*
0 number of corners: always 7*
0 $1 to $14 corner X, Y*
0 $15 Rotation angle, in degrees counterclockwise*
0 create outline with 7 corners*
4,1,7,$1,$2,$3,$4,$5,$6,$7,$8,$9,$10,$11,$12,$13,$14,$1,$2,$15*%
%AMOutline8P*
0 Free polygon, 8 corners , with rotation*
0 The origin of the aperture is its center*
0 number of corners: always 8*
0 $1 to $16 corner X, Y*
0 $17 Rotation angle, in degrees counterclockwise*
0 create outline with 8 corners*
4,1,8,$1,$2,$3,$4,$5,$6,$7,$8,$9,$10,$11,$12,$13,$14,$15,$16,$1,$2,$17*%
G04 Aperture macros list end*
%TA.AperFunction,SMDPad,CuDef*%
%ADD10RoundRect,0.225000X-0.250000X0.225000X-0.250000X-0.225000X0.250000X-0.225000X0.250000X0.225000X0*%
%TD*%
%TA.AperFunction,ComponentPad*%
%ADD11R,1.350000X1.350000*%
%TD*%
%TA.AperFunction,SMDPad,CuDef*%
%ADD12RoundRect,0.200000X0.275000X-0.200000X0.275000X0.200000X-0.275000X0.200000X-0.275000X-0.200000X0*%
%TD*%
%TA.AperFunction,SMDPad,CuDef*%
%ADD13RoundRect,0.200000X-0.200000X-0.275000X0.200000X-0.275000X0.200000X0.275000X-0.200000X0.275000X0*%
%TD*%
%TA.AperFunction,SMDPad,CuDef*%
%ADD14RoundRect,0.150000X0.587500X0.150000X-0.587500X0.150000X-0.587500X-0.150000X0.587500X-0.150000X0*%
%TD*%
%TA.AperFunction,SMDPad,CuDef*%
%ADD15R,0.800000X0.400000*%
%TD*%
%TA.AperFunction,SMDPad,CuDef*%
%ADD16R,0.400000X0.800000*%
%TD*%
%TA.AperFunction,SMDPad,CuDef*%
%ADD17Outline5P,-0.600000X0.204000X-0.204000X0.600000X0.600000X0.600000X0.600000X-0.600000X-0.600000X-0.600000X0.000000*%
%TD*%
%TA.AperFunction,SMDPad,CuDef*%
%ADD18R,1.200000X1.200000*%
%TD*%
%TA.AperFunction,SMDPad,CuDef*%
%ADD19R,0.800000X0.800000*%
%TD*%
%TA.AperFunction,SMDPad,CuDef*%
%ADD20RoundRect,0.200000X-0.275000X0.200000X-0.275000X-0.200000X0.275000X-0.200000X0.275000X0.200000X0*%
%TD*%
%TA.AperFunction,SMDPad,CuDef*%
%ADD21RoundRect,0.150000X0.150000X-0.587500X0.150000X0.587500X-0.150000X0.587500X-0.150000X-0.587500X0*%
%TD*%
%TA.AperFunction,SMDPad,CuDef*%
%ADD22RoundRect,0.075000X0.910000X0.225000X-0.910000X0.225000X-0.910000X-0.225000X0.910000X-0.225000X0*%
%TD*%
%TA.AperFunction,SMDPad,CuDef*%
%ADD23R,2.413000X3.302000*%
%TD*%
%TA.AperFunction,SMDPad,CuDef*%
%ADD24RoundRect,0.225000X0.250000X-0.225000X0.250000X0.225000X-0.250000X0.225000X-0.250000X-0.225000X0*%
%TD*%
%TA.AperFunction,ComponentPad*%
%ADD25R,1.700000X1.700000*%
%TD*%
%TA.AperFunction,ComponentPad*%
%ADD26O,1.700000X1.700000*%
%TD*%
%TA.AperFunction,SMDPad,CuDef*%
%ADD27RoundRect,0.147500X-0.457500X-0.147500X0.457500X-0.147500X0.457500X0.147500X-0.457500X0.147500X0*%
%TD*%
%TA.AperFunction,SMDPad,CuDef*%
%ADD28RoundRect,0.150000X-0.150000X-0.425000X0.150000X-0.425000X0.150000X0.425000X-0.150000X0.425000X0*%
%TD*%
%TA.AperFunction,SMDPad,CuDef*%
%ADD29RoundRect,0.075000X-0.075000X-0.500000X0.075000X-0.500000X0.075000X0.500000X-0.075000X0.500000X0*%
%TD*%
%TA.AperFunction,ComponentPad*%
%ADD30O,1.000000X2.100000*%
%TD*%
%TA.AperFunction,ComponentPad*%
%ADD31O,1.000000X1.800000*%
%TD*%
%TA.AperFunction,ComponentPad*%
%ADD32O,1.350000X1.350000*%
%TD*%
%TA.AperFunction,SMDPad,CuDef*%
%ADD33RoundRect,0.225000X-0.225000X-0.250000X0.225000X-0.250000X0.225000X0.250000X-0.225000X0.250000X0*%
%TD*%
%TA.AperFunction,SMDPad,CuDef*%
%ADD34RoundRect,0.150000X-0.825000X-0.150000X0.825000X-0.150000X0.825000X0.150000X-0.825000X0.150000X0*%
%TD*%
%TA.AperFunction,SMDPad,CuDef*%
%ADD35RoundRect,0.150000X-0.587500X-0.150000X0.587500X-0.150000X0.587500X0.150000X-0.587500X0.150000X0*%
%TD*%
%TA.AperFunction,SMDPad,CuDef*%
%ADD36RoundRect,0.225000X0.225000X0.250000X-0.225000X0.250000X-0.225000X-0.250000X0.225000X-0.250000X0*%
%TD*%
%TA.AperFunction,ViaPad*%
%ADD37C,0.600000*%
%TD*%
%TA.AperFunction,Conductor*%
%ADD38C,0.100000*%
%TD*%
%TA.AperFunction,Conductor*%
%ADD39C,0.200000*%
%TD*%
G04 APERTURE END LIST*
D10*
%TO.P,C7,1*%
%TO.N,+3.3V*%
X188250000Y-72700000D03*
%TO.P,C7,2*%
%TO.N,GND*%
X188250000Y-74250000D03*
%TD*%
D11*
%TO.P,J6,1,Pin_1*%
%TO.N,GND*%
X225150000Y-95450000D03*
%TD*%
D12*
%TO.P,R5,1*%
%TO.N,/POWER_5V*%
X213650000Y-87275000D03*
%TO.P,R5,2*%
%TO.N,/CHRG*%
X213650000Y-85625000D03*
%TD*%
D13*
%TO.P,R13,1*%
%TO.N,/DTR*%
X223325000Y-64450000D03*
%TO.P,R13,2*%
%TO.N,Net-(Q3-B)*%
X224975000Y-64450000D03*
%TD*%
D10*
%TO.P,C3,1*%
%TO.N,+3.3V*%
X225650000Y-74900000D03*
%TO.P,C3,2*%
%TO.N,GND*%
X225650000Y-76450000D03*
%TD*%
D14*
%TO.P,Q3,1,B*%
%TO.N,Net-(Q3-B)*%
X224587500Y-61900000D03*
%TO.P,Q3,2,E*%
%TO.N,/RTS*%
X224587500Y-60000000D03*
%TO.P,Q3,3,C*%
%TO.N,/ESP32_EN*%
X222712500Y-60950000D03*
%TD*%
D15*
%TO.P,U1,1,GND*%
%TO.N,GND*%
X204650000Y-59550000D03*
%TO.P,U1,2,GND*%
X204650000Y-60400000D03*
%TO.P,U1,3,3V3*%
%TO.N,+3.3V*%
X204650000Y-61250000D03*
%TO.P,U1,4,IO0*%
%TO.N,/ESP32_IO0*%
X204650000Y-62100000D03*
%TO.P,U1,5,IO1*%
%TO.N,unconnected-(U1-IO1-Pad5)*%
X204650000Y-62950000D03*
%TO.P,U1,6,IO2*%
%TO.N,unconnected-(U1-IO2-Pad6)*%
X204650000Y-63800000D03*
%TO.P,U1,7,IO3*%
%TO.N,/IRQ_ACC*%
X204650000Y-64650000D03*
%TO.P,U1,8,IO4*%
%TO.N,unconnected-(U1-IO4-Pad8)*%
X204650000Y-65500000D03*
%TO.P,U1,9,IO5*%
%TO.N,/INT_MAX*%
X204650000Y-66350000D03*
%TO.P,U1,10,IO6*%
%TO.N,/MOSI_SPI2*%
X204650000Y-67200000D03*
%TO.P,U1,11,IO7*%
%TO.N,/CS_SPI2*%
X204650000Y-68050000D03*
%TO.P,U1,12,IO8*%
%TO.N,/RES_TFT*%
X204650000Y-68900000D03*
%TO.P,U1,13,IO9*%
%TO.N,/DC_TFT*%
X204650000Y-69750000D03*
%TO.P,U1,14,IO10*%
%TO.N,/BLK_TFT*%
X204650000Y-70600000D03*
%TO.P,U1,15,IO11*%
%TO.N,unconnected-(U1-IO11-Pad15)*%
X204650000Y-71450000D03*
D16*
%TO.P,U1,16,IO12*%
%TO.N,/MOSI_TFT*%
X205700000Y-72500000D03*
%TO.P,U1,17,IO13*%
%TO.N,/I2C_SCL*%
X206550000Y-72500000D03*
%TO.P,U1,18,IO14*%
%TO.N,/I2C_SDA*%
X207400000Y-72500000D03*
%TO.P,U1,19,IO15*%
%TO.N,/SCLK_TFT*%
X208250000Y-72500000D03*
%TO.P,U1,20,IO16*%
%TO.N,/CLK_SPI2*%
X209100000Y-72500000D03*
%TO.P,U1,21,IO17*%
%TO.N,/RXD1*%
X209950000Y-72500000D03*
%TO.P,U1,22,IO18*%
%TO.N,/TXD1*%
X210800000Y-72500000D03*
%TO.P,U1,23,IO19*%
%TO.N,/MISO_SPI2*%
X211650000Y-72500000D03*
%TO.P,U1,24,IO20*%
%TO.N,unconnected-(U1-IO20-Pad24)*%
X212500000Y-72500000D03*
%TO.P,U1,25,IO21*%
%TO.N,unconnected-(U1-IO21-Pad25)*%
X213350000Y-72500000D03*
%TO.P,U1,26,IO26*%
%TO.N,unconnected-(U1-IO26-Pad26)*%
X214200000Y-72500000D03*
%TO.P,U1,27,IO47*%
%TO.N,unconnected-(U1-IO47-Pad27)*%
X215050000Y-72500000D03*
%TO.P,U1,28,IO33*%
%TO.N,unconnected-(U1-IO33-Pad28)*%
X215900000Y-72500000D03*
%TO.P,U1,29,IO34*%
%TO.N,unconnected-(U1-IO34-Pad29)*%
X216750000Y-72500000D03*
%TO.P,U1,30,IO48*%
%TO.N,unconnected-(U1-IO48-Pad30)*%
X217600000Y-72500000D03*
D15*
%TO.P,U1,31,IO35*%
%TO.N,unconnected-(U1-IO35-Pad31)*%
X218650000Y-71450000D03*
%TO.P,U1,32,IO36*%
%TO.N,unconnected-(U1-IO36-Pad32)*%
X218650000Y-70600000D03*
%TO.P,U1,33,IO37*%
%TO.N,/SG_STDBY*%
X218650000Y-69750000D03*
%TO.P,U1,34,IO38*%
%TO.N,/SG_CHRG*%
X218650000Y-68900000D03*
%TO.P,U1,35,IO39*%
%TO.N,/BTN_CONTROL*%
X218650000Y-68050000D03*
%TO.P,U1,36,IO40*%
%TO.N,unconnected-(U1-IO40-Pad36)*%
X218650000Y-67200000D03*
%TO.P,U1,37,IO41*%
%TO.N,unconnected-(U1-IO41-Pad37)*%
X218650000Y-66350000D03*
%TO.P,U1,38,IO42*%
%TO.N,unconnected-(U1-IO42-Pad38)*%
X218650000Y-65500000D03*
%TO.P,U1,39,TXD0*%
%TO.N,Net-(U1-TXD0)*%
X218650000Y-64650000D03*
%TO.P,U1,40,RXD0*%
%TO.N,Net-(U1-RXD0)*%
X218650000Y-63800000D03*
%TO.P,U1,41,IO45*%
%TO.N,unconnected-(U1-IO45-Pad41)*%
X218650000Y-62950000D03*
%TO.P,U1,42,GND*%
%TO.N,GND*%
X218650000Y-62100000D03*
%TO.P,U1,43,GND*%
X218650000Y-61250000D03*
%TO.P,U1,44,IO46*%
%TO.N,unconnected-(U1-IO46-Pad44)*%
X218650000Y-60400000D03*
%TO.P,U1,45,EN*%
%TO.N,/ESP32_EN*%
X218650000Y-59550000D03*
D16*
%TO.P,U1,46,GND*%
%TO.N,GND*%
X217600000Y-58500000D03*
%TO.P,U1,47,GND*%
X216750000Y-58500000D03*
%TO.P,U1,48,GND*%
X215900000Y-58500000D03*
%TO.P,U1,49,GND*%
X215050000Y-58500000D03*
%TO.P,U1,50,GND*%
X214200000Y-58500000D03*
%TO.P,U1,51,GND*%
X213350000Y-58500000D03*
%TO.P,U1,52,GND*%
X212500000Y-58500000D03*
%TO.P,U1,53,GND*%
X211650000Y-58500000D03*
%TO.P,U1,54,GND*%
X210800000Y-58500000D03*
%TO.P,U1,55,GND*%
X209950000Y-58500000D03*
%TO.P,U1,56,GND*%
X209100000Y-58500000D03*
%TO.P,U1,57,GND*%
X208250000Y-58500000D03*
%TO.P,U1,58,GND*%
X207400000Y-58500000D03*
%TO.P,U1,59,GND*%
X206550000Y-58500000D03*
%TO.P,U1,60,GND*%
X205700000Y-58500000D03*
D17*
%TO.P,U1,61,GND*%
X210000000Y-63850000D03*
D18*
X210000000Y-65500000D03*
X210000000Y-67150000D03*
X211650000Y-63850000D03*
X211650000Y-65500000D03*
X211650000Y-67150000D03*
X213300000Y-63850000D03*
X213300000Y-65500000D03*
X213300000Y-67150000D03*
D19*
%TO.P,U1,62,GND*%
X204650000Y-58500000D03*
%TO.P,U1,63,GND*%
X204650000Y-72500000D03*
%TO.P,U1,64,GND*%
X218650000Y-72500000D03*
%TO.P,U1,65,GND*%
X218650000Y-58500000D03*
%TD*%
D13*
%TO.P,R7,1*%
%TO.N,+3.3V*%
X212325000Y-74950000D03*
%TO.P,R7,2*%
%TO.N,/SG_CHRG*%
X213975000Y-74950000D03*
%TD*%
D20*
%TO.P,R2,1*%
%TO.N,+3.3V*%
X220650000Y-58625000D03*
%TO.P,R2,2*%
%TO.N,/ESP32_EN*%
X220650000Y-60275000D03*
%TD*%
D21*
%TO.P,Q1,1,G*%
%TO.N,/CHRG*%
X213150000Y-81450000D03*
%TO.P,Q1,2,S*%
%TO.N,GND*%
X215050000Y-81450000D03*
%TO.P,Q1,3,D*%
%TO.N,/SG_CHRG*%
X214100000Y-79575000D03*
%TD*%
D12*
%TO.P,R4,1*%
%TO.N,/POWER_5V*%
X211140000Y-87275000D03*
%TO.P,R4,2*%
%TO.N,/STDBY*%
X211140000Y-85625000D03*
%TD*%
D22*
%TO.P,U4,1,TEMP*%
%TO.N,GND*%
X222625000Y-85355000D03*
%TO.P,U4,2,PROG*%
%TO.N,Net-(U4-PROG)*%
X222625000Y-84085000D03*
%TO.P,U4,3,GND*%
%TO.N,GND*%
X222625000Y-82815000D03*
%TO.P,U4,4,VCC*%
%TO.N,/POWER_5V*%
X222625000Y-81545000D03*
%TO.P,U4,5,BAT*%
%TO.N,/VTP4*%
X217675000Y-81545000D03*
%TO.P,U4,6,~{STDBY}*%
%TO.N,/STDBY*%
X217675000Y-82815000D03*
%TO.P,U4,7,~{CHRG}*%
%TO.N,/CHRG*%
X217675000Y-84085000D03*
%TO.P,U4,8,CE*%
%TO.N,/POWER_5V*%
X217675000Y-85355000D03*
D23*
%TO.P,U4,9,EP*%
%TO.N,unconnected-(U4-EP-Pad9)*%
X220150000Y-83450000D03*
%TD*%
D24*
%TO.P,C4,1*%
%TO.N,+3.3V*%
X223140000Y-68225000D03*
%TO.P,C4,2*%
%TO.N,GND*%
X223140000Y-66675000D03*
%TD*%
D12*
%TO.P,R15,1*%
%TO.N,+3.3V*%
X202650000Y-67275000D03*
%TO.P,R15,2*%
%TO.N,/ESP32_IO0*%
X202650000Y-65625000D03*
%TD*%
D10*
%TO.P,C1,1*%
%TO.N,Net-(J3-Pin_2)*%
X192000000Y-93000000D03*
%TO.P,C1,2*%
%TO.N,+3.3V*%
X192000000Y-94550000D03*
%TD*%
D25*
%TO.P,J5,1,Pin_1*%
%TO.N,GND*%
X194875000Y-94250000D03*
D26*
%TO.P,J5,2,Pin_2*%
%TO.N,+3.3V*%
X197415000Y-94250000D03*
%TO.P,J5,3,Pin_3*%
%TO.N,/SCLK_TFT*%
X199955000Y-94250000D03*
%TO.P,J5,4,Pin_4*%
%TO.N,/MOSI_TFT*%
X202495000Y-94250000D03*
%TO.P,J5,5,Pin_5*%
%TO.N,/RES_TFT*%
X205035000Y-94250000D03*
%TO.P,J5,6,Pin_6*%
%TO.N,/DC_TFT*%
X207575000Y-94250000D03*
%TO.P,J5,7,Pin_7*%
%TO.N,/BLK_TFT*%
X210115000Y-94250000D03*
%TD*%
D10*
%TO.P,C12,1*%
%TO.N,Net-(U3-BYPASS)*%
X225650000Y-78675000D03*
%TO.P,C12,2*%
%TO.N,GND*%
X225650000Y-80225000D03*
%TD*%
D21*
%TO.P,Q2,1,G*%
%TO.N,/STDBY*%
X208700000Y-81387500D03*
%TO.P,Q2,2,S*%
%TO.N,GND*%
X210600000Y-81387500D03*
%TO.P,Q2,3,D*%
%TO.N,/SG_STDBY*%
X209650000Y-79512500D03*
%TD*%
D24*
%TO.P,C9,1*%
%TO.N,+3.3V*%
X191750000Y-68500000D03*
%TO.P,C9,2*%
%TO.N,GND*%
X191750000Y-66950000D03*
%TD*%
D27*
%TO.P,U3,1,VIN*%
%TO.N,/VTP4*%
X221395000Y-76000000D03*
%TO.P,U3,2,GND*%
%TO.N,GND*%
X221395000Y-76950000D03*
%TO.P,U3,3,ON/~{OFF}*%
%TO.N,/VTP4*%
X221395000Y-77900000D03*
%TO.P,U3,4,BYPASS*%
%TO.N,Net-(U3-BYPASS)*%
X223905000Y-77900000D03*
%TO.P,U3,5,VOUT*%
%TO.N,+3.3V*%
X223905000Y-76000000D03*
%TD*%
D28*
%TO.P,P1,A1,GND*%
%TO.N,GND*%
X214450000Y-91770000D03*
%TO.P,P1,A4,VBUS*%
%TO.N,/POWER_5V*%
X215250000Y-91770000D03*
D29*
%TO.P,P1,A5,CC*%
%TO.N,unconnected-(P1-CC-PadA5)*%
X216400000Y-91770000D03*
%TO.P,P1,A6,D+*%
%TO.N,Net-(P1-D+)*%
X217400000Y-91770000D03*
%TO.P,P1,A7,D-*%
%TO.N,Net-(P1-D-)*%
X217900000Y-91770000D03*
%TO.P,P1,A8*%
%TO.N,N/C*%
X218900000Y-91770000D03*
D28*
%TO.P,P1,A9,VBUS*%
%TO.N,/POWER_5V*%
X220050000Y-91770000D03*
%TO.P,P1,A12,GND*%
%TO.N,GND*%
X220850000Y-91770000D03*
%TO.P,P1,B1,GND*%
X220850000Y-91770000D03*
%TO.P,P1,B4,VBUS*%
%TO.N,/POWER_5V*%
X220050000Y-91770000D03*
D29*
%TO.P,P1,B5,VCONN*%
%TO.N,unconnected-(P1-VCONN-PadB5)*%
X219400000Y-91770000D03*
%TO.P,P1,B6*%
%TO.N,N/C*%
X218400000Y-91770000D03*
%TO.P,P1,B7*%
X216900000Y-91770000D03*
%TO.P,P1,B8*%
X215900000Y-91770000D03*
D28*
%TO.P,P1,B9,VBUS*%
%TO.N,/POWER_5V*%
X215250000Y-91770000D03*
%TO.P,P1,B12,GND*%
%TO.N,GND*%
X214450000Y-91770000D03*
D30*
%TO.P,P1,S1,SHIELD*%
X213330000Y-92345000D03*
D31*
X213330000Y-96525000D03*
D30*
X221970000Y-92345000D03*
D31*
X221970000Y-96525000D03*
%TD*%
D11*
%TO.P,J3,1,Pin_1*%
%TO.N,GND*%
X193000000Y-88500000D03*
D32*
%TO.P,J3,2,Pin_2*%
%TO.N,Net-(J3-Pin_2)*%
X193000000Y-86500000D03*
%TO.P,J3,3,Pin_3*%
%TO.N,Net-(J3-Pin_3)*%
X193000000Y-84500000D03*
%TO.P,J3,4,Pin_4*%
%TO.N,/INT_MAX*%
X193000000Y-82500000D03*
%TD*%
D33*
%TO.P,C14,1*%
%TO.N,/VTP4*%
X221375000Y-79450000D03*
%TO.P,C14,2*%
%TO.N,GND*%
X222925000Y-79450000D03*
%TD*%
%TO.P,C13,1*%
%TO.N,/POWER_5V*%
X220650000Y-88450000D03*
%TO.P,C13,2*%
%TO.N,GND*%
X222200000Y-88450000D03*
%TD*%
D10*
%TO.P,C8,1*%
%TO.N,+3.3V*%
X192000000Y-72725000D03*
%TO.P,C8,2*%
%TO.N,GND*%
X192000000Y-74275000D03*
%TD*%
D20*
%TO.P,R3,1*%
%TO.N,Net-(U4-PROG)*%
X225150000Y-88125000D03*
%TO.P,R3,2*%
%TO.N,GND*%
X225150000Y-89775000D03*
%TD*%
D34*
%TO.P,U6,1,GND*%
%TO.N,GND*%
X200700000Y-78005000D03*
%TO.P,U6,2,TXD*%
%TO.N,Net-(U1-RXD0)*%
X200700000Y-79275000D03*
%TO.P,U6,3,RXD*%
%TO.N,Net-(U1-TXD0)*%
X200700000Y-80545000D03*
%TO.P,U6,4,V3*%
%TO.N,+3.3V*%
X200700000Y-81815000D03*
%TO.P,U6,5,UD+*%
%TO.N,Net-(P1-D+)*%
X200700000Y-83085000D03*
%TO.P,U6,6,UD-*%
%TO.N,Net-(P1-D-)*%
X200700000Y-84355000D03*
%TO.P,U6,7,NC*%
%TO.N,unconnected-(U6-NC-Pad7)*%
X200700000Y-85625000D03*
%TO.P,U6,8,~{OUT}/~{DTR}*%
%TO.N,unconnected-(U6-~{OUT}{slash}~{DTR}-Pad8)*%
X200700000Y-86895000D03*
%TO.P,U6,9,~{CTS}*%
%TO.N,unconnected-(U6-~{CTS}-Pad9)*%
X205650000Y-86895000D03*
%TO.P,U6,10,~{DSR}*%
%TO.N,unconnected-(U6-~{DSR}-Pad10)*%
X205650000Y-85625000D03*
%TO.P,U6,11,~{RI}*%
%TO.N,unconnected-(U6-~{RI}-Pad11)*%
X205650000Y-84355000D03*
%TO.P,U6,12,~{DCD}*%
%TO.N,unconnected-(U6-~{DCD}-Pad12)*%
X205650000Y-83085000D03*
%TO.P,U6,13,~{DTR}*%
%TO.N,/DTR*%
X205650000Y-81815000D03*
%TO.P,U6,14,~{RTS}*%
%TO.N,/RTS*%
X205650000Y-80545000D03*
%TO.P,U6,15,R232*%
%TO.N,unconnected-(U6-R232-Pad15)*%
X205650000Y-79275000D03*
%TO.P,U6,16,VCC*%
%TO.N,+3.3V*%
X205650000Y-78005000D03*
%TD*%
D11*
%TO.P,J4,1,Pin_1*%
%TO.N,+3.3V*%
X188950000Y-88500000D03*
D32*
%TO.P,J4,2,Pin_2*%
%TO.N,/I2C_SDA*%
X188950000Y-86500000D03*
%TO.P,J4,3,Pin_3*%
%TO.N,/I2C_SCL*%
X188950000Y-84500000D03*
%TO.P,J4,4,Pin_4*%
%TO.N,GND*%
X188950000Y-82500000D03*
%TD*%
D24*
%TO.P,C5,1*%
%TO.N,+3.3V*%
X225650000Y-68225000D03*
%TO.P,C5,2*%
%TO.N,GND*%
X225650000Y-66675000D03*
%TD*%
D12*
%TO.P,R14,1*%
%TO.N,/RTS*%
X197650000Y-67275000D03*
%TO.P,R14,2*%
%TO.N,Net-(Q5-B)*%
X197650000Y-65625000D03*
%TD*%
D35*
%TO.P,Q5,1,B*%
%TO.N,Net-(Q5-B)*%
X199650000Y-61450000D03*
%TO.P,Q5,2,E*%
%TO.N,/DTR*%
X199650000Y-63350000D03*
%TO.P,Q5,3,C*%
%TO.N,/ESP32_IO0*%
X201525000Y-62400000D03*
%TD*%
D10*
%TO.P,C6,1*%
%TO.N,Net-(J3-Pin_3)*%
X189500000Y-93000000D03*
%TO.P,C6,2*%
%TO.N,+3.3V*%
X189500000Y-94550000D03*
%TD*%
D11*
%TO.P,J2,1,Pin_1*%
%TO.N,/VTP4*%
X225150000Y-91950000D03*
%TD*%
D13*
%TO.P,R6,1*%
%TO.N,+3.3V*%
X207150000Y-74950000D03*
%TO.P,R6,2*%
%TO.N,/SG_STDBY*%
X208800000Y-74950000D03*
%TD*%
D36*
%TO.P,C2,1*%
%TO.N,/VTP4*%
X218925000Y-78450000D03*
%TO.P,C2,2*%
%TO.N,GND*%
X217375000Y-78450000D03*
%TD*%
D37*
%TO.N,GND*%
X197000000Y-92250000D03*
X209000000Y-64000000D03*
X209000000Y-67250000D03*
X221500000Y-94000000D03*
X210750000Y-64750000D03*
X214000000Y-81750000D03*
X195250000Y-68250000D03*
X221000000Y-91000000D03*
X214000000Y-66250000D03*
X198750000Y-81500000D03*
X226000000Y-89750000D03*
X214250000Y-93750000D03*
X201500000Y-73500000D03*
X210000000Y-59250000D03*
X194250000Y-88500000D03*
X212500000Y-64750000D03*
X203250000Y-60500000D03*
X208250000Y-59250000D03*
X202500000Y-77100000D03*
X223000000Y-86250000D03*
X208250000Y-63250000D03*
X205500000Y-59500000D03*
X207500000Y-59250000D03*
X208842822Y-77550000D03*
X194500000Y-96750000D03*
X184000000Y-63000000D03*
X190250000Y-74250000D03*
X212500000Y-66500000D03*
X215500000Y-59250000D03*
X224000000Y-79500000D03*
X209250000Y-59250000D03*
X214250000Y-96250000D03*
X195250000Y-92750000D03*
X205618507Y-60650000D03*
X192000000Y-66000000D03*
X188950000Y-80500000D03*
X215500000Y-65250000D03*
X210000000Y-81750000D03*
X214803388Y-78645734D03*
X210750000Y-66250000D03*
X193500000Y-74250000D03*
X187250000Y-74250000D03*
X226500000Y-66750000D03*
X208750000Y-65500000D03*
X214000000Y-67250000D03*
X220750000Y-96500000D03*
%TO.N,/RXD1*%
X209784456Y-73392228D03*
%TO.N,/TXD1*%
X203000000Y-72250000D03*
X209000000Y-71600000D03*
%TO.N,/INT_MAX*%
X207000000Y-66000000D03*
X195500000Y-82500000D03*
%TO.N,/SCLK_TFT*%
X207250000Y-73750000D03*
%TO.N,/BTN_CONTROL*%
X217824266Y-68024263D03*
%TO.N,/RES_TFT*%
X201500000Y-71100002D03*
%TO.N,/BLK_TFT*%
X202500000Y-84250000D03*
X200500000Y-72500000D03*
%TO.N,/MOSI_TFT*%
X205500000Y-74000000D03*
X205000000Y-89100000D03*
%TO.N,/DC_TFT*%
X217750000Y-73750000D03*
X209273527Y-68500000D03*
%TO.N,/I2C_SDA*%
X211000000Y-70000000D03*
X210000000Y-71000000D03*
X215000000Y-67000000D03*
%TO.N,+3.3V*%
X222150000Y-72450000D03*
X222150000Y-58450000D03*
X214500000Y-63060000D03*
X210000000Y-61960000D03*
X208150000Y-77950000D03*
X211150000Y-75450000D03*
X194000000Y-69750000D03*
X185750000Y-70000000D03*
X214500000Y-60000000D03*
X206150000Y-74950000D03*
X202650000Y-68450000D03*
X200250000Y-91500000D03*
X223650000Y-69450000D03*
X206150000Y-61450000D03*
X207500000Y-88500000D03*
X194000000Y-72750000D03*
%TO.N,/I2C_SCL*%
X207000000Y-70500000D03*
X212500000Y-71500000D03*
%TO.N,/SG_CHRG*%
X213750000Y-78000000D03*
X217500000Y-74950000D03*
X214650000Y-68950000D03*
%TO.N,/SG_STDBY*%
X214000000Y-69950000D03*
X209650000Y-77950000D03*
X209650000Y-74450000D03*
%TO.N,/STDBY*%
X210150000Y-83450000D03*
X214000000Y-82950000D03*
%TO.N,Net-(U1-RXD0)*%
X220050000Y-65450000D03*
X220150000Y-63950000D03*
%TO.N,/POWER_5V*%
X226000000Y-81450000D03*
X219150000Y-87450000D03*
%TO.N,/VTP4*%
X223150000Y-89950000D03*
X216790000Y-80660000D03*
%TO.N,/IRQ_ACC*%
X205500000Y-64500000D03*
%TO.N,/DTR*%
X208200000Y-79000000D03*
X199650000Y-65000000D03*
X221250000Y-71450000D03*
%TO.N,/RTS*%
X221650000Y-63950000D03*
X203150000Y-81450000D03*
X201650000Y-74950000D03*
%TO.N,/CS_SPI2*%
X206500000Y-68500000D03*
%TO.N,/CLK_SPI2*%
X209000000Y-73975000D03*
%TO.N,/MOSI_SPI2*%
X210500000Y-73750000D03*
X207000000Y-67000000D03*
%TO.N,/MISO_SPI2*%
X211998441Y-73986459D03*
X212000000Y-78000000D03*
X204000000Y-83500000D03*
X212000000Y-81000000D03*
%TD*%
D38*
%TO.N,Net-(J3-Pin_2)*%
X192000000Y-93000000D02*
X195000000Y-90000000D01*
X194500000Y-86500000D02*
X193000000Y-86500000D01*
X195000000Y-87000000D02*
X194500000Y-86500000D01*
X195000000Y-90000000D02*
X195000000Y-87000000D01*
D39*
%TO.N,GND*%
X217375000Y-78450000D02*
X215153052Y-80671948D01*
X212578052Y-79500000D02*
X212000000Y-79500000D01*
X209042822Y-77350000D02*
X210100000Y-77350000D01*
X213750000Y-80671948D02*
X212578052Y-79500000D01*
X210100000Y-77350000D02*
X210750000Y-78000000D01*
X214803388Y-78645734D02*
X214999122Y-78450000D01*
X215153052Y-80671948D02*
X213750000Y-80671948D01*
X225650000Y-80225000D02*
X225750000Y-80325000D01*
X208842822Y-77550000D02*
X209042822Y-77350000D01*
X214999122Y-78450000D02*
X217375000Y-78450000D01*
%TO.N,/RXD1*%
X209784456Y-73392228D02*
X209784456Y-72665544D01*
X209784456Y-72665544D02*
X209950000Y-72500000D01*
D38*
%TO.N,Net-(J3-Pin_3)*%
X189500000Y-93000000D02*
X189500000Y-92000000D01*
X191000000Y-86500000D02*
X193000000Y-84500000D01*
X189500000Y-92000000D02*
X191000000Y-90500000D01*
X191000000Y-90500000D02*
X191000000Y-86500000D01*
D39*
%TO.N,/TXD1*%
X210800000Y-72300000D02*
X210800000Y-72500000D01*
X209000000Y-71600000D02*
X210100000Y-71600000D01*
X210100000Y-71600000D02*
X210800000Y-72300000D01*
%TO.N,Net-(U3-BYPASS)*%
X223905000Y-77900000D02*
X224875000Y-77900000D01*
X224875000Y-77900000D02*
X225650000Y-78675000D01*
D38*
%TO.N,/INT_MAX*%
X206150000Y-66350000D02*
X204650000Y-66350000D01*
X207000000Y-66000000D02*
X206500000Y-66000000D01*
X206500000Y-66000000D02*
X206150000Y-66350000D01*
D39*
%TO.N,/SCLK_TFT*%
X207250000Y-73750000D02*
X208250000Y-72750000D01*
X208250000Y-72750000D02*
X208250000Y-72500000D01*
%TO.N,/BTN_CONTROL*%
X218624263Y-68024263D02*
X218650000Y-68050000D01*
X217824266Y-68024263D02*
X218624263Y-68024263D01*
%TO.N,/RES_TFT*%
X201500000Y-71100002D02*
X201649998Y-71100002D01*
X203850000Y-68900000D02*
X204650000Y-68900000D01*
X201649998Y-71100002D02*
X203850000Y-68900000D01*
%TO.N,/BLK_TFT*%
X200500000Y-72500000D02*
X200948531Y-72500000D01*
X202848531Y-70600000D02*
X204650000Y-70600000D01*
X200948531Y-72500000D02*
X202848531Y-70600000D01*
%TO.N,/MOSI_TFT*%
X205500000Y-74000000D02*
X205500000Y-72700000D01*
X205500000Y-72700000D02*
X205700000Y-72500000D01*
%TO.N,/DC_TFT*%
X209273527Y-68500000D02*
X208023527Y-69750000D01*
X208023527Y-69750000D02*
X204650000Y-69750000D01*
%TO.N,Net-(Q3-B)*%
X224587500Y-61900000D02*
X224975000Y-62287500D01*
X224975000Y-62287500D02*
X224975000Y-64450000D01*
%TO.N,Net-(Q5-B)*%
X197650000Y-65625000D02*
X197650000Y-61950000D01*
X197650000Y-61950000D02*
X198150000Y-61450000D01*
X198150000Y-61450000D02*
X199650000Y-61450000D01*
%TO.N,/I2C_SDA*%
X210000000Y-71000000D02*
X208000000Y-71000000D01*
X208000000Y-71000000D02*
X207400000Y-71600000D01*
D38*
X215000000Y-67000000D02*
X215000000Y-67500000D01*
D39*
X207400000Y-71600000D02*
X207400000Y-72500000D01*
D38*
X215000000Y-67500000D02*
X212500000Y-70000000D01*
X212500000Y-70000000D02*
X211000000Y-70000000D01*
D39*
%TO.N,+3.3V*%
X223905000Y-69705000D02*
X223650000Y-69450000D01*
X221975000Y-58625000D02*
X222150000Y-58450000D01*
X208150000Y-77950000D02*
X208095000Y-78005000D01*
X200165000Y-91500000D02*
X197415000Y-94250000D01*
X220650000Y-58625000D02*
X221975000Y-58625000D01*
D38*
X189500000Y-94550000D02*
X189500000Y-95000000D01*
D39*
X211650000Y-74950000D02*
X211150000Y-75450000D01*
X205950000Y-61250000D02*
X206150000Y-61450000D01*
X207150000Y-74950000D02*
X206150000Y-74950000D01*
X194000000Y-69750000D02*
X192750000Y-68500000D01*
X200700000Y-81815000D02*
X201674999Y-81815000D01*
X201674999Y-81815000D02*
X204150000Y-79339999D01*
X204595000Y-78005000D02*
X205650000Y-78005000D01*
X193500000Y-96050000D02*
X197950000Y-96050000D01*
X186250000Y-70700000D02*
X188250000Y-72700000D01*
X223905000Y-72450000D02*
X222150000Y-72450000D01*
X223650000Y-68950000D02*
X223650000Y-69450000D01*
X223905000Y-76000000D02*
X223905000Y-74950000D01*
X197415000Y-95515000D02*
X197950000Y-96050000D01*
D38*
X214500000Y-63060000D02*
X214500000Y-60000000D01*
D39*
X193450000Y-72700000D02*
X188250000Y-72700000D01*
X223905000Y-74950000D02*
X223905000Y-72450000D01*
X191500000Y-68750000D02*
X187000000Y-68750000D01*
X194000000Y-72750000D02*
X193500000Y-72750000D01*
D38*
X191000000Y-96000000D02*
X192000000Y-95000000D01*
D39*
X223905000Y-72450000D02*
X223905000Y-69705000D01*
X186250000Y-70500000D02*
X186250000Y-70700000D01*
X191750000Y-68500000D02*
X191500000Y-68750000D01*
D38*
X188500000Y-95500000D02*
X188500000Y-88950000D01*
D39*
X197415000Y-94250000D02*
X197415000Y-95515000D01*
X204150000Y-78450000D02*
X204595000Y-78005000D01*
X223955000Y-74900000D02*
X223905000Y-74950000D01*
X193500000Y-72750000D02*
X193450000Y-72700000D01*
X192750000Y-68500000D02*
X191750000Y-68500000D01*
X204650000Y-61250000D02*
X205950000Y-61250000D01*
X223140000Y-68225000D02*
X223140000Y-68440000D01*
X204150000Y-79339999D02*
X204150000Y-78450000D01*
D38*
X188500000Y-88950000D02*
X188950000Y-88500000D01*
D39*
X192000000Y-94550000D02*
X193500000Y-96050000D01*
X187000000Y-68750000D02*
X185750000Y-70000000D01*
X212325000Y-74950000D02*
X211650000Y-74950000D01*
X202650000Y-67275000D02*
X202650000Y-68450000D01*
X185750000Y-70000000D02*
X186250000Y-70500000D01*
D38*
X190500000Y-96000000D02*
X189000000Y-96000000D01*
X189500000Y-95000000D02*
X190500000Y-96000000D01*
X190500000Y-96000000D02*
X191000000Y-96000000D01*
X189000000Y-96000000D02*
X188500000Y-95500000D01*
D39*
X223140000Y-68440000D02*
X223650000Y-68950000D01*
D38*
X192000000Y-95000000D02*
X192000000Y-94550000D01*
D39*
X225650000Y-68225000D02*
X224875000Y-68225000D01*
X208095000Y-78005000D02*
X205650000Y-78005000D01*
X200250000Y-91500000D02*
X200165000Y-91500000D01*
D38*
X197915000Y-94750000D02*
X197415000Y-94250000D01*
D39*
X224875000Y-68225000D02*
X223650000Y-69450000D01*
X225650000Y-74900000D02*
X223955000Y-74900000D01*
D38*
%TO.N,/I2C_SCL*%
X211277818Y-71500000D02*
X210227818Y-70450000D01*
D39*
X206550000Y-70950000D02*
X207000000Y-70500000D01*
D38*
X209550000Y-70450000D02*
X209450000Y-70550000D01*
X209450000Y-70550000D02*
X207050000Y-70550000D01*
X207050000Y-70550000D02*
X207000000Y-70500000D01*
X212500000Y-71500000D02*
X211277818Y-71500000D01*
X210227818Y-70450000D02*
X209550000Y-70450000D01*
D39*
X206550000Y-72500000D02*
X206550000Y-70950000D01*
%TO.N,/SG_CHRG*%
X214650000Y-68950000D02*
X214700000Y-68900000D01*
X214700000Y-68900000D02*
X218650000Y-68900000D01*
X213750000Y-78000000D02*
X214100000Y-78350000D01*
X214000000Y-78000000D02*
X213750000Y-78000000D01*
X214100000Y-78350000D02*
X214100000Y-79575000D01*
X213975000Y-74950000D02*
X217500000Y-74950000D01*
%TO.N,/CHRG*%
X213650000Y-84085000D02*
X213285000Y-84085000D01*
X213285000Y-84085000D02*
X213150000Y-83950000D01*
X217675000Y-84085000D02*
X213650000Y-84085000D01*
X213150000Y-83950000D02*
X213150000Y-81450000D01*
X213650000Y-85625000D02*
X213650000Y-84085000D01*
%TO.N,/SG_STDBY*%
X214200000Y-69750000D02*
X218650000Y-69750000D01*
X214000000Y-69950000D02*
X214200000Y-69750000D01*
X209150000Y-74950000D02*
X209650000Y-74450000D01*
X208800000Y-74950000D02*
X209150000Y-74950000D01*
X209650000Y-79512500D02*
X209650000Y-77950000D01*
%TO.N,/STDBY*%
X214000000Y-82950000D02*
X214135000Y-82815000D01*
X210150000Y-82837500D02*
X208700000Y-81387500D01*
X210150000Y-83450000D02*
X210150000Y-82837500D01*
X214135000Y-82815000D02*
X217675000Y-82815000D01*
X211140000Y-85625000D02*
X211140000Y-84440000D01*
X211140000Y-84440000D02*
X210150000Y-83450000D01*
%TO.N,Net-(U1-RXD0)*%
X217617157Y-76417157D02*
X220150000Y-73884314D01*
X202193628Y-79275000D02*
X205051471Y-76417157D01*
X220150000Y-65550000D02*
X220050000Y-65450000D01*
X205051471Y-76417157D02*
X217617157Y-76417157D01*
X200700000Y-79275000D02*
X202193628Y-79275000D01*
X220150000Y-72950000D02*
X220150000Y-65550000D01*
X220150000Y-73884314D02*
X220150000Y-72950000D01*
X218800000Y-63950000D02*
X218650000Y-63800000D01*
X220150000Y-63950000D02*
X218800000Y-63950000D01*
%TO.N,/ESP32_EN*%
X220650000Y-60275000D02*
X220650000Y-60950000D01*
X220650000Y-60950000D02*
X219250000Y-59550000D01*
X219250000Y-59550000D02*
X218650000Y-59550000D01*
X221650000Y-61950000D02*
X220650000Y-60950000D01*
X221712500Y-61950000D02*
X221650000Y-61950000D01*
X222712500Y-60950000D02*
X221712500Y-61950000D01*
%TO.N,/ESP32_IO0*%
X202650000Y-62900000D02*
X202650000Y-65625000D01*
X201525000Y-62400000D02*
X203150000Y-62400000D01*
X203150000Y-62400000D02*
X204350000Y-62400000D01*
X203150000Y-62400000D02*
X202650000Y-62900000D01*
X204350000Y-62400000D02*
X204650000Y-62100000D01*
%TO.N,Net-(U1-TXD0)*%
X203650000Y-79274313D02*
X203650000Y-78384314D01*
X202379313Y-80545000D02*
X203650000Y-79274313D01*
X220650000Y-73950000D02*
X220650000Y-64950000D01*
X220350000Y-64650000D02*
X218650000Y-64650000D01*
X220650000Y-64950000D02*
X220350000Y-64650000D01*
X205084314Y-76950000D02*
X217650000Y-76950000D01*
X200700000Y-80545000D02*
X202379313Y-80545000D01*
X203650000Y-78384314D02*
X205084314Y-76950000D01*
X217650000Y-76950000D02*
X220650000Y-73950000D01*
%TO.N,/POWER_5V*%
X211140000Y-87940000D02*
X211140000Y-87275000D01*
X226000000Y-81450000D02*
X225905000Y-81545000D01*
X216475000Y-87275000D02*
X215650000Y-87275000D01*
X219150000Y-86830000D02*
X217675000Y-85355000D01*
X219150000Y-87450000D02*
X219150000Y-86830000D01*
X220050000Y-91770000D02*
X220050000Y-91195001D01*
X215650000Y-87275000D02*
X215325000Y-87275000D01*
X220050000Y-92344999D02*
X220050000Y-91770000D01*
X215325000Y-87275000D02*
X213650000Y-88950000D01*
X215250000Y-91770000D02*
X215250000Y-92344999D01*
X217150000Y-87950000D02*
X216475000Y-87275000D01*
X219749999Y-92645000D02*
X220050000Y-92344999D01*
X220050000Y-91195001D02*
X219650000Y-90795001D01*
X217675000Y-87925000D02*
X217675000Y-87450000D01*
X215650000Y-87275000D02*
X213650000Y-87275000D01*
X215550001Y-92645000D02*
X219749999Y-92645000D01*
X219650000Y-90795001D02*
X219650000Y-88950000D01*
X215250000Y-92344999D02*
X215550001Y-92645000D01*
X213650000Y-88950000D02*
X212150000Y-88950000D01*
X218650000Y-88950000D02*
X217650000Y-87950000D01*
X217675000Y-87450000D02*
X217675000Y-85355000D01*
X212150000Y-88950000D02*
X211140000Y-87940000D01*
X225905000Y-81545000D02*
X222625000Y-81545000D01*
X219650000Y-88950000D02*
X218650000Y-88950000D01*
X217650000Y-87950000D02*
X217675000Y-87925000D01*
X217650000Y-87950000D02*
X217150000Y-87950000D01*
X220650000Y-88450000D02*
X220150000Y-88450000D01*
X220150000Y-88450000D02*
X219150000Y-87450000D01*
%TO.N,Net-(U4-PROG)*%
X223609999Y-84085000D02*
X225150000Y-85625001D01*
X225150000Y-85625001D02*
X225150000Y-88125000D01*
X222625000Y-84085000D02*
X223609999Y-84085000D01*
%TO.N,/VTP4*%
X221100000Y-76000000D02*
X221395000Y-76000000D01*
X221375000Y-79450000D02*
X220530000Y-79450000D01*
X217675000Y-81545000D02*
X220150000Y-79070000D01*
X221700000Y-76000000D02*
X221395000Y-76000000D01*
X220150000Y-77900000D02*
X219650000Y-77900000D01*
X220530000Y-79450000D02*
X220150000Y-79070000D01*
X219650000Y-77450000D02*
X221100000Y-76000000D01*
X219650000Y-77900000D02*
X219475000Y-77900000D01*
X216790000Y-80660000D02*
X217675000Y-81545000D01*
X219475000Y-77900000D02*
X218925000Y-78450000D01*
X225150000Y-91950000D02*
X223150000Y-89950000D01*
X219650000Y-77900000D02*
X219650000Y-77450000D01*
X220150000Y-79070000D02*
X220150000Y-77900000D01*
X221395000Y-77900000D02*
X220150000Y-77900000D01*
D38*
%TO.N,/IRQ_ACC*%
X204800000Y-64500000D02*
X204650000Y-64650000D01*
X205500000Y-64500000D02*
X204800000Y-64500000D01*
D39*
%TO.N,/DTR*%
X206624999Y-81815000D02*
X205650000Y-81815000D01*
X199650000Y-63350000D02*
X199650000Y-65000000D01*
X221150000Y-71450000D02*
X221250000Y-71450000D01*
X223325000Y-64450000D02*
X221150000Y-66625000D01*
X208200000Y-79000000D02*
X208200000Y-80239999D01*
X221150000Y-66625000D02*
X221150000Y-71450000D01*
X208200000Y-80239999D02*
X206624999Y-81815000D01*
%TO.N,/RTS*%
X204055000Y-80545000D02*
X205650000Y-80545000D01*
X197650000Y-67275000D02*
X197650000Y-70950000D01*
X224587500Y-60000000D02*
X224587500Y-60453052D01*
X203150000Y-81450000D02*
X204055000Y-80545000D01*
X221650000Y-63390552D02*
X221650000Y-63950000D01*
X224587500Y-60453052D02*
X221650000Y-63390552D01*
X197650000Y-70950000D02*
X201650000Y-74950000D01*
%TO.N,Net-(P1-D-)*%
X198182843Y-89917157D02*
X198182843Y-84982843D01*
X198745000Y-84355000D02*
X200700000Y-84355000D01*
X217900000Y-91770000D02*
X217900000Y-90634314D01*
X198150000Y-84950000D02*
X198745000Y-84355000D01*
X198182843Y-84982843D02*
X198150000Y-84950000D01*
X198215686Y-89950000D02*
X198182843Y-89917157D01*
X217900000Y-90634314D02*
X217215686Y-89950000D01*
X217215686Y-89950000D02*
X198215686Y-89950000D01*
%TO.N,Net-(P1-D+)*%
X198015000Y-83085000D02*
X200700000Y-83085000D01*
X217150000Y-90450000D02*
X198150000Y-90450000D01*
X217400000Y-91770000D02*
X217400000Y-90700000D01*
X197650000Y-89950000D02*
X197650000Y-83450000D01*
X197650000Y-83450000D02*
X198015000Y-83085000D01*
X198150000Y-90450000D02*
X197650000Y-89950000D01*
X217400000Y-90700000D02*
X217150000Y-90450000D01*
%TO.N,/CS_SPI2*%
X205500000Y-68500000D02*
X205050000Y-68050000D01*
X206500000Y-68500000D02*
X205500000Y-68500000D01*
X205050000Y-68050000D02*
X204650000Y-68050000D01*
%TO.N,/CLK_SPI2*%
X209000000Y-73975000D02*
X209000000Y-72600000D01*
X209000000Y-72600000D02*
X209100000Y-72500000D01*
%TO.N,/MOSI_SPI2*%
X206300000Y-67200000D02*
X204650000Y-67200000D01*
X206500000Y-67000000D02*
X206300000Y-67200000D01*
X207000000Y-67000000D02*
X206500000Y-67000000D01*
%TO.N,/MISO_SPI2*%
X211998441Y-73986459D02*
X211998441Y-72848441D01*
X211998441Y-72848441D02*
X211650000Y-72500000D01*
%TD*%
%TA.AperFunction,Conductor*%
%TO.N,GND*%
G36*
X188893039Y-57520185D02*
G01*
X188938794Y-57572989D01*
X188950000Y-57624500D01*
X188950000Y-57700000D01*
X219809980Y-57700000D01*
X219877019Y-57719685D01*
X219922774Y-57772489D01*
X219932718Y-57841647D01*
X219903693Y-57905203D01*
X219897661Y-57911681D01*
X219819531Y-57989810D01*
X219819530Y-57989811D01*
X219731522Y-58135393D01*
X219680913Y-58297807D01*
X219674500Y-58368386D01*
X219674500Y-58884426D01*
X219673736Y-58884426D01*
X219657866Y-58949217D01*
X219607192Y-58997321D01*
X219538556Y-59010392D01*
X219488614Y-58994366D01*
X219485302Y-58992454D01*
X219481785Y-58990423D01*
X219481784Y-58990422D01*
X219481783Y-58990422D01*
X219481782Y-58990421D01*
X219385016Y-58964492D01*
X219342800Y-58943985D01*
X219292331Y-58906204D01*
X219292328Y-58906202D01*
X219157482Y-58855908D01*
X219157483Y-58855908D01*
X219097883Y-58849501D01*
X219097881Y-58849500D01*
X219097873Y-58849500D01*
X219097864Y-58849500D01*
X218202129Y-58849500D01*
X218202123Y-58849501D01*
X218142516Y-58855908D01*
X218007671Y-58906202D01*
X218007664Y-58906206D01*
X217892455Y-58992452D01*
X217892452Y-58992455D01*
X217806206Y-59107664D01*
X217806202Y-59107671D01*
X217755910Y-59242513D01*
X217755909Y-59242517D01*
X217749500Y-59302127D01*
X217749500Y-59302134D01*
X217749500Y-59302135D01*
X217749500Y-59797870D01*
X217749501Y-59797876D01*
X217755908Y-59857483D01*
X217783577Y-59931667D01*
X217788561Y-60001358D01*
X217783577Y-60018331D01*
X217755910Y-60092511D01*
X217755909Y-60092515D01*
X217755909Y-60092517D01*
X217749500Y-60152127D01*
X217749500Y-60152134D01*
X217749500Y-60152135D01*
X217749500Y-60647870D01*
X217749501Y-60647876D01*
X217755908Y-60707483D01*
X217806202Y-60842328D01*
X217806206Y-60842335D01*
X217892452Y-60957544D01*
X217892455Y-60957547D01*
X218007664Y-61043793D01*
X218007671Y-61043797D01*
X218142517Y-61094091D01*
X218142516Y-61094091D01*
X218149444Y-61094835D01*
X218202127Y-61100500D01*
X219097872Y-61100499D01*
X219157483Y-61094091D01*
X219292331Y-61043796D01*
X219407546Y-60957546D01*
X219493360Y-60842912D01*
X219549294Y-60801042D01*
X219618986Y-60796058D01*
X219680308Y-60829543D01*
X220165139Y-61314374D01*
X220165149Y-61314385D01*
X220169479Y-61318715D01*
X220169480Y-61318716D01*
X220281284Y-61430520D01*
X220281285Y-61430520D01*
X220288352Y-61437587D01*
X220288351Y-61437587D01*
X220288354Y-61437589D01*
X221281284Y-62430520D01*
X221281286Y-62430521D01*
X221281290Y-62430524D01*
X221414911Y-62507669D01*
X221418216Y-62509577D01*
X221418596Y-62509678D01*
X221418879Y-62509851D01*
X221425723Y-62512686D01*
X221425280Y-62513753D01*
X221478255Y-62546044D01*
X221508784Y-62608891D01*
X221500489Y-62678266D01*
X221474182Y-62717134D01*
X221169481Y-63021834D01*
X221169479Y-63021836D01*
X221160830Y-63036818D01*
X221142781Y-63068081D01*
X221090423Y-63158767D01*
X221049499Y-63311495D01*
X221049499Y-63311497D01*
X221049499Y-63367589D01*
X221029814Y-63434628D01*
X221022445Y-63444903D01*
X221020184Y-63447737D01*
X221004994Y-63471913D01*
X220952659Y-63518204D01*
X220883605Y-63528852D01*
X220819757Y-63500477D01*
X220795006Y-63471913D01*
X220779815Y-63447737D01*
X220652262Y-63320184D01*
X220499523Y-63224211D01*
X220329254Y-63164631D01*
X220329249Y-63164630D01*
X220150004Y-63144435D01*
X220149996Y-63144435D01*
X219970750Y-63164630D01*
X219970745Y-63164631D01*
X219800474Y-63224212D01*
X219740470Y-63261915D01*
X219673233Y-63280915D01*
X219606398Y-63260547D01*
X219561185Y-63207279D01*
X219550499Y-63156925D01*
X219550499Y-62702128D01*
X219544091Y-62642517D01*
X219535994Y-62620809D01*
X219493797Y-62507671D01*
X219493793Y-62507664D01*
X219407547Y-62392455D01*
X219407544Y-62392452D01*
X219292335Y-62306206D01*
X219292328Y-62306202D01*
X219157482Y-62255908D01*
X219157483Y-62255908D01*
X219097883Y-62249501D01*
X219097881Y-62249500D01*
X219097873Y-62249500D01*
X219097864Y-62249500D01*
X218202129Y-62249500D01*
X218202123Y-62249501D01*
X218142516Y-62255908D01*
X218007671Y-62306202D01*
X218007664Y-62306206D01*
X217892455Y-62392452D01*
X217892452Y-62392455D01*
X217806206Y-62507664D01*
X217806202Y-62507671D01*
X217755910Y-62642513D01*
X217755909Y-62642517D01*
X217749500Y-62702127D01*
X217749500Y-62702134D01*
X217749500Y-62702135D01*
X217749500Y-63197870D01*
X217749501Y-63197876D01*
X217755908Y-63257483D01*
X217783577Y-63331667D01*
X217788561Y-63401358D01*
X217783577Y-63418331D01*
X217755910Y-63492511D01*
X217755909Y-63492515D01*
X217755909Y-63492517D01*
X217749500Y-63552127D01*
X217749500Y-63552134D01*
X217749500Y-63552135D01*
X217749500Y-64047870D01*
X217749501Y-64047876D01*
X217755908Y-64107483D01*
X217783577Y-64181667D01*
X217788561Y-64251358D01*
X217783577Y-64268331D01*
X217755910Y-64342511D01*
X217755909Y-64342515D01*
X217755909Y-64342517D01*
X217749500Y-64402127D01*
X217749500Y-64402134D01*
X217749500Y-64402135D01*
X217749500Y-64897870D01*
X217749501Y-64897876D01*
X217755908Y-64957483D01*
X217783577Y-65031667D01*
X217788561Y-65101358D01*
X217783577Y-65118331D01*
X217755910Y-65192511D01*
X217755909Y-65192515D01*
X217755909Y-65192517D01*
X217749500Y-65252127D01*
X217749500Y-65252134D01*
X217749500Y-65252135D01*
X217749500Y-65747870D01*
X217749501Y-65747876D01*
X217755908Y-65807483D01*
X217783577Y-65881667D01*
X217788561Y-65951358D01*
X217783577Y-65968331D01*
X217755910Y-66042511D01*
X217755909Y-66042515D01*
X217755909Y-66042517D01*
X217749500Y-66102127D01*
X217749500Y-66102134D01*
X217749500Y-66102135D01*
X217749500Y-66597870D01*
X217749501Y-66597876D01*
X217755908Y-66657483D01*
X217783577Y-66731667D01*
X217788561Y-66801358D01*
X217783577Y-66818331D01*
X217755909Y-66892514D01*
X217755908Y-66892516D01*
X217749501Y-66952116D01*
X217749500Y-66952135D01*
X217749500Y-67116309D01*
X217729815Y-67183348D01*
X217677011Y-67229103D01*
X217651529Y-67236166D01*
X217651799Y-67237346D01*
X217645013Y-67238894D01*
X217474744Y-67298473D01*
X217322003Y-67394447D01*
X217194450Y-67522000D01*
X217098477Y-67674739D01*
X217038897Y-67845008D01*
X217038896Y-67845013D01*
X217018701Y-68024259D01*
X217018701Y-68024266D01*
X217034176Y-68161617D01*
X217022121Y-68230439D01*
X216974772Y-68281818D01*
X216910956Y-68299500D01*
X215278386Y-68299500D01*
X215211347Y-68279815D01*
X215165592Y-68227011D01*
X215155648Y-68157853D01*
X215184673Y-68094297D01*
X215190705Y-68087819D01*
X215235617Y-68042907D01*
X215440510Y-67838015D01*
X215512984Y-67712485D01*
X215538570Y-67616998D01*
X215570661Y-67561416D01*
X215629816Y-67502262D01*
X215725789Y-67349522D01*
X215785368Y-67179255D01*
X215785369Y-67179249D01*
X215805565Y-67000003D01*
X215805565Y-66999996D01*
X215785369Y-66820750D01*
X215785368Y-66820745D01*
X215725788Y-66650476D01*
X215654914Y-66537681D01*
X215629816Y-66497738D01*
X215502262Y-66370184D01*
X215469379Y-66349522D01*
X215349523Y-66274211D01*
X215179254Y-66214631D01*
X215179249Y-66214630D01*
X215000004Y-66194435D01*
X214999996Y-66194435D01*
X214820750Y-66214630D01*
X214820745Y-66214631D01*
X214650476Y-66274211D01*
X214497737Y-66370184D01*
X214370184Y-66497737D01*
X214274211Y-66650476D01*
X214214631Y-66820745D01*
X214214630Y-66820750D01*
X214194435Y-66999996D01*
X214194435Y-67000003D01*
X214214630Y-67179249D01*
X214214631Y-67179254D01*
X214273813Y-67348385D01*
X214277374Y-67418164D01*
X214244452Y-67477021D01*
X212308294Y-69413181D01*
X212246971Y-69446666D01*
X212220613Y-69449500D01*
X211632940Y-69449500D01*
X211565901Y-69429815D01*
X211545259Y-69413181D01*
X211502262Y-69370184D01*
X211349523Y-69274211D01*
X211179254Y-69214631D01*
X211179249Y-69214630D01*
X211000004Y-69194435D01*
X210999996Y-69194435D01*
X210820750Y-69214630D01*
X210820745Y-69214631D01*
X210650476Y-69274211D01*
X210497737Y-69370184D01*
X210370184Y-69497737D01*
X210274211Y-69650477D01*
X210216133Y-69816455D01*
X210175411Y-69873231D01*
X210110458Y-69898978D01*
X210099091Y-69899500D01*
X209477525Y-69899500D01*
X209338380Y-69936784D01*
X209338376Y-69936785D01*
X209337515Y-69937015D01*
X209258061Y-69982888D01*
X209196062Y-69999500D01*
X208922624Y-69999500D01*
X208855585Y-69979815D01*
X208809830Y-69927011D01*
X208799886Y-69857853D01*
X208828911Y-69794297D01*
X208834943Y-69787819D01*
X208937680Y-69685080D01*
X209292062Y-69330698D01*
X209353383Y-69297215D01*
X209365838Y-69295163D01*
X209452782Y-69285368D01*
X209623049Y-69225789D01*
X209775789Y-69129816D01*
X209903343Y-69002262D01*
X209999316Y-68849522D01*
X210058895Y-68679255D01*
X210064529Y-68629254D01*
X210079092Y-68500003D01*
X210079092Y-68499996D01*
X210058896Y-68320750D01*
X210058895Y-68320745D01*
X210040957Y-68269480D01*
X209999316Y-68150478D01*
X209998701Y-68149500D01*
X209945295Y-68064504D01*
X209903343Y-67997738D01*
X209775789Y-67870184D01*
X209623050Y-67774211D01*
X209452781Y-67714631D01*
X209452776Y-67714630D01*
X209273531Y-67694435D01*
X209273523Y-67694435D01*
X209094277Y-67714630D01*
X209094272Y-67714631D01*
X208924003Y-67774211D01*
X208771264Y-67870184D01*
X208643711Y-67997737D01*
X208547737Y-68150478D01*
X208488157Y-68320750D01*
X208478364Y-68407668D01*
X208451297Y-68472082D01*
X208442825Y-68481465D01*
X207811111Y-69113181D01*
X207749788Y-69146666D01*
X207723430Y-69149500D01*
X207261661Y-69149500D01*
X207194622Y-69129815D01*
X207148867Y-69077011D01*
X207138923Y-69007853D01*
X207156668Y-68959527D01*
X207225788Y-68849524D01*
X207243284Y-68799523D01*
X207285368Y-68679255D01*
X207291002Y-68629254D01*
X207305565Y-68500003D01*
X207305565Y-68499996D01*
X207285369Y-68320750D01*
X207285368Y-68320745D01*
X207267430Y-68269480D01*
X207225789Y-68150478D01*
X207225174Y-68149500D01*
X207171768Y-68064504D01*
X207129816Y-67997738D01*
X207124745Y-67992667D01*
X207091260Y-67931344D01*
X207096244Y-67861652D01*
X207138116Y-67805719D01*
X207173301Y-67789439D01*
X207172682Y-67787668D01*
X207179255Y-67785368D01*
X207349522Y-67725789D01*
X207502262Y-67629816D01*
X207629816Y-67502262D01*
X207725789Y-67349522D01*
X207785368Y-67179255D01*
X207785369Y-67179249D01*
X207805565Y-67000003D01*
X207805565Y-66999996D01*
X207785369Y-66820750D01*
X207785368Y-66820745D01*
X207725788Y-66650475D01*
X207672691Y-66565973D01*
X207653690Y-66498736D01*
X207672691Y-66434027D01*
X207725788Y-66349524D01*
X207757049Y-66260185D01*
X207785368Y-66179255D01*
X207788819Y-66148630D01*
X207805565Y-66000003D01*
X207805565Y-65999996D01*
X207785369Y-65820750D01*
X207785368Y-65820745D01*
X207752141Y-65725788D01*
X207725789Y-65650478D01*
X207629816Y-65497738D01*
X207502262Y-65370184D01*
X207460032Y-65343649D01*
X207349523Y-65274211D01*
X207179254Y-65214631D01*
X207179249Y-65214630D01*
X207000004Y-65194435D01*
X206999996Y-65194435D01*
X206820750Y-65214630D01*
X206820745Y-65214631D01*
X206650476Y-65274211D01*
X206497736Y-65370184D01*
X206438581Y-65429339D01*
X206382998Y-65461430D01*
X206347503Y-65470942D01*
X206347502Y-65470942D01*
X206347500Y-65470943D01*
X206287515Y-65487016D01*
X206287513Y-65487016D01*
X206287513Y-65487017D01*
X206161986Y-65559489D01*
X206161983Y-65559491D01*
X205958294Y-65763181D01*
X205896971Y-65796666D01*
X205870613Y-65799500D01*
X205674500Y-65799500D01*
X205607461Y-65779815D01*
X205561706Y-65727011D01*
X205550500Y-65675500D01*
X205550499Y-65410688D01*
X205570183Y-65343649D01*
X205622987Y-65297894D01*
X205660614Y-65287468D01*
X205679255Y-65285368D01*
X205849522Y-65225789D01*
X206002262Y-65129816D01*
X206129816Y-65002262D01*
X206225789Y-64849522D01*
X206285368Y-64679255D01*
X206285759Y-64675789D01*
X206305565Y-64500003D01*
X206305565Y-64499996D01*
X206285369Y-64320750D01*
X206285368Y-64320745D01*
X206277942Y-64299522D01*
X206225789Y-64150478D01*
X206223979Y-64147598D01*
X206161276Y-64047807D01*
X206129816Y-63997738D01*
X206002262Y-63870184D01*
X205983096Y-63858141D01*
X205849521Y-63774210D01*
X205679249Y-63714630D01*
X205660615Y-63712531D01*
X205596201Y-63685464D01*
X205556646Y-63627869D01*
X205550499Y-63589311D01*
X205550499Y-63552129D01*
X205550498Y-63552123D01*
X205544091Y-63492518D01*
X205544091Y-63492517D01*
X205516421Y-63418332D01*
X205511438Y-63348642D01*
X205516422Y-63331667D01*
X205544091Y-63257483D01*
X205550500Y-63197873D01*
X205550499Y-62702128D01*
X205544091Y-62642517D01*
X205516421Y-62568332D01*
X205511438Y-62498642D01*
X205516420Y-62481672D01*
X205544091Y-62407483D01*
X205550500Y-62347873D01*
X205550499Y-62243076D01*
X205570183Y-62176040D01*
X205622986Y-62130284D01*
X205692145Y-62120340D01*
X205740470Y-62138083D01*
X205800478Y-62175789D01*
X205970745Y-62235368D01*
X205970750Y-62235369D01*
X206149996Y-62255565D01*
X206150000Y-62255565D01*
X206150004Y-62255565D01*
X206329249Y-62235369D01*
X206329252Y-62235368D01*
X206329255Y-62235368D01*
X206499522Y-62175789D01*
X206652262Y-62079816D01*
X206772082Y-61959996D01*
X209194435Y-61959996D01*
X209194435Y-61960003D01*
X209214630Y-62139249D01*
X209214631Y-62139254D01*
X209274211Y-62309523D01*
X209326321Y-62392455D01*
X209370184Y-62462262D01*
X209497738Y-62589816D01*
X209581611Y-62642517D01*
X209644315Y-62681917D01*
X209650478Y-62685789D01*
X209740057Y-62717134D01*
X209820745Y-62745368D01*
X209820750Y-62745369D01*
X209999996Y-62765565D01*
X210000000Y-62765565D01*
X210000004Y-62765565D01*
X210179249Y-62745369D01*
X210179252Y-62745368D01*
X210179255Y-62745368D01*
X210349522Y-62685789D01*
X210502262Y-62589816D01*
X210629816Y-62462262D01*
X210725789Y-62309522D01*
X210785368Y-62139255D01*
X210786379Y-62130284D01*
X210805565Y-61960003D01*
X210805565Y-61959996D01*
X210785369Y-61780750D01*
X210785368Y-61780745D01*
X210751625Y-61684313D01*
X210725789Y-61610478D01*
X210707446Y-61581286D01*
X210655034Y-61497872D01*
X210629816Y-61457738D01*
X210502262Y-61330184D01*
X210477101Y-61314374D01*
X210349523Y-61234211D01*
X210179254Y-61174631D01*
X210179249Y-61174630D01*
X210000004Y-61154435D01*
X209999996Y-61154435D01*
X209820750Y-61174630D01*
X209820745Y-61174631D01*
X209650476Y-61234211D01*
X209497737Y-61330184D01*
X209370184Y-61457737D01*
X209274211Y-61610476D01*
X209214631Y-61780745D01*
X209214630Y-61780750D01*
X209194435Y-61959996D01*
X206772082Y-61959996D01*
X206779816Y-61952262D01*
X206875789Y-61799522D01*
X206935368Y-61629255D01*
X206940773Y-61581284D01*
X206955565Y-61450003D01*
X206955565Y-61449996D01*
X206935369Y-61270750D01*
X206935368Y-61270745D01*
X206909714Y-61197431D01*
X206875789Y-61100478D01*
X206875174Y-61099500D01*
X206793474Y-60969475D01*
X206779816Y-60947738D01*
X206652262Y-60820184D01*
X206632337Y-60807664D01*
X206499523Y-60724211D01*
X206329254Y-60664631D01*
X206329249Y-60664630D01*
X206150004Y-60644435D01*
X206149996Y-60644435D01*
X206074867Y-60652899D01*
X206037177Y-60650076D01*
X206037114Y-60650560D01*
X206029057Y-60649499D01*
X205870943Y-60649499D01*
X205863347Y-60649499D01*
X205863331Y-60649500D01*
X205391439Y-60649500D01*
X205324400Y-60629815D01*
X205317128Y-60624767D01*
X205292331Y-60606204D01*
X205292328Y-60606202D01*
X205157482Y-60555908D01*
X205157483Y-60555908D01*
X205097883Y-60549501D01*
X205097881Y-60549500D01*
X205097873Y-60549500D01*
X205097864Y-60549500D01*
X204202129Y-60549500D01*
X204202123Y-60549501D01*
X204142516Y-60555908D01*
X204007671Y-60606202D01*
X204007664Y-60606206D01*
X203892455Y-60692452D01*
X203892452Y-60692455D01*
X203806206Y-60807664D01*
X203806202Y-60807671D01*
X203755910Y-60942513D01*
X203755909Y-60942517D01*
X203749500Y-61002127D01*
X203749500Y-61002134D01*
X203749500Y-61002135D01*
X203749500Y-61497870D01*
X203749501Y-61497876D01*
X203755908Y-61557483D01*
X203783577Y-61631668D01*
X203788561Y-61701360D01*
X203783614Y-61718233D01*
X203783428Y-61718733D01*
X203741605Y-61774703D01*
X203676162Y-61799176D01*
X203667209Y-61799500D01*
X203236670Y-61799500D01*
X203236654Y-61799499D01*
X203229058Y-61799499D01*
X203070943Y-61799499D01*
X203063347Y-61799499D01*
X203063331Y-61799500D01*
X202633308Y-61799500D01*
X202566269Y-61779815D01*
X202545626Y-61763180D01*
X202514370Y-61731923D01*
X202514362Y-61731917D01*
X202418120Y-61675000D01*
X202372898Y-61648256D01*
X202372897Y-61648255D01*
X202372896Y-61648255D01*
X202372893Y-61648254D01*
X202215073Y-61602402D01*
X202215067Y-61602401D01*
X202178201Y-61599500D01*
X202178194Y-61599500D01*
X201012000Y-61599500D01*
X200944961Y-61579815D01*
X200899206Y-61527011D01*
X200888000Y-61475500D01*
X200888000Y-61234313D01*
X200887999Y-61234298D01*
X200887992Y-61234211D01*
X200885098Y-61197431D01*
X200878474Y-61174632D01*
X200840462Y-61043796D01*
X200839244Y-61039602D01*
X200755581Y-60898135D01*
X200755579Y-60898133D01*
X200755576Y-60898129D01*
X200639370Y-60781923D01*
X200639362Y-60781917D01*
X200497896Y-60698255D01*
X200497893Y-60698254D01*
X200340073Y-60652402D01*
X200340067Y-60652401D01*
X200303201Y-60649500D01*
X200303194Y-60649500D01*
X198996806Y-60649500D01*
X198996798Y-60649500D01*
X198959932Y-60652401D01*
X198959926Y-60652402D01*
X198802106Y-60698254D01*
X198802103Y-60698255D01*
X198660637Y-60781917D01*
X198660629Y-60781923D01*
X198629374Y-60813180D01*
X198568052Y-60846666D01*
X198541692Y-60849500D01*
X198236670Y-60849500D01*
X198236654Y-60849499D01*
X198229058Y-60849499D01*
X198070943Y-60849499D01*
X197994579Y-60869961D01*
X197918214Y-60890423D01*
X197918209Y-60890426D01*
X197781290Y-60969475D01*
X197781282Y-60969481D01*
X197274217Y-61476546D01*
X197274214Y-61476548D01*
X197274215Y-61476549D01*
X197169478Y-61581286D01*
X197152626Y-61610476D01*
X197130814Y-61648256D01*
X197090423Y-61718215D01*
X197049499Y-61870943D01*
X197049499Y-61870945D01*
X197049499Y-62039046D01*
X197049500Y-62039059D01*
X197049500Y-64733284D01*
X197029815Y-64800323D01*
X196989652Y-64839400D01*
X196939811Y-64869530D01*
X196819530Y-64989811D01*
X196731522Y-65135393D01*
X196680913Y-65297807D01*
X196674500Y-65368386D01*
X196674500Y-65881613D01*
X196680913Y-65952192D01*
X196731522Y-66114606D01*
X196819530Y-66260188D01*
X196921661Y-66362319D01*
X196955146Y-66423642D01*
X196950162Y-66493334D01*
X196921661Y-66537681D01*
X196819531Y-66639810D01*
X196819530Y-66639811D01*
X196731522Y-66785393D01*
X196680913Y-66947807D01*
X196674500Y-67018386D01*
X196674500Y-67531613D01*
X196680913Y-67602192D01*
X196680913Y-67602194D01*
X196680914Y-67602196D01*
X196731522Y-67764606D01*
X196795346Y-67870184D01*
X196819530Y-67910188D01*
X196939811Y-68030469D01*
X196939813Y-68030470D01*
X196939815Y-68030472D01*
X196989650Y-68060598D01*
X197036838Y-68112126D01*
X197049500Y-68166715D01*
X197049500Y-70863330D01*
X197049499Y-70863348D01*
X197049499Y-71029054D01*
X197049498Y-71029054D01*
X197079900Y-71142514D01*
X197090423Y-71181785D01*
X197111457Y-71218216D01*
X197141784Y-71270745D01*
X197169479Y-71318715D01*
X197288349Y-71437585D01*
X197288355Y-71437590D01*
X200819298Y-74968533D01*
X200852783Y-75029856D01*
X200854837Y-75042330D01*
X200864630Y-75129249D01*
X200924210Y-75299521D01*
X200957308Y-75352196D01*
X201020184Y-75452262D01*
X201147738Y-75579816D01*
X201300478Y-75675789D01*
X201461451Y-75732116D01*
X201470745Y-75735368D01*
X201470750Y-75735369D01*
X201649996Y-75755565D01*
X201650000Y-75755565D01*
X201650004Y-75755565D01*
X201829249Y-75735369D01*
X201829252Y-75735368D01*
X201829255Y-75735368D01*
X201999522Y-75675789D01*
X202152262Y-75579816D01*
X202279816Y-75452262D01*
X202375789Y-75299522D01*
X202435368Y-75129255D01*
X202435718Y-75126149D01*
X202455565Y-74950003D01*
X202455565Y-74949996D01*
X202435369Y-74770750D01*
X202435368Y-74770745D01*
X202431685Y-74760221D01*
X202375789Y-74600478D01*
X202279816Y-74447738D01*
X202152262Y-74320184D01*
X202117186Y-74298144D01*
X201999521Y-74224210D01*
X201829249Y-74164630D01*
X201742330Y-74154837D01*
X201677916Y-74127770D01*
X201668533Y-74119298D01*
X200913720Y-73364485D01*
X200880235Y-73303162D01*
X200885219Y-73233470D01*
X200927091Y-73177537D01*
X200935429Y-73171810D01*
X201002257Y-73129819D01*
X201002256Y-73129819D01*
X201002262Y-73129816D01*
X201009543Y-73122534D01*
X201065129Y-73090440D01*
X201180316Y-73059577D01*
X201266918Y-73009577D01*
X201270537Y-73007488D01*
X201317240Y-72980524D01*
X201317239Y-72980524D01*
X201317247Y-72980520D01*
X201429051Y-72868716D01*
X201429051Y-72868714D01*
X201439255Y-72858511D01*
X201439259Y-72858506D01*
X201997512Y-72300252D01*
X202058833Y-72266769D01*
X202128525Y-72271753D01*
X202184458Y-72313625D01*
X202208411Y-72374051D01*
X202214630Y-72429250D01*
X202214631Y-72429254D01*
X202274211Y-72599523D01*
X202368760Y-72749996D01*
X202370184Y-72752262D01*
X202497738Y-72879816D01*
X202576410Y-72929249D01*
X202646586Y-72973344D01*
X202650478Y-72975789D01*
X202820745Y-73035368D01*
X202820750Y-73035369D01*
X202999996Y-73055565D01*
X203000000Y-73055565D01*
X203000004Y-73055565D01*
X203179249Y-73035369D01*
X203179252Y-73035368D01*
X203179255Y-73035368D01*
X203349522Y-72975789D01*
X203502262Y-72879816D01*
X203629816Y-72752262D01*
X203725789Y-72599522D01*
X203785368Y-72429255D01*
X203785369Y-72429249D01*
X203805565Y-72250003D01*
X203805565Y-72249997D01*
X203799846Y-72199242D01*
X203811900Y-72130420D01*
X203859249Y-72079041D01*
X203926859Y-72061416D01*
X203993265Y-72083142D01*
X203997373Y-72086088D01*
X204006318Y-72092785D01*
X204007668Y-72093795D01*
X204007671Y-72093797D01*
X204142517Y-72144091D01*
X204142516Y-72144091D01*
X204149444Y-72144835D01*
X204202127Y-72150500D01*
X204875500Y-72150499D01*
X204942539Y-72170183D01*
X204988294Y-72222987D01*
X204999500Y-72274499D01*
X204999500Y-72332664D01*
X204982893Y-72394654D01*
X204979531Y-72400478D01*
X204940423Y-72468215D01*
X204899499Y-72620943D01*
X204899499Y-72620945D01*
X204899499Y-72789046D01*
X204899500Y-72789059D01*
X204899500Y-73417587D01*
X204879815Y-73484626D01*
X204872450Y-73494896D01*
X204870186Y-73497734D01*
X204774211Y-73650476D01*
X204714631Y-73820745D01*
X204714630Y-73820750D01*
X204694435Y-73999996D01*
X204694435Y-74000003D01*
X204714630Y-74179249D01*
X204714631Y-74179254D01*
X204774211Y-74349523D01*
X204835924Y-74447738D01*
X204870184Y-74502262D01*
X204997738Y-74629816D01*
X205077620Y-74680009D01*
X205150478Y-74725789D01*
X205268044Y-74766927D01*
X205324820Y-74807649D01*
X205350568Y-74872601D01*
X205350310Y-74897852D01*
X205344435Y-74949996D01*
X205344435Y-74950003D01*
X205364630Y-75129249D01*
X205364631Y-75129254D01*
X205424211Y-75299523D01*
X205457308Y-75352196D01*
X205520184Y-75452262D01*
X205647738Y-75579816D01*
X205660227Y-75587663D01*
X205706518Y-75639997D01*
X205717167Y-75709051D01*
X205688792Y-75772899D01*
X205630402Y-75811272D01*
X205594255Y-75816657D01*
X204972411Y-75816657D01*
X204931490Y-75827621D01*
X204931490Y-75827622D01*
X204894222Y-75837608D01*
X204819685Y-75857580D01*
X204819680Y-75857583D01*
X204682761Y-75936632D01*
X204682753Y-75936638D01*
X204570949Y-76048443D01*
X202048671Y-78570720D01*
X201987348Y-78604205D01*
X201917656Y-78599221D01*
X201897869Y-78589771D01*
X201890879Y-78585637D01*
X201785398Y-78523256D01*
X201785397Y-78523255D01*
X201785396Y-78523255D01*
X201785393Y-78523254D01*
X201627573Y-78477402D01*
X201627567Y-78477401D01*
X201590701Y-78474500D01*
X201590694Y-78474500D01*
X199809306Y-78474500D01*
X199809298Y-78474500D01*
X199772432Y-78477401D01*
X199772426Y-78477402D01*
X199614606Y-78523254D01*
X199614603Y-78523255D01*
X199473137Y-78606917D01*
X199473129Y-78606923D01*
X199356923Y-78723129D01*
X199356917Y-78723137D01*
X199273255Y-78864603D01*
X199273254Y-78864606D01*
X199227402Y-79022426D01*
X199227401Y-79022432D01*
X199224500Y-79059298D01*
X199224500Y-79490701D01*
X199227401Y-79527567D01*
X199227402Y-79527573D01*
X199273254Y-79685393D01*
X199273255Y-79685396D01*
X199356917Y-79826862D01*
X199361702Y-79833031D01*
X199359256Y-79834927D01*
X199385857Y-79883642D01*
X199380873Y-79953334D01*
X199360069Y-79985703D01*
X199361702Y-79986969D01*
X199356917Y-79993137D01*
X199273255Y-80134603D01*
X199273254Y-80134606D01*
X199227402Y-80292426D01*
X199227401Y-80292432D01*
X199224500Y-80329298D01*
X199224500Y-80760701D01*
X199227401Y-80797567D01*
X199227402Y-80797573D01*
X199273254Y-80955393D01*
X199273255Y-80955396D01*
X199356917Y-81096862D01*
X199361702Y-81103031D01*
X199359256Y-81104927D01*
X199385857Y-81153642D01*
X199380873Y-81223334D01*
X199360069Y-81255703D01*
X199361702Y-81256969D01*
X199356917Y-81263137D01*
X199273255Y-81404603D01*
X199273254Y-81404606D01*
X199227402Y-81562426D01*
X199227401Y-81562432D01*
X199224500Y-81599298D01*
X199224500Y-82030701D01*
X199227401Y-82067567D01*
X199227402Y-82067573D01*
X199273254Y-82225393D01*
X199273257Y-82225400D01*
X199315825Y-82297380D01*
X199333008Y-82365104D01*
X199310848Y-82431366D01*
X199256381Y-82475129D01*
X199209093Y-82484500D01*
X198101669Y-82484500D01*
X198101653Y-82484499D01*
X198094057Y-82484499D01*
X197935943Y-82484499D01*
X197821397Y-82515192D01*
X197783214Y-82525423D01*
X197769860Y-82533134D01*
X197769857Y-82533135D01*
X197646290Y-82604475D01*
X197646282Y-82604481D01*
X197169482Y-83081281D01*
X197169478Y-83081287D01*
X197121691Y-83164057D01*
X197090424Y-83218212D01*
X197090423Y-83218213D01*
X197076348Y-83270743D01*
X197049499Y-83370943D01*
X197049499Y-83370945D01*
X197049499Y-83539046D01*
X197049500Y-83539059D01*
X197049500Y-89863330D01*
X197049499Y-89863348D01*
X197049499Y-90029054D01*
X197049498Y-90029054D01*
X197090423Y-90181785D01*
X197119358Y-90231900D01*
X197119359Y-90231904D01*
X197119360Y-90231904D01*
X197169480Y-90318716D01*
X197281284Y-90430520D01*
X197281285Y-90430521D01*
X197781284Y-90930520D01*
X197781286Y-90930521D01*
X197781290Y-90930524D01*
X197803137Y-90943137D01*
X197918216Y-91009577D01*
X198070943Y-91050501D01*
X198070945Y-91050501D01*
X198236654Y-91050501D01*
X198236670Y-91050500D01*
X199384433Y-91050500D01*
X199451472Y-91070185D01*
X199497227Y-91122989D01*
X199507171Y-91192147D01*
X199501475Y-91215454D01*
X199464630Y-91320751D01*
X199463592Y-91325299D01*
X199430384Y-91385379D01*
X197898530Y-92917233D01*
X197837207Y-92950718D01*
X197778756Y-92949327D01*
X197650413Y-92914938D01*
X197650403Y-92914936D01*
X197415001Y-92894341D01*
X197414999Y-92894341D01*
X197179596Y-92914936D01*
X197179586Y-92914938D01*
X196951344Y-92976094D01*
X196951335Y-92976098D01*
X196737171Y-93075964D01*
X196737169Y-93075965D01*
X196543597Y-93211505D01*
X196376505Y-93378597D01*
X196240965Y-93572169D01*
X196240964Y-93572171D01*
X196141098Y-93786335D01*
X196141094Y-93786344D01*
X196079938Y-94014586D01*
X196079936Y-94014596D01*
X196059341Y-94249999D01*
X196059341Y-94250000D01*
X196079936Y-94485403D01*
X196079938Y-94485413D01*
X196141094Y-94713655D01*
X196141096Y-94713659D01*
X196141097Y-94713663D01*
X196240965Y-94927830D01*
X196240967Y-94927834D01*
X196325448Y-95048484D01*
X196376501Y-95121396D01*
X196376506Y-95121402D01*
X196492923Y-95237819D01*
X196526408Y-95299142D01*
X196521424Y-95368834D01*
X196479552Y-95424767D01*
X196414088Y-95449184D01*
X196405242Y-95449500D01*
X193800097Y-95449500D01*
X193733058Y-95429815D01*
X193712416Y-95413181D01*
X193011818Y-94712583D01*
X192978333Y-94651260D01*
X192975499Y-94624902D01*
X192975499Y-94276662D01*
X192975498Y-94276644D01*
X192965349Y-94177292D01*
X192965348Y-94177289D01*
X192912003Y-94016303D01*
X192911999Y-94016297D01*
X192911998Y-94016294D01*
X192822970Y-93871959D01*
X192822967Y-93871955D01*
X192813693Y-93862681D01*
X192780208Y-93801358D01*
X192785192Y-93731666D01*
X192813693Y-93687319D01*
X192822968Y-93678044D01*
X192912003Y-93533697D01*
X192965349Y-93372708D01*
X192975500Y-93273345D01*
X192975499Y-92854385D01*
X192995183Y-92787347D01*
X193011813Y-92766710D01*
X195440510Y-90338014D01*
X195512984Y-90212485D01*
X195535286Y-90129255D01*
X195541299Y-90106817D01*
X195550499Y-90072479D01*
X195550500Y-90072473D01*
X195550500Y-86927527D01*
X195550500Y-86927525D01*
X195512984Y-86787515D01*
X195512982Y-86787512D01*
X195512982Y-86787510D01*
X195511759Y-86785392D01*
X195511750Y-86785377D01*
X195440512Y-86661988D01*
X195440508Y-86661983D01*
X194838016Y-86059491D01*
X194838015Y-86059490D01*
X194712485Y-85987016D01*
X194712486Y-85987016D01*
X194582536Y-85952196D01*
X194572475Y-85949500D01*
X194572473Y-85949500D01*
X194115829Y-85949500D01*
X194048790Y-85929815D01*
X194007023Y-85883217D01*
X194006729Y-85883400D01*
X194005707Y-85881750D01*
X194004827Y-85880768D01*
X194003712Y-85878528D01*
X193872427Y-85704678D01*
X193748423Y-85591634D01*
X193712145Y-85531927D01*
X193713905Y-85462079D01*
X193748423Y-85408365D01*
X193872427Y-85295322D01*
X194003712Y-85121472D01*
X194100817Y-84926459D01*
X194160435Y-84716923D01*
X194180536Y-84500000D01*
X194160435Y-84283077D01*
X194100817Y-84073541D01*
X194003712Y-83878528D01*
X193872427Y-83704678D01*
X193748423Y-83591634D01*
X193712145Y-83531927D01*
X193713905Y-83462079D01*
X193748423Y-83408365D01*
X193872427Y-83295322D01*
X194003712Y-83121472D01*
X194100817Y-82926459D01*
X194160435Y-82716923D01*
X194180536Y-82500000D01*
X194180536Y-82499996D01*
X194694435Y-82499996D01*
X194694435Y-82500003D01*
X194714630Y-82679249D01*
X194714631Y-82679254D01*
X194774211Y-82849523D01*
X194835924Y-82947738D01*
X194870184Y-83002262D01*
X194997738Y-83129816D01*
X195150478Y-83225789D01*
X195262008Y-83264815D01*
X195320745Y-83285368D01*
X195320750Y-83285369D01*
X195499996Y-83305565D01*
X195500000Y-83305565D01*
X195500004Y-83305565D01*
X195679249Y-83285369D01*
X195679252Y-83285368D01*
X195679255Y-83285368D01*
X195849522Y-83225789D01*
X196002262Y-83129816D01*
X196129816Y-83002262D01*
X196225789Y-82849522D01*
X196285368Y-82679255D01*
X196285892Y-82674603D01*
X196305565Y-82500003D01*
X196305565Y-82499996D01*
X196285369Y-82320750D01*
X196285368Y-82320745D01*
X196268556Y-82272698D01*
X196225789Y-82150478D01*
X196219247Y-82140067D01*
X196173694Y-82067569D01*
X196129816Y-81997738D01*
X196002262Y-81870184D01*
X195913922Y-81814676D01*
X195849523Y-81774211D01*
X195679254Y-81714631D01*
X195679249Y-81714630D01*
X195500004Y-81694435D01*
X195499996Y-81694435D01*
X195320750Y-81714630D01*
X195320745Y-81714631D01*
X195150476Y-81774211D01*
X194997737Y-81870184D01*
X194870184Y-81997737D01*
X194774211Y-82150476D01*
X194714631Y-82320745D01*
X194714630Y-82320750D01*
X194694435Y-82499996D01*
X194180536Y-82499996D01*
X194160435Y-82283077D01*
X194100817Y-82073541D01*
X194003712Y-81878528D01*
X193872427Y-81704678D01*
X193840603Y-81675667D01*
X193711433Y-81557913D01*
X193711423Y-81557906D01*
X193526213Y-81443229D01*
X193526207Y-81443226D01*
X193426508Y-81404603D01*
X193323069Y-81364530D01*
X193108926Y-81324500D01*
X192891074Y-81324500D01*
X192676931Y-81364530D01*
X192649691Y-81375083D01*
X192473792Y-81443226D01*
X192473786Y-81443229D01*
X192288576Y-81557906D01*
X192288566Y-81557913D01*
X192127574Y-81704676D01*
X191996288Y-81878527D01*
X191899184Y-82073537D01*
X191890746Y-82103194D01*
X191855976Y-82225400D01*
X191839564Y-82283081D01*
X191819464Y-82499999D01*
X191819464Y-82500000D01*
X191839564Y-82716918D01*
X191839564Y-82716920D01*
X191839565Y-82716923D01*
X191886026Y-82880216D01*
X191899184Y-82926462D01*
X191996288Y-83121472D01*
X192127574Y-83295324D01*
X192251572Y-83408363D01*
X192287854Y-83468074D01*
X192286093Y-83537922D01*
X192251572Y-83591637D01*
X192127574Y-83704675D01*
X191996288Y-83878527D01*
X191899184Y-84073537D01*
X191839564Y-84283081D01*
X191819464Y-84499999D01*
X191819464Y-84500000D01*
X191839564Y-84716920D01*
X191839565Y-84716923D01*
X191853575Y-84766166D01*
X191856168Y-84775277D01*
X191855580Y-84845144D01*
X191824582Y-84896891D01*
X190559491Y-86161983D01*
X190559489Y-86161985D01*
X190522002Y-86226918D01*
X190522001Y-86226919D01*
X190487017Y-86287512D01*
X190487016Y-86287513D01*
X190471573Y-86345149D01*
X190449500Y-86427525D01*
X190449500Y-86427527D01*
X190449500Y-90220613D01*
X190429815Y-90287652D01*
X190413181Y-90308294D01*
X189262181Y-91459294D01*
X189200858Y-91492779D01*
X189131166Y-91487795D01*
X189075233Y-91445923D01*
X189050816Y-91380459D01*
X189050500Y-91371613D01*
X189050500Y-89799499D01*
X189070185Y-89732460D01*
X189122989Y-89686705D01*
X189174500Y-89675499D01*
X189672871Y-89675499D01*
X189672872Y-89675499D01*
X189732483Y-89669091D01*
X189867331Y-89618796D01*
X189982546Y-89532546D01*
X190068796Y-89417331D01*
X190119091Y-89282483D01*
X190125500Y-89222873D01*
X190125499Y-87777128D01*
X190119091Y-87717517D01*
X190118014Y-87714630D01*
X190068797Y-87582671D01*
X190068793Y-87582664D01*
X189982547Y-87467455D01*
X189982544Y-87467452D01*
X189896895Y-87403335D01*
X189855024Y-87347402D01*
X189850040Y-87277710D01*
X189872251Y-87229344D01*
X189953712Y-87121472D01*
X190050817Y-86926459D01*
X190110435Y-86716923D01*
X190130536Y-86500000D01*
X190110435Y-86283077D01*
X190050817Y-86073541D01*
X189953712Y-85878528D01*
X189822427Y-85704678D01*
X189698423Y-85591634D01*
X189662145Y-85531927D01*
X189663905Y-85462079D01*
X189698423Y-85408365D01*
X189822427Y-85295322D01*
X189953712Y-85121472D01*
X190050817Y-84926459D01*
X190110435Y-84716923D01*
X190130536Y-84500000D01*
X190110435Y-84283077D01*
X190050817Y-84073541D01*
X189953712Y-83878528D01*
X189822427Y-83704678D01*
X189661432Y-83557912D01*
X189661428Y-83557909D01*
X189661423Y-83557906D01*
X189476213Y-83443229D01*
X189476207Y-83443226D01*
X189366650Y-83400784D01*
X189273069Y-83364530D01*
X189058926Y-83324500D01*
X188841074Y-83324500D01*
X188626931Y-83364530D01*
X188578130Y-83383435D01*
X188423792Y-83443226D01*
X188423786Y-83443229D01*
X188238576Y-83557906D01*
X188238566Y-83557913D01*
X188077574Y-83704676D01*
X187946288Y-83878527D01*
X187849184Y-84073537D01*
X187789564Y-84283081D01*
X187769464Y-84499999D01*
X187769464Y-84500000D01*
X187789564Y-84716918D01*
X187789564Y-84716920D01*
X187789565Y-84716923D01*
X187845725Y-84914304D01*
X187849184Y-84926462D01*
X187946288Y-85121472D01*
X188077574Y-85295324D01*
X188201572Y-85408363D01*
X188237854Y-85468074D01*
X188236093Y-85537922D01*
X188201572Y-85591637D01*
X188077574Y-85704675D01*
X187946288Y-85878527D01*
X187849184Y-86073537D01*
X187846577Y-86082699D01*
X187796078Y-86260188D01*
X187789564Y-86283081D01*
X187769464Y-86499999D01*
X187769464Y-86500000D01*
X187789564Y-86716918D01*
X187789564Y-86716920D01*
X187789565Y-86716923D01*
X187827042Y-86848640D01*
X187849184Y-86926462D01*
X187910948Y-87050500D01*
X187946288Y-87121472D01*
X187965998Y-87147573D01*
X188027747Y-87229341D01*
X188052439Y-87294702D01*
X188037874Y-87363037D01*
X188003105Y-87403334D01*
X187917452Y-87467455D01*
X187831206Y-87582664D01*
X187831202Y-87582671D01*
X187780908Y-87717517D01*
X187774501Y-87777116D01*
X187774501Y-87777123D01*
X187774500Y-87777135D01*
X187774500Y-89222870D01*
X187774501Y-89222876D01*
X187780908Y-89282483D01*
X187831202Y-89417328D01*
X187831203Y-89417329D01*
X187831204Y-89417331D01*
X187915646Y-89530131D01*
X187922769Y-89539646D01*
X187920370Y-89541441D01*
X187946666Y-89589597D01*
X187949500Y-89615955D01*
X187949500Y-95572475D01*
X187973485Y-95661986D01*
X187987016Y-95712485D01*
X188059490Y-95838015D01*
X188661985Y-96440510D01*
X188787515Y-96512984D01*
X188927525Y-96550500D01*
X188927526Y-96550500D01*
X188927528Y-96550500D01*
X191072472Y-96550500D01*
X191072474Y-96550500D01*
X191072475Y-96550500D01*
X191212485Y-96512984D01*
X191338015Y-96440510D01*
X192101963Y-95676559D01*
X192163286Y-95643075D01*
X192232977Y-95648059D01*
X192277325Y-95676560D01*
X193015139Y-96414374D01*
X193015149Y-96414385D01*
X193019479Y-96418715D01*
X193019480Y-96418716D01*
X193131284Y-96530520D01*
X193131286Y-96530521D01*
X193131290Y-96530524D01*
X193268197Y-96609566D01*
X193268216Y-96609577D01*
X193380019Y-96639534D01*
X193420942Y-96650500D01*
X193420943Y-96650500D01*
X193420944Y-96650500D01*
X198029055Y-96650500D01*
X198029057Y-96650500D01*
X198181784Y-96609577D01*
X198181786Y-96609576D01*
X198318716Y-96530520D01*
X198430520Y-96418716D01*
X198509577Y-96281784D01*
X198550500Y-96129057D01*
X198550500Y-95970943D01*
X198542346Y-95940509D01*
X198509577Y-95818215D01*
X198480639Y-95768095D01*
X198430520Y-95681284D01*
X198318716Y-95569480D01*
X198318715Y-95569479D01*
X198314385Y-95565149D01*
X198314374Y-95565139D01*
X198244636Y-95495401D01*
X198211151Y-95434078D01*
X198216135Y-95364386D01*
X198258007Y-95308453D01*
X198261195Y-95306144D01*
X198271195Y-95299142D01*
X198286401Y-95288495D01*
X198453495Y-95121401D01*
X198583425Y-94935842D01*
X198638002Y-94892217D01*
X198707500Y-94885023D01*
X198769855Y-94916546D01*
X198786575Y-94935842D01*
X198916500Y-95121395D01*
X198916505Y-95121401D01*
X199083599Y-95288495D01*
X199112102Y-95308453D01*
X199277165Y-95424032D01*
X199277167Y-95424033D01*
X199277170Y-95424035D01*
X199491337Y-95523903D01*
X199719592Y-95585063D01*
X199907918Y-95601539D01*
X199954999Y-95605659D01*
X199955000Y-95605659D01*
X199955001Y-95605659D01*
X199994234Y-95602226D01*
X200190408Y-95585063D01*
X200418663Y-95523903D01*
X200632830Y-95424035D01*
X200826401Y-95288495D01*
X200993495Y-95121401D01*
X201123425Y-94935842D01*
X201178002Y-94892217D01*
X201247500Y-94885023D01*
X201309855Y-94916546D01*
X201326575Y-94935842D01*
X201456500Y-95121395D01*
X201456505Y-95121401D01*
X201623599Y-95288495D01*
X201652102Y-95308453D01*
X201817165Y-95424032D01*
X201817167Y-95424033D01*
X201817170Y-95424035D01*
X202031337Y-95523903D01*
X202259592Y-95585063D01*
X202447918Y-95601539D01*
X202494999Y-95605659D01*
X202495000Y-95605659D01*
X202495001Y-95605659D01*
X202534234Y-95602226D01*
X202730408Y-95585063D01*
X202958663Y-95523903D01*
X203172830Y-95424035D01*
X203366401Y-95288495D01*
X203533495Y-95121401D01*
X203663425Y-94935842D01*
X203718002Y-94892217D01*
X203787500Y-94885023D01*
X203849855Y-94916546D01*
X203866575Y-94935842D01*
X203996500Y-95121395D01*
X203996505Y-95121401D01*
X204163599Y-95288495D01*
X204192102Y-95308453D01*
X204357165Y-95424032D01*
X204357167Y-95424033D01*
X204357170Y-95424035D01*
X204571337Y-95523903D01*
X204799592Y-95585063D01*
X204987918Y-95601539D01*
X205034999Y-95605659D01*
X205035000Y-95605659D01*
X205035001Y-95605659D01*
X205074234Y-95602226D01*
X205270408Y-95585063D01*
X205498663Y-95523903D01*
X205712830Y-95424035D01*
X205906401Y-95288495D01*
X206073495Y-95121401D01*
X206203425Y-94935842D01*
X206258002Y-94892217D01*
X206327500Y-94885023D01*
X206389855Y-94916546D01*
X206406575Y-94935842D01*
X206536500Y-95121395D01*
X206536505Y-95121401D01*
X206703599Y-95288495D01*
X206732102Y-95308453D01*
X206897165Y-95424032D01*
X206897167Y-95424033D01*
X206897170Y-95424035D01*
X207111337Y-95523903D01*
X207339592Y-95585063D01*
X207527918Y-95601539D01*
X207574999Y-95605659D01*
X207575000Y-95605659D01*
X207575001Y-95605659D01*
X207614234Y-95602226D01*
X207810408Y-95585063D01*
X208038663Y-95523903D01*
X208252830Y-95424035D01*
X208446401Y-95288495D01*
X208613495Y-95121401D01*
X208743425Y-94935842D01*
X208798002Y-94892217D01*
X208867500Y-94885023D01*
X208929855Y-94916546D01*
X208946575Y-94935842D01*
X209076500Y-95121395D01*
X209076505Y-95121401D01*
X209243599Y-95288495D01*
X209272102Y-95308453D01*
X209437165Y-95424032D01*
X209437167Y-95424033D01*
X209437170Y-95424035D01*
X209651337Y-95523903D01*
X209879592Y-95585063D01*
X210067918Y-95601539D01*
X210114999Y-95605659D01*
X210115000Y-95605659D01*
X210115001Y-95605659D01*
X210154234Y-95602226D01*
X210350408Y-95585063D01*
X210578663Y-95523903D01*
X210792830Y-95424035D01*
X210986401Y-95288495D01*
X211153495Y-95121401D01*
X211289035Y-94927830D01*
X211388903Y-94713663D01*
X211450063Y-94485408D01*
X211470659Y-94250000D01*
X211450063Y-94014592D01*
X211403626Y-93841285D01*
X211388905Y-93786344D01*
X211388904Y-93786343D01*
X211388903Y-93786337D01*
X211289035Y-93572171D01*
X211283425Y-93564158D01*
X211153494Y-93378597D01*
X210986402Y-93211506D01*
X210986395Y-93211501D01*
X210976005Y-93204226D01*
X210913870Y-93160718D01*
X210792834Y-93075967D01*
X210792830Y-93075965D01*
X210773894Y-93067135D01*
X210578663Y-92976097D01*
X210578659Y-92976096D01*
X210578655Y-92976094D01*
X210350413Y-92914938D01*
X210350403Y-92914936D01*
X210115001Y-92894341D01*
X210114999Y-92894341D01*
X209879596Y-92914936D01*
X209879586Y-92914938D01*
X209651344Y-92976094D01*
X209651335Y-92976098D01*
X209437171Y-93075964D01*
X209437169Y-93075965D01*
X209243597Y-93211505D01*
X209076505Y-93378597D01*
X208946575Y-93564158D01*
X208891998Y-93607783D01*
X208822500Y-93614977D01*
X208760145Y-93583454D01*
X208743425Y-93564158D01*
X208613494Y-93378597D01*
X208446402Y-93211506D01*
X208446395Y-93211501D01*
X208436005Y-93204226D01*
X208373870Y-93160718D01*
X208252834Y-93075967D01*
X208252830Y-93075965D01*
X208233894Y-93067135D01*
X208038663Y-92976097D01*
X208038659Y-92976096D01*
X208038655Y-92976094D01*
X207810413Y-92914938D01*
X207810403Y-92914936D01*
X207575001Y-92894341D01*
X207574999Y-92894341D01*
X207339596Y-92914936D01*
X207339586Y-92914938D01*
X207111344Y-92976094D01*
X207111335Y-92976098D01*
X206897171Y-93075964D01*
X206897169Y-93075965D01*
X206703597Y-93211505D01*
X206536505Y-93378597D01*
X206406575Y-93564158D01*
X206351998Y-93607783D01*
X206282500Y-93614977D01*
X206220145Y-93583454D01*
X206203425Y-93564158D01*
X206073494Y-93378597D01*
X205906402Y-93211506D01*
X205906395Y-93211501D01*
X205896005Y-93204226D01*
X205833870Y-93160718D01*
X205712834Y-93075967D01*
X205712830Y-93075965D01*
X205693894Y-93067135D01*
X205498663Y-92976097D01*
X205498659Y-92976096D01*
X205498655Y-92976094D01*
X205270413Y-92914938D01*
X205270403Y-92914936D01*
X205035001Y-92894341D01*
X205034999Y-92894341D01*
X204799596Y-92914936D01*
X204799586Y-92914938D01*
X204571344Y-92976094D01*
X204571335Y-92976098D01*
X204357171Y-93075964D01*
X204357169Y-93075965D01*
X204163597Y-93211505D01*
X203996505Y-93378597D01*
X203866575Y-93564158D01*
X203811998Y-93607783D01*
X203742500Y-93614977D01*
X203680145Y-93583454D01*
X203663425Y-93564158D01*
X203533494Y-93378597D01*
X203366402Y-93211506D01*
X203366395Y-93211501D01*
X203356005Y-93204226D01*
X203293870Y-93160718D01*
X203172834Y-93075967D01*
X203172830Y-93075965D01*
X203153894Y-93067135D01*
X202958663Y-92976097D01*
X202958659Y-92976096D01*
X202958655Y-92976094D01*
X202730413Y-92914938D01*
X202730403Y-92914936D01*
X202495001Y-92894341D01*
X202494999Y-92894341D01*
X202259596Y-92914936D01*
X202259586Y-92914938D01*
X202031344Y-92976094D01*
X202031335Y-92976098D01*
X201817171Y-93075964D01*
X201817169Y-93075965D01*
X201623597Y-93211505D01*
X201456505Y-93378597D01*
X201326575Y-93564158D01*
X201271998Y-93607783D01*
X201202500Y-93614977D01*
X201140145Y-93583454D01*
X201123425Y-93564158D01*
X200993494Y-93378597D01*
X200826402Y-93211506D01*
X200826395Y-93211501D01*
X200816005Y-93204226D01*
X200753870Y-93160718D01*
X200632834Y-93075967D01*
X200632830Y-93075965D01*
X200613894Y-93067135D01*
X200418663Y-92976097D01*
X200418659Y-92976096D01*
X200418655Y-92976094D01*
X200190413Y-92914938D01*
X200190403Y-92914936D01*
X199955001Y-92894341D01*
X199954998Y-92894341D01*
X199927153Y-92896777D01*
X199858653Y-92883010D01*
X199808470Y-92834395D01*
X199792537Y-92766366D01*
X199815913Y-92700523D01*
X199828659Y-92685574D01*
X200172741Y-92341492D01*
X200234062Y-92308009D01*
X200246537Y-92305955D01*
X200249999Y-92305564D01*
X200250000Y-92305565D01*
X200320967Y-92297569D01*
X200429249Y-92285369D01*
X200429252Y-92285368D01*
X200429255Y-92285368D01*
X200599522Y-92225789D01*
X200752262Y-92129816D01*
X200879816Y-92002262D01*
X200975789Y-91849522D01*
X201035368Y-91679255D01*
X201035369Y-91679249D01*
X201055565Y-91500003D01*
X201055565Y-91499996D01*
X201035369Y-91320750D01*
X201035366Y-91320737D01*
X200998526Y-91215455D01*
X200994964Y-91145676D01*
X201029692Y-91085049D01*
X201091686Y-91052821D01*
X201115567Y-91050500D01*
X214343011Y-91050500D01*
X214410050Y-91070185D01*
X214455805Y-91122989D01*
X214465749Y-91192147D01*
X214462087Y-91209096D01*
X214452402Y-91242429D01*
X214452401Y-91242432D01*
X214449500Y-91279298D01*
X214449500Y-92260701D01*
X214450964Y-92279298D01*
X214436599Y-92347675D01*
X214411202Y-92377558D01*
X214412382Y-92378738D01*
X214299485Y-92491635D01*
X214223719Y-92622863D01*
X214184500Y-92769234D01*
X214184500Y-92920765D01*
X214223719Y-93067136D01*
X214228816Y-93075964D01*
X214299485Y-93198365D01*
X214406635Y-93305515D01*
X214520281Y-93371129D01*
X214533219Y-93378599D01*
X214537865Y-93381281D01*
X214684234Y-93420500D01*
X214684236Y-93420500D01*
X214835764Y-93420500D01*
X214835766Y-93420500D01*
X214982135Y-93381281D01*
X215113365Y-93305515D01*
X215186155Y-93232724D01*
X215247474Y-93199242D01*
X215310034Y-93203716D01*
X215310368Y-93202473D01*
X215316817Y-93204201D01*
X215317166Y-93204226D01*
X215317711Y-93204440D01*
X215318212Y-93204574D01*
X215318217Y-93204577D01*
X215430020Y-93234534D01*
X215470943Y-93245500D01*
X215470944Y-93245500D01*
X219663330Y-93245500D01*
X219663346Y-93245501D01*
X219670942Y-93245501D01*
X219829053Y-93245501D01*
X219829056Y-93245501D01*
X219981784Y-93204577D01*
X219981785Y-93204576D01*
X219989635Y-93202473D01*
X219990209Y-93204615D01*
X220048167Y-93198376D01*
X220110650Y-93229642D01*
X220113847Y-93232727D01*
X220186635Y-93305515D01*
X220300281Y-93371129D01*
X220313219Y-93378599D01*
X220317865Y-93381281D01*
X220464234Y-93420500D01*
X220464236Y-93420500D01*
X220615764Y-93420500D01*
X220615766Y-93420500D01*
X220762135Y-93381281D01*
X220893365Y-93305515D01*
X221000515Y-93198365D01*
X221076281Y-93067135D01*
X221115500Y-92920766D01*
X221115500Y-92769234D01*
X221076281Y-92622865D01*
X221000515Y-92491635D01*
X220893365Y-92384485D01*
X220893364Y-92384484D01*
X220887618Y-92378738D01*
X220889480Y-92376875D01*
X220855965Y-92330977D01*
X220849036Y-92279292D01*
X220850500Y-92260694D01*
X220850500Y-91279306D01*
X220847598Y-91242431D01*
X220847597Y-91242429D01*
X220847597Y-91242426D01*
X220801745Y-91084606D01*
X220801744Y-91084603D01*
X220801744Y-91084602D01*
X220718081Y-90943135D01*
X220718079Y-90943133D01*
X220718076Y-90943129D01*
X220601870Y-90826923D01*
X220601861Y-90826916D01*
X220460400Y-90743256D01*
X220459349Y-90742802D01*
X220457459Y-90741517D01*
X220453684Y-90739285D01*
X220453824Y-90739047D01*
X220420919Y-90716683D01*
X220414397Y-90710161D01*
X220414374Y-90710140D01*
X220286819Y-90582585D01*
X220253334Y-90521262D01*
X220250500Y-90494904D01*
X220250500Y-89949996D01*
X222344435Y-89949996D01*
X222344435Y-89950003D01*
X222364630Y-90129249D01*
X222364631Y-90129254D01*
X222424211Y-90299523D01*
X222506523Y-90430521D01*
X222520184Y-90452262D01*
X222647738Y-90579816D01*
X222800478Y-90675789D01*
X222970745Y-90735368D01*
X223057669Y-90745161D01*
X223122080Y-90772226D01*
X223131465Y-90780700D01*
X223938181Y-91587416D01*
X223971666Y-91648739D01*
X223974500Y-91675097D01*
X223974500Y-92672870D01*
X223974501Y-92672876D01*
X223980908Y-92732483D01*
X224031202Y-92867328D01*
X224031206Y-92867335D01*
X224117452Y-92982544D01*
X224117455Y-92982547D01*
X224232664Y-93068793D01*
X224232671Y-93068797D01*
X224367517Y-93119091D01*
X224367516Y-93119091D01*
X224374444Y-93119835D01*
X224427127Y-93125500D01*
X225872872Y-93125499D01*
X225932483Y-93119091D01*
X226067331Y-93068796D01*
X226182546Y-92982546D01*
X226268796Y-92867331D01*
X226319091Y-92732483D01*
X226325500Y-92672873D01*
X226325499Y-91227128D01*
X226319091Y-91167517D01*
X226288332Y-91085049D01*
X226268797Y-91032671D01*
X226268793Y-91032664D01*
X226182547Y-90917455D01*
X226182544Y-90917452D01*
X226067335Y-90831206D01*
X226067328Y-90831202D01*
X225932482Y-90780908D01*
X225932483Y-90780908D01*
X225872883Y-90774501D01*
X225872881Y-90774500D01*
X225872873Y-90774500D01*
X225872865Y-90774500D01*
X224875097Y-90774500D01*
X224808058Y-90754815D01*
X224787416Y-90738181D01*
X223980700Y-89931465D01*
X223947215Y-89870142D01*
X223945163Y-89857686D01*
X223935368Y-89770745D01*
X223875789Y-89600478D01*
X223779816Y-89447738D01*
X223652262Y-89320184D01*
X223596853Y-89285368D01*
X223499523Y-89224211D01*
X223329254Y-89164631D01*
X223329249Y-89164630D01*
X223150004Y-89144435D01*
X223149996Y-89144435D01*
X222970750Y-89164630D01*
X222970745Y-89164631D01*
X222800476Y-89224211D01*
X222647737Y-89320184D01*
X222520184Y-89447737D01*
X222424211Y-89600476D01*
X222364631Y-89770745D01*
X222364630Y-89770750D01*
X222344435Y-89949996D01*
X220250500Y-89949996D01*
X220250500Y-89549499D01*
X220270185Y-89482460D01*
X220322989Y-89436705D01*
X220374500Y-89425499D01*
X220376645Y-89425499D01*
X220376655Y-89425500D01*
X220923344Y-89425499D01*
X220923352Y-89425498D01*
X220923355Y-89425498D01*
X220983462Y-89419358D01*
X221022708Y-89415349D01*
X221183697Y-89362003D01*
X221328044Y-89272968D01*
X221447968Y-89153044D01*
X221537003Y-89008697D01*
X221590349Y-88847708D01*
X221600500Y-88748345D01*
X221600499Y-88151656D01*
X221600378Y-88150476D01*
X221590349Y-88052292D01*
X221590348Y-88052289D01*
X221572271Y-87997737D01*
X221537003Y-87891303D01*
X221536999Y-87891297D01*
X221536998Y-87891294D01*
X221447970Y-87746959D01*
X221447967Y-87746955D01*
X221328044Y-87627032D01*
X221328040Y-87627029D01*
X221183705Y-87538001D01*
X221183699Y-87537998D01*
X221183697Y-87537997D01*
X221132928Y-87521174D01*
X221022709Y-87484651D01*
X220923346Y-87474500D01*
X220376662Y-87474500D01*
X220376644Y-87474501D01*
X220277292Y-87484650D01*
X220277285Y-87484652D01*
X220167068Y-87521174D01*
X220097240Y-87523575D01*
X220040384Y-87491149D01*
X219980700Y-87431465D01*
X219947215Y-87370142D01*
X219945163Y-87357686D01*
X219935368Y-87270745D01*
X219875789Y-87100478D01*
X219779816Y-86947738D01*
X219779815Y-86947737D01*
X219777555Y-86944903D01*
X219776665Y-86942724D01*
X219776111Y-86941842D01*
X219776265Y-86941744D01*
X219751146Y-86880216D01*
X219750501Y-86867589D01*
X219750501Y-86750945D01*
X219750501Y-86750943D01*
X219709577Y-86598215D01*
X219664147Y-86519528D01*
X219630520Y-86461284D01*
X219518716Y-86349480D01*
X219518715Y-86349479D01*
X219514385Y-86345149D01*
X219514374Y-86345139D01*
X219132158Y-85962923D01*
X219098673Y-85901600D01*
X219103657Y-85831908D01*
X219105251Y-85827855D01*
X219145687Y-85730236D01*
X219148441Y-85709314D01*
X219176707Y-85645418D01*
X219235031Y-85606946D01*
X219271380Y-85601499D01*
X221404371Y-85601499D01*
X221404372Y-85601499D01*
X221463983Y-85595091D01*
X221598831Y-85544796D01*
X221714046Y-85458546D01*
X221800296Y-85343331D01*
X221850591Y-85208483D01*
X221857000Y-85148873D01*
X221857000Y-85009500D01*
X221876685Y-84942461D01*
X221929489Y-84896706D01*
X221981000Y-84885500D01*
X223509902Y-84885500D01*
X223576941Y-84905185D01*
X223597583Y-84921819D01*
X224513181Y-85837417D01*
X224546666Y-85898740D01*
X224549500Y-85925098D01*
X224549500Y-87233284D01*
X224529815Y-87300323D01*
X224489652Y-87339400D01*
X224439811Y-87369530D01*
X224319530Y-87489811D01*
X224231522Y-87635393D01*
X224180913Y-87797807D01*
X224174500Y-87868386D01*
X224174500Y-88381613D01*
X224180913Y-88452192D01*
X224180913Y-88452194D01*
X224180914Y-88452196D01*
X224231522Y-88614606D01*
X224312370Y-88748345D01*
X224319530Y-88760188D01*
X224439811Y-88880469D01*
X224439813Y-88880470D01*
X224439815Y-88880472D01*
X224585394Y-88968478D01*
X224747804Y-89019086D01*
X224818384Y-89025500D01*
X224818387Y-89025500D01*
X225481613Y-89025500D01*
X225481616Y-89025500D01*
X225552196Y-89019086D01*
X225714606Y-88968478D01*
X225860185Y-88880472D01*
X225980472Y-88760185D01*
X226068478Y-88614606D01*
X226119086Y-88452196D01*
X226125500Y-88381616D01*
X226125500Y-87868384D01*
X226119086Y-87797804D01*
X226068478Y-87635394D01*
X225980472Y-87489815D01*
X225980470Y-87489813D01*
X225980469Y-87489811D01*
X225860188Y-87369530D01*
X225810348Y-87339400D01*
X225763162Y-87287871D01*
X225750500Y-87233284D01*
X225750500Y-85545946D01*
X225750498Y-85545937D01*
X225750201Y-85544825D01*
X225750201Y-85544826D01*
X225750193Y-85544796D01*
X225709577Y-85393216D01*
X225680639Y-85343096D01*
X225630520Y-85256285D01*
X225518716Y-85144481D01*
X225518715Y-85144480D01*
X225514385Y-85140150D01*
X225514374Y-85140140D01*
X224121393Y-83747159D01*
X224094513Y-83706930D01*
X224037700Y-83569771D01*
X224037700Y-83569770D01*
X224037698Y-83569767D01*
X223945451Y-83449549D01*
X223825233Y-83357302D01*
X223825229Y-83357300D01*
X223736977Y-83320745D01*
X223685236Y-83299313D01*
X223671171Y-83297461D01*
X223572727Y-83284500D01*
X223572720Y-83284500D01*
X221980999Y-83284500D01*
X221913960Y-83264815D01*
X221868205Y-83212011D01*
X221856999Y-83160500D01*
X221856999Y-82469500D01*
X221876684Y-82402461D01*
X221929488Y-82356706D01*
X221980999Y-82345500D01*
X223572713Y-82345500D01*
X223572720Y-82345500D01*
X223685236Y-82330687D01*
X223825233Y-82272698D01*
X223945451Y-82180451D01*
X223945452Y-82180448D01*
X223951898Y-82175503D01*
X223953005Y-82176946D01*
X224005406Y-82148334D01*
X224031764Y-82145500D01*
X225566549Y-82145500D01*
X225632519Y-82164504D01*
X225650478Y-82175789D01*
X225650479Y-82175789D01*
X225650482Y-82175791D01*
X225820737Y-82235366D01*
X225820743Y-82235367D01*
X225820745Y-82235368D01*
X225820746Y-82235368D01*
X225820750Y-82235369D01*
X225999996Y-82255565D01*
X226000000Y-82255565D01*
X226000004Y-82255565D01*
X226179249Y-82235369D01*
X226179252Y-82235368D01*
X226179255Y-82235368D01*
X226349522Y-82175789D01*
X226502262Y-82079816D01*
X226537819Y-82044259D01*
X226599142Y-82010774D01*
X226668834Y-82015758D01*
X226724767Y-82057630D01*
X226749184Y-82123094D01*
X226749500Y-82131940D01*
X226749500Y-97625500D01*
X226729815Y-97692539D01*
X226677011Y-97738294D01*
X226625500Y-97749500D01*
X177874500Y-97749500D01*
X177807461Y-97729815D01*
X177761706Y-97677011D01*
X177750500Y-97625500D01*
X177750500Y-69999996D01*
X184944435Y-69999996D01*
X184944435Y-70000003D01*
X184964630Y-70179249D01*
X184964631Y-70179254D01*
X185024211Y-70349523D01*
X185113828Y-70492147D01*
X185120184Y-70502262D01*
X185247738Y-70629816D01*
X185320902Y-70675788D01*
X185388414Y-70718209D01*
X185400478Y-70725789D01*
X185538860Y-70774211D01*
X185570745Y-70785368D01*
X185577532Y-70786917D01*
X185577192Y-70788404D01*
X185634097Y-70812315D01*
X185673652Y-70869910D01*
X185675574Y-70876373D01*
X185690421Y-70931780D01*
X185690422Y-70931782D01*
X185690423Y-70931785D01*
X185712593Y-70970184D01*
X185769479Y-71068714D01*
X185769481Y-71068717D01*
X185888349Y-71187585D01*
X185888355Y-71187590D01*
X187238181Y-72537416D01*
X187271666Y-72598739D01*
X187274500Y-72625097D01*
X187274500Y-72973337D01*
X187274501Y-72973355D01*
X187284650Y-73072707D01*
X187284651Y-73072710D01*
X187337996Y-73233694D01*
X187338001Y-73233705D01*
X187427029Y-73378040D01*
X187427032Y-73378044D01*
X187546955Y-73497967D01*
X187546959Y-73497970D01*
X187691294Y-73586998D01*
X187691297Y-73586999D01*
X187691303Y-73587003D01*
X187852292Y-73640349D01*
X187951655Y-73650500D01*
X188548344Y-73650499D01*
X188548352Y-73650498D01*
X188548355Y-73650498D01*
X188602760Y-73644940D01*
X188647708Y-73640349D01*
X188808697Y-73587003D01*
X188953044Y-73497968D01*
X189072968Y-73378044D01*
X189084467Y-73359402D01*
X189136412Y-73312679D01*
X189190004Y-73300500D01*
X191044575Y-73300500D01*
X191111614Y-73320185D01*
X191150113Y-73359402D01*
X191177031Y-73403043D01*
X191296955Y-73522967D01*
X191296959Y-73522970D01*
X191441294Y-73611998D01*
X191441297Y-73611999D01*
X191441303Y-73612003D01*
X191602292Y-73665349D01*
X191701655Y-73675500D01*
X192298344Y-73675499D01*
X192298352Y-73675498D01*
X192298355Y-73675498D01*
X192352760Y-73669940D01*
X192397708Y-73665349D01*
X192558697Y-73612003D01*
X192703044Y-73522968D01*
X192822968Y-73403044D01*
X192849887Y-73359402D01*
X192901835Y-73312678D01*
X192955425Y-73300500D01*
X193221637Y-73300500D01*
X193260180Y-73308165D01*
X193260366Y-73307473D01*
X193268214Y-73309575D01*
X193268216Y-73309577D01*
X193420943Y-73350501D01*
X193420945Y-73350501D01*
X193429002Y-73351562D01*
X193428711Y-73353767D01*
X193484628Y-73370186D01*
X193494903Y-73377555D01*
X193497737Y-73379815D01*
X193497738Y-73379816D01*
X193534704Y-73403043D01*
X193646018Y-73472987D01*
X193650478Y-73475789D01*
X193713862Y-73497968D01*
X193820745Y-73535368D01*
X193820750Y-73535369D01*
X193999996Y-73555565D01*
X194000000Y-73555565D01*
X194000004Y-73555565D01*
X194179249Y-73535369D01*
X194179252Y-73535368D01*
X194179255Y-73535368D01*
X194349522Y-73475789D01*
X194502262Y-73379816D01*
X194629816Y-73252262D01*
X194725789Y-73099522D01*
X194785368Y-72929255D01*
X194790072Y-72887504D01*
X194805565Y-72750003D01*
X194805565Y-72749996D01*
X194785369Y-72570750D01*
X194785368Y-72570745D01*
X194749491Y-72468215D01*
X194725789Y-72400478D01*
X194629816Y-72247738D01*
X194502262Y-72120184D01*
X194487426Y-72110862D01*
X194349523Y-72024211D01*
X194179254Y-71964631D01*
X194179249Y-71964630D01*
X194000004Y-71944435D01*
X193999996Y-71944435D01*
X193820750Y-71964630D01*
X193820737Y-71964633D01*
X193650481Y-72024209D01*
X193650478Y-72024211D01*
X193560903Y-72080493D01*
X193494934Y-72099499D01*
X193363347Y-72099499D01*
X193363331Y-72099500D01*
X192924547Y-72099500D01*
X192857508Y-72079815D01*
X192827276Y-72052405D01*
X192822967Y-72046955D01*
X192773749Y-71997737D01*
X192703044Y-71927032D01*
X192703041Y-71927030D01*
X192703040Y-71927029D01*
X192558705Y-71838001D01*
X192558699Y-71837998D01*
X192558697Y-71837997D01*
X192511764Y-71822445D01*
X192397709Y-71784651D01*
X192298346Y-71774500D01*
X191701662Y-71774500D01*
X191701644Y-71774501D01*
X191602292Y-71784650D01*
X191602289Y-71784651D01*
X191441305Y-71837996D01*
X191441294Y-71838001D01*
X191296959Y-71927029D01*
X191177032Y-72046955D01*
X191172724Y-72052405D01*
X191115704Y-72092785D01*
X191075453Y-72099500D01*
X189190004Y-72099500D01*
X189122965Y-72079815D01*
X189084465Y-72040596D01*
X189072968Y-72021956D01*
X188953044Y-71902032D01*
X188953040Y-71902029D01*
X188808705Y-71813001D01*
X188808699Y-71812998D01*
X188808697Y-71812997D01*
X188808694Y-71812996D01*
X188647709Y-71759651D01*
X188548352Y-71749500D01*
X188548345Y-71749500D01*
X188200097Y-71749500D01*
X188133058Y-71729815D01*
X188112416Y-71713181D01*
X186884862Y-70485627D01*
X186853671Y-70428506D01*
X186852604Y-70428793D01*
X186851424Y-70424390D01*
X186851377Y-70424304D01*
X186851332Y-70424046D01*
X186839480Y-70379816D01*
X186809577Y-70268216D01*
X186781959Y-70220379D01*
X186730524Y-70131290D01*
X186730518Y-70131282D01*
X186686916Y-70087680D01*
X186653431Y-70026357D01*
X186658415Y-69956665D01*
X186686916Y-69912318D01*
X186948757Y-69650478D01*
X187212416Y-69386819D01*
X187273739Y-69353334D01*
X187300097Y-69350500D01*
X191096957Y-69350500D01*
X191162053Y-69368961D01*
X191191303Y-69387003D01*
X191352292Y-69440349D01*
X191451655Y-69450500D01*
X192048344Y-69450499D01*
X192048352Y-69450498D01*
X192048355Y-69450498D01*
X192126484Y-69442517D01*
X192147708Y-69440349D01*
X192308697Y-69387003D01*
X192453044Y-69297968D01*
X192488208Y-69262803D01*
X192549528Y-69229319D01*
X192619220Y-69234303D01*
X192663569Y-69262804D01*
X193169298Y-69768533D01*
X193202783Y-69829856D01*
X193204837Y-69842330D01*
X193214630Y-69929249D01*
X193274210Y-70099521D01*
X193358551Y-70233749D01*
X193370184Y-70252262D01*
X193497738Y-70379816D01*
X193568130Y-70424046D01*
X193648426Y-70474500D01*
X193650478Y-70475789D01*
X193820745Y-70535368D01*
X193820750Y-70535369D01*
X193999996Y-70555565D01*
X194000000Y-70555565D01*
X194000004Y-70555565D01*
X194179249Y-70535369D01*
X194179252Y-70535368D01*
X194179255Y-70535368D01*
X194349522Y-70475789D01*
X194502262Y-70379816D01*
X194629816Y-70252262D01*
X194725789Y-70099522D01*
X194785368Y-69929255D01*
X194785621Y-69927011D01*
X194805565Y-69750003D01*
X194805565Y-69749996D01*
X194785369Y-69570750D01*
X194785368Y-69570745D01*
X194743292Y-69450498D01*
X194725789Y-69400478D01*
X194717206Y-69386819D01*
X194661379Y-69297970D01*
X194629816Y-69247738D01*
X194502262Y-69120184D01*
X194433553Y-69077011D01*
X194349521Y-69024210D01*
X194179249Y-68964630D01*
X194092330Y-68954837D01*
X194027916Y-68927770D01*
X194018533Y-68919298D01*
X193237590Y-68138355D01*
X193237588Y-68138352D01*
X193118717Y-68019481D01*
X193118709Y-68019475D01*
X193014795Y-67959481D01*
X193014794Y-67959480D01*
X193014794Y-67959481D01*
X192981785Y-67940423D01*
X192829057Y-67899499D01*
X192690004Y-67899499D01*
X192622965Y-67879814D01*
X192584466Y-67840597D01*
X192572968Y-67821956D01*
X192453044Y-67702032D01*
X192453040Y-67702029D01*
X192308705Y-67613001D01*
X192308699Y-67612998D01*
X192308697Y-67612997D01*
X192307789Y-67612696D01*
X192147709Y-67559651D01*
X192048346Y-67549500D01*
X191451662Y-67549500D01*
X191451644Y-67549501D01*
X191352292Y-67559650D01*
X191352289Y-67559651D01*
X191191305Y-67612996D01*
X191191294Y-67613001D01*
X191046959Y-67702029D01*
X191046955Y-67702032D01*
X190927032Y-67821955D01*
X190927029Y-67821959D01*
X190838001Y-67966294D01*
X190837996Y-67966305D01*
X190805457Y-68064504D01*
X190765685Y-68121949D01*
X190701169Y-68148772D01*
X190687751Y-68149500D01*
X187086669Y-68149500D01*
X187086653Y-68149499D01*
X187079057Y-68149499D01*
X186920943Y-68149499D01*
X186768215Y-68190423D01*
X186768213Y-68190424D01*
X186741391Y-68205908D01*
X186741392Y-68205909D01*
X186631287Y-68269477D01*
X186631282Y-68269481D01*
X186519478Y-68381286D01*
X185731465Y-69169298D01*
X185670142Y-69202783D01*
X185657668Y-69204837D01*
X185570750Y-69214630D01*
X185400478Y-69274210D01*
X185247737Y-69370184D01*
X185120184Y-69497737D01*
X185024211Y-69650476D01*
X184964631Y-69820745D01*
X184964630Y-69820750D01*
X184944435Y-69999996D01*
X177750500Y-69999996D01*
X177750500Y-59999996D01*
X213694435Y-59999996D01*
X213694435Y-60000003D01*
X213714630Y-60179249D01*
X213714631Y-60179254D01*
X213774211Y-60349523D01*
X213870184Y-60502262D01*
X213913181Y-60545259D01*
X213946666Y-60606582D01*
X213949500Y-60632940D01*
X213949500Y-62427060D01*
X213929815Y-62494099D01*
X213913181Y-62514741D01*
X213870184Y-62557737D01*
X213774211Y-62710476D01*
X213714631Y-62880745D01*
X213714630Y-62880750D01*
X213694435Y-63059996D01*
X213694435Y-63060003D01*
X213714630Y-63239249D01*
X213714631Y-63239254D01*
X213774211Y-63409523D01*
X213819324Y-63481319D01*
X213870184Y-63562262D01*
X213997738Y-63689816D01*
X214048419Y-63721661D01*
X214132051Y-63774211D01*
X214150478Y-63785789D01*
X214165662Y-63791102D01*
X214320745Y-63845368D01*
X214320750Y-63845369D01*
X214499996Y-63865565D01*
X214500000Y-63865565D01*
X214500004Y-63865565D01*
X214679249Y-63845369D01*
X214679252Y-63845368D01*
X214679255Y-63845368D01*
X214849522Y-63785789D01*
X215002262Y-63689816D01*
X215129816Y-63562262D01*
X215225789Y-63409522D01*
X215285368Y-63239255D01*
X215289780Y-63200098D01*
X215305565Y-63060003D01*
X215305565Y-63059996D01*
X215285369Y-62880750D01*
X215285368Y-62880745D01*
X215256462Y-62798137D01*
X215225789Y-62710478D01*
X215220542Y-62702128D01*
X215169446Y-62620809D01*
X215129816Y-62557738D01*
X215086819Y-62514741D01*
X215053334Y-62453418D01*
X215050500Y-62427060D01*
X215050500Y-60632940D01*
X215070185Y-60565901D01*
X215086819Y-60545259D01*
X215129816Y-60502262D01*
X215225789Y-60349522D01*
X215285368Y-60179255D01*
X215291789Y-60122265D01*
X215305565Y-60000003D01*
X215305565Y-59999996D01*
X215285369Y-59820750D01*
X215285368Y-59820745D01*
X215259714Y-59747431D01*
X215225789Y-59650478D01*
X215219086Y-59639811D01*
X215154914Y-59537681D01*
X215129816Y-59497738D01*
X215002262Y-59370184D01*
X214941364Y-59331919D01*
X214849523Y-59274211D01*
X214679254Y-59214631D01*
X214679249Y-59214630D01*
X214500004Y-59194435D01*
X214499996Y-59194435D01*
X214320750Y-59214630D01*
X214320745Y-59214631D01*
X214150476Y-59274211D01*
X213997737Y-59370184D01*
X213870184Y-59497737D01*
X213774211Y-59650476D01*
X213714631Y-59820745D01*
X213714630Y-59820750D01*
X213694435Y-59999996D01*
X177750500Y-59999996D01*
X177750500Y-57624500D01*
X177770185Y-57557461D01*
X177822989Y-57511706D01*
X177874500Y-57500500D01*
X188826000Y-57500500D01*
X188893039Y-57520185D01*
G37*
%TD.AperFunction*%
%TA.AperFunction,Conductor*%
G36*
X191760459Y-86620579D02*
G01*
X191816392Y-86662451D01*
X191837901Y-86711436D01*
X191837997Y-86711409D01*
X191838195Y-86712106D01*
X191839012Y-86713966D01*
X191839563Y-86716914D01*
X191839564Y-86716920D01*
X191839565Y-86716923D01*
X191877042Y-86848640D01*
X191899184Y-86926462D01*
X191960948Y-87050500D01*
X191996288Y-87121472D01*
X192127573Y-87295322D01*
X192288568Y-87442088D01*
X192288575Y-87442092D01*
X192288576Y-87442093D01*
X192473786Y-87556770D01*
X192473792Y-87556773D01*
X192490062Y-87563076D01*
X192676931Y-87635470D01*
X192891074Y-87675500D01*
X192891076Y-87675500D01*
X193108924Y-87675500D01*
X193108926Y-87675500D01*
X193323069Y-87635470D01*
X193526210Y-87556772D01*
X193711432Y-87442088D01*
X193872427Y-87295322D01*
X194003712Y-87121472D01*
X194004827Y-87119231D01*
X194005647Y-87118347D01*
X194006729Y-87116600D01*
X194007070Y-87116811D01*
X194052328Y-87067994D01*
X194115829Y-87050500D01*
X194220613Y-87050500D01*
X194287652Y-87070185D01*
X194308294Y-87086819D01*
X194413181Y-87191706D01*
X194446666Y-87253029D01*
X194449500Y-87279387D01*
X194449500Y-89720612D01*
X194429815Y-89787651D01*
X194413181Y-89808293D01*
X192208292Y-92013181D01*
X192146969Y-92046666D01*
X192120611Y-92049500D01*
X191701662Y-92049500D01*
X191701644Y-92049501D01*
X191602292Y-92059650D01*
X191602289Y-92059651D01*
X191441305Y-92112996D01*
X191441294Y-92113001D01*
X191296959Y-92202029D01*
X191296955Y-92202032D01*
X191177032Y-92321955D01*
X191177029Y-92321959D01*
X191088001Y-92466294D01*
X191087996Y-92466305D01*
X191034651Y-92627290D01*
X191024500Y-92726647D01*
X191024500Y-93273337D01*
X191024501Y-93273355D01*
X191034650Y-93372707D01*
X191034651Y-93372710D01*
X191087996Y-93533694D01*
X191088001Y-93533705D01*
X191177029Y-93678040D01*
X191177032Y-93678044D01*
X191186307Y-93687319D01*
X191219792Y-93748642D01*
X191214808Y-93818334D01*
X191186307Y-93862681D01*
X191177032Y-93871955D01*
X191177029Y-93871959D01*
X191088001Y-94016294D01*
X191087996Y-94016305D01*
X191034651Y-94177290D01*
X191024500Y-94276647D01*
X191024500Y-94823337D01*
X191024501Y-94823355D01*
X191034650Y-94922707D01*
X191034651Y-94922710D01*
X191076329Y-95048484D01*
X191078731Y-95118312D01*
X191046304Y-95175169D01*
X190837680Y-95383794D01*
X190776357Y-95417279D01*
X190706666Y-95412295D01*
X190662318Y-95383794D01*
X190453695Y-95175170D01*
X190420210Y-95113847D01*
X190423669Y-95048488D01*
X190465349Y-94922708D01*
X190475500Y-94823345D01*
X190475499Y-94276656D01*
X190465349Y-94177292D01*
X190412003Y-94016303D01*
X190411999Y-94016297D01*
X190411998Y-94016294D01*
X190322970Y-93871959D01*
X190322967Y-93871955D01*
X190313693Y-93862681D01*
X190280208Y-93801358D01*
X190285192Y-93731666D01*
X190313693Y-93687319D01*
X190322968Y-93678044D01*
X190412003Y-93533697D01*
X190465349Y-93372708D01*
X190475500Y-93273345D01*
X190475499Y-92726656D01*
X190465349Y-92627292D01*
X190412003Y-92466303D01*
X190411999Y-92466297D01*
X190411998Y-92466294D01*
X190322970Y-92321959D01*
X190322969Y-92321958D01*
X190322968Y-92321956D01*
X190227448Y-92226436D01*
X190193964Y-92165112D01*
X190198948Y-92095421D01*
X190227447Y-92051077D01*
X191440510Y-90838015D01*
X191512984Y-90712485D01*
X191513613Y-90710140D01*
X191513832Y-90709321D01*
X191513832Y-90709319D01*
X191513834Y-90709313D01*
X191550500Y-90572475D01*
X191550500Y-86779386D01*
X191570185Y-86712347D01*
X191586815Y-86691709D01*
X191629445Y-86649079D01*
X191690767Y-86615595D01*
X191760459Y-86620579D01*
G37*
%TD.AperFunction*%
%TA.AperFunction,Conductor*%
G36*
X211201472Y-77570185D02*
G01*
X211247227Y-77622989D01*
X211257171Y-77692147D01*
X211251474Y-77715455D01*
X211214633Y-77820737D01*
X211214630Y-77820750D01*
X211194435Y-77999996D01*
X211194435Y-78000003D01*
X211214630Y-78179249D01*
X211214631Y-78179254D01*
X211274211Y-78349523D01*
X211335974Y-78447817D01*
X211370184Y-78502262D01*
X211497738Y-78629816D01*
X211538932Y-78655700D01*
X211649056Y-78724896D01*
X211650478Y-78725789D01*
X211776443Y-78769866D01*
X211820745Y-78785368D01*
X211820750Y-78785369D01*
X211999996Y-78805565D01*
X212000000Y-78805565D01*
X212000004Y-78805565D01*
X212179249Y-78785369D01*
X212179252Y-78785368D01*
X212179255Y-78785368D01*
X212349522Y-78725789D01*
X212502262Y-78629816D01*
X212629816Y-78502262D01*
X212725789Y-78349522D01*
X212757958Y-78257587D01*
X212798680Y-78200812D01*
X212863633Y-78175065D01*
X212932194Y-78188521D01*
X212982597Y-78236908D01*
X212992042Y-78257588D01*
X213024211Y-78349523D01*
X213085974Y-78447817D01*
X213120184Y-78502262D01*
X213247738Y-78629816D01*
X213277439Y-78648478D01*
X213323730Y-78700813D01*
X213334378Y-78769866D01*
X213330543Y-78788067D01*
X213302402Y-78884926D01*
X213302401Y-78884932D01*
X213299500Y-78921798D01*
X213299500Y-80088000D01*
X213279815Y-80155039D01*
X213227011Y-80200794D01*
X213175500Y-80212000D01*
X212934298Y-80212000D01*
X212897432Y-80214901D01*
X212897426Y-80214902D01*
X212739606Y-80260754D01*
X212739599Y-80260757D01*
X212592698Y-80347633D01*
X212524974Y-80364816D01*
X212463606Y-80345895D01*
X212407240Y-80310478D01*
X212349522Y-80274211D01*
X212311070Y-80260756D01*
X212179254Y-80214631D01*
X212179249Y-80214630D01*
X212000004Y-80194435D01*
X211999996Y-80194435D01*
X211820750Y-80214630D01*
X211820745Y-80214631D01*
X211650476Y-80274211D01*
X211497737Y-80370184D01*
X211370184Y-80497737D01*
X211274211Y-80650476D01*
X211214631Y-80820745D01*
X211214630Y-80820750D01*
X211194435Y-80999996D01*
X211194435Y-81000003D01*
X211214630Y-81179249D01*
X211214631Y-81179254D01*
X211274211Y-81349523D01*
X211333089Y-81443226D01*
X211370184Y-81502262D01*
X211497738Y-81629816D01*
X211505532Y-81634713D01*
X211632721Y-81714632D01*
X211650478Y-81725789D01*
X211788860Y-81774211D01*
X211820745Y-81785368D01*
X211820750Y-81785369D01*
X211999996Y-81805565D01*
X212000000Y-81805565D01*
X212000004Y-81805565D01*
X212179246Y-81785369D01*
X212179245Y-81785369D01*
X212179255Y-81785368D01*
X212184542Y-81783517D01*
X212254316Y-81779952D01*
X212314945Y-81814676D01*
X212347177Y-81876667D01*
X212349500Y-81900557D01*
X212349500Y-82103201D01*
X212352401Y-82140067D01*
X212352402Y-82140073D01*
X212398254Y-82297893D01*
X212398255Y-82297896D01*
X212481917Y-82439362D01*
X212481923Y-82439370D01*
X212513180Y-82470626D01*
X212546666Y-82531948D01*
X212549500Y-82558308D01*
X212549500Y-83863330D01*
X212549499Y-83863348D01*
X212549499Y-84029054D01*
X212549498Y-84029054D01*
X212575577Y-84126381D01*
X212590423Y-84181785D01*
X212605683Y-84208215D01*
X212642639Y-84272226D01*
X212669479Y-84318715D01*
X212788349Y-84437585D01*
X212788355Y-84437590D01*
X212800139Y-84449374D01*
X212800149Y-84449385D01*
X212916285Y-84565521D01*
X212951282Y-84585726D01*
X212987499Y-84606635D01*
X213035715Y-84657202D01*
X213049500Y-84714023D01*
X213049500Y-84733284D01*
X213029815Y-84800323D01*
X212989652Y-84839400D01*
X212939811Y-84869530D01*
X212819530Y-84989811D01*
X212731522Y-85135393D01*
X212680913Y-85297807D01*
X212676798Y-85343093D01*
X212674500Y-85368384D01*
X212674500Y-85881616D01*
X212676056Y-85898740D01*
X212680913Y-85952192D01*
X212680913Y-85952194D01*
X212680914Y-85952196D01*
X212731522Y-86114606D01*
X212768143Y-86175185D01*
X212819530Y-86260188D01*
X212921661Y-86362319D01*
X212955146Y-86423642D01*
X212950162Y-86493334D01*
X212921661Y-86537681D01*
X212819531Y-86639810D01*
X212819530Y-86639811D01*
X212731522Y-86785393D01*
X212680913Y-86947807D01*
X212674500Y-87018386D01*
X212674500Y-87531613D01*
X212680913Y-87602192D01*
X212680913Y-87602194D01*
X212680914Y-87602196D01*
X212731522Y-87764606D01*
X212808113Y-87891303D01*
X212819530Y-87910188D01*
X212939811Y-88030469D01*
X212939813Y-88030470D01*
X212939815Y-88030472D01*
X213085394Y-88118478D01*
X213085395Y-88118478D01*
X213086892Y-88119383D01*
X213134080Y-88170911D01*
X213145918Y-88239771D01*
X213118649Y-88304099D01*
X213060930Y-88343473D01*
X213022742Y-88349500D01*
X212450098Y-88349500D01*
X212383059Y-88329815D01*
X212362417Y-88313181D01*
X212035002Y-87985766D01*
X212001517Y-87924443D01*
X212006501Y-87854751D01*
X212016564Y-87833938D01*
X212058478Y-87764606D01*
X212109086Y-87602196D01*
X212115500Y-87531616D01*
X212115500Y-87018384D01*
X212109086Y-86947804D01*
X212058478Y-86785394D01*
X211970472Y-86639815D01*
X211970470Y-86639813D01*
X211970469Y-86639811D01*
X211868339Y-86537681D01*
X211834854Y-86476358D01*
X211839838Y-86406666D01*
X211868339Y-86362319D01*
X211970468Y-86260189D01*
X211970469Y-86260188D01*
X211970472Y-86260185D01*
X212058478Y-86114606D01*
X212109086Y-85952196D01*
X212115500Y-85881616D01*
X212115500Y-85368384D01*
X212109086Y-85297804D01*
X212058478Y-85135394D01*
X211970472Y-84989815D01*
X211970470Y-84989813D01*
X211970469Y-84989811D01*
X211850188Y-84869530D01*
X211800348Y-84839400D01*
X211753162Y-84787871D01*
X211740500Y-84733284D01*
X211740500Y-84360945D01*
X211740500Y-84360943D01*
X211699577Y-84208216D01*
X211681996Y-84177764D01*
X211620524Y-84071290D01*
X211620521Y-84071286D01*
X211620520Y-84071284D01*
X211508716Y-83959480D01*
X211508715Y-83959479D01*
X211504385Y-83955149D01*
X211504374Y-83955139D01*
X210980700Y-83431465D01*
X210947215Y-83370142D01*
X210945163Y-83357686D01*
X210935368Y-83270745D01*
X210875789Y-83100478D01*
X210779816Y-82947738D01*
X210779815Y-82947737D01*
X210777555Y-82944903D01*
X210776665Y-82942724D01*
X210776111Y-82941842D01*
X210776265Y-82941744D01*
X210751146Y-82880216D01*
X210750501Y-82867589D01*
X210750501Y-82758444D01*
X210739374Y-82716918D01*
X210709577Y-82605716D01*
X210667672Y-82533134D01*
X210630524Y-82468790D01*
X210630518Y-82468782D01*
X209536819Y-81375083D01*
X209503334Y-81313760D01*
X209500500Y-81287402D01*
X209500500Y-80874500D01*
X209520185Y-80807461D01*
X209572989Y-80761706D01*
X209624500Y-80750500D01*
X209865686Y-80750500D01*
X209865694Y-80750500D01*
X209902569Y-80747598D01*
X209902571Y-80747597D01*
X209902573Y-80747597D01*
X209944191Y-80735505D01*
X210060398Y-80701744D01*
X210201865Y-80618081D01*
X210318081Y-80501865D01*
X210401744Y-80360398D01*
X210447598Y-80202569D01*
X210450500Y-80165694D01*
X210450500Y-78859306D01*
X210447598Y-78822431D01*
X210447108Y-78820745D01*
X210401745Y-78664606D01*
X210401744Y-78664603D01*
X210401744Y-78664602D01*
X210318081Y-78523135D01*
X210318080Y-78523134D01*
X210316422Y-78520330D01*
X210299239Y-78452606D01*
X210318161Y-78391236D01*
X210375788Y-78299524D01*
X210390462Y-78257588D01*
X210435368Y-78129255D01*
X210436612Y-78118215D01*
X210455565Y-77950003D01*
X210455565Y-77949996D01*
X210435369Y-77770750D01*
X210435366Y-77770737D01*
X210416022Y-77715455D01*
X210412460Y-77645676D01*
X210447188Y-77585049D01*
X210509182Y-77552821D01*
X210533063Y-77550500D01*
X211134433Y-77550500D01*
X211201472Y-77570185D01*
G37*
%TD.AperFunction*%
%TA.AperFunction,Conductor*%
G36*
X221455703Y-72859763D02*
G01*
X221479493Y-72887503D01*
X221520184Y-72952262D01*
X221647738Y-73079816D01*
X221727317Y-73129819D01*
X221798426Y-73174500D01*
X221800478Y-73175789D01*
X221943370Y-73225789D01*
X221970745Y-73235368D01*
X221970750Y-73235369D01*
X222149996Y-73255565D01*
X222150000Y-73255565D01*
X222150004Y-73255565D01*
X222329249Y-73235369D01*
X222329252Y-73235368D01*
X222329255Y-73235368D01*
X222499522Y-73175789D01*
X222652262Y-73079816D01*
X222652267Y-73079810D01*
X222655097Y-73077555D01*
X222657275Y-73076665D01*
X222658158Y-73076111D01*
X222658255Y-73076265D01*
X222719783Y-73051145D01*
X222732412Y-73050500D01*
X223180500Y-73050500D01*
X223247539Y-73070185D01*
X223293294Y-73122989D01*
X223304500Y-73174500D01*
X223304500Y-74863330D01*
X223304499Y-74863348D01*
X223304499Y-75039046D01*
X223304500Y-75039059D01*
X223304500Y-75126149D01*
X223284815Y-75193188D01*
X223232011Y-75238943D01*
X223215099Y-75245224D01*
X223188110Y-75253065D01*
X223188103Y-75253068D01*
X223047182Y-75336408D01*
X223047174Y-75336414D01*
X222931414Y-75452174D01*
X222931408Y-75452182D01*
X222848068Y-75593104D01*
X222848066Y-75593107D01*
X222802391Y-75750320D01*
X222802390Y-75750326D01*
X222799500Y-75787052D01*
X222799500Y-76212947D01*
X222802390Y-76249673D01*
X222802391Y-76249679D01*
X222848066Y-76406892D01*
X222848068Y-76406895D01*
X222931408Y-76547817D01*
X222931414Y-76547825D01*
X223047174Y-76663585D01*
X223047178Y-76663588D01*
X223047180Y-76663590D01*
X223188103Y-76746931D01*
X223188104Y-76746931D01*
X223188107Y-76746933D01*
X223345320Y-76792608D01*
X223345323Y-76792608D01*
X223345325Y-76792609D01*
X223382060Y-76795500D01*
X223382068Y-76795500D01*
X224427932Y-76795500D01*
X224427940Y-76795500D01*
X224464675Y-76792609D01*
X224464677Y-76792608D01*
X224464679Y-76792608D01*
X224621892Y-76746933D01*
X224621893Y-76746932D01*
X224621897Y-76746931D01*
X224762820Y-76663590D01*
X224878590Y-76547820D01*
X224961931Y-76406897D01*
X224961932Y-76406893D01*
X224961933Y-76406892D01*
X225007608Y-76249679D01*
X225007609Y-76249673D01*
X225010499Y-76212947D01*
X225010500Y-76212940D01*
X225010500Y-75931947D01*
X225030185Y-75864908D01*
X225082989Y-75819153D01*
X225152147Y-75809209D01*
X225173496Y-75814239D01*
X225252292Y-75840349D01*
X225351655Y-75850500D01*
X225948344Y-75850499D01*
X225948352Y-75850498D01*
X225948355Y-75850498D01*
X226002760Y-75844940D01*
X226047708Y-75840349D01*
X226208697Y-75787003D01*
X226353044Y-75697968D01*
X226472968Y-75578044D01*
X226502712Y-75529822D01*
X226519962Y-75501856D01*
X226571910Y-75455131D01*
X226640872Y-75443910D01*
X226704954Y-75471753D01*
X226743810Y-75529822D01*
X226749500Y-75566953D01*
X226749500Y-78008046D01*
X226729815Y-78075085D01*
X226677011Y-78120840D01*
X226607853Y-78130784D01*
X226544297Y-78101759D01*
X226519962Y-78073144D01*
X226472968Y-77996956D01*
X226353044Y-77877032D01*
X226353040Y-77877029D01*
X226208705Y-77788001D01*
X226208699Y-77787998D01*
X226208697Y-77787997D01*
X226156649Y-77770750D01*
X226047709Y-77734651D01*
X225948352Y-77724500D01*
X225948345Y-77724500D01*
X225600098Y-77724500D01*
X225533059Y-77704815D01*
X225512421Y-77688185D01*
X225362584Y-77538349D01*
X225362580Y-77538344D01*
X225243717Y-77419481D01*
X225243716Y-77419480D01*
X225156904Y-77369360D01*
X225156904Y-77369359D01*
X225156900Y-77369358D01*
X225106785Y-77340423D01*
X224954057Y-77299499D01*
X224954054Y-77299499D01*
X224877272Y-77299499D01*
X224810233Y-77279814D01*
X224789591Y-77263180D01*
X224762825Y-77236414D01*
X224762817Y-77236408D01*
X224621895Y-77153068D01*
X224621892Y-77153066D01*
X224464679Y-77107391D01*
X224464673Y-77107390D01*
X224427947Y-77104500D01*
X224427940Y-77104500D01*
X223382060Y-77104500D01*
X223382052Y-77104500D01*
X223345326Y-77107390D01*
X223345320Y-77107391D01*
X223188107Y-77153066D01*
X223188104Y-77153068D01*
X223047182Y-77236408D01*
X223047174Y-77236414D01*
X222931414Y-77352174D01*
X222931408Y-77352182D01*
X222848068Y-77493104D01*
X222848066Y-77493107D01*
X222802391Y-77650320D01*
X222802390Y-77650326D01*
X222799500Y-77687052D01*
X222799500Y-78112947D01*
X222802390Y-78149673D01*
X222802391Y-78149679D01*
X222848066Y-78306892D01*
X222848068Y-78306895D01*
X222931408Y-78447817D01*
X222931414Y-78447825D01*
X223047174Y-78563585D01*
X223047178Y-78563588D01*
X223047180Y-78563590D01*
X223188103Y-78646931D01*
X223188104Y-78646931D01*
X223188107Y-78646933D01*
X223345320Y-78692608D01*
X223345323Y-78692608D01*
X223345325Y-78692609D01*
X223382060Y-78695500D01*
X223382068Y-78695500D01*
X224427932Y-78695500D01*
X224427940Y-78695500D01*
X224464675Y-78692609D01*
X224515905Y-78677725D01*
X224585773Y-78677924D01*
X224644444Y-78715865D01*
X224673288Y-78779503D01*
X224674500Y-78796800D01*
X224674500Y-78948336D01*
X224674501Y-78948355D01*
X224684650Y-79047707D01*
X224684651Y-79047710D01*
X224737996Y-79208694D01*
X224738001Y-79208705D01*
X224827029Y-79353040D01*
X224827032Y-79353044D01*
X224946955Y-79472967D01*
X224946959Y-79472970D01*
X225091294Y-79561998D01*
X225091297Y-79561999D01*
X225091303Y-79562003D01*
X225252292Y-79615349D01*
X225351655Y-79625500D01*
X225948344Y-79625499D01*
X225948352Y-79625498D01*
X225948355Y-79625498D01*
X226002760Y-79619940D01*
X226047708Y-79615349D01*
X226208697Y-79562003D01*
X226353044Y-79472968D01*
X226472968Y-79353044D01*
X226519962Y-79276856D01*
X226571910Y-79230131D01*
X226640872Y-79218910D01*
X226704954Y-79246753D01*
X226743810Y-79304822D01*
X226749500Y-79341953D01*
X226749500Y-80768060D01*
X226729815Y-80835099D01*
X226677011Y-80880854D01*
X226607853Y-80890798D01*
X226544297Y-80861773D01*
X226537819Y-80855741D01*
X226502262Y-80820184D01*
X226349523Y-80724211D01*
X226179254Y-80664631D01*
X226179249Y-80664630D01*
X226000004Y-80644435D01*
X225999996Y-80644435D01*
X225820750Y-80664630D01*
X225820745Y-80664631D01*
X225650476Y-80724211D01*
X225497737Y-80820184D01*
X225409741Y-80908181D01*
X225348418Y-80941666D01*
X225322060Y-80944500D01*
X224031764Y-80944500D01*
X223964725Y-80924815D01*
X223951906Y-80914485D01*
X223951898Y-80914497D01*
X223945452Y-80909551D01*
X223945451Y-80909549D01*
X223825233Y-80817302D01*
X223825229Y-80817300D01*
X223761801Y-80791027D01*
X223685236Y-80759313D01*
X223671171Y-80757461D01*
X223572727Y-80744500D01*
X223572720Y-80744500D01*
X221677280Y-80744500D01*
X221677272Y-80744500D01*
X221564764Y-80759313D01*
X221564763Y-80759313D01*
X221424770Y-80817300D01*
X221424767Y-80817301D01*
X221424767Y-80817302D01*
X221304549Y-80909549D01*
X221233042Y-81002739D01*
X221212300Y-81029770D01*
X221154944Y-81168240D01*
X221154313Y-81169764D01*
X221152966Y-81180000D01*
X221151559Y-81190685D01*
X221123293Y-81254581D01*
X221064969Y-81293053D01*
X221028620Y-81298500D01*
X219271380Y-81298500D01*
X219204341Y-81278815D01*
X219158586Y-81226011D01*
X219148441Y-81190685D01*
X219145687Y-81169764D01*
X219105277Y-81072208D01*
X219097809Y-81002739D01*
X219129084Y-80940260D01*
X219132130Y-80937103D01*
X220079697Y-79989536D01*
X220141018Y-79956053D01*
X220210710Y-79961037D01*
X220229376Y-79969832D01*
X220248096Y-79980640D01*
X220248097Y-79980641D01*
X220269741Y-79993137D01*
X220298215Y-80009577D01*
X220450943Y-80050500D01*
X220450951Y-80050500D01*
X220459003Y-80051561D01*
X220458600Y-80054618D01*
X220511614Y-80070185D01*
X220550113Y-80109402D01*
X220577031Y-80153043D01*
X220696955Y-80272967D01*
X220696959Y-80272970D01*
X220841294Y-80361998D01*
X220841297Y-80361999D01*
X220841303Y-80362003D01*
X221002292Y-80415349D01*
X221101655Y-80425500D01*
X221648344Y-80425499D01*
X221648352Y-80425498D01*
X221648355Y-80425498D01*
X221702760Y-80419940D01*
X221747708Y-80415349D01*
X221908697Y-80362003D01*
X222053044Y-80272968D01*
X222172968Y-80153044D01*
X222262003Y-80008697D01*
X222315349Y-79847708D01*
X222325500Y-79748345D01*
X222325499Y-79151656D01*
X222315349Y-79052292D01*
X222262003Y-78891303D01*
X222177758Y-78754722D01*
X222159318Y-78687333D01*
X222180240Y-78620669D01*
X222220178Y-78582894D01*
X222252820Y-78563590D01*
X222368590Y-78447820D01*
X222451931Y-78306897D01*
X222451932Y-78306893D01*
X222451933Y-78306892D01*
X222497608Y-78149679D01*
X222497609Y-78149673D01*
X222498268Y-78141303D01*
X222500500Y-78112940D01*
X222500500Y-77687060D01*
X222497609Y-77650325D01*
X222497608Y-77650320D01*
X222451933Y-77493107D01*
X222451931Y-77493104D01*
X222451931Y-77493103D01*
X222368590Y-77352180D01*
X222368588Y-77352178D01*
X222368585Y-77352174D01*
X222252825Y-77236414D01*
X222252817Y-77236408D01*
X222111895Y-77153068D01*
X222111892Y-77153066D01*
X221954679Y-77107391D01*
X221954673Y-77107390D01*
X221917947Y-77104500D01*
X221917940Y-77104500D01*
X221144098Y-77104500D01*
X221077059Y-77084815D01*
X221031304Y-77032011D01*
X221021360Y-76962853D01*
X221050385Y-76899297D01*
X221056417Y-76892819D01*
X221117417Y-76831819D01*
X221178740Y-76798334D01*
X221205098Y-76795500D01*
X221917932Y-76795500D01*
X221917940Y-76795500D01*
X221954675Y-76792609D01*
X221954677Y-76792608D01*
X221954679Y-76792608D01*
X222111892Y-76746933D01*
X222111893Y-76746932D01*
X222111897Y-76746931D01*
X222252820Y-76663590D01*
X222368590Y-76547820D01*
X222451931Y-76406897D01*
X222451932Y-76406893D01*
X222451933Y-76406892D01*
X222497608Y-76249679D01*
X222497609Y-76249673D01*
X222500499Y-76212947D01*
X222500500Y-76212940D01*
X222500500Y-75787060D01*
X222497609Y-75750325D01*
X222497058Y-75748427D01*
X222451933Y-75593107D01*
X222451931Y-75593104D01*
X222451931Y-75593103D01*
X222368590Y-75452180D01*
X222368588Y-75452178D01*
X222368585Y-75452174D01*
X222252825Y-75336414D01*
X222252817Y-75336408D01*
X222141786Y-75270745D01*
X222111897Y-75253069D01*
X222111896Y-75253068D01*
X222111895Y-75253068D01*
X222111892Y-75253066D01*
X221954679Y-75207391D01*
X221954673Y-75207390D01*
X221917947Y-75204500D01*
X221917940Y-75204500D01*
X220872060Y-75204500D01*
X220872052Y-75204500D01*
X220835326Y-75207390D01*
X220835320Y-75207391D01*
X220678107Y-75253066D01*
X220678104Y-75253068D01*
X220537182Y-75336408D01*
X220537174Y-75336414D01*
X220421414Y-75452174D01*
X220421408Y-75452182D01*
X220338068Y-75593104D01*
X220338066Y-75593107D01*
X220292391Y-75750320D01*
X220292390Y-75750326D01*
X220289500Y-75787052D01*
X220289500Y-75909902D01*
X220269815Y-75976941D01*
X220253181Y-75997583D01*
X219169481Y-77081282D01*
X219169480Y-77081284D01*
X219133020Y-77144435D01*
X219090423Y-77218215D01*
X219049499Y-77370943D01*
X219049499Y-77370945D01*
X219047396Y-77378794D01*
X219044991Y-77378149D01*
X219021778Y-77430599D01*
X218963446Y-77469060D01*
X218927120Y-77474500D01*
X218651663Y-77474500D01*
X218651644Y-77474501D01*
X218552292Y-77484650D01*
X218552289Y-77484651D01*
X218391305Y-77537996D01*
X218391294Y-77538001D01*
X218246959Y-77627029D01*
X218246955Y-77627032D01*
X218127032Y-77746955D01*
X218127029Y-77746959D01*
X218038001Y-77891294D01*
X218037996Y-77891305D01*
X217984651Y-78052290D01*
X217974500Y-78151647D01*
X217974500Y-78748337D01*
X217974501Y-78748355D01*
X217984650Y-78847707D01*
X217984651Y-78847710D01*
X218037996Y-79008694D01*
X218038001Y-79008705D01*
X218127029Y-79153040D01*
X218127032Y-79153044D01*
X218246955Y-79272967D01*
X218246959Y-79272970D01*
X218391294Y-79361998D01*
X218391297Y-79361999D01*
X218391303Y-79362003D01*
X218552292Y-79415349D01*
X218651655Y-79425500D01*
X218651669Y-79425499D01*
X218652326Y-79425534D01*
X218652466Y-79425582D01*
X218654796Y-79425821D01*
X218654739Y-79426377D01*
X218718279Y-79448599D01*
X218761292Y-79503660D01*
X218767709Y-79573234D01*
X218735492Y-79635233D01*
X218733707Y-79637055D01*
X217789302Y-80581460D01*
X217727979Y-80614945D01*
X217658287Y-80609961D01*
X217602354Y-80568089D01*
X217578400Y-80507662D01*
X217575368Y-80480745D01*
X217515789Y-80310478D01*
X217419816Y-80157738D01*
X217292262Y-80030184D01*
X217259463Y-80009575D01*
X217139523Y-79934211D01*
X216969254Y-79874631D01*
X216969249Y-79874630D01*
X216790004Y-79854435D01*
X216789996Y-79854435D01*
X216610750Y-79874630D01*
X216610745Y-79874631D01*
X216440476Y-79934211D01*
X216287737Y-80030184D01*
X216160184Y-80157737D01*
X216064211Y-80310476D01*
X216004631Y-80480745D01*
X216004630Y-80480750D01*
X215984435Y-80659996D01*
X215984435Y-80660003D01*
X216004630Y-80839249D01*
X216004631Y-80839254D01*
X216064211Y-81009523D01*
X216160184Y-81162262D01*
X216164525Y-81167705D01*
X216162505Y-81169315D01*
X216190297Y-81220213D01*
X216192070Y-81262754D01*
X216189500Y-81282277D01*
X216189500Y-81807727D01*
X216204313Y-81920235D01*
X216204313Y-81920236D01*
X216255183Y-82043047D01*
X216262652Y-82112517D01*
X216231377Y-82174996D01*
X216171288Y-82210648D01*
X216140622Y-82214500D01*
X214342839Y-82214500D01*
X214301884Y-82207541D01*
X214179262Y-82164633D01*
X214179250Y-82164630D01*
X214060616Y-82151264D01*
X213996202Y-82124197D01*
X213956647Y-82066603D01*
X213950500Y-82028044D01*
X213950500Y-80937000D01*
X213970185Y-80869961D01*
X214022989Y-80824206D01*
X214074500Y-80813000D01*
X214315686Y-80813000D01*
X214315694Y-80813000D01*
X214352569Y-80810098D01*
X214352571Y-80810097D01*
X214352573Y-80810097D01*
X214395701Y-80797567D01*
X214510398Y-80764244D01*
X214651865Y-80680581D01*
X214768081Y-80564365D01*
X214851744Y-80422898D01*
X214895303Y-80272968D01*
X214897597Y-80265073D01*
X214897598Y-80265067D01*
X214897937Y-80260756D01*
X214900500Y-80228194D01*
X214900500Y-78921806D01*
X214897598Y-78884931D01*
X214890155Y-78859313D01*
X214851745Y-78727106D01*
X214851744Y-78727103D01*
X214851744Y-78727102D01*
X214768081Y-78585635D01*
X214768079Y-78585633D01*
X214768076Y-78585629D01*
X214736819Y-78554372D01*
X214703334Y-78493049D01*
X214700500Y-78466691D01*
X214700500Y-78439060D01*
X214700501Y-78439047D01*
X214700501Y-78270944D01*
X214691381Y-78236908D01*
X214659577Y-78118216D01*
X214617112Y-78044663D01*
X214600500Y-77982664D01*
X214600500Y-77920945D01*
X214600500Y-77920943D01*
X214559577Y-77768216D01*
X214541266Y-77736500D01*
X214524793Y-77668599D01*
X214547646Y-77602573D01*
X214602567Y-77559382D01*
X214648653Y-77550500D01*
X217563331Y-77550500D01*
X217563347Y-77550501D01*
X217570943Y-77550501D01*
X217729054Y-77550501D01*
X217729057Y-77550501D01*
X217881785Y-77509577D01*
X217942538Y-77474501D01*
X218018716Y-77430520D01*
X218130520Y-77318716D01*
X218130520Y-77318714D01*
X218140724Y-77308511D01*
X218140727Y-77308506D01*
X221130520Y-74318716D01*
X221209577Y-74181784D01*
X221250501Y-74029057D01*
X221250501Y-73870942D01*
X221250501Y-73863347D01*
X221250500Y-73863329D01*
X221250500Y-72953476D01*
X221270185Y-72886437D01*
X221322989Y-72840682D01*
X221392147Y-72830738D01*
X221455703Y-72859763D01*
G37*
%TD.AperFunction*%
%TA.AperFunction,Conductor*%
G36*
X219484925Y-72040168D02*
G01*
X219534331Y-72089573D01*
X219549500Y-72149001D01*
X219549500Y-73584216D01*
X219529815Y-73651255D01*
X219513181Y-73671897D01*
X218458341Y-74726736D01*
X218397018Y-74760221D01*
X218327326Y-74755237D01*
X218271393Y-74713365D01*
X218253618Y-74680009D01*
X218236054Y-74629815D01*
X218225789Y-74600478D01*
X218199850Y-74559196D01*
X218180849Y-74491959D01*
X218201216Y-74425124D01*
X218238870Y-74388230D01*
X218252262Y-74379816D01*
X218379816Y-74252262D01*
X218475789Y-74099522D01*
X218535368Y-73929255D01*
X218535369Y-73929249D01*
X218555565Y-73750003D01*
X218555565Y-73749996D01*
X218535369Y-73570750D01*
X218535368Y-73570745D01*
X218518650Y-73522967D01*
X218475789Y-73400478D01*
X218475519Y-73400049D01*
X218436582Y-73338080D01*
X218379816Y-73247738D01*
X218308461Y-73176383D01*
X218274976Y-73115060D01*
X218279959Y-73045370D01*
X218294091Y-73007483D01*
X218300500Y-72947873D01*
X218300499Y-72274498D01*
X218320183Y-72207460D01*
X218372987Y-72161705D01*
X218424499Y-72150499D01*
X219097871Y-72150499D01*
X219097872Y-72150499D01*
X219157483Y-72144091D01*
X219292331Y-72093796D01*
X219351189Y-72049734D01*
X219416652Y-72025317D01*
X219484925Y-72040168D01*
G37*
%TD.AperFunction*%
%TA.AperFunction,Conductor*%
G36*
X226692539Y-57719685D02*
G01*
X226738294Y-57772489D01*
X226749500Y-57824000D01*
X226749500Y-67558046D01*
X226729815Y-67625085D01*
X226677011Y-67670840D01*
X226607853Y-67680784D01*
X226544297Y-67651759D01*
X226519962Y-67623144D01*
X226472968Y-67546956D01*
X226353044Y-67427032D01*
X226353040Y-67427029D01*
X226208705Y-67338001D01*
X226208699Y-67337998D01*
X226208697Y-67337997D01*
X226208694Y-67337996D01*
X226047709Y-67284651D01*
X225948346Y-67274500D01*
X225351662Y-67274500D01*
X225351644Y-67274501D01*
X225252292Y-67284650D01*
X225252289Y-67284651D01*
X225091305Y-67337996D01*
X225091294Y-67338001D01*
X224946959Y-67427029D01*
X224827031Y-67546956D01*
X224801745Y-67587949D01*
X224749795Y-67634672D01*
X224728304Y-67642622D01*
X224643219Y-67665421D01*
X224643212Y-67665424D01*
X224506287Y-67744477D01*
X224506282Y-67744481D01*
X224317037Y-67933726D01*
X224255714Y-67967211D01*
X224186022Y-67962227D01*
X224130089Y-67920355D01*
X224105998Y-67858646D01*
X224105349Y-67852292D01*
X224052003Y-67691303D01*
X224051999Y-67691297D01*
X224051998Y-67691294D01*
X223962970Y-67546959D01*
X223962967Y-67546955D01*
X223843044Y-67427032D01*
X223843040Y-67427029D01*
X223698705Y-67338001D01*
X223698699Y-67337998D01*
X223698697Y-67337997D01*
X223698694Y-67337996D01*
X223537709Y-67284651D01*
X223438346Y-67274500D01*
X222841662Y-67274500D01*
X222841644Y-67274501D01*
X222742292Y-67284650D01*
X222742289Y-67284651D01*
X222581305Y-67337996D01*
X222581294Y-67338001D01*
X222436959Y-67427029D01*
X222436955Y-67427032D01*
X222317032Y-67546955D01*
X222317029Y-67546959D01*
X222228001Y-67691294D01*
X222227996Y-67691305D01*
X222174651Y-67852290D01*
X222164500Y-67951647D01*
X222164500Y-68498337D01*
X222164501Y-68498355D01*
X222174650Y-68597707D01*
X222174651Y-68597710D01*
X222227996Y-68758694D01*
X222228001Y-68758705D01*
X222317029Y-68903040D01*
X222317032Y-68903044D01*
X222436955Y-69022967D01*
X222436959Y-69022970D01*
X222581294Y-69111998D01*
X222581297Y-69111999D01*
X222581303Y-69112003D01*
X222685910Y-69146666D01*
X222742291Y-69165349D01*
X222747172Y-69165847D01*
X222750329Y-69166170D01*
X222815021Y-69192564D01*
X222855174Y-69249743D01*
X222860950Y-69303411D01*
X222844435Y-69449995D01*
X222844435Y-69450003D01*
X222864630Y-69629249D01*
X222864631Y-69629254D01*
X222924211Y-69799523D01*
X223010459Y-69936785D01*
X223020184Y-69952262D01*
X223147738Y-70079816D01*
X223246473Y-70141855D01*
X223292763Y-70194188D01*
X223304500Y-70246848D01*
X223304500Y-71725500D01*
X223284815Y-71792539D01*
X223232011Y-71838294D01*
X223180500Y-71849500D01*
X222732412Y-71849500D01*
X222665373Y-71829815D01*
X222655097Y-71822445D01*
X222652263Y-71820185D01*
X222652262Y-71820184D01*
X222579558Y-71774501D01*
X222499523Y-71724211D01*
X222329254Y-71664631D01*
X222329250Y-71664630D01*
X222158336Y-71645373D01*
X222093922Y-71618306D01*
X222054367Y-71560711D01*
X222049000Y-71508269D01*
X222055565Y-71450002D01*
X222055565Y-71449996D01*
X222035369Y-71270750D01*
X222035368Y-71270745D01*
X222011358Y-71202128D01*
X221975789Y-71100478D01*
X221975487Y-71099998D01*
X221893920Y-70970185D01*
X221879816Y-70947738D01*
X221786818Y-70854740D01*
X221753334Y-70793416D01*
X221750500Y-70767059D01*
X221750500Y-66925097D01*
X221770185Y-66858058D01*
X221786819Y-66837416D01*
X223162416Y-65461819D01*
X223223739Y-65428334D01*
X223250097Y-65425500D01*
X223581613Y-65425500D01*
X223581616Y-65425500D01*
X223652196Y-65419086D01*
X223814606Y-65368478D01*
X223960185Y-65280472D01*
X223988530Y-65252127D01*
X224062319Y-65178339D01*
X224123642Y-65144854D01*
X224193334Y-65149838D01*
X224237681Y-65178339D01*
X224339811Y-65280469D01*
X224339813Y-65280470D01*
X224339815Y-65280472D01*
X224485394Y-65368478D01*
X224647804Y-65419086D01*
X224718384Y-65425500D01*
X224718387Y-65425500D01*
X225231613Y-65425500D01*
X225231616Y-65425500D01*
X225302196Y-65419086D01*
X225464606Y-65368478D01*
X225610185Y-65280472D01*
X225730472Y-65160185D01*
X225818478Y-65014606D01*
X225869086Y-64852196D01*
X225875500Y-64781616D01*
X225875500Y-64118384D01*
X225869086Y-64047804D01*
X225818478Y-63885394D01*
X225730472Y-63739815D01*
X225730470Y-63739813D01*
X225730469Y-63739811D01*
X225611819Y-63621161D01*
X225578334Y-63559838D01*
X225575500Y-63533480D01*
X225575500Y-62620809D01*
X225595185Y-62553770D01*
X225611819Y-62533128D01*
X225693076Y-62451870D01*
X225693081Y-62451865D01*
X225776744Y-62310398D01*
X225822598Y-62152569D01*
X225825500Y-62115694D01*
X225825500Y-61684306D01*
X225822598Y-61647431D01*
X225818018Y-61631668D01*
X225776745Y-61489606D01*
X225776744Y-61489603D01*
X225776744Y-61489602D01*
X225693081Y-61348135D01*
X225693079Y-61348133D01*
X225693076Y-61348129D01*
X225576870Y-61231923D01*
X225576862Y-61231917D01*
X225498681Y-61185681D01*
X225435398Y-61148256D01*
X225435397Y-61148255D01*
X225435396Y-61148255D01*
X225435393Y-61148254D01*
X225277573Y-61102402D01*
X225277567Y-61102401D01*
X225240701Y-61099500D01*
X225240694Y-61099500D01*
X225089650Y-61099500D01*
X225022611Y-61079815D01*
X224976856Y-61027011D01*
X224966912Y-60957853D01*
X224995937Y-60894297D01*
X225001969Y-60887819D01*
X225052969Y-60836819D01*
X225114292Y-60803334D01*
X225140650Y-60800500D01*
X225240686Y-60800500D01*
X225240694Y-60800500D01*
X225277569Y-60797598D01*
X225277571Y-60797597D01*
X225277573Y-60797597D01*
X225331543Y-60781917D01*
X225435398Y-60751744D01*
X225576865Y-60668081D01*
X225693081Y-60551865D01*
X225776744Y-60410398D01*
X225822598Y-60252569D01*
X225825500Y-60215694D01*
X225825500Y-59784306D01*
X225822598Y-59747431D01*
X225776744Y-59589602D01*
X225693081Y-59448135D01*
X225693079Y-59448133D01*
X225693076Y-59448129D01*
X225576870Y-59331923D01*
X225576862Y-59331917D01*
X225435396Y-59248255D01*
X225435393Y-59248254D01*
X225277573Y-59202402D01*
X225277567Y-59202401D01*
X225240701Y-59199500D01*
X225240694Y-59199500D01*
X223934306Y-59199500D01*
X223934298Y-59199500D01*
X223897432Y-59202401D01*
X223897426Y-59202402D01*
X223739606Y-59248254D01*
X223739603Y-59248255D01*
X223598137Y-59331917D01*
X223598129Y-59331923D01*
X223481923Y-59448129D01*
X223481917Y-59448137D01*
X223398255Y-59589603D01*
X223398254Y-59589606D01*
X223352402Y-59747426D01*
X223352401Y-59747432D01*
X223349500Y-59784298D01*
X223349500Y-60025500D01*
X223329815Y-60092539D01*
X223277011Y-60138294D01*
X223225500Y-60149500D01*
X222059298Y-60149500D01*
X222022432Y-60152401D01*
X222022426Y-60152402D01*
X221864606Y-60198254D01*
X221864605Y-60198254D01*
X221812620Y-60228998D01*
X221744896Y-60246180D01*
X221678634Y-60224019D01*
X221634871Y-60169553D01*
X221625500Y-60122265D01*
X221625500Y-60018386D01*
X221623953Y-60001358D01*
X221619086Y-59947804D01*
X221568478Y-59785394D01*
X221480472Y-59639815D01*
X221480470Y-59639813D01*
X221480469Y-59639811D01*
X221378339Y-59537681D01*
X221344854Y-59476358D01*
X221349838Y-59406666D01*
X221378339Y-59362319D01*
X221478839Y-59261819D01*
X221540162Y-59228334D01*
X221566520Y-59225500D01*
X221888331Y-59225500D01*
X221888347Y-59225501D01*
X221895943Y-59225501D01*
X221921480Y-59225501D01*
X221962433Y-59232459D01*
X221970745Y-59235368D01*
X221970749Y-59235368D01*
X221970753Y-59235369D01*
X222149996Y-59255565D01*
X222150000Y-59255565D01*
X222150004Y-59255565D01*
X222329249Y-59235369D01*
X222329252Y-59235368D01*
X222329255Y-59235368D01*
X222499522Y-59175789D01*
X222652262Y-59079816D01*
X222779816Y-58952262D01*
X222875789Y-58799522D01*
X222935368Y-58629255D01*
X222955565Y-58450000D01*
X222946369Y-58368386D01*
X222935369Y-58270750D01*
X222935368Y-58270745D01*
X222875789Y-58100478D01*
X222779816Y-57947738D01*
X222743759Y-57911681D01*
X222710274Y-57850358D01*
X222715258Y-57780666D01*
X222757130Y-57724733D01*
X222822594Y-57700316D01*
X222831440Y-57700000D01*
X226625500Y-57700000D01*
X226692539Y-57719685D01*
G37*
%TD.AperFunction*%
%TD*%
M02*
