%TF.GenerationSoftware,KiCad,Pcbnew,8.0.2*%
%TF.CreationDate,2025-04-11T11:57:09+07:00*%
%TF.ProjectId,wearable_device,77656172-6162-46c6-955f-646576696365,rev?*%
%TF.SameCoordinates,Original*%
%TF.FileFunction,Copper,L2,Inr*%
%TF.FilePolarity,Positive*%
%FSLAX46Y46*%
G04 Gerber Fmt 4.6, Leading zero omitted, Abs format (unit mm)*
G04 Created by KiCad (PCBNEW 8.0.2) date 2025-04-11 11:57:09*
%MOMM*%
%LPD*%
G01*
G04 APERTURE LIST*
%TA.AperFunction,ComponentPad*%
%ADD10R,1.350000X1.350000*%
%TD*%
%TA.AperFunction,ComponentPad*%
%ADD11R,1.700000X1.700000*%
%TD*%
%TA.AperFunction,ComponentPad*%
%ADD12O,1.700000X1.700000*%
%TD*%
%TA.AperFunction,ComponentPad*%
%ADD13O,1.000000X2.100000*%
%TD*%
%TA.AperFunction,ComponentPad*%
%ADD14O,1.000000X1.800000*%
%TD*%
%TA.AperFunction,ComponentPad*%
%ADD15O,1.350000X1.350000*%
%TD*%
%TA.AperFunction,ViaPad*%
%ADD16C,0.600000*%
%TD*%
%TA.AperFunction,Conductor*%
%ADD17C,0.200000*%
%TD*%
%TA.AperFunction,Conductor*%
%ADD18C,0.100000*%
%TD*%
G04 APERTURE END LIST*
D10*
%TO.N,GND*%
%TO.C,J6*%
X225150000Y-95450000D03*
%TD*%
D11*
%TO.N,GND*%
%TO.C,J5*%
X194875000Y-94250000D03*
D12*
%TO.N,+3.3V*%
X197415000Y-94250000D03*
%TO.N,/SCLK_TFT*%
X199955000Y-94250000D03*
%TO.N,/MOSI_TFT*%
X202495000Y-94250000D03*
%TO.N,/RES_TFT*%
X205035000Y-94250000D03*
%TO.N,/DC_TFT*%
X207575000Y-94250000D03*
%TO.N,/BLK_TFT*%
X210115000Y-94250000D03*
%TD*%
D13*
%TO.N,GND*%
%TO.C,P1*%
X213330000Y-92345000D03*
D14*
X213330000Y-96525000D03*
D13*
X221970000Y-92345000D03*
D14*
X221970000Y-96525000D03*
%TD*%
D10*
%TO.N,GND*%
%TO.C,J3*%
X193000000Y-88500000D03*
D15*
%TO.N,Net-(J3-Pin_2)*%
X193000000Y-86500000D03*
%TO.N,Net-(J3-Pin_3)*%
X193000000Y-84500000D03*
%TO.N,/INT_MAX*%
X193000000Y-82500000D03*
%TD*%
D10*
%TO.N,+3.3V*%
%TO.C,J4*%
X188950000Y-88500000D03*
D15*
%TO.N,/I2C_SDA*%
X188950000Y-86500000D03*
%TO.N,/I2C_SCL*%
X188950000Y-84500000D03*
%TO.N,GND*%
X188950000Y-82500000D03*
%TD*%
D10*
%TO.N,/VTP4*%
%TO.C,J2*%
X225150000Y-91950000D03*
%TD*%
D16*
%TO.N,GND*%
X197000000Y-92250000D03*
X209000000Y-64000000D03*
X209000000Y-67250000D03*
X221500000Y-94000000D03*
X210750000Y-64750000D03*
X214000000Y-81750000D03*
X195250000Y-68250000D03*
X221000000Y-91000000D03*
X214000000Y-66250000D03*
X198750000Y-81500000D03*
X226000000Y-89750000D03*
X214250000Y-93750000D03*
X201500000Y-73500000D03*
X210000000Y-59250000D03*
X194250000Y-88500000D03*
X212500000Y-64750000D03*
X203250000Y-60500000D03*
X208250000Y-59250000D03*
X202500000Y-77100000D03*
X223000000Y-86250000D03*
X208250000Y-63250000D03*
X205500000Y-59500000D03*
X207500000Y-59250000D03*
X208842822Y-77550000D03*
X194500000Y-96750000D03*
X184000000Y-63000000D03*
X190250000Y-74250000D03*
X212500000Y-66500000D03*
X215500000Y-59250000D03*
X224000000Y-79500000D03*
X209250000Y-59250000D03*
X214250000Y-96250000D03*
X195250000Y-92750000D03*
X205618507Y-60650000D03*
X192000000Y-66000000D03*
X188950000Y-80500000D03*
X215500000Y-65250000D03*
X210000000Y-81750000D03*
X214803388Y-78645734D03*
X210750000Y-66250000D03*
X193500000Y-74250000D03*
X187250000Y-74250000D03*
X226500000Y-66750000D03*
X208750000Y-65500000D03*
X214000000Y-67250000D03*
X220750000Y-96500000D03*
%TO.N,/RXD1*%
X209784456Y-73392228D03*
%TO.N,/TXD1*%
X203000000Y-72250000D03*
X209000000Y-71600000D03*
%TO.N,/INT_MAX*%
X207000000Y-66000000D03*
X195500000Y-82500000D03*
%TO.N,/SCLK_TFT*%
X207250000Y-73750000D03*
%TO.N,/BTN_CONTROL*%
X217824266Y-68024263D03*
%TO.N,/RES_TFT*%
X201500000Y-71100002D03*
%TO.N,/BLK_TFT*%
X202500000Y-84250000D03*
X200500000Y-72500000D03*
%TO.N,/MOSI_TFT*%
X205500000Y-74000000D03*
X205000000Y-89100000D03*
%TO.N,/DC_TFT*%
X217750000Y-73750000D03*
X209273527Y-68500000D03*
%TO.N,/I2C_SDA*%
X211000000Y-70000000D03*
X210000000Y-71000000D03*
X215000000Y-67000000D03*
%TO.N,+3.3V*%
X222150000Y-72450000D03*
X222150000Y-58450000D03*
X214500000Y-63060000D03*
X210000000Y-61960000D03*
X208150000Y-77950000D03*
X211150000Y-75450000D03*
X194000000Y-69750000D03*
X185750000Y-70000000D03*
X214500000Y-60000000D03*
X206150000Y-74950000D03*
X202650000Y-68450000D03*
X200250000Y-91500000D03*
X223650000Y-69450000D03*
X206150000Y-61450000D03*
X207500000Y-88500000D03*
X194000000Y-72750000D03*
%TO.N,/I2C_SCL*%
X207000000Y-70500000D03*
X212500000Y-71500000D03*
%TO.N,/SG_CHRG*%
X213750000Y-78000000D03*
X217500000Y-74950000D03*
X214650000Y-68950000D03*
%TO.N,/SG_STDBY*%
X214000000Y-69950000D03*
X209650000Y-77950000D03*
X209650000Y-74450000D03*
%TO.N,/STDBY*%
X210150000Y-83450000D03*
X214000000Y-82950000D03*
%TO.N,Net-(U1-RXD0)*%
X220050000Y-65450000D03*
X220150000Y-63950000D03*
%TO.N,/POWER_5V*%
X226000000Y-81450000D03*
X219150000Y-87450000D03*
%TO.N,/VTP4*%
X223150000Y-89950000D03*
X216790000Y-80660000D03*
%TO.N,/IRQ_ACC*%
X205500000Y-64500000D03*
%TO.N,/DTR*%
X208200000Y-79000000D03*
X199650000Y-65000000D03*
X221250000Y-71450000D03*
%TO.N,/RTS*%
X221650000Y-63950000D03*
X203150000Y-81450000D03*
X201650000Y-74950000D03*
%TO.N,/CS_SPI2*%
X206500000Y-68500000D03*
%TO.N,/CLK_SPI2*%
X209000000Y-73975000D03*
%TO.N,/MOSI_SPI2*%
X210500000Y-73750000D03*
X207000000Y-67000000D03*
%TO.N,/MISO_SPI2*%
X211998441Y-73986459D03*
X212000000Y-78000000D03*
X204000000Y-83500000D03*
X212000000Y-81000000D03*
%TD*%
D17*
%TO.N,/TXD1*%
X208350000Y-72250000D02*
X209000000Y-71600000D01*
X203000000Y-72250000D02*
X208350000Y-72250000D01*
%TO.N,/BLK_TFT*%
X200900000Y-82650000D02*
X200900000Y-72900000D01*
X202500000Y-84250000D02*
X200900000Y-82650000D01*
X200900000Y-72900000D02*
X200500000Y-72500000D01*
D18*
%TO.N,+3.3V*%
X206660000Y-61960000D02*
X206150000Y-61450000D01*
D17*
X221100000Y-61500000D02*
X221150000Y-61450000D01*
X202650000Y-68450000D02*
X205650000Y-68450000D01*
X206200000Y-61500000D02*
X221100000Y-61500000D01*
X213450735Y-78549265D02*
X213400000Y-78600000D01*
X213998529Y-78600000D02*
X213501471Y-78600000D01*
X213501471Y-78600000D02*
X213450735Y-78549265D01*
X206150000Y-67950000D02*
X206150000Y-61450000D01*
X221150000Y-61450000D02*
X223150000Y-61450000D01*
X211150000Y-78600000D02*
X208800000Y-78600000D01*
D18*
X210000000Y-61960000D02*
X206660000Y-61960000D01*
D17*
X206150000Y-61450000D02*
X206200000Y-61500000D01*
X211150000Y-75450000D02*
X211150000Y-78600000D01*
X223150000Y-61450000D02*
X223650000Y-61950000D01*
X205650000Y-68450000D02*
X206150000Y-67950000D01*
X222150000Y-58450000D02*
X222150000Y-60450000D01*
X208800000Y-78600000D02*
X208150000Y-77950000D01*
X214350000Y-78248529D02*
X213998529Y-78600000D01*
X214500000Y-78000000D02*
X214350000Y-78150000D01*
X206150000Y-74950000D02*
X208150000Y-76950000D01*
X216600000Y-78000000D02*
X214500000Y-78000000D01*
X222150000Y-60450000D02*
X221150000Y-61450000D01*
X208150000Y-76950000D02*
X208150000Y-77950000D01*
X223650000Y-61950000D02*
X223650000Y-69450000D01*
X214350000Y-78150000D02*
X214350000Y-78248529D01*
X213400000Y-78600000D02*
X211150000Y-78600000D01*
X222150000Y-72450000D02*
X216600000Y-78000000D01*
%TO.N,/SG_CHRG*%
X215250000Y-69550000D02*
X214650000Y-68950000D01*
X217500000Y-74950000D02*
X215750000Y-74950000D01*
X215750000Y-74950000D02*
X215250000Y-74450000D01*
X213750000Y-78000000D02*
X215250000Y-76500000D01*
X215250000Y-74450000D02*
X215250000Y-69550000D01*
X215250000Y-76500000D02*
X215250000Y-74450000D01*
%TO.N,/SG_STDBY*%
X211150000Y-70950000D02*
X211150000Y-74450000D01*
X209650000Y-74950000D02*
X210150000Y-75450000D01*
X211150000Y-74450000D02*
X210150000Y-75450000D01*
X209650000Y-77950000D02*
X209650000Y-75950000D01*
X209650000Y-74450000D02*
X209650000Y-74950000D01*
X212150000Y-69950000D02*
X211150000Y-70950000D01*
X214000000Y-69950000D02*
X212150000Y-69950000D01*
X209650000Y-75950000D02*
X210150000Y-75450000D01*
%TO.N,/STDBY*%
X214000000Y-82950000D02*
X213500000Y-83450000D01*
X213500000Y-83450000D02*
X210150000Y-83450000D01*
%TO.N,Net-(U1-RXD0)*%
X220050000Y-65450000D02*
X220050000Y-64050000D01*
X220050000Y-64050000D02*
X220150000Y-63950000D01*
%TO.N,/POWER_5V*%
X224650000Y-82800000D02*
X224650000Y-85450000D01*
X219650000Y-86950000D02*
X219150000Y-87450000D01*
X226000000Y-81450000D02*
X224650000Y-82800000D01*
X224650000Y-85450000D02*
X223150000Y-86950000D01*
X223150000Y-86950000D02*
X219650000Y-86950000D01*
%TO.N,/VTP4*%
X216790000Y-80660000D02*
X216150000Y-81300000D01*
X216150000Y-85298529D02*
X220801471Y-89950000D01*
X216150000Y-81300000D02*
X216150000Y-85298529D01*
X220801471Y-89950000D02*
X223150000Y-89950000D01*
%TO.N,/DTR*%
X221250000Y-71450000D02*
X221998529Y-71450000D01*
X222750000Y-72201471D02*
X222750000Y-72698529D01*
X199650000Y-70298529D02*
X208200000Y-78848529D01*
X208150000Y-78950000D02*
X208200000Y-79000000D01*
X208200000Y-78848529D02*
X208200000Y-79000000D01*
X199650000Y-65000000D02*
X199650000Y-70298529D01*
X222750000Y-72698529D02*
X216198529Y-79250000D01*
X208450000Y-79250000D02*
X208200000Y-79000000D01*
X216198529Y-79250000D02*
X208450000Y-79250000D01*
X221998529Y-71450000D02*
X222750000Y-72201471D01*
%TO.N,/RTS*%
X203150000Y-78450000D02*
X203150000Y-76450000D01*
X217650000Y-79850000D02*
X215901471Y-79850000D01*
X223150000Y-73357108D02*
X218000000Y-78507108D01*
X215901471Y-79850000D02*
X215751471Y-80000000D01*
X218000000Y-78507108D02*
X218000000Y-79500000D01*
X218000000Y-79500000D02*
X217650000Y-79850000D01*
X221650000Y-70535785D02*
X223150000Y-72035785D01*
X221650000Y-63950000D02*
X221650000Y-70535785D01*
X215751471Y-80000000D02*
X204700000Y-80000000D01*
X223150000Y-72035785D02*
X223150000Y-73357108D01*
X204700000Y-80000000D02*
X203150000Y-78450000D01*
X201650000Y-74950000D02*
X203150000Y-76450000D01*
X203150000Y-76450000D02*
X203150000Y-81450000D01*
%TO.N,/MOSI_SPI2*%
X207000000Y-67000000D02*
X207000000Y-67075002D01*
X210600000Y-73650000D02*
X210500000Y-73750000D01*
X210600000Y-70675002D02*
X210600000Y-73650000D01*
X207000000Y-67075002D02*
X210600000Y-70675002D01*
%TD*%
%TA.AperFunction,Conductor*%
%TO.N,GND*%
G36*
X188893039Y-57520185D02*
G01*
X188938794Y-57572989D01*
X188950000Y-57624500D01*
X188950000Y-57700000D01*
X221468560Y-57700000D01*
X221535599Y-57719685D01*
X221581354Y-57772489D01*
X221591298Y-57841647D01*
X221562273Y-57905203D01*
X221556241Y-57911681D01*
X221520184Y-57947737D01*
X221424211Y-58100476D01*
X221364631Y-58270745D01*
X221364630Y-58270750D01*
X221344435Y-58449996D01*
X221344435Y-58450003D01*
X221364630Y-58629249D01*
X221364631Y-58629254D01*
X221424211Y-58799523D01*
X221520185Y-58952263D01*
X221522445Y-58955097D01*
X221523334Y-58957275D01*
X221523889Y-58958158D01*
X221523734Y-58958255D01*
X221548855Y-59019783D01*
X221549500Y-59032412D01*
X221549500Y-60149902D01*
X221529815Y-60216941D01*
X221513181Y-60237583D01*
X220887584Y-60863181D01*
X220826261Y-60896666D01*
X220799903Y-60899500D01*
X215003476Y-60899500D01*
X214936437Y-60879815D01*
X214890682Y-60827011D01*
X214880738Y-60757853D01*
X214909763Y-60694297D01*
X214937504Y-60670506D01*
X215002262Y-60629816D01*
X215129816Y-60502262D01*
X215225789Y-60349522D01*
X215285368Y-60179255D01*
X215285369Y-60179249D01*
X215305565Y-60000003D01*
X215305565Y-59999996D01*
X215285369Y-59820750D01*
X215285368Y-59820745D01*
X215225788Y-59650476D01*
X215129815Y-59497737D01*
X215002262Y-59370184D01*
X214849523Y-59274211D01*
X214679254Y-59214631D01*
X214679249Y-59214630D01*
X214500004Y-59194435D01*
X214499996Y-59194435D01*
X214320750Y-59214630D01*
X214320745Y-59214631D01*
X214150476Y-59274211D01*
X213997737Y-59370184D01*
X213870184Y-59497737D01*
X213774211Y-59650476D01*
X213714631Y-59820745D01*
X213714630Y-59820750D01*
X213694435Y-59999996D01*
X213694435Y-60000003D01*
X213714630Y-60179249D01*
X213714631Y-60179254D01*
X213774211Y-60349523D01*
X213787670Y-60370942D01*
X213870184Y-60502262D01*
X213997738Y-60629816D01*
X214062496Y-60670506D01*
X214108787Y-60722841D01*
X214119435Y-60791894D01*
X214091060Y-60855743D01*
X214032670Y-60894115D01*
X213996524Y-60899500D01*
X206782940Y-60899500D01*
X206715901Y-60879815D01*
X206695259Y-60863181D01*
X206652262Y-60820184D01*
X206499523Y-60724211D01*
X206329254Y-60664631D01*
X206329249Y-60664630D01*
X206150004Y-60644435D01*
X206149996Y-60644435D01*
X205970750Y-60664630D01*
X205970745Y-60664631D01*
X205800476Y-60724211D01*
X205647737Y-60820184D01*
X205520184Y-60947737D01*
X205424211Y-61100476D01*
X205364631Y-61270745D01*
X205364630Y-61270750D01*
X205344435Y-61449996D01*
X205344435Y-61450003D01*
X205364630Y-61629249D01*
X205364631Y-61629254D01*
X205424211Y-61799523D01*
X205520185Y-61952263D01*
X205522445Y-61955097D01*
X205523334Y-61957275D01*
X205523889Y-61958158D01*
X205523734Y-61958255D01*
X205548855Y-62019783D01*
X205549500Y-62032412D01*
X205549500Y-63578044D01*
X205529815Y-63645083D01*
X205477011Y-63690838D01*
X205439384Y-63701264D01*
X205320749Y-63714630D01*
X205320745Y-63714631D01*
X205150476Y-63774211D01*
X204997737Y-63870184D01*
X204870184Y-63997737D01*
X204774211Y-64150476D01*
X204714631Y-64320745D01*
X204714630Y-64320750D01*
X204694435Y-64499996D01*
X204694435Y-64500003D01*
X204714630Y-64679249D01*
X204714631Y-64679254D01*
X204774211Y-64849523D01*
X204835922Y-64947734D01*
X204870184Y-65002262D01*
X204997738Y-65129816D01*
X205026051Y-65147606D01*
X205132721Y-65214632D01*
X205150478Y-65225789D01*
X205320745Y-65285368D01*
X205320749Y-65285369D01*
X205411607Y-65295605D01*
X205439383Y-65298735D01*
X205503797Y-65325801D01*
X205543352Y-65383395D01*
X205549500Y-65421955D01*
X205549500Y-67649901D01*
X205529815Y-67716940D01*
X205513182Y-67737582D01*
X205437584Y-67813181D01*
X205376261Y-67846666D01*
X205349902Y-67849500D01*
X203232412Y-67849500D01*
X203165373Y-67829815D01*
X203155097Y-67822445D01*
X203152263Y-67820185D01*
X203152262Y-67820184D01*
X203095496Y-67784515D01*
X202999523Y-67724211D01*
X202829254Y-67664631D01*
X202829249Y-67664630D01*
X202650004Y-67644435D01*
X202649996Y-67644435D01*
X202470750Y-67664630D01*
X202470745Y-67664631D01*
X202300476Y-67724211D01*
X202147737Y-67820184D01*
X202020184Y-67947737D01*
X201924211Y-68100476D01*
X201864631Y-68270745D01*
X201864630Y-68270750D01*
X201844435Y-68449996D01*
X201844435Y-68450003D01*
X201864630Y-68629249D01*
X201864631Y-68629254D01*
X201924211Y-68799523D01*
X202013576Y-68941745D01*
X202020184Y-68952262D01*
X202147738Y-69079816D01*
X202238080Y-69136582D01*
X202282721Y-69164632D01*
X202300478Y-69175789D01*
X202438860Y-69224211D01*
X202470745Y-69235368D01*
X202470750Y-69235369D01*
X202649996Y-69255565D01*
X202650000Y-69255565D01*
X202650004Y-69255565D01*
X202829249Y-69235369D01*
X202829252Y-69235368D01*
X202829255Y-69235368D01*
X202999522Y-69175789D01*
X203152262Y-69079816D01*
X203152267Y-69079810D01*
X203155097Y-69077555D01*
X203157275Y-69076665D01*
X203158158Y-69076111D01*
X203158255Y-69076265D01*
X203219783Y-69051145D01*
X203232412Y-69050500D01*
X205563331Y-69050500D01*
X205563347Y-69050501D01*
X205570943Y-69050501D01*
X205729056Y-69050501D01*
X205729057Y-69050501D01*
X205809251Y-69029012D01*
X205879101Y-69030673D01*
X205929027Y-69061105D01*
X205997738Y-69129816D01*
X206062410Y-69170452D01*
X206147966Y-69224211D01*
X206150478Y-69225789D01*
X206213202Y-69247737D01*
X206320745Y-69285368D01*
X206320750Y-69285369D01*
X206499996Y-69305565D01*
X206500000Y-69305565D01*
X206500004Y-69305565D01*
X206679249Y-69285369D01*
X206679252Y-69285368D01*
X206679255Y-69285368D01*
X206849522Y-69225789D01*
X207002262Y-69129816D01*
X207129816Y-69002262D01*
X207225789Y-68849522D01*
X207285368Y-68679255D01*
X207304096Y-68513029D01*
X207331162Y-68448618D01*
X207388756Y-68409063D01*
X207458593Y-68406924D01*
X207514997Y-68439234D01*
X209384160Y-70308397D01*
X209417645Y-70369720D01*
X209412661Y-70439412D01*
X209384165Y-70483755D01*
X209370185Y-70497735D01*
X209274209Y-70650480D01*
X209248007Y-70725361D01*
X209207286Y-70782137D01*
X209142333Y-70807884D01*
X209117083Y-70807626D01*
X209000004Y-70794435D01*
X208999996Y-70794435D01*
X208820750Y-70814630D01*
X208820745Y-70814631D01*
X208650476Y-70874211D01*
X208497737Y-70970184D01*
X208370184Y-71097737D01*
X208274210Y-71250478D01*
X208214630Y-71420750D01*
X208204837Y-71507667D01*
X208177770Y-71572081D01*
X208169301Y-71581461D01*
X208137586Y-71613178D01*
X208076264Y-71646665D01*
X208049902Y-71649500D01*
X203582412Y-71649500D01*
X203515373Y-71629815D01*
X203505097Y-71622445D01*
X203502263Y-71620185D01*
X203502262Y-71620184D01*
X203425707Y-71572081D01*
X203349523Y-71524211D01*
X203179254Y-71464631D01*
X203179249Y-71464630D01*
X203000004Y-71444435D01*
X202999996Y-71444435D01*
X202820750Y-71464630D01*
X202820745Y-71464631D01*
X202650476Y-71524211D01*
X202497737Y-71620184D01*
X202370184Y-71747737D01*
X202370182Y-71747740D01*
X202290168Y-71875080D01*
X202237833Y-71921371D01*
X202168780Y-71932018D01*
X202104932Y-71903643D01*
X202097494Y-71896788D01*
X202054074Y-71853368D01*
X202020589Y-71792045D01*
X202025573Y-71722353D01*
X202054074Y-71678006D01*
X202085415Y-71646665D01*
X202129816Y-71602264D01*
X202225789Y-71449524D01*
X202285368Y-71279257D01*
X202285369Y-71279251D01*
X202305565Y-71100005D01*
X202305565Y-71099998D01*
X202285369Y-70920752D01*
X202285368Y-70920747D01*
X202248236Y-70814630D01*
X202225789Y-70750480D01*
X202216293Y-70735368D01*
X202173488Y-70667244D01*
X202129816Y-70597740D01*
X202032072Y-70499996D01*
X206194435Y-70499996D01*
X206194435Y-70500003D01*
X206214630Y-70679249D01*
X206214631Y-70679254D01*
X206274211Y-70849523D01*
X206335924Y-70947738D01*
X206370184Y-71002262D01*
X206497738Y-71129816D01*
X206650478Y-71225789D01*
X206778955Y-71270745D01*
X206820745Y-71285368D01*
X206820750Y-71285369D01*
X206999996Y-71305565D01*
X207000000Y-71305565D01*
X207000004Y-71305565D01*
X207179249Y-71285369D01*
X207179252Y-71285368D01*
X207179255Y-71285368D01*
X207349522Y-71225789D01*
X207502262Y-71129816D01*
X207629816Y-71002262D01*
X207725789Y-70849522D01*
X207785368Y-70679255D01*
X207785759Y-70675788D01*
X207805565Y-70500003D01*
X207805565Y-70499996D01*
X207785369Y-70320750D01*
X207785368Y-70320745D01*
X207764828Y-70262046D01*
X207725789Y-70150478D01*
X207629816Y-69997738D01*
X207502262Y-69870184D01*
X207349523Y-69774211D01*
X207179254Y-69714631D01*
X207179249Y-69714630D01*
X207000004Y-69694435D01*
X206999996Y-69694435D01*
X206820750Y-69714630D01*
X206820745Y-69714631D01*
X206650476Y-69774211D01*
X206497737Y-69870184D01*
X206370184Y-69997737D01*
X206274211Y-70150476D01*
X206214631Y-70320745D01*
X206214630Y-70320750D01*
X206194435Y-70499996D01*
X202032072Y-70499996D01*
X202002262Y-70470186D01*
X201980844Y-70456728D01*
X201849523Y-70374213D01*
X201679254Y-70314633D01*
X201679249Y-70314632D01*
X201500004Y-70294437D01*
X201499996Y-70294437D01*
X201320750Y-70314632D01*
X201320745Y-70314633D01*
X201150476Y-70374213D01*
X200997737Y-70470186D01*
X200997736Y-70470187D01*
X200921994Y-70545928D01*
X200860671Y-70579413D01*
X200790979Y-70574427D01*
X200746633Y-70545927D01*
X200286819Y-70086113D01*
X200253334Y-70024790D01*
X200250500Y-69998432D01*
X200250500Y-65582412D01*
X200270185Y-65515373D01*
X200277555Y-65505097D01*
X200279810Y-65502267D01*
X200279816Y-65502262D01*
X200375789Y-65349522D01*
X200435368Y-65179255D01*
X200438934Y-65147606D01*
X200455565Y-65000003D01*
X200455565Y-64999996D01*
X200435369Y-64820750D01*
X200435368Y-64820745D01*
X200375789Y-64650478D01*
X200279816Y-64497738D01*
X200152262Y-64370184D01*
X200103857Y-64339769D01*
X199999523Y-64274211D01*
X199829254Y-64214631D01*
X199829249Y-64214630D01*
X199650004Y-64194435D01*
X199649996Y-64194435D01*
X199470750Y-64214630D01*
X199470745Y-64214631D01*
X199300476Y-64274211D01*
X199147737Y-64370184D01*
X199020184Y-64497737D01*
X198924211Y-64650476D01*
X198864631Y-64820745D01*
X198864630Y-64820750D01*
X198844435Y-64999996D01*
X198844435Y-65000003D01*
X198864630Y-65179249D01*
X198864631Y-65179254D01*
X198924211Y-65349523D01*
X198969724Y-65421955D01*
X199017341Y-65497738D01*
X199020185Y-65502263D01*
X199022445Y-65505097D01*
X199023334Y-65507275D01*
X199023889Y-65508158D01*
X199023734Y-65508255D01*
X199048855Y-65569783D01*
X199049500Y-65582412D01*
X199049500Y-70211859D01*
X199049499Y-70211877D01*
X199049499Y-70377581D01*
X199049498Y-70377583D01*
X199075813Y-70475789D01*
X199090423Y-70530314D01*
X199102078Y-70550500D01*
X199147012Y-70628330D01*
X199169479Y-70667244D01*
X199288349Y-70786114D01*
X199288355Y-70786119D01*
X200117889Y-71615653D01*
X200151374Y-71676976D01*
X200146390Y-71746668D01*
X200104518Y-71802601D01*
X200096181Y-71808327D01*
X199997739Y-71870182D01*
X199870184Y-71997737D01*
X199774211Y-72150476D01*
X199714631Y-72320745D01*
X199714630Y-72320750D01*
X199694435Y-72499996D01*
X199694435Y-72500003D01*
X199714630Y-72679249D01*
X199714631Y-72679254D01*
X199774211Y-72849523D01*
X199833849Y-72944435D01*
X199870184Y-73002262D01*
X199997738Y-73129816D01*
X200132719Y-73214630D01*
X200150478Y-73225789D01*
X200216454Y-73248875D01*
X200273230Y-73289597D01*
X200298978Y-73354549D01*
X200299500Y-73365917D01*
X200299500Y-82563330D01*
X200299499Y-82563348D01*
X200299499Y-82729054D01*
X200299498Y-82729054D01*
X200299499Y-82729057D01*
X200337314Y-82870184D01*
X200340424Y-82881787D01*
X200357126Y-82910715D01*
X200357127Y-82910717D01*
X200419477Y-83018712D01*
X200419481Y-83018717D01*
X200538349Y-83137585D01*
X200538355Y-83137590D01*
X201669298Y-84268534D01*
X201702783Y-84329857D01*
X201704837Y-84342331D01*
X201714630Y-84429249D01*
X201774210Y-84599521D01*
X201847976Y-84716918D01*
X201870184Y-84752262D01*
X201997738Y-84879816D01*
X202150478Y-84975789D01*
X202290515Y-85024790D01*
X202320745Y-85035368D01*
X202320750Y-85035369D01*
X202499996Y-85055565D01*
X202500000Y-85055565D01*
X202500004Y-85055565D01*
X202679249Y-85035369D01*
X202679252Y-85035368D01*
X202679255Y-85035368D01*
X202849522Y-84975789D01*
X203002262Y-84879816D01*
X203129816Y-84752262D01*
X203225789Y-84599522D01*
X203285368Y-84429255D01*
X203295162Y-84342331D01*
X203305565Y-84250003D01*
X203305565Y-84250000D01*
X203305180Y-84246586D01*
X203305565Y-84244387D01*
X203305565Y-84243036D01*
X203305802Y-84243036D01*
X203317230Y-84177764D01*
X203364575Y-84126381D01*
X203432184Y-84108752D01*
X203494371Y-84127700D01*
X203497737Y-84129815D01*
X203497738Y-84129816D01*
X203650478Y-84225789D01*
X203814198Y-84283077D01*
X203820745Y-84285368D01*
X203820750Y-84285369D01*
X203999996Y-84305565D01*
X204000000Y-84305565D01*
X204000004Y-84305565D01*
X204179249Y-84285369D01*
X204179252Y-84285368D01*
X204179255Y-84285368D01*
X204349522Y-84225789D01*
X204502262Y-84129816D01*
X204629816Y-84002262D01*
X204725789Y-83849522D01*
X204785368Y-83679255D01*
X204785759Y-83675789D01*
X204805565Y-83500003D01*
X204805565Y-83499996D01*
X204799931Y-83449996D01*
X209344435Y-83449996D01*
X209344435Y-83450003D01*
X209364630Y-83629249D01*
X209364631Y-83629254D01*
X209424211Y-83799523D01*
X209520184Y-83952262D01*
X209647738Y-84079816D01*
X209800478Y-84175789D01*
X209943367Y-84225788D01*
X209970745Y-84235368D01*
X209970750Y-84235369D01*
X210149996Y-84255565D01*
X210150000Y-84255565D01*
X210150004Y-84255565D01*
X210329249Y-84235369D01*
X210329252Y-84235368D01*
X210329255Y-84235368D01*
X210499522Y-84175789D01*
X210652262Y-84079816D01*
X210652267Y-84079810D01*
X210655097Y-84077555D01*
X210657275Y-84076665D01*
X210658158Y-84076111D01*
X210658255Y-84076265D01*
X210719783Y-84051145D01*
X210732412Y-84050500D01*
X213413331Y-84050500D01*
X213413347Y-84050501D01*
X213420943Y-84050501D01*
X213579054Y-84050501D01*
X213579057Y-84050501D01*
X213731785Y-84009577D01*
X213781904Y-83980639D01*
X213868716Y-83930520D01*
X213980520Y-83818716D01*
X213980521Y-83818714D01*
X213999713Y-83799522D01*
X214018535Y-83780700D01*
X214079858Y-83747215D01*
X214092315Y-83745163D01*
X214179255Y-83735368D01*
X214349522Y-83675789D01*
X214502262Y-83579816D01*
X214629816Y-83452262D01*
X214725789Y-83299522D01*
X214785368Y-83129255D01*
X214786245Y-83121472D01*
X214805565Y-82950003D01*
X214805565Y-82949996D01*
X214785369Y-82770750D01*
X214785368Y-82770745D01*
X214767942Y-82720945D01*
X214725789Y-82600478D01*
X214707228Y-82570939D01*
X214629815Y-82447737D01*
X214502262Y-82320184D01*
X214349523Y-82224211D01*
X214179254Y-82164631D01*
X214179249Y-82164630D01*
X214000004Y-82144435D01*
X213999996Y-82144435D01*
X213820750Y-82164630D01*
X213820745Y-82164631D01*
X213650476Y-82224211D01*
X213497737Y-82320184D01*
X213370184Y-82447737D01*
X213274211Y-82600477D01*
X213216133Y-82766455D01*
X213175411Y-82823231D01*
X213110458Y-82848978D01*
X213099091Y-82849500D01*
X210732412Y-82849500D01*
X210665373Y-82829815D01*
X210655097Y-82822445D01*
X210652263Y-82820185D01*
X210652262Y-82820184D01*
X210595496Y-82784515D01*
X210499523Y-82724211D01*
X210329254Y-82664631D01*
X210329249Y-82664630D01*
X210150004Y-82644435D01*
X210149996Y-82644435D01*
X209970750Y-82664630D01*
X209970745Y-82664631D01*
X209800476Y-82724211D01*
X209647737Y-82820184D01*
X209520184Y-82947737D01*
X209424211Y-83100476D01*
X209364631Y-83270745D01*
X209364630Y-83270750D01*
X209344435Y-83449996D01*
X204799931Y-83449996D01*
X204785369Y-83320750D01*
X204785368Y-83320745D01*
X204725788Y-83150476D01*
X204686582Y-83088080D01*
X204629816Y-82997738D01*
X204502262Y-82870184D01*
X204468513Y-82848978D01*
X204349523Y-82774211D01*
X204179254Y-82714631D01*
X204179249Y-82714630D01*
X204000004Y-82694435D01*
X203999996Y-82694435D01*
X203820750Y-82714630D01*
X203820745Y-82714631D01*
X203650476Y-82774211D01*
X203497737Y-82870184D01*
X203370184Y-82997737D01*
X203274211Y-83150476D01*
X203214631Y-83320745D01*
X203214630Y-83320750D01*
X203198032Y-83468074D01*
X203194435Y-83500000D01*
X203194821Y-83503423D01*
X203194435Y-83505626D01*
X203194435Y-83506964D01*
X203194201Y-83506964D01*
X203182765Y-83572245D01*
X203135415Y-83623624D01*
X203067804Y-83641247D01*
X203005628Y-83622299D01*
X202849521Y-83524210D01*
X202679249Y-83464630D01*
X202592331Y-83454837D01*
X202527917Y-83427770D01*
X202518534Y-83419298D01*
X201536819Y-82437583D01*
X201503334Y-82376260D01*
X201500500Y-82349902D01*
X201500500Y-75949097D01*
X201520185Y-75882058D01*
X201572989Y-75836303D01*
X201642147Y-75826359D01*
X201705703Y-75855384D01*
X201712181Y-75861416D01*
X202513181Y-76662416D01*
X202546666Y-76723739D01*
X202549500Y-76750097D01*
X202549500Y-78363330D01*
X202549499Y-78363348D01*
X202549499Y-78539046D01*
X202549500Y-78539059D01*
X202549500Y-80867587D01*
X202529815Y-80934626D01*
X202522450Y-80944896D01*
X202520186Y-80947734D01*
X202424211Y-81100476D01*
X202364631Y-81270745D01*
X202364630Y-81270750D01*
X202344435Y-81449996D01*
X202344435Y-81450003D01*
X202364630Y-81629249D01*
X202364631Y-81629254D01*
X202424211Y-81799523D01*
X202468611Y-81870184D01*
X202520184Y-81952262D01*
X202647738Y-82079816D01*
X202730693Y-82131940D01*
X202782721Y-82164632D01*
X202800478Y-82175789D01*
X202938860Y-82224211D01*
X202970745Y-82235368D01*
X202970750Y-82235369D01*
X203149996Y-82255565D01*
X203150000Y-82255565D01*
X203150004Y-82255565D01*
X203329249Y-82235369D01*
X203329252Y-82235368D01*
X203329255Y-82235368D01*
X203499522Y-82175789D01*
X203652262Y-82079816D01*
X203779816Y-81952262D01*
X203875789Y-81799522D01*
X203935368Y-81629255D01*
X203935369Y-81629249D01*
X203955565Y-81450003D01*
X203955565Y-81449996D01*
X203935369Y-81270750D01*
X203935368Y-81270745D01*
X203917942Y-81220945D01*
X203875789Y-81100478D01*
X203779816Y-80947738D01*
X203779814Y-80947736D01*
X203779813Y-80947734D01*
X203777550Y-80944896D01*
X203776659Y-80942715D01*
X203776111Y-80941842D01*
X203776264Y-80941745D01*
X203751144Y-80880209D01*
X203750500Y-80867587D01*
X203750500Y-80199097D01*
X203770185Y-80132058D01*
X203822989Y-80086303D01*
X203892147Y-80076359D01*
X203955703Y-80105384D01*
X203962181Y-80111416D01*
X204215139Y-80364374D01*
X204215149Y-80364385D01*
X204219479Y-80368715D01*
X204219480Y-80368716D01*
X204331284Y-80480520D01*
X204418095Y-80530639D01*
X204418097Y-80530641D01*
X204454851Y-80551861D01*
X204468215Y-80559577D01*
X204620943Y-80600501D01*
X204620946Y-80600501D01*
X204786653Y-80600501D01*
X204786669Y-80600500D01*
X211116937Y-80600500D01*
X211183976Y-80620185D01*
X211229731Y-80672989D01*
X211239675Y-80742147D01*
X211233978Y-80765455D01*
X211214633Y-80820737D01*
X211214630Y-80820750D01*
X211194435Y-80999996D01*
X211194435Y-81000001D01*
X211214630Y-81179249D01*
X211214631Y-81179254D01*
X211274211Y-81349523D01*
X211337347Y-81450003D01*
X211370184Y-81502262D01*
X211497738Y-81629816D01*
X211588080Y-81686582D01*
X211632721Y-81714632D01*
X211650478Y-81725789D01*
X211788860Y-81774211D01*
X211820745Y-81785368D01*
X211820750Y-81785369D01*
X211999996Y-81805565D01*
X212000000Y-81805565D01*
X212000004Y-81805565D01*
X212179249Y-81785369D01*
X212179252Y-81785368D01*
X212179255Y-81785368D01*
X212349522Y-81725789D01*
X212502262Y-81629816D01*
X212629816Y-81502262D01*
X212725789Y-81349522D01*
X212785368Y-81179255D01*
X212797880Y-81068213D01*
X212805565Y-81000001D01*
X212805565Y-80999996D01*
X212785369Y-80820750D01*
X212785366Y-80820737D01*
X212766022Y-80765455D01*
X212762460Y-80695676D01*
X212797188Y-80635049D01*
X212859182Y-80602821D01*
X212883063Y-80600500D01*
X215664802Y-80600500D01*
X215664818Y-80600501D01*
X215700901Y-80600501D01*
X215767940Y-80620186D01*
X215813695Y-80672990D01*
X215823639Y-80742148D01*
X215794614Y-80805704D01*
X215788582Y-80812182D01*
X215669481Y-80931282D01*
X215669479Y-80931285D01*
X215659981Y-80947737D01*
X215629807Y-81000000D01*
X215590423Y-81068215D01*
X215549499Y-81220943D01*
X215549499Y-81220945D01*
X215549499Y-81389046D01*
X215549500Y-81389059D01*
X215549500Y-85211859D01*
X215549499Y-85211877D01*
X215549499Y-85377583D01*
X215549498Y-85377583D01*
X215557746Y-85408363D01*
X215590086Y-85529058D01*
X215590423Y-85530313D01*
X215590423Y-85530314D01*
X215605697Y-85556768D01*
X215605698Y-85556773D01*
X215605700Y-85556773D01*
X215625828Y-85591637D01*
X215669479Y-85667243D01*
X215669481Y-85667246D01*
X215788349Y-85786114D01*
X215788355Y-85786119D01*
X220316610Y-90314374D01*
X220316620Y-90314385D01*
X220320950Y-90318715D01*
X220320951Y-90318716D01*
X220432755Y-90430520D01*
X220432757Y-90430521D01*
X220432761Y-90430524D01*
X220569680Y-90509573D01*
X220569687Y-90509577D01*
X220681490Y-90539534D01*
X220722413Y-90550500D01*
X220722414Y-90550500D01*
X222567588Y-90550500D01*
X222634627Y-90570185D01*
X222644903Y-90577555D01*
X222647736Y-90579814D01*
X222647738Y-90579816D01*
X222800478Y-90675789D01*
X222911479Y-90714630D01*
X222970745Y-90735368D01*
X222970750Y-90735369D01*
X223149996Y-90755565D01*
X223150000Y-90755565D01*
X223150004Y-90755565D01*
X223329249Y-90735369D01*
X223329252Y-90735368D01*
X223329255Y-90735368D01*
X223499522Y-90675789D01*
X223652262Y-90579816D01*
X223779816Y-90452262D01*
X223875789Y-90299522D01*
X223935368Y-90129255D01*
X223955565Y-89950000D01*
X223950558Y-89905565D01*
X223935369Y-89770750D01*
X223935368Y-89770745D01*
X223902040Y-89675499D01*
X223875789Y-89600478D01*
X223779816Y-89447738D01*
X223652262Y-89320184D01*
X223628996Y-89305565D01*
X223499523Y-89224211D01*
X223329254Y-89164631D01*
X223329249Y-89164630D01*
X223150004Y-89144435D01*
X223149996Y-89144435D01*
X222970750Y-89164630D01*
X222970745Y-89164631D01*
X222800476Y-89224211D01*
X222647736Y-89320185D01*
X222644903Y-89322445D01*
X222642724Y-89323334D01*
X222641842Y-89323889D01*
X222641744Y-89323734D01*
X222580217Y-89348855D01*
X222567588Y-89349500D01*
X221101568Y-89349500D01*
X221034529Y-89329815D01*
X221013887Y-89313181D01*
X219800791Y-88100085D01*
X219767306Y-88038762D01*
X219772290Y-87969070D01*
X219783475Y-87946437D01*
X219875789Y-87799522D01*
X219933867Y-87633545D01*
X219974589Y-87576769D01*
X220039542Y-87551022D01*
X220050909Y-87550500D01*
X223063331Y-87550500D01*
X223063347Y-87550501D01*
X223070943Y-87550501D01*
X223229054Y-87550501D01*
X223229057Y-87550501D01*
X223381785Y-87509577D01*
X223431904Y-87480639D01*
X223518716Y-87430520D01*
X223630520Y-87318716D01*
X223630520Y-87318714D01*
X223640728Y-87308507D01*
X223640730Y-87308504D01*
X225008506Y-85940728D01*
X225008511Y-85940724D01*
X225018714Y-85930520D01*
X225018716Y-85930520D01*
X225130520Y-85818716D01*
X225209577Y-85681784D01*
X225250163Y-85530314D01*
X225250500Y-85529058D01*
X225250500Y-85370943D01*
X225250500Y-83100096D01*
X225270185Y-83033057D01*
X225286815Y-83012419D01*
X226018535Y-82280698D01*
X226079856Y-82247215D01*
X226092311Y-82245163D01*
X226179255Y-82235368D01*
X226349522Y-82175789D01*
X226502262Y-82079816D01*
X226537819Y-82044259D01*
X226599142Y-82010774D01*
X226668834Y-82015758D01*
X226724767Y-82057630D01*
X226749184Y-82123094D01*
X226749500Y-82131940D01*
X226749500Y-97625500D01*
X226729815Y-97692539D01*
X226677011Y-97738294D01*
X226625500Y-97749500D01*
X177874500Y-97749500D01*
X177807461Y-97729815D01*
X177761706Y-97677011D01*
X177750500Y-97625500D01*
X177750500Y-94249999D01*
X196059341Y-94249999D01*
X196059341Y-94250000D01*
X196079936Y-94485403D01*
X196079938Y-94485413D01*
X196141094Y-94713655D01*
X196141096Y-94713659D01*
X196141097Y-94713663D01*
X196145000Y-94722032D01*
X196240965Y-94927830D01*
X196240967Y-94927834D01*
X196349281Y-95082521D01*
X196376505Y-95121401D01*
X196543599Y-95288495D01*
X196640384Y-95356265D01*
X196737165Y-95424032D01*
X196737167Y-95424033D01*
X196737170Y-95424035D01*
X196951337Y-95523903D01*
X197179592Y-95585063D01*
X197367918Y-95601539D01*
X197414999Y-95605659D01*
X197415000Y-95605659D01*
X197415001Y-95605659D01*
X197454234Y-95602226D01*
X197650408Y-95585063D01*
X197878663Y-95523903D01*
X198092830Y-95424035D01*
X198286401Y-95288495D01*
X198453495Y-95121401D01*
X198583425Y-94935842D01*
X198638002Y-94892217D01*
X198707500Y-94885023D01*
X198769855Y-94916546D01*
X198786575Y-94935842D01*
X198916500Y-95121395D01*
X198916505Y-95121401D01*
X199083599Y-95288495D01*
X199180384Y-95356265D01*
X199277165Y-95424032D01*
X199277167Y-95424033D01*
X199277170Y-95424035D01*
X199491337Y-95523903D01*
X199719592Y-95585063D01*
X199907918Y-95601539D01*
X199954999Y-95605659D01*
X199955000Y-95605659D01*
X199955001Y-95605659D01*
X199994234Y-95602226D01*
X200190408Y-95585063D01*
X200418663Y-95523903D01*
X200632830Y-95424035D01*
X200826401Y-95288495D01*
X200993495Y-95121401D01*
X201123425Y-94935842D01*
X201178002Y-94892217D01*
X201247500Y-94885023D01*
X201309855Y-94916546D01*
X201326575Y-94935842D01*
X201456500Y-95121395D01*
X201456505Y-95121401D01*
X201623599Y-95288495D01*
X201720384Y-95356265D01*
X201817165Y-95424032D01*
X201817167Y-95424033D01*
X201817170Y-95424035D01*
X202031337Y-95523903D01*
X202259592Y-95585063D01*
X202447918Y-95601539D01*
X202494999Y-95605659D01*
X202495000Y-95605659D01*
X202495001Y-95605659D01*
X202534234Y-95602226D01*
X202730408Y-95585063D01*
X202958663Y-95523903D01*
X203172830Y-95424035D01*
X203366401Y-95288495D01*
X203533495Y-95121401D01*
X203663425Y-94935842D01*
X203718002Y-94892217D01*
X203787500Y-94885023D01*
X203849855Y-94916546D01*
X203866575Y-94935842D01*
X203996500Y-95121395D01*
X203996505Y-95121401D01*
X204163599Y-95288495D01*
X204260384Y-95356265D01*
X204357165Y-95424032D01*
X204357167Y-95424033D01*
X204357170Y-95424035D01*
X204571337Y-95523903D01*
X204799592Y-95585063D01*
X204987918Y-95601539D01*
X205034999Y-95605659D01*
X205035000Y-95605659D01*
X205035001Y-95605659D01*
X205074234Y-95602226D01*
X205270408Y-95585063D01*
X205498663Y-95523903D01*
X205712830Y-95424035D01*
X205906401Y-95288495D01*
X206073495Y-95121401D01*
X206203425Y-94935842D01*
X206258002Y-94892217D01*
X206327500Y-94885023D01*
X206389855Y-94916546D01*
X206406575Y-94935842D01*
X206536500Y-95121395D01*
X206536505Y-95121401D01*
X206703599Y-95288495D01*
X206800384Y-95356265D01*
X206897165Y-95424032D01*
X206897167Y-95424033D01*
X206897170Y-95424035D01*
X207111337Y-95523903D01*
X207339592Y-95585063D01*
X207527918Y-95601539D01*
X207574999Y-95605659D01*
X207575000Y-95605659D01*
X207575001Y-95605659D01*
X207614234Y-95602226D01*
X207810408Y-95585063D01*
X208038663Y-95523903D01*
X208252830Y-95424035D01*
X208446401Y-95288495D01*
X208613495Y-95121401D01*
X208743425Y-94935842D01*
X208798002Y-94892217D01*
X208867500Y-94885023D01*
X208929855Y-94916546D01*
X208946575Y-94935842D01*
X209076500Y-95121395D01*
X209076505Y-95121401D01*
X209243599Y-95288495D01*
X209340384Y-95356265D01*
X209437165Y-95424032D01*
X209437167Y-95424033D01*
X209437170Y-95424035D01*
X209651337Y-95523903D01*
X209879592Y-95585063D01*
X210067918Y-95601539D01*
X210114999Y-95605659D01*
X210115000Y-95605659D01*
X210115001Y-95605659D01*
X210154234Y-95602226D01*
X210350408Y-95585063D01*
X210578663Y-95523903D01*
X210792830Y-95424035D01*
X210986401Y-95288495D01*
X211153495Y-95121401D01*
X211289035Y-94927830D01*
X211388903Y-94713663D01*
X211450063Y-94485408D01*
X211470659Y-94250000D01*
X211450063Y-94014592D01*
X211388903Y-93786337D01*
X211289035Y-93572171D01*
X211283425Y-93564158D01*
X211153494Y-93378597D01*
X210986402Y-93211506D01*
X210986395Y-93211501D01*
X210792834Y-93075967D01*
X210792830Y-93075965D01*
X210773894Y-93067135D01*
X210578663Y-92976097D01*
X210578659Y-92976096D01*
X210578655Y-92976094D01*
X210350413Y-92914938D01*
X210350403Y-92914936D01*
X210115001Y-92894341D01*
X210114999Y-92894341D01*
X209879596Y-92914936D01*
X209879586Y-92914938D01*
X209651344Y-92976094D01*
X209651335Y-92976098D01*
X209437171Y-93075964D01*
X209437169Y-93075965D01*
X209243597Y-93211505D01*
X209076505Y-93378597D01*
X208946575Y-93564158D01*
X208891998Y-93607783D01*
X208822500Y-93614977D01*
X208760145Y-93583454D01*
X208743425Y-93564158D01*
X208613494Y-93378597D01*
X208446402Y-93211506D01*
X208446395Y-93211501D01*
X208252834Y-93075967D01*
X208252830Y-93075965D01*
X208233894Y-93067135D01*
X208038663Y-92976097D01*
X208038659Y-92976096D01*
X208038655Y-92976094D01*
X207810413Y-92914938D01*
X207810403Y-92914936D01*
X207575001Y-92894341D01*
X207574999Y-92894341D01*
X207339596Y-92914936D01*
X207339586Y-92914938D01*
X207111344Y-92976094D01*
X207111335Y-92976098D01*
X206897171Y-93075964D01*
X206897169Y-93075965D01*
X206703597Y-93211505D01*
X206536505Y-93378597D01*
X206406575Y-93564158D01*
X206351998Y-93607783D01*
X206282500Y-93614977D01*
X206220145Y-93583454D01*
X206203425Y-93564158D01*
X206073494Y-93378597D01*
X205906402Y-93211506D01*
X205906395Y-93211501D01*
X205712834Y-93075967D01*
X205712830Y-93075965D01*
X205693894Y-93067135D01*
X205498663Y-92976097D01*
X205498659Y-92976096D01*
X205498655Y-92976094D01*
X205270413Y-92914938D01*
X205270403Y-92914936D01*
X205035001Y-92894341D01*
X205034999Y-92894341D01*
X204799596Y-92914936D01*
X204799586Y-92914938D01*
X204571344Y-92976094D01*
X204571335Y-92976098D01*
X204357171Y-93075964D01*
X204357169Y-93075965D01*
X204163597Y-93211505D01*
X203996505Y-93378597D01*
X203866575Y-93564158D01*
X203811998Y-93607783D01*
X203742500Y-93614977D01*
X203680145Y-93583454D01*
X203663425Y-93564158D01*
X203533494Y-93378597D01*
X203366402Y-93211506D01*
X203366395Y-93211501D01*
X203172834Y-93075967D01*
X203172830Y-93075965D01*
X203153894Y-93067135D01*
X202958663Y-92976097D01*
X202958659Y-92976096D01*
X202958655Y-92976094D01*
X202730413Y-92914938D01*
X202730403Y-92914936D01*
X202495001Y-92894341D01*
X202494999Y-92894341D01*
X202259596Y-92914936D01*
X202259586Y-92914938D01*
X202031344Y-92976094D01*
X202031335Y-92976098D01*
X201817171Y-93075964D01*
X201817169Y-93075965D01*
X201623597Y-93211505D01*
X201456505Y-93378597D01*
X201326575Y-93564158D01*
X201271998Y-93607783D01*
X201202500Y-93614977D01*
X201140145Y-93583454D01*
X201123425Y-93564158D01*
X200993494Y-93378597D01*
X200826402Y-93211506D01*
X200826395Y-93211501D01*
X200632834Y-93075967D01*
X200632830Y-93075965D01*
X200613894Y-93067135D01*
X200418663Y-92976097D01*
X200418659Y-92976096D01*
X200418655Y-92976094D01*
X200190413Y-92914938D01*
X200190403Y-92914936D01*
X199955001Y-92894341D01*
X199954999Y-92894341D01*
X199719596Y-92914936D01*
X199719586Y-92914938D01*
X199491344Y-92976094D01*
X199491335Y-92976098D01*
X199277171Y-93075964D01*
X199277169Y-93075965D01*
X199083597Y-93211505D01*
X198916505Y-93378597D01*
X198786575Y-93564158D01*
X198731998Y-93607783D01*
X198662500Y-93614977D01*
X198600145Y-93583454D01*
X198583425Y-93564158D01*
X198453494Y-93378597D01*
X198286402Y-93211506D01*
X198286395Y-93211501D01*
X198092834Y-93075967D01*
X198092830Y-93075965D01*
X198073894Y-93067135D01*
X197878663Y-92976097D01*
X197878659Y-92976096D01*
X197878655Y-92976094D01*
X197650413Y-92914938D01*
X197650403Y-92914936D01*
X197415001Y-92894341D01*
X197414999Y-92894341D01*
X197179596Y-92914936D01*
X197179586Y-92914938D01*
X196951344Y-92976094D01*
X196951335Y-92976098D01*
X196737171Y-93075964D01*
X196737169Y-93075965D01*
X196543597Y-93211505D01*
X196376505Y-93378597D01*
X196240965Y-93572169D01*
X196240964Y-93572171D01*
X196141098Y-93786335D01*
X196141094Y-93786344D01*
X196079938Y-94014586D01*
X196079936Y-94014596D01*
X196059341Y-94249999D01*
X177750500Y-94249999D01*
X177750500Y-92769234D01*
X214184500Y-92769234D01*
X214184500Y-92920765D01*
X214223719Y-93067136D01*
X214228816Y-93075964D01*
X214299485Y-93198365D01*
X214406635Y-93305515D01*
X214520281Y-93371129D01*
X214533219Y-93378599D01*
X214537865Y-93381281D01*
X214684234Y-93420500D01*
X214684236Y-93420500D01*
X214835764Y-93420500D01*
X214835766Y-93420500D01*
X214982135Y-93381281D01*
X215113365Y-93305515D01*
X215220515Y-93198365D01*
X215296281Y-93067135D01*
X215335500Y-92920766D01*
X215335500Y-92769234D01*
X219964500Y-92769234D01*
X219964500Y-92920765D01*
X220003719Y-93067136D01*
X220008816Y-93075964D01*
X220079485Y-93198365D01*
X220186635Y-93305515D01*
X220300281Y-93371129D01*
X220313219Y-93378599D01*
X220317865Y-93381281D01*
X220464234Y-93420500D01*
X220464236Y-93420500D01*
X220615764Y-93420500D01*
X220615766Y-93420500D01*
X220762135Y-93381281D01*
X220893365Y-93305515D01*
X221000515Y-93198365D01*
X221076281Y-93067135D01*
X221115500Y-92920766D01*
X221115500Y-92769234D01*
X221076281Y-92622865D01*
X221000515Y-92491635D01*
X220893365Y-92384485D01*
X220827750Y-92346602D01*
X220762136Y-92308719D01*
X220688950Y-92289109D01*
X220615766Y-92269500D01*
X220464234Y-92269500D01*
X220317863Y-92308719D01*
X220186635Y-92384485D01*
X220186632Y-92384487D01*
X220079487Y-92491632D01*
X220079485Y-92491635D01*
X220003719Y-92622863D01*
X219964500Y-92769234D01*
X215335500Y-92769234D01*
X215296281Y-92622865D01*
X215220515Y-92491635D01*
X215113365Y-92384485D01*
X215047750Y-92346602D01*
X214982136Y-92308719D01*
X214908950Y-92289109D01*
X214835766Y-92269500D01*
X214684234Y-92269500D01*
X214537863Y-92308719D01*
X214406635Y-92384485D01*
X214406632Y-92384487D01*
X214299487Y-92491632D01*
X214299485Y-92491635D01*
X214223719Y-92622863D01*
X214184500Y-92769234D01*
X177750500Y-92769234D01*
X177750500Y-91499996D01*
X199444435Y-91499996D01*
X199444435Y-91500003D01*
X199464630Y-91679249D01*
X199464631Y-91679254D01*
X199524211Y-91849523D01*
X199620184Y-92002262D01*
X199747738Y-92129816D01*
X199900478Y-92225789D01*
X200025397Y-92269500D01*
X200070745Y-92285368D01*
X200070750Y-92285369D01*
X200249996Y-92305565D01*
X200250000Y-92305565D01*
X200250004Y-92305565D01*
X200429249Y-92285369D01*
X200429252Y-92285368D01*
X200429255Y-92285368D01*
X200599522Y-92225789D01*
X200752262Y-92129816D01*
X200879816Y-92002262D01*
X200975789Y-91849522D01*
X201035368Y-91679255D01*
X201055565Y-91500000D01*
X201035368Y-91320745D01*
X201002612Y-91227135D01*
X223974500Y-91227135D01*
X223974500Y-92672870D01*
X223974501Y-92672876D01*
X223980908Y-92732483D01*
X224031202Y-92867328D01*
X224031206Y-92867335D01*
X224117452Y-92982544D01*
X224117455Y-92982547D01*
X224232664Y-93068793D01*
X224232671Y-93068797D01*
X224367517Y-93119091D01*
X224367516Y-93119091D01*
X224374444Y-93119835D01*
X224427127Y-93125500D01*
X225872872Y-93125499D01*
X225932483Y-93119091D01*
X226067331Y-93068796D01*
X226182546Y-92982546D01*
X226268796Y-92867331D01*
X226319091Y-92732483D01*
X226325500Y-92672873D01*
X226325499Y-91227128D01*
X226319091Y-91167517D01*
X226268796Y-91032669D01*
X226268795Y-91032668D01*
X226268793Y-91032664D01*
X226182547Y-90917455D01*
X226182544Y-90917452D01*
X226067335Y-90831206D01*
X226067328Y-90831202D01*
X225932482Y-90780908D01*
X225932483Y-90780908D01*
X225872883Y-90774501D01*
X225872881Y-90774500D01*
X225872873Y-90774500D01*
X225872864Y-90774500D01*
X224427129Y-90774500D01*
X224427123Y-90774501D01*
X224367516Y-90780908D01*
X224232671Y-90831202D01*
X224232664Y-90831206D01*
X224117455Y-90917452D01*
X224117452Y-90917455D01*
X224031206Y-91032664D01*
X224031202Y-91032671D01*
X223980908Y-91167517D01*
X223974501Y-91227116D01*
X223974501Y-91227123D01*
X223974500Y-91227135D01*
X201002612Y-91227135D01*
X200975789Y-91150478D01*
X200879816Y-90997738D01*
X200752262Y-90870184D01*
X200690223Y-90831202D01*
X200599523Y-90774211D01*
X200429254Y-90714631D01*
X200429249Y-90714630D01*
X200250004Y-90694435D01*
X200249996Y-90694435D01*
X200070750Y-90714630D01*
X200070745Y-90714631D01*
X199900476Y-90774211D01*
X199747737Y-90870184D01*
X199620184Y-90997737D01*
X199524211Y-91150476D01*
X199464631Y-91320745D01*
X199464630Y-91320750D01*
X199444435Y-91499996D01*
X177750500Y-91499996D01*
X177750500Y-84499999D01*
X187769464Y-84499999D01*
X187769464Y-84500000D01*
X187789564Y-84716918D01*
X187849184Y-84926462D01*
X187946288Y-85121472D01*
X188077574Y-85295324D01*
X188201572Y-85408363D01*
X188237854Y-85468074D01*
X188236093Y-85537922D01*
X188201572Y-85591637D01*
X188077574Y-85704675D01*
X187946288Y-85878527D01*
X187849184Y-86073537D01*
X187789564Y-86283081D01*
X187769464Y-86499999D01*
X187769464Y-86500000D01*
X187789564Y-86716918D01*
X187789564Y-86716920D01*
X187789565Y-86716923D01*
X187823309Y-86835521D01*
X187849184Y-86926462D01*
X187946288Y-87121472D01*
X188027747Y-87229341D01*
X188052439Y-87294702D01*
X188037874Y-87363037D01*
X188003105Y-87403334D01*
X187917452Y-87467455D01*
X187831206Y-87582664D01*
X187831202Y-87582671D01*
X187780908Y-87717517D01*
X187774501Y-87777116D01*
X187774501Y-87777123D01*
X187774500Y-87777135D01*
X187774500Y-89222870D01*
X187774501Y-89222876D01*
X187780908Y-89282483D01*
X187831202Y-89417328D01*
X187831206Y-89417335D01*
X187917452Y-89532544D01*
X187917455Y-89532547D01*
X188032664Y-89618793D01*
X188032671Y-89618797D01*
X188167517Y-89669091D01*
X188167516Y-89669091D01*
X188174444Y-89669835D01*
X188227127Y-89675500D01*
X189672872Y-89675499D01*
X189732483Y-89669091D01*
X189867331Y-89618796D01*
X189982546Y-89532546D01*
X190068796Y-89417331D01*
X190119091Y-89282483D01*
X190125500Y-89222873D01*
X190125500Y-89099996D01*
X204194435Y-89099996D01*
X204194435Y-89100003D01*
X204214630Y-89279249D01*
X204214631Y-89279254D01*
X204274211Y-89449523D01*
X204326377Y-89532544D01*
X204370184Y-89602262D01*
X204497738Y-89729816D01*
X204650478Y-89825789D01*
X204820745Y-89885368D01*
X204820750Y-89885369D01*
X204999996Y-89905565D01*
X205000000Y-89905565D01*
X205000004Y-89905565D01*
X205179249Y-89885369D01*
X205179252Y-89885368D01*
X205179255Y-89885368D01*
X205349522Y-89825789D01*
X205502262Y-89729816D01*
X205629816Y-89602262D01*
X205725789Y-89449522D01*
X205785368Y-89279255D01*
X205791392Y-89225789D01*
X205805565Y-89100003D01*
X205805565Y-89099996D01*
X205785369Y-88920750D01*
X205785368Y-88920745D01*
X205725788Y-88750476D01*
X205629815Y-88597737D01*
X205532074Y-88499996D01*
X206694435Y-88499996D01*
X206694435Y-88500003D01*
X206714630Y-88679249D01*
X206714631Y-88679254D01*
X206774211Y-88849523D01*
X206870184Y-89002262D01*
X206997738Y-89129816D01*
X207088080Y-89186582D01*
X207147966Y-89224211D01*
X207150478Y-89225789D01*
X207303258Y-89279249D01*
X207320745Y-89285368D01*
X207320750Y-89285369D01*
X207499996Y-89305565D01*
X207500000Y-89305565D01*
X207500004Y-89305565D01*
X207679249Y-89285369D01*
X207679252Y-89285368D01*
X207679255Y-89285368D01*
X207849522Y-89225789D01*
X208002262Y-89129816D01*
X208129816Y-89002262D01*
X208225789Y-88849522D01*
X208285368Y-88679255D01*
X208305565Y-88500000D01*
X208291392Y-88374211D01*
X208285369Y-88320750D01*
X208285368Y-88320745D01*
X208225788Y-88150476D01*
X208129815Y-87997737D01*
X208002262Y-87870184D01*
X207849523Y-87774211D01*
X207679254Y-87714631D01*
X207679249Y-87714630D01*
X207500004Y-87694435D01*
X207499996Y-87694435D01*
X207320750Y-87714630D01*
X207320745Y-87714631D01*
X207150476Y-87774211D01*
X206997737Y-87870184D01*
X206870184Y-87997737D01*
X206774211Y-88150476D01*
X206714631Y-88320745D01*
X206714630Y-88320750D01*
X206694435Y-88499996D01*
X205532074Y-88499996D01*
X205502262Y-88470184D01*
X205349523Y-88374211D01*
X205179254Y-88314631D01*
X205179249Y-88314630D01*
X205000004Y-88294435D01*
X204999996Y-88294435D01*
X204820750Y-88314630D01*
X204820745Y-88314631D01*
X204650476Y-88374211D01*
X204497737Y-88470184D01*
X204370184Y-88597737D01*
X204274211Y-88750476D01*
X204214631Y-88920745D01*
X204214630Y-88920750D01*
X204194435Y-89099996D01*
X190125500Y-89099996D01*
X190125499Y-87777128D01*
X190119091Y-87717517D01*
X190118014Y-87714630D01*
X190068797Y-87582671D01*
X190068793Y-87582664D01*
X189982547Y-87467455D01*
X189982544Y-87467452D01*
X189896895Y-87403335D01*
X189855024Y-87347402D01*
X189850040Y-87277710D01*
X189872251Y-87229344D01*
X189953712Y-87121472D01*
X190050817Y-86926459D01*
X190110435Y-86716923D01*
X190130536Y-86500000D01*
X190110435Y-86283077D01*
X190050817Y-86073541D01*
X189953712Y-85878528D01*
X189822427Y-85704678D01*
X189698423Y-85591634D01*
X189662145Y-85531927D01*
X189663905Y-85462079D01*
X189698423Y-85408365D01*
X189822427Y-85295322D01*
X189953712Y-85121472D01*
X190050817Y-84926459D01*
X190110435Y-84716923D01*
X190130536Y-84500000D01*
X190110435Y-84283077D01*
X190050817Y-84073541D01*
X189953712Y-83878528D01*
X189822427Y-83704678D01*
X189661432Y-83557912D01*
X189661428Y-83557909D01*
X189661423Y-83557906D01*
X189476213Y-83443229D01*
X189476207Y-83443226D01*
X189386211Y-83408362D01*
X189273069Y-83364530D01*
X189058926Y-83324500D01*
X188841074Y-83324500D01*
X188626931Y-83364530D01*
X188578130Y-83383435D01*
X188423792Y-83443226D01*
X188423786Y-83443229D01*
X188238576Y-83557906D01*
X188238566Y-83557913D01*
X188077574Y-83704676D01*
X187946288Y-83878527D01*
X187849184Y-84073537D01*
X187789564Y-84283081D01*
X187769464Y-84499999D01*
X177750500Y-84499999D01*
X177750500Y-82499999D01*
X191819464Y-82499999D01*
X191819464Y-82500000D01*
X191839564Y-82716918D01*
X191839564Y-82716920D01*
X191839565Y-82716923D01*
X191894704Y-82910717D01*
X191899184Y-82926462D01*
X191996288Y-83121472D01*
X192127574Y-83295324D01*
X192251572Y-83408363D01*
X192287854Y-83468074D01*
X192286093Y-83537922D01*
X192251572Y-83591637D01*
X192127574Y-83704675D01*
X191996288Y-83878527D01*
X191899184Y-84073537D01*
X191839564Y-84283081D01*
X191819464Y-84499999D01*
X191819464Y-84500000D01*
X191839564Y-84716918D01*
X191899184Y-84926462D01*
X191996288Y-85121472D01*
X192127574Y-85295324D01*
X192251572Y-85408363D01*
X192287854Y-85468074D01*
X192286093Y-85537922D01*
X192251572Y-85591637D01*
X192127574Y-85704675D01*
X191996288Y-85878527D01*
X191899184Y-86073537D01*
X191839564Y-86283081D01*
X191819464Y-86499999D01*
X191819464Y-86500000D01*
X191839564Y-86716918D01*
X191839564Y-86716920D01*
X191839565Y-86716923D01*
X191899183Y-86926459D01*
X191996288Y-87121472D01*
X192127573Y-87295322D01*
X192288568Y-87442088D01*
X192288575Y-87442092D01*
X192288576Y-87442093D01*
X192473786Y-87556770D01*
X192473792Y-87556773D01*
X192496664Y-87565633D01*
X192676931Y-87635470D01*
X192891074Y-87675500D01*
X192891076Y-87675500D01*
X193108924Y-87675500D01*
X193108926Y-87675500D01*
X193323069Y-87635470D01*
X193526210Y-87556772D01*
X193711432Y-87442088D01*
X193872427Y-87295322D01*
X194003712Y-87121472D01*
X194100817Y-86926459D01*
X194160435Y-86716923D01*
X194180536Y-86500000D01*
X194160435Y-86283077D01*
X194100817Y-86073541D01*
X194003712Y-85878528D01*
X193872427Y-85704678D01*
X193748423Y-85591634D01*
X193712145Y-85531927D01*
X193713905Y-85462079D01*
X193748423Y-85408365D01*
X193872427Y-85295322D01*
X194003712Y-85121472D01*
X194100817Y-84926459D01*
X194160435Y-84716923D01*
X194180536Y-84500000D01*
X194160435Y-84283077D01*
X194100817Y-84073541D01*
X194003712Y-83878528D01*
X193872427Y-83704678D01*
X193748423Y-83591634D01*
X193712145Y-83531927D01*
X193713905Y-83462079D01*
X193748423Y-83408365D01*
X193872427Y-83295322D01*
X194003712Y-83121472D01*
X194100817Y-82926459D01*
X194160435Y-82716923D01*
X194180536Y-82500000D01*
X194180536Y-82499996D01*
X194694435Y-82499996D01*
X194694435Y-82500003D01*
X194714630Y-82679249D01*
X194714631Y-82679254D01*
X194774211Y-82849523D01*
X194837347Y-82950003D01*
X194870184Y-83002262D01*
X194997738Y-83129816D01*
X195150478Y-83225789D01*
X195278955Y-83270745D01*
X195320745Y-83285368D01*
X195320750Y-83285369D01*
X195499996Y-83305565D01*
X195500000Y-83305565D01*
X195500004Y-83305565D01*
X195679249Y-83285369D01*
X195679252Y-83285368D01*
X195679255Y-83285368D01*
X195849522Y-83225789D01*
X196002262Y-83129816D01*
X196129816Y-83002262D01*
X196225789Y-82849522D01*
X196285368Y-82679255D01*
X196287016Y-82664630D01*
X196305565Y-82500003D01*
X196305565Y-82499996D01*
X196285369Y-82320750D01*
X196285368Y-82320745D01*
X196271356Y-82280700D01*
X196225789Y-82150478D01*
X196208582Y-82123094D01*
X196159047Y-82044259D01*
X196129816Y-81997738D01*
X196002262Y-81870184D01*
X195899422Y-81805565D01*
X195849523Y-81774211D01*
X195679254Y-81714631D01*
X195679249Y-81714630D01*
X195500004Y-81694435D01*
X195499996Y-81694435D01*
X195320750Y-81714630D01*
X195320745Y-81714631D01*
X195150476Y-81774211D01*
X194997737Y-81870184D01*
X194870184Y-81997737D01*
X194774211Y-82150476D01*
X194714631Y-82320745D01*
X194714630Y-82320750D01*
X194694435Y-82499996D01*
X194180536Y-82499996D01*
X194160435Y-82283077D01*
X194100817Y-82073541D01*
X194003712Y-81878528D01*
X193872427Y-81704678D01*
X193711432Y-81557912D01*
X193711428Y-81557909D01*
X193711423Y-81557906D01*
X193526213Y-81443229D01*
X193526207Y-81443226D01*
X193416650Y-81400784D01*
X193323069Y-81364530D01*
X193108926Y-81324500D01*
X192891074Y-81324500D01*
X192676931Y-81364530D01*
X192639433Y-81379057D01*
X192473792Y-81443226D01*
X192473786Y-81443229D01*
X192288576Y-81557906D01*
X192288566Y-81557913D01*
X192127574Y-81704676D01*
X191996288Y-81878527D01*
X191899184Y-82073537D01*
X191839564Y-82283081D01*
X191819464Y-82499999D01*
X177750500Y-82499999D01*
X177750500Y-72749996D01*
X193194435Y-72749996D01*
X193194435Y-72750003D01*
X193214630Y-72929249D01*
X193214631Y-72929254D01*
X193274211Y-73099523D01*
X193330830Y-73189631D01*
X193370184Y-73252262D01*
X193497738Y-73379816D01*
X193587412Y-73436162D01*
X193645620Y-73472737D01*
X193650478Y-73475789D01*
X193674507Y-73484197D01*
X193820745Y-73535368D01*
X193820750Y-73535369D01*
X193999996Y-73555565D01*
X194000000Y-73555565D01*
X194000004Y-73555565D01*
X194179249Y-73535369D01*
X194179252Y-73535368D01*
X194179255Y-73535368D01*
X194349522Y-73475789D01*
X194502262Y-73379816D01*
X194629816Y-73252262D01*
X194725789Y-73099522D01*
X194785368Y-72929255D01*
X194786074Y-72922989D01*
X194805565Y-72750003D01*
X194805565Y-72749996D01*
X194785369Y-72570750D01*
X194785368Y-72570745D01*
X194750863Y-72472136D01*
X194725789Y-72400478D01*
X194722447Y-72395160D01*
X194678859Y-72325789D01*
X194629816Y-72247738D01*
X194502262Y-72120184D01*
X194493854Y-72114901D01*
X194349523Y-72024211D01*
X194179254Y-71964631D01*
X194179249Y-71964630D01*
X194000004Y-71944435D01*
X193999996Y-71944435D01*
X193820750Y-71964630D01*
X193820745Y-71964631D01*
X193650476Y-72024211D01*
X193497737Y-72120184D01*
X193370184Y-72247737D01*
X193274211Y-72400476D01*
X193214631Y-72570745D01*
X193214630Y-72570750D01*
X193194435Y-72749996D01*
X177750500Y-72749996D01*
X177750500Y-69999996D01*
X184944435Y-69999996D01*
X184944435Y-70000003D01*
X184964630Y-70179249D01*
X184964631Y-70179254D01*
X185024211Y-70349523D01*
X185091573Y-70456728D01*
X185120184Y-70502262D01*
X185247738Y-70629816D01*
X185292760Y-70658105D01*
X185399796Y-70725361D01*
X185400478Y-70725789D01*
X185471041Y-70750480D01*
X185570745Y-70785368D01*
X185570750Y-70785369D01*
X185749996Y-70805565D01*
X185750000Y-70805565D01*
X185750004Y-70805565D01*
X185929249Y-70785369D01*
X185929252Y-70785368D01*
X185929255Y-70785368D01*
X186099522Y-70725789D01*
X186252262Y-70629816D01*
X186379816Y-70502262D01*
X186475789Y-70349522D01*
X186535368Y-70179255D01*
X186535759Y-70175788D01*
X186555565Y-70000003D01*
X186555565Y-69999996D01*
X186535369Y-69820750D01*
X186535368Y-69820745D01*
X186510612Y-69749996D01*
X193194435Y-69749996D01*
X193194435Y-69750003D01*
X193214630Y-69929249D01*
X193214631Y-69929254D01*
X193274211Y-70099523D01*
X193344797Y-70211859D01*
X193370184Y-70252262D01*
X193497738Y-70379816D01*
X193588080Y-70436582D01*
X193620142Y-70456728D01*
X193650478Y-70475789D01*
X193820745Y-70535368D01*
X193820750Y-70535369D01*
X193999996Y-70555565D01*
X194000000Y-70555565D01*
X194000004Y-70555565D01*
X194179249Y-70535369D01*
X194179252Y-70535368D01*
X194179255Y-70535368D01*
X194349522Y-70475789D01*
X194502262Y-70379816D01*
X194629816Y-70252262D01*
X194725789Y-70099522D01*
X194785368Y-69929255D01*
X194792024Y-69870184D01*
X194805565Y-69750003D01*
X194805565Y-69749996D01*
X194785369Y-69570750D01*
X194785368Y-69570745D01*
X194746324Y-69459163D01*
X194725789Y-69400478D01*
X194706753Y-69370183D01*
X194676758Y-69322445D01*
X194629816Y-69247738D01*
X194502262Y-69120184D01*
X194470897Y-69100476D01*
X194349523Y-69024211D01*
X194179254Y-68964631D01*
X194179249Y-68964630D01*
X194000004Y-68944435D01*
X193999996Y-68944435D01*
X193820750Y-68964630D01*
X193820745Y-68964631D01*
X193650476Y-69024211D01*
X193497737Y-69120184D01*
X193370184Y-69247737D01*
X193274211Y-69400476D01*
X193214631Y-69570745D01*
X193214630Y-69570750D01*
X193194435Y-69749996D01*
X186510612Y-69749996D01*
X186475788Y-69650476D01*
X186436582Y-69588080D01*
X186379816Y-69497738D01*
X186252262Y-69370184D01*
X186199934Y-69337304D01*
X186099523Y-69274211D01*
X185929254Y-69214631D01*
X185929249Y-69214630D01*
X185750004Y-69194435D01*
X185749996Y-69194435D01*
X185570750Y-69214630D01*
X185570745Y-69214631D01*
X185400476Y-69274211D01*
X185247737Y-69370184D01*
X185120184Y-69497737D01*
X185024211Y-69650476D01*
X184964631Y-69820745D01*
X184964630Y-69820750D01*
X184944435Y-69999996D01*
X177750500Y-69999996D01*
X177750500Y-57624500D01*
X177770185Y-57557461D01*
X177822989Y-57511706D01*
X177874500Y-57500500D01*
X188826000Y-57500500D01*
X188893039Y-57520185D01*
G37*
%TD.AperFunction*%
%TA.AperFunction,Conductor*%
G36*
X226692539Y-57719685D02*
G01*
X226738294Y-57772489D01*
X226749500Y-57824000D01*
X226749500Y-80768060D01*
X226729815Y-80835099D01*
X226677011Y-80880854D01*
X226607853Y-80890798D01*
X226544297Y-80861773D01*
X226537819Y-80855741D01*
X226502262Y-80820184D01*
X226349523Y-80724211D01*
X226179254Y-80664631D01*
X226179249Y-80664630D01*
X226000004Y-80644435D01*
X225999996Y-80644435D01*
X225820750Y-80664630D01*
X225820745Y-80664631D01*
X225650476Y-80724211D01*
X225497737Y-80820184D01*
X225370184Y-80947737D01*
X225274210Y-81100478D01*
X225214630Y-81270750D01*
X225204837Y-81357668D01*
X225177770Y-81422082D01*
X225169298Y-81431465D01*
X224281286Y-82319478D01*
X224169481Y-82431282D01*
X224169477Y-82431287D01*
X224159980Y-82447738D01*
X224147428Y-82469480D01*
X224090423Y-82568215D01*
X224049499Y-82720943D01*
X224049499Y-82720945D01*
X224049499Y-82889046D01*
X224049500Y-82889059D01*
X224049500Y-85149903D01*
X224029815Y-85216942D01*
X224013181Y-85237584D01*
X222937584Y-86313181D01*
X222876261Y-86346666D01*
X222849903Y-86349500D01*
X219736670Y-86349500D01*
X219736654Y-86349499D01*
X219729058Y-86349499D01*
X219570943Y-86349499D01*
X219494579Y-86369961D01*
X219418214Y-86390423D01*
X219418209Y-86390426D01*
X219281290Y-86469475D01*
X219281286Y-86469478D01*
X219131465Y-86619299D01*
X219070142Y-86652783D01*
X219057668Y-86654837D01*
X218970750Y-86664630D01*
X218800478Y-86724210D01*
X218653567Y-86816521D01*
X218586330Y-86835521D01*
X218519495Y-86815153D01*
X218499914Y-86799208D01*
X216786819Y-85086113D01*
X216753334Y-85024790D01*
X216750500Y-84998432D01*
X216750500Y-81600097D01*
X216770185Y-81533058D01*
X216786819Y-81512416D01*
X216808535Y-81490700D01*
X216869858Y-81457215D01*
X216882315Y-81455163D01*
X216969255Y-81445368D01*
X217139522Y-81385789D01*
X217292262Y-81289816D01*
X217419816Y-81162262D01*
X217515789Y-81009522D01*
X217575368Y-80839255D01*
X217575369Y-80839249D01*
X217595565Y-80660003D01*
X217595565Y-80659997D01*
X217587496Y-80588385D01*
X217599550Y-80519563D01*
X217646899Y-80468183D01*
X217710716Y-80450501D01*
X217729054Y-80450501D01*
X217729057Y-80450501D01*
X217881785Y-80409577D01*
X217952558Y-80368716D01*
X218018716Y-80330520D01*
X218130520Y-80218716D01*
X218130521Y-80218714D01*
X218480520Y-79868716D01*
X218559577Y-79731784D01*
X218600501Y-79579057D01*
X218600501Y-79420942D01*
X218600501Y-79413347D01*
X218600500Y-79413329D01*
X218600500Y-78807204D01*
X218620185Y-78740165D01*
X218636814Y-78719528D01*
X223508506Y-73847835D01*
X223508511Y-73847832D01*
X223518714Y-73837628D01*
X223518716Y-73837628D01*
X223630520Y-73725824D01*
X223645772Y-73699407D01*
X223688445Y-73625495D01*
X223688448Y-73625486D01*
X223688454Y-73625478D01*
X223709577Y-73588893D01*
X223750501Y-73436165D01*
X223750501Y-73278051D01*
X223750501Y-73270456D01*
X223750500Y-73270438D01*
X223750500Y-71956727D01*
X223749302Y-71952257D01*
X223749301Y-71952253D01*
X223735428Y-71900479D01*
X223729338Y-71877751D01*
X223709577Y-71804001D01*
X223703283Y-71793099D01*
X223630524Y-71667075D01*
X223630521Y-71667071D01*
X223630520Y-71667069D01*
X223518716Y-71555265D01*
X223518715Y-71555264D01*
X223514385Y-71550934D01*
X223514374Y-71550924D01*
X222286819Y-70323369D01*
X222253334Y-70262046D01*
X222250500Y-70235688D01*
X222250500Y-64532412D01*
X222270185Y-64465373D01*
X222277555Y-64455097D01*
X222279812Y-64452266D01*
X222279816Y-64452262D01*
X222375789Y-64299522D01*
X222435368Y-64129255D01*
X222435369Y-64129249D01*
X222455565Y-63950003D01*
X222455565Y-63949996D01*
X222435369Y-63770750D01*
X222435368Y-63770745D01*
X222415733Y-63714631D01*
X222375789Y-63600478D01*
X222279816Y-63447738D01*
X222152262Y-63320184D01*
X221999523Y-63224211D01*
X221829254Y-63164631D01*
X221829249Y-63164630D01*
X221650004Y-63144435D01*
X221649996Y-63144435D01*
X221470750Y-63164630D01*
X221470745Y-63164631D01*
X221300476Y-63224211D01*
X221147737Y-63320184D01*
X221020184Y-63447737D01*
X221004994Y-63471913D01*
X220952659Y-63518204D01*
X220883605Y-63528852D01*
X220819757Y-63500477D01*
X220795006Y-63471913D01*
X220779815Y-63447737D01*
X220652262Y-63320184D01*
X220499523Y-63224211D01*
X220329254Y-63164631D01*
X220329249Y-63164630D01*
X220150004Y-63144435D01*
X220149996Y-63144435D01*
X219970750Y-63164630D01*
X219970745Y-63164631D01*
X219800476Y-63224211D01*
X219647737Y-63320184D01*
X219520184Y-63447737D01*
X219424211Y-63600476D01*
X219364631Y-63770745D01*
X219364630Y-63770750D01*
X219344435Y-63949996D01*
X219344435Y-63950003D01*
X219364630Y-64129249D01*
X219364631Y-64129254D01*
X219424212Y-64299525D01*
X219430492Y-64309519D01*
X219449500Y-64375493D01*
X219449500Y-64867587D01*
X219429815Y-64934626D01*
X219422450Y-64944896D01*
X219420186Y-64947734D01*
X219324211Y-65100476D01*
X219264631Y-65270745D01*
X219264630Y-65270750D01*
X219244435Y-65449996D01*
X219244435Y-65450003D01*
X219264630Y-65629249D01*
X219264631Y-65629254D01*
X219324211Y-65799523D01*
X219337546Y-65820745D01*
X219420184Y-65952262D01*
X219547738Y-66079816D01*
X219700478Y-66175789D01*
X219811479Y-66214630D01*
X219870745Y-66235368D01*
X219870750Y-66235369D01*
X220049996Y-66255565D01*
X220050000Y-66255565D01*
X220050004Y-66255565D01*
X220229249Y-66235369D01*
X220229252Y-66235368D01*
X220229255Y-66235368D01*
X220399522Y-66175789D01*
X220552262Y-66079816D01*
X220679816Y-65952262D01*
X220775789Y-65799522D01*
X220808458Y-65706160D01*
X220849180Y-65649383D01*
X220914133Y-65623636D01*
X220982694Y-65637092D01*
X221033097Y-65685479D01*
X221049500Y-65747114D01*
X221049500Y-70449115D01*
X221049499Y-70449133D01*
X221049499Y-70584083D01*
X221029814Y-70651122D01*
X220977010Y-70696877D01*
X220966455Y-70701124D01*
X220900476Y-70724211D01*
X220900475Y-70724212D01*
X220747737Y-70820184D01*
X220620184Y-70947737D01*
X220524211Y-71100476D01*
X220464631Y-71270745D01*
X220464630Y-71270750D01*
X220444435Y-71449996D01*
X220444435Y-71450003D01*
X220464630Y-71629249D01*
X220464631Y-71629254D01*
X220524211Y-71799523D01*
X220597601Y-71916321D01*
X220620184Y-71952262D01*
X220747738Y-72079816D01*
X220838080Y-72136582D01*
X220860192Y-72150476D01*
X220900478Y-72175789D01*
X221054878Y-72229816D01*
X221070745Y-72235368D01*
X221070750Y-72235369D01*
X221214499Y-72251565D01*
X221278913Y-72278631D01*
X221318468Y-72336226D01*
X221320606Y-72406063D01*
X221288297Y-72462466D01*
X218488593Y-75262171D01*
X218427270Y-75295656D01*
X218357578Y-75290672D01*
X218301645Y-75248800D01*
X218277228Y-75183336D01*
X218283872Y-75133532D01*
X218285366Y-75129260D01*
X218285368Y-75129255D01*
X218285369Y-75129249D01*
X218305565Y-74950003D01*
X218305565Y-74949996D01*
X218285369Y-74770750D01*
X218285368Y-74770745D01*
X218225788Y-74600475D01*
X218199850Y-74559196D01*
X218180849Y-74491959D01*
X218201216Y-74425124D01*
X218238870Y-74388230D01*
X218252262Y-74379816D01*
X218379816Y-74252262D01*
X218475789Y-74099522D01*
X218535368Y-73929255D01*
X218535369Y-73929249D01*
X218555565Y-73750003D01*
X218555565Y-73749996D01*
X218535369Y-73570750D01*
X218535368Y-73570745D01*
X218509821Y-73497737D01*
X218475789Y-73400478D01*
X218379816Y-73247738D01*
X218252262Y-73120184D01*
X218206106Y-73091182D01*
X218099523Y-73024211D01*
X217929254Y-72964631D01*
X217929249Y-72964630D01*
X217750004Y-72944435D01*
X217749996Y-72944435D01*
X217570750Y-72964630D01*
X217570745Y-72964631D01*
X217400476Y-73024211D01*
X217247737Y-73120184D01*
X217120184Y-73247737D01*
X217024211Y-73400476D01*
X216964631Y-73570745D01*
X216964630Y-73570750D01*
X216944435Y-73749996D01*
X216944435Y-73750003D01*
X216964630Y-73929249D01*
X216964633Y-73929262D01*
X217024209Y-74099518D01*
X217024210Y-74099522D01*
X217050150Y-74140804D01*
X217069150Y-74208041D01*
X217048782Y-74274876D01*
X217011131Y-74311768D01*
X216997738Y-74320183D01*
X216994903Y-74322445D01*
X216992724Y-74323334D01*
X216991845Y-74323887D01*
X216991748Y-74323733D01*
X216930217Y-74348855D01*
X216917588Y-74349500D01*
X216050098Y-74349500D01*
X215983059Y-74329815D01*
X215962417Y-74313181D01*
X215886819Y-74237583D01*
X215853334Y-74176260D01*
X215850500Y-74149902D01*
X215850500Y-69470945D01*
X215850500Y-69470943D01*
X215814692Y-69337304D01*
X215814692Y-69337303D01*
X215814692Y-69337302D01*
X215809578Y-69318218D01*
X215809577Y-69318215D01*
X215790613Y-69285369D01*
X215761745Y-69235368D01*
X215730520Y-69181284D01*
X215618716Y-69069480D01*
X215614385Y-69065149D01*
X215614374Y-69065139D01*
X215480700Y-68931465D01*
X215447215Y-68870142D01*
X215445163Y-68857686D01*
X215435368Y-68770745D01*
X215375789Y-68600478D01*
X215279816Y-68447738D01*
X215152262Y-68320184D01*
X214999523Y-68224211D01*
X214829254Y-68164631D01*
X214829249Y-68164630D01*
X214650004Y-68144435D01*
X214649996Y-68144435D01*
X214470750Y-68164630D01*
X214470745Y-68164631D01*
X214300476Y-68224211D01*
X214147737Y-68320184D01*
X214020184Y-68447737D01*
X213924211Y-68600476D01*
X213864631Y-68770745D01*
X213864630Y-68770750D01*
X213844435Y-68949996D01*
X213844435Y-68950005D01*
X213855729Y-69050252D01*
X213843674Y-69119073D01*
X213796324Y-69170452D01*
X213773464Y-69181175D01*
X213650480Y-69224209D01*
X213497736Y-69320185D01*
X213494903Y-69322445D01*
X213492724Y-69323334D01*
X213491842Y-69323889D01*
X213491744Y-69323734D01*
X213430217Y-69348855D01*
X213417588Y-69349500D01*
X212236670Y-69349500D01*
X212236654Y-69349499D01*
X212229058Y-69349499D01*
X212070943Y-69349499D01*
X211994579Y-69369961D01*
X211918214Y-69390423D01*
X211918209Y-69390426D01*
X211781284Y-69469478D01*
X211779096Y-69471667D01*
X211776795Y-69472922D01*
X211774834Y-69474428D01*
X211774599Y-69474122D01*
X211717770Y-69505148D01*
X211648079Y-69500159D01*
X211603739Y-69471661D01*
X211502262Y-69370184D01*
X211349523Y-69274211D01*
X211179254Y-69214631D01*
X211179249Y-69214630D01*
X211000004Y-69194435D01*
X210999996Y-69194435D01*
X210820750Y-69214630D01*
X210820745Y-69214631D01*
X210650476Y-69274211D01*
X210497739Y-69370183D01*
X210408758Y-69459164D01*
X210347434Y-69492648D01*
X210277743Y-69487664D01*
X210233396Y-69459163D01*
X209924318Y-69150085D01*
X209890833Y-69088762D01*
X209895817Y-69019070D01*
X209907002Y-68996437D01*
X209999316Y-68849522D01*
X210058895Y-68679255D01*
X210064529Y-68629254D01*
X210079092Y-68500003D01*
X210079092Y-68499996D01*
X210058896Y-68320750D01*
X210058895Y-68320745D01*
X210017873Y-68203512D01*
X209999316Y-68150478D01*
X209998551Y-68149261D01*
X209960109Y-68088080D01*
X209920007Y-68024259D01*
X217018701Y-68024259D01*
X217018701Y-68024266D01*
X217038896Y-68203512D01*
X217038897Y-68203517D01*
X217098477Y-68373786D01*
X217146366Y-68450000D01*
X217194450Y-68526525D01*
X217322004Y-68654079D01*
X217474744Y-68750052D01*
X217616121Y-68799522D01*
X217645011Y-68809631D01*
X217645016Y-68809632D01*
X217824262Y-68829828D01*
X217824266Y-68829828D01*
X217824270Y-68829828D01*
X218003515Y-68809632D01*
X218003518Y-68809631D01*
X218003521Y-68809631D01*
X218173788Y-68750052D01*
X218326528Y-68654079D01*
X218454082Y-68526525D01*
X218550055Y-68373785D01*
X218609634Y-68203518D01*
X218609635Y-68203512D01*
X218629831Y-68024266D01*
X218629831Y-68024259D01*
X218609635Y-67845013D01*
X218609634Y-67845008D01*
X218550054Y-67674739D01*
X218454081Y-67522000D01*
X218326528Y-67394447D01*
X218173789Y-67298474D01*
X218003520Y-67238894D01*
X218003515Y-67238893D01*
X217824270Y-67218698D01*
X217824262Y-67218698D01*
X217645016Y-67238893D01*
X217645011Y-67238894D01*
X217474742Y-67298474D01*
X217322003Y-67394447D01*
X217194450Y-67522000D01*
X217098477Y-67674739D01*
X217038897Y-67845008D01*
X217038896Y-67845013D01*
X217018701Y-68024259D01*
X209920007Y-68024259D01*
X209903343Y-67997738D01*
X209775789Y-67870184D01*
X209742406Y-67849208D01*
X209623050Y-67774211D01*
X209452781Y-67714631D01*
X209452776Y-67714630D01*
X209273531Y-67694435D01*
X209273523Y-67694435D01*
X209094277Y-67714630D01*
X209094272Y-67714631D01*
X208924003Y-67774211D01*
X208777094Y-67866521D01*
X208709857Y-67885521D01*
X208643022Y-67865153D01*
X208623441Y-67849208D01*
X207840224Y-67065991D01*
X207806739Y-67004668D01*
X207805970Y-66999996D01*
X214194435Y-66999996D01*
X214194435Y-67000003D01*
X214214630Y-67179249D01*
X214214631Y-67179254D01*
X214274211Y-67349523D01*
X214302439Y-67394447D01*
X214370184Y-67502262D01*
X214497738Y-67629816D01*
X214569236Y-67674741D01*
X214647966Y-67724211D01*
X214650478Y-67725789D01*
X214788860Y-67774211D01*
X214820745Y-67785368D01*
X214820750Y-67785369D01*
X214999996Y-67805565D01*
X215000000Y-67805565D01*
X215000004Y-67805565D01*
X215179249Y-67785369D01*
X215179252Y-67785368D01*
X215179255Y-67785368D01*
X215349522Y-67725789D01*
X215502262Y-67629816D01*
X215629816Y-67502262D01*
X215725789Y-67349522D01*
X215785368Y-67179255D01*
X215798130Y-67065991D01*
X215805565Y-67000003D01*
X215805565Y-66999996D01*
X215785369Y-66820750D01*
X215785368Y-66820745D01*
X215725788Y-66650476D01*
X215629815Y-66497737D01*
X215502262Y-66370184D01*
X215349523Y-66274211D01*
X215179254Y-66214631D01*
X215179249Y-66214630D01*
X215000004Y-66194435D01*
X214999996Y-66194435D01*
X214820750Y-66214630D01*
X214820745Y-66214631D01*
X214650476Y-66274211D01*
X214497737Y-66370184D01*
X214370184Y-66497737D01*
X214274211Y-66650476D01*
X214214631Y-66820745D01*
X214214630Y-66820750D01*
X214194435Y-66999996D01*
X207805970Y-66999996D01*
X207804685Y-66992193D01*
X207785369Y-66820750D01*
X207785368Y-66820745D01*
X207725788Y-66650475D01*
X207672691Y-66565973D01*
X207653690Y-66498736D01*
X207672691Y-66434027D01*
X207725788Y-66349524D01*
X207772989Y-66214631D01*
X207785368Y-66179255D01*
X207805565Y-66000000D01*
X207800186Y-65952262D01*
X207785369Y-65820750D01*
X207785368Y-65820745D01*
X207725788Y-65650476D01*
X207636363Y-65508158D01*
X207629816Y-65497738D01*
X207502262Y-65370184D01*
X207399422Y-65305565D01*
X207349523Y-65274211D01*
X207179254Y-65214631D01*
X207179249Y-65214630D01*
X207000004Y-65194435D01*
X206999996Y-65194435D01*
X206888383Y-65207010D01*
X206819561Y-65194955D01*
X206768182Y-65147606D01*
X206750500Y-65083790D01*
X206750500Y-62634500D01*
X206770185Y-62567461D01*
X206822989Y-62521706D01*
X206874500Y-62510500D01*
X209367060Y-62510500D01*
X209434099Y-62530185D01*
X209454741Y-62546819D01*
X209497738Y-62589816D01*
X209650478Y-62685789D01*
X209820745Y-62745368D01*
X209820750Y-62745369D01*
X209999996Y-62765565D01*
X210000000Y-62765565D01*
X210000004Y-62765565D01*
X210179249Y-62745369D01*
X210179252Y-62745368D01*
X210179255Y-62745368D01*
X210349522Y-62685789D01*
X210502262Y-62589816D01*
X210629816Y-62462262D01*
X210725789Y-62309522D01*
X210769870Y-62183546D01*
X210810592Y-62126769D01*
X210875545Y-62101022D01*
X210886912Y-62100500D01*
X214092503Y-62100500D01*
X214159542Y-62120185D01*
X214205297Y-62172989D01*
X214215241Y-62242147D01*
X214186216Y-62305703D01*
X214155532Y-62329166D01*
X214156374Y-62330506D01*
X213997737Y-62430184D01*
X213870184Y-62557737D01*
X213774211Y-62710476D01*
X213714631Y-62880745D01*
X213714630Y-62880750D01*
X213694435Y-63059996D01*
X213694435Y-63060003D01*
X213714630Y-63239249D01*
X213714631Y-63239254D01*
X213774211Y-63409523D01*
X213813414Y-63471913D01*
X213870184Y-63562262D01*
X213997738Y-63689816D01*
X214088080Y-63746582D01*
X214132051Y-63774211D01*
X214150478Y-63785789D01*
X214320745Y-63845368D01*
X214320750Y-63845369D01*
X214499996Y-63865565D01*
X214500000Y-63865565D01*
X214500004Y-63865565D01*
X214679249Y-63845369D01*
X214679252Y-63845368D01*
X214679255Y-63845368D01*
X214849522Y-63785789D01*
X215002262Y-63689816D01*
X215129816Y-63562262D01*
X215225789Y-63409522D01*
X215285368Y-63239255D01*
X215305565Y-63060000D01*
X215285368Y-62880745D01*
X215225789Y-62710478D01*
X215129816Y-62557738D01*
X215002262Y-62430184D01*
X214849522Y-62334211D01*
X214849523Y-62334211D01*
X214843626Y-62330506D01*
X214844978Y-62328353D01*
X214801830Y-62289389D01*
X214783523Y-62221960D01*
X214804576Y-62155338D01*
X214858306Y-62110674D01*
X214907497Y-62100500D01*
X221013331Y-62100500D01*
X221013347Y-62100501D01*
X221020943Y-62100501D01*
X221179054Y-62100501D01*
X221179057Y-62100501D01*
X221331785Y-62059577D01*
X221331786Y-62059575D01*
X221339635Y-62057473D01*
X221339820Y-62058165D01*
X221378364Y-62050500D01*
X222849903Y-62050500D01*
X222916942Y-62070185D01*
X222937584Y-62086819D01*
X223013181Y-62162416D01*
X223046666Y-62223739D01*
X223049500Y-62250097D01*
X223049500Y-68867587D01*
X223029815Y-68934626D01*
X223022450Y-68944896D01*
X223020186Y-68947734D01*
X222924211Y-69100476D01*
X222864631Y-69270745D01*
X222864630Y-69270750D01*
X222844435Y-69449996D01*
X222844435Y-69450003D01*
X222864630Y-69629249D01*
X222864631Y-69629254D01*
X222924211Y-69799523D01*
X222937546Y-69820745D01*
X223020184Y-69952262D01*
X223147738Y-70079816D01*
X223238080Y-70136582D01*
X223260192Y-70150476D01*
X223300478Y-70175789D01*
X223425317Y-70219472D01*
X223470745Y-70235368D01*
X223470750Y-70235369D01*
X223649996Y-70255565D01*
X223650000Y-70255565D01*
X223650004Y-70255565D01*
X223829249Y-70235369D01*
X223829252Y-70235368D01*
X223829255Y-70235368D01*
X223999522Y-70175789D01*
X224152262Y-70079816D01*
X224279816Y-69952262D01*
X224375789Y-69799522D01*
X224435368Y-69629255D01*
X224441960Y-69570750D01*
X224455565Y-69450003D01*
X224455565Y-69449996D01*
X224435369Y-69270750D01*
X224435368Y-69270745D01*
X224430056Y-69255565D01*
X224375789Y-69100478D01*
X224368427Y-69088762D01*
X224342645Y-69047730D01*
X224279816Y-68947738D01*
X224279814Y-68947736D01*
X224279813Y-68947734D01*
X224277550Y-68944896D01*
X224276659Y-68942715D01*
X224276111Y-68941842D01*
X224276264Y-68941745D01*
X224251144Y-68880209D01*
X224250500Y-68867587D01*
X224250500Y-62039060D01*
X224250501Y-62039047D01*
X224250501Y-61870944D01*
X224250501Y-61870943D01*
X224209577Y-61718216D01*
X224158216Y-61629255D01*
X224130524Y-61581290D01*
X224130518Y-61581282D01*
X223518717Y-60969481D01*
X223518709Y-60969475D01*
X223416936Y-60910717D01*
X223416934Y-60910716D01*
X223381790Y-60890425D01*
X223381789Y-60890424D01*
X223369263Y-60887067D01*
X223229057Y-60849499D01*
X223070943Y-60849499D01*
X223063347Y-60849499D01*
X223063331Y-60849500D01*
X222825686Y-60849500D01*
X222758647Y-60829815D01*
X222712892Y-60777011D01*
X222702948Y-60707853D01*
X222707912Y-60689751D01*
X222707473Y-60689634D01*
X222709575Y-60681785D01*
X222709577Y-60681784D01*
X222750501Y-60529057D01*
X222750501Y-60370942D01*
X222750501Y-60363347D01*
X222750500Y-60363329D01*
X222750500Y-59032412D01*
X222770185Y-58965373D01*
X222777555Y-58955097D01*
X222779810Y-58952267D01*
X222779816Y-58952262D01*
X222875789Y-58799522D01*
X222935368Y-58629255D01*
X222955565Y-58450000D01*
X222935368Y-58270745D01*
X222875789Y-58100478D01*
X222779816Y-57947738D01*
X222743759Y-57911681D01*
X222710274Y-57850358D01*
X222715258Y-57780666D01*
X222757130Y-57724733D01*
X222822594Y-57700316D01*
X222831440Y-57700000D01*
X226625500Y-57700000D01*
X226692539Y-57719685D01*
G37*
%TD.AperFunction*%
%TA.AperFunction,Conductor*%
G36*
X201705703Y-73203913D02*
G01*
X201712181Y-73209945D01*
X207363126Y-78860890D01*
X207396611Y-78922213D01*
X207398665Y-78962454D01*
X207394435Y-78999997D01*
X207394435Y-79000003D01*
X207414630Y-79179249D01*
X207414633Y-79179262D01*
X207433978Y-79234545D01*
X207437540Y-79304324D01*
X207402812Y-79364951D01*
X207340818Y-79397179D01*
X207316937Y-79399500D01*
X205000097Y-79399500D01*
X204933058Y-79379815D01*
X204912416Y-79363181D01*
X203786819Y-78237584D01*
X203753334Y-78176261D01*
X203750500Y-78149903D01*
X203750500Y-76370944D01*
X203750500Y-76370943D01*
X203744754Y-76349500D01*
X203722974Y-76268216D01*
X203722974Y-76268214D01*
X203709578Y-76218218D01*
X203709576Y-76218213D01*
X203630524Y-76081290D01*
X203630521Y-76081286D01*
X203630520Y-76081284D01*
X203518716Y-75969480D01*
X203518715Y-75969479D01*
X203514385Y-75965149D01*
X203514374Y-75965139D01*
X202480700Y-74931465D01*
X202447215Y-74870142D01*
X202445163Y-74857686D01*
X202435368Y-74770745D01*
X202375789Y-74600478D01*
X202279816Y-74447738D01*
X202152262Y-74320184D01*
X202138730Y-74311681D01*
X201999523Y-74224211D01*
X201829254Y-74164631D01*
X201829249Y-74164630D01*
X201650004Y-74144435D01*
X201650001Y-74144435D01*
X201650000Y-74144435D01*
X201645975Y-74144888D01*
X201638380Y-74145744D01*
X201569558Y-74133687D01*
X201518180Y-74086336D01*
X201500500Y-74022523D01*
X201500500Y-73297626D01*
X201520185Y-73230587D01*
X201572989Y-73184832D01*
X201642147Y-73174888D01*
X201705703Y-73203913D01*
G37*
%TD.AperFunction*%
%TA.AperFunction,Conductor*%
G36*
X208158462Y-74046633D02*
G01*
X208203135Y-74100355D01*
X208212538Y-74135679D01*
X208214631Y-74154251D01*
X208214631Y-74154254D01*
X208274211Y-74324523D01*
X208337423Y-74425124D01*
X208370184Y-74477262D01*
X208497738Y-74604816D01*
X208650478Y-74700789D01*
X208820745Y-74760368D01*
X208846277Y-74763244D01*
X208910690Y-74790310D01*
X208937388Y-74820493D01*
X209020182Y-74952259D01*
X209022441Y-74955091D01*
X209023330Y-74957268D01*
X209023889Y-74958158D01*
X209023733Y-74958255D01*
X209048854Y-75019776D01*
X209049219Y-75026929D01*
X209049498Y-75029054D01*
X209090424Y-75181789D01*
X209090425Y-75181790D01*
X209111455Y-75218214D01*
X209111456Y-75218216D01*
X209169475Y-75318709D01*
X209169481Y-75318717D01*
X209213083Y-75362319D01*
X209246568Y-75423642D01*
X209241584Y-75493334D01*
X209213083Y-75537681D01*
X209169481Y-75581282D01*
X209169479Y-75581285D01*
X209119361Y-75668094D01*
X209119359Y-75668096D01*
X209090425Y-75718209D01*
X209090424Y-75718210D01*
X209081901Y-75750019D01*
X209049499Y-75870943D01*
X209049499Y-75870945D01*
X209049499Y-76039046D01*
X209049500Y-76039059D01*
X209049500Y-77367587D01*
X209029815Y-77434626D01*
X209022450Y-77444896D01*
X209020186Y-77447734D01*
X209004994Y-77471913D01*
X208952659Y-77518204D01*
X208883605Y-77528852D01*
X208819757Y-77500477D01*
X208795006Y-77471913D01*
X208779813Y-77447734D01*
X208777550Y-77444896D01*
X208776659Y-77442715D01*
X208776111Y-77441842D01*
X208776264Y-77441745D01*
X208751144Y-77380209D01*
X208750500Y-77367587D01*
X208750500Y-76870945D01*
X208750500Y-76870943D01*
X208709577Y-76718216D01*
X208709577Y-76718215D01*
X208709577Y-76718214D01*
X208680639Y-76668095D01*
X208680637Y-76668092D01*
X208652861Y-76619981D01*
X208630520Y-76581284D01*
X208518716Y-76469480D01*
X208518715Y-76469479D01*
X208514385Y-76465149D01*
X208514374Y-76465139D01*
X206980700Y-74931465D01*
X206947215Y-74870142D01*
X206945163Y-74857686D01*
X206935368Y-74770745D01*
X206907668Y-74691585D01*
X206904108Y-74621808D01*
X206938837Y-74561181D01*
X207000830Y-74528953D01*
X207065672Y-74533592D01*
X207070745Y-74535368D01*
X207070748Y-74535368D01*
X207070750Y-74535369D01*
X207249996Y-74555565D01*
X207250000Y-74555565D01*
X207250004Y-74555565D01*
X207429249Y-74535369D01*
X207429252Y-74535368D01*
X207429255Y-74535368D01*
X207599522Y-74475789D01*
X207752262Y-74379816D01*
X207879816Y-74252262D01*
X207975789Y-74099522D01*
X207975791Y-74099514D01*
X207977593Y-74095775D01*
X207979404Y-74093767D01*
X207979494Y-74093626D01*
X207979518Y-74093641D01*
X208024410Y-74043911D01*
X208091836Y-74025592D01*
X208158462Y-74046633D01*
G37*
%TD.AperFunction*%
%TD*%
M02*
